<svg width="50" height="36" viewBox="0 0 50 36" fill="none" xmlns="http://www.w3.org/2000/svg">
<path d="M3.8334 32.408L3.15632 33.144L3.16171 33.1488L3.8334 32.408ZM3.8334 4.136L4.51573 4.86707L4.52087 4.86221L3.8334 4.136ZM22.9374 4.136L22.245 4.85765L22.2551 4.86706L22.9374 4.136ZM22.9374 32.408L23.614 33.1443L23.6145 33.1439L22.9374 32.408ZM18.6654 28.232L17.9139 27.5721L17.9048 27.5827L18.6654 28.232ZM18.4734 8.12L17.7574 8.8181L17.7662 8.82716L17.7753 8.836L18.4734 8.12ZM8.2014 8.168L7.47678 7.47873L7.46797 7.48824L8.2014 8.168ZM8.1054 28.328L7.3621 28.997L7.37089 29.0067L7.37993 29.0163L8.1054 28.328ZM13.3854 34.672C9.60721 34.672 6.68196 33.6409 4.50509 31.6672L3.16171 33.1488C5.78483 35.5271 9.22759 36.672 13.3854 36.672V34.672ZM4.51045 31.6721C2.38295 29.7148 1.2334 26.698 1.2334 22.424H-0.766603C-0.766603 27.046 0.483844 30.6852 3.15634 33.1439L4.51045 31.6721ZM1.2334 22.424V13.976H-0.766603V22.424H1.2334ZM1.2334 13.976C1.2334 9.8413 2.37695 6.86323 4.51572 4.86706L3.15108 3.40494C0.489842 5.88877 -0.766603 9.4707 -0.766603 13.976H1.2334ZM4.52087 4.86221C6.69906 2.80019 9.61868 1.728 13.3854 1.728V-0.272002C9.21612 -0.272002 5.76774 0.927804 3.14592 3.40979L4.52087 4.86221ZM13.3854 1.728C17.1871 1.728 20.1024 2.80173 22.2451 4.85758L23.6297 3.41442C21.0364 0.926262 17.5837 -0.272002 13.3854 -0.272002V1.728ZM22.2551 4.86706C24.3938 6.86323 25.5374 9.8413 25.5374 13.976H27.5374C27.5374 9.4707 26.281 5.88877 23.6197 3.40494L22.2551 4.86706ZM25.5374 13.976V22.424H27.5374V13.976H25.5374ZM25.5374 22.424C25.5374 26.698 24.3878 29.7148 22.2603 31.6721L23.6145 33.1439C26.287 30.6852 27.5374 27.046 27.5374 22.424H25.5374ZM22.2608 31.6717C20.1195 33.6394 17.1986 34.672 13.3854 34.672V36.672C17.5722 36.672 21.0193 35.5286 23.614 33.1443L22.2608 31.6717ZM13.3854 31.2C15.9585 31.2 18.0501 30.493 19.426 28.8813L17.9048 27.5827C17.0407 28.595 15.6123 29.2 13.3854 29.2V31.2ZM19.4168 28.8918C20.7823 27.3367 21.3934 25.1956 21.3934 22.616H19.3934C19.3934 24.9004 18.8525 26.5033 17.914 27.5722L19.4168 28.8918ZM21.3934 22.616V13.688H19.3934V22.616H21.3934ZM21.3934 13.688C21.3934 11.0589 20.7084 8.90244 19.1715 7.404L17.7753 8.836C18.7984 9.83356 19.3934 11.3891 19.3934 13.688H21.3934ZM19.1894 7.4219C17.7164 5.91109 15.7413 5.2 13.3854 5.2V7.2C15.3175 7.2 16.7344 7.7689 17.7574 8.8181L19.1894 7.4219ZM13.3854 5.2C10.968 5.2 8.95387 5.92601 7.47684 7.47878L8.92595 8.85721C9.94492 7.78599 11.3868 7.2 13.3854 7.2V5.2ZM7.46797 7.48824C6.03119 9.03844 5.3774 11.1515 5.3774 13.688H7.3774C7.3774 11.4885 7.9396 9.92156 8.93483 8.84776L7.46797 7.48824ZM5.3774 13.688V22.616H7.3774V13.688H5.3774ZM5.3774 22.616C5.3774 25.2776 5.98207 27.4636 7.3621 28.997L8.84869 27.659C7.92472 26.6324 7.3774 25.0104 7.3774 22.616H5.3774ZM7.37993 29.0163C8.81284 30.5266 10.8767 31.2 13.3854 31.2V29.2C11.2221 29.2 9.76596 28.6254 8.83086 27.6397L7.37993 29.0163ZM43.7424 35H42.7424V36H43.7424V35ZM43.7424 5.912H44.7424V4.912H43.7424V5.912ZM42.8784 5.912V4.912H42.2159L41.9575 5.52209L42.8784 5.912ZM38.3664 16.568V17.568H39.0289L39.2873 16.9579L38.3664 16.568ZM31.9344 16.568L31.0233 16.1557L30.3842 17.568H31.9344V16.568ZM38.7984 1.4V0.399998H38.1533L37.8873 0.987716L38.7984 1.4ZM49.8864 1.4H50.8864V0.399998H49.8864V1.4ZM49.8864 35V36H50.8864V35H49.8864ZM44.7424 35V5.912H42.7424V35H44.7424ZM43.7424 4.912H42.8784V6.912H43.7424V4.912ZM41.9575 5.52209L37.4455 16.1781L39.2873 16.9579L43.7993 6.30191L41.9575 5.52209ZM38.3664 15.568H31.9344V17.568H38.3664V15.568ZM32.8455 16.9803L39.7095 1.81228L37.8873 0.987716L31.0233 16.1557L32.8455 16.9803ZM38.7984 2.4H49.8864V0.399998H38.7984V2.4ZM48.8864 1.4V35H50.8864V1.4H48.8864ZM49.8864 34H43.7424V36H49.8864V34Z" fill="url(#paint0_linear_515_5311)"/>
<defs>
<linearGradient id="paint0_linear_515_5311" x1="25.0615" y1="-12" x2="25.0615" y2="49" gradientUnits="userSpaceOnUse">
<stop stop-color="#FAFAFA"/>
<stop offset="1" stop-color="#FAFAFA" stop-opacity="0"/>
</linearGradient>
</defs>
</svg>
