<svg width="59" height="36" viewBox="0 0 59 36" fill="none" xmlns="http://www.w3.org/2000/svg">
<path d="M4.58633 32.408L3.90925 33.144L3.91464 33.1488L4.58633 32.408ZM4.58633 4.136L5.26866 4.86707L5.2738 4.86221L4.58633 4.136ZM23.6903 4.136L22.9979 4.85765L23.008 4.86706L23.6903 4.136ZM23.6903 32.408L24.367 33.1443L24.3674 33.1439L23.6903 32.408ZM19.4183 28.232L18.6668 27.5721L18.6578 27.5827L19.4183 28.232ZM19.2263 8.12L18.5103 8.8181L18.5192 8.82716L18.5282 8.836L19.2263 8.12ZM8.95433 8.168L8.22971 7.47873L8.2209 7.48824L8.95433 8.168ZM8.85833 28.328L8.11503 28.997L8.12382 29.0067L8.13286 29.0163L8.85833 28.328ZM14.1383 34.672C10.3601 34.672 7.43489 33.6409 5.25802 31.6672L3.91464 33.1488C6.53776 35.5271 9.98052 36.672 14.1383 36.672V34.672ZM5.26338 31.6721C3.13588 29.7148 1.98633 26.698 1.98633 22.424H-0.0136733C-0.0136733 27.046 1.23677 30.6852 3.90927 33.1439L5.26338 31.6721ZM1.98633 22.424V13.976H-0.0136733V22.424H1.98633ZM1.98633 13.976C1.98633 9.8413 3.12988 6.86323 5.26864 4.86706L3.90401 3.40494C1.24277 5.88877 -0.0136733 9.4707 -0.0136733 13.976H1.98633ZM5.2738 4.86221C7.45199 2.80019 10.3716 1.728 14.1383 1.728V-0.272002C9.96905 -0.272002 6.52067 0.927804 3.89885 3.40979L5.2738 4.86221ZM14.1383 1.728C17.94 1.728 20.8553 2.80173 22.998 4.85758L24.3827 3.41442C21.7894 0.926262 18.3366 -0.272002 14.1383 -0.272002V1.728ZM23.008 4.86706C25.1468 6.86323 26.2903 9.8413 26.2903 13.976H28.2903C28.2903 9.4707 27.0339 5.88877 24.3726 3.40494L23.008 4.86706ZM26.2903 13.976V22.424H28.2903V13.976H26.2903ZM26.2903 22.424C26.2903 26.698 25.1408 29.7148 23.0133 31.6721L24.3674 33.1439C27.0399 30.6852 28.2903 27.046 28.2903 22.424H26.2903ZM23.0137 31.6717C20.8724 33.6394 17.9515 34.672 14.1383 34.672V36.672C18.3251 36.672 21.7723 35.5286 24.367 33.1443L23.0137 31.6717ZM14.1383 31.2C16.7115 31.2 18.803 30.493 20.1789 28.8813L18.6578 27.5827C17.7936 28.595 16.3652 29.2 14.1383 29.2V31.2ZM20.1698 28.8918C21.5353 27.3367 22.1463 25.1956 22.1463 22.616H20.1463C20.1463 24.9004 19.6054 26.5033 18.6669 27.5722L20.1698 28.8918ZM22.1463 22.616V13.688H20.1463V22.616H22.1463ZM22.1463 13.688C22.1463 11.0589 21.4613 8.90244 19.9244 7.404L18.5282 8.836C19.5514 9.83356 20.1463 11.3891 20.1463 13.688H22.1463ZM19.9423 7.4219C18.4693 5.91109 16.4942 5.2 14.1383 5.2V7.2C16.0705 7.2 17.4874 7.7689 18.5103 8.8181L19.9423 7.4219ZM14.1383 5.2C11.7209 5.2 9.7068 5.92601 8.22977 7.47878L9.67888 8.85721C10.6979 7.78599 12.1397 7.2 14.1383 7.2V5.2ZM8.2209 7.48824C6.78412 9.03844 6.13033 11.1515 6.13033 13.688H8.13033C8.13033 11.4885 8.69253 9.92156 9.68776 8.84776L8.2209 7.48824ZM6.13033 13.688V22.616H8.13033V13.688H6.13033ZM6.13033 22.616C6.13033 25.2776 6.735 27.4636 8.11503 28.997L9.60162 27.659C8.67765 26.6324 8.13033 25.0104 8.13033 22.616H6.13033ZM8.13286 29.0163C9.56577 30.5266 11.6296 31.2 14.1383 31.2V29.2C11.9751 29.2 10.5189 28.6254 9.58379 27.6397L8.13286 29.0163ZM34.1273 35H33.1273V36H34.1273V35ZM35.2793 25.16L36.1738 25.6072L36.1774 25.5999L35.2793 25.16ZM38.5913 21.32L39.1586 22.1435L39.1624 22.1409L38.5913 21.32ZM43.9673 18.824L44.2574 19.7811L44.2664 19.7782L43.9673 18.824ZM47.1833 17.816L47.4824 18.7703L47.4918 18.7672L47.1833 17.816ZM50.1593 16.424L50.7216 17.2509L50.7327 17.2434L50.7436 17.2355L50.1593 16.424ZM51.9833 14.36L51.1108 13.8714L51.1033 13.8849L51.0961 13.8986L51.9833 14.36ZM51.0233 7.64L50.3617 8.38984L50.368 8.39539L50.3744 8.40083L51.0233 7.64ZM42.0473 7.736L42.7104 8.48459L42.7117 8.48341L42.0473 7.736ZM40.3673 12.92V13.92H41.3673V12.92H40.3673ZM34.2233 12.92H33.2233V13.92H34.2233V12.92ZM35.8553 5.96L36.697 6.49995L35.8553 5.96ZM40.2713 2.072L39.8426 1.16855L39.8366 1.17145L40.2713 2.072ZM52.7993 2.072L52.3645 2.97264L52.3773 2.97858L52.7993 2.072ZM57.1673 5.768L56.3327 6.31884L56.3391 6.32854L56.3457 6.33808L57.1673 5.768ZM57.4553 17.288L56.5962 16.7762L56.5929 16.7818L57.4553 17.288ZM53.9033 20.936L54.4284 21.787L54.4349 21.783L54.4414 21.7789L53.9033 20.936ZM48.7673 23.24L49.0656 24.1945L49.0692 24.1933L48.7673 23.24ZM45.6953 24.2L45.9847 25.1573L45.9936 25.1545L45.6953 24.2ZM42.4793 25.592L43.0093 26.44L43.0218 26.4322L43.034 26.424L42.4793 25.592ZM40.8473 27.224L39.9624 26.7583L39.9576 26.7675L39.9529 26.7768L40.8473 27.224ZM40.4153 29.528H39.4153V30.528H40.4153V29.528ZM58.5113 29.528H59.5113V28.528H58.5113V29.528ZM58.5113 35V36H59.5113V35H58.5113ZM35.1273 35V30.968H33.1273V35H35.1273ZM35.1273 30.968C35.1273 28.7341 35.4956 26.9636 36.1738 25.6072L34.3849 24.7128C33.5271 26.4284 33.1273 28.5299 33.1273 30.968H35.1273ZM36.1774 25.5999C36.8698 24.1863 37.8598 23.0383 39.1586 22.1435L38.024 20.4965C36.4429 21.5857 35.2249 22.9977 34.3813 24.7201L36.1774 25.5999ZM39.1624 22.1409C40.5312 21.1887 42.2234 20.3974 44.2573 19.781L43.6773 17.867C41.4873 18.5306 39.5954 19.4033 38.0203 20.4991L39.1624 22.1409ZM44.2664 19.7782L47.4824 18.7702L46.8842 16.8618L43.6682 17.8698L44.2664 19.7782ZM47.4918 18.7672C48.7415 18.3619 49.8247 17.8609 50.7216 17.2509L49.597 15.5971C48.894 16.0751 47.9931 16.5021 46.8748 16.8648L47.4918 18.7672ZM50.7436 17.2355C51.6586 16.5768 52.3758 15.7728 52.8705 14.8214L51.0961 13.8986C50.7589 14.5472 50.2601 15.1192 49.575 15.6125L50.7436 17.2355ZM52.8558 14.8486C53.3969 13.8825 53.6553 12.7987 53.6553 11.624H51.6553C51.6553 12.4973 51.4658 13.2375 51.1108 13.8714L52.8558 14.8486ZM53.6553 11.624V11.432H51.6553V11.624H53.6553ZM53.6553 11.432C53.6553 9.57829 53.0111 8.02113 51.6723 6.87916L50.3744 8.40083C51.2115 9.11487 51.6553 10.0857 51.6553 11.432H53.6553ZM51.685 6.89016C50.3649 5.72539 48.6159 5.2 46.5593 5.2V7.2C48.2787 7.2 49.5058 7.63461 50.3617 8.38984L51.685 6.89016ZM46.5593 5.2C44.5109 5.2 42.7538 5.77007 41.383 6.98859L42.7117 8.48341C43.6449 7.65393 44.8957 7.2 46.5593 7.2V5.2ZM41.3843 6.98741C39.9963 8.21675 39.3673 9.96225 39.3673 12.056H41.3673C41.3673 10.3737 41.8583 9.23925 42.7104 8.48459L41.3843 6.98741ZM39.3673 12.056V12.92H41.3673V12.056H39.3673ZM40.3673 11.92H34.2233V13.92H40.3673V11.92ZM35.2233 12.92V12.152H33.2233V12.92H35.2233ZM35.2233 12.152C35.2233 9.87145 35.732 8.0042 36.697 6.49995L35.0136 5.42004C33.8026 7.3078 33.2233 9.56855 33.2233 12.152H35.2233ZM36.697 6.49995C37.6829 4.96313 39.0124 3.79017 40.7061 2.97255L39.8366 1.17145C37.8182 2.14582 36.2037 3.56487 35.0136 5.42004L36.697 6.49995ZM40.7001 2.97542C42.4409 2.14929 44.3883 1.728 46.5593 1.728V-0.272002C44.1224 -0.272002 41.8778 0.202709 39.8426 1.16857L40.7001 2.97542ZM46.5593 1.728C48.7307 1.728 50.6594 2.14937 52.3646 2.97255L53.2341 1.17145C51.2272 0.20263 48.996 -0.272002 46.5593 -0.272002V1.728ZM52.3773 2.97858C54.0774 3.76999 55.3857 4.88389 56.3327 6.31884L58.0019 5.21716C56.837 3.4521 55.2333 2.102 53.2214 1.16542L52.3773 2.97858ZM56.3457 6.33808C57.3035 7.7184 57.7993 9.36962 57.7993 11.336H59.7993C59.7993 9.01438 59.2071 6.9536 57.9889 5.19792L56.3457 6.33808ZM57.7993 11.336V11.816H59.7993V11.336H57.7993ZM57.7993 11.816C57.7993 13.8202 57.3813 15.4583 56.5962 16.7762L58.3144 17.7998C59.3213 16.1097 59.7993 14.0998 59.7993 11.816H57.7993ZM56.5929 16.7818C55.8126 18.1113 54.7423 19.2141 53.3653 20.0931L54.4414 21.7789C56.0723 20.7379 57.3701 19.4087 58.3177 17.7942L56.5929 16.7818ZM53.3782 20.085C51.9531 20.9643 50.3178 21.7001 48.4654 22.2867L49.0692 24.1933C51.0569 23.5639 52.8456 22.7637 54.4284 21.787L53.3782 20.085ZM48.4691 22.2855L45.3971 23.2455L45.9936 25.1545L49.0656 24.1945L48.4691 22.2855ZM45.4059 23.2428C43.982 23.6733 42.8067 24.1719 41.9246 24.7599L43.034 26.424C43.6879 25.9881 44.6566 25.5587 45.9847 25.1572L45.4059 23.2428ZM41.9493 24.744C41.0777 25.2888 40.387 25.9515 39.9624 26.7583L41.7322 27.6897C41.9476 27.2805 42.345 26.8552 43.0093 26.44L41.9493 24.744ZM39.9529 26.7768C39.5782 27.5261 39.4153 28.3926 39.4153 29.336H41.4153C41.4153 28.6154 41.5404 28.0739 41.7418 27.6712L39.9529 26.7768ZM39.4153 29.336V29.528H41.4153V29.336H39.4153ZM40.4153 30.528H58.5113V28.528H40.4153V30.528ZM57.5113 29.528V35H59.5113V29.528H57.5113ZM58.5113 34H34.1273V36H58.5113V34Z" fill="url(#paint0_linear_515_5320)"/>
<defs>
<linearGradient id="paint0_linear_515_5320" x1="29.1113" y1="-12" x2="29.1113" y2="49" gradientUnits="userSpaceOnUse">
<stop stop-color="#FAFAFA"/>
<stop offset="1" stop-color="#FAFAFA" stop-opacity="0"/>
</linearGradient>
</defs>
</svg>
