<svg width="60" height="36" viewBox="0 0 60 36" fill="none" xmlns="http://www.w3.org/2000/svg">
<path d="M4.5292 32.408L3.85212 33.144L3.85751 33.1488L4.5292 32.408ZM4.5292 4.136L5.21153 4.86707L5.21667 4.86221L4.5292 4.136ZM23.6332 4.136L22.9408 4.85765L22.9509 4.86706L23.6332 4.136ZM23.6332 32.408L24.3098 33.1443L24.3103 33.1439L23.6332 32.408ZM19.3612 28.232L18.6097 27.5721L18.6006 27.5827L19.3612 28.232ZM19.1692 8.12L18.4532 8.8181L18.462 8.82716L18.4711 8.836L19.1692 8.12ZM8.8972 8.168L8.17258 7.47873L8.16377 7.48824L8.8972 8.168ZM8.8012 28.328L8.0579 28.997L8.06669 29.0067L8.07574 29.0163L8.8012 28.328ZM14.0812 34.672C10.303 34.672 7.37776 33.6409 5.20089 31.6672L3.85751 33.1488C6.48063 35.5271 9.92339 36.672 14.0812 36.672V34.672ZM5.20625 31.6721C3.07875 29.7148 1.9292 26.698 1.9292 22.424H-0.0708022C-0.0708022 27.046 1.17965 30.6852 3.85214 33.1439L5.20625 31.6721ZM1.9292 22.424V13.976H-0.0708022V22.424H1.9292ZM1.9292 13.976C1.9292 9.8413 3.07275 6.86323 5.21152 4.86706L3.84688 3.40494C1.18564 5.88877 -0.0708022 9.4707 -0.0708022 13.976H1.9292ZM5.21667 4.86221C7.39486 2.80019 10.3145 1.728 14.0812 1.728V-0.272002C9.91192 -0.272002 6.46354 0.927804 3.84172 3.40979L5.21667 4.86221ZM14.0812 1.728C17.8829 1.728 20.7982 2.80173 22.9409 4.85758L24.3255 3.41442C21.7322 0.926262 18.2795 -0.272002 14.0812 -0.272002V1.728ZM22.9509 4.86706C25.0896 6.86323 26.2332 9.8413 26.2332 13.976H28.2332C28.2332 9.4707 26.9768 5.88877 24.3155 3.40494L22.9509 4.86706ZM26.2332 13.976V22.424H28.2332V13.976H26.2332ZM26.2332 22.424C26.2332 26.698 25.0836 29.7148 22.9561 31.6721L24.3103 33.1439C26.9828 30.6852 28.2332 27.046 28.2332 22.424H26.2332ZM22.9566 31.6717C20.8153 33.6394 17.8944 34.672 14.0812 34.672V36.672C18.268 36.672 21.7151 35.5286 24.3098 33.1443L22.9566 31.6717ZM14.0812 31.2C16.6543 31.2 18.7459 30.493 20.1218 28.8813L18.6006 27.5827C17.7365 28.595 16.3081 29.2 14.0812 29.2V31.2ZM20.1126 28.8918C21.4781 27.3367 22.0892 25.1956 22.0892 22.616H20.0892C20.0892 24.9004 19.5483 26.5033 18.6098 27.5722L20.1126 28.8918ZM22.0892 22.616V13.688H20.0892V22.616H22.0892ZM22.0892 13.688C22.0892 11.0589 21.4042 8.90244 19.8673 7.404L18.4711 8.836C19.4942 9.83356 20.0892 11.3891 20.0892 13.688H22.0892ZM19.8852 7.4219C18.4122 5.91109 16.4371 5.2 14.0812 5.2V7.2C16.0133 7.2 17.4302 7.7689 18.4532 8.8181L19.8852 7.4219ZM14.0812 5.2C11.6638 5.2 9.64967 5.92601 8.17264 7.47878L9.62176 8.85721C10.6407 7.78599 12.0826 7.2 14.0812 7.2V5.2ZM8.16377 7.48824C6.72699 9.03844 6.0732 11.1515 6.0732 13.688H8.0732C8.0732 11.4885 8.6354 9.92156 9.63063 8.84776L8.16377 7.48824ZM6.0732 13.688V22.616H8.0732V13.688H6.0732ZM6.0732 22.616C6.0732 25.2776 6.67787 27.4636 8.0579 28.997L9.54449 27.659C8.62053 26.6324 8.0732 25.0104 8.0732 22.616H6.0732ZM8.07574 29.0163C9.50864 30.5266 11.5725 31.2 14.0812 31.2V29.2C11.9179 29.2 10.4618 28.6254 9.52666 27.6397L8.07574 29.0163ZM39.9262 34.328L39.509 35.2368L39.9262 34.328ZM35.3182 30.488L34.4765 31.028L34.4825 31.0372L34.4886 31.0464L35.3182 30.488ZM33.6862 23.624V22.624H32.6862V23.624H33.6862ZM39.8302 23.624H40.8302V22.624H39.8302V23.624ZM41.7022 28.616L41.0451 29.3698L41.0506 29.3746L41.0563 29.3794L41.7022 28.616ZM51.4462 28.712L50.7936 27.9542L50.7832 27.9634L51.4462 28.712ZM52.4062 21.992L53.1871 21.3673L52.4062 21.992ZM50.3422 20.6L49.9949 21.5378L50.0103 21.5435L50.026 21.5487L50.3422 20.6ZM40.6942 20.12H39.6942V21.12H40.6942V20.12ZM40.6942 13.4L40.2252 12.5168L39.6942 12.7987V13.4H40.6942ZM51.5422 7.64L52.0112 8.52321L52.5422 8.24125V7.64H51.5422ZM51.5422 6.872H52.5422V5.872H51.5422V6.872ZM34.5502 6.872H33.5502V7.872H34.5502V6.872ZM34.5502 1.4V0.399998H33.5502V1.4H34.5502ZM58.3582 1.4H59.3582V0.399998H58.3582V1.4ZM58.3582 9.56L58.827 10.4433L59.3582 10.1613V9.56H58.3582ZM48.2302 14.936L47.7614 14.0527L47.2302 14.3347V14.936H48.2302ZM48.2302 15.704H47.2302V16.704H48.2302V15.704ZM54.3742 16.616L53.9778 17.5341L53.9852 17.5372L54.3742 16.616ZM57.9262 19.448L57.1165 20.035L57.1237 20.0447L57.9262 19.448ZM57.7342 30.632L58.5688 31.1829L58.5738 31.1753L57.7342 30.632ZM53.2702 34.376L53.6863 35.2853L53.6931 35.2822L53.2702 34.376ZM46.6462 34.672C44.237 34.672 42.1434 34.2454 40.3434 33.4192L39.509 35.2368C41.613 36.2026 43.9994 36.672 46.6462 36.672V34.672ZM40.3434 33.4192C38.5461 32.5942 37.1578 31.4303 36.1478 29.9296L34.4886 31.0464C35.7186 32.8737 37.4023 34.2698 39.509 35.2368L40.3434 33.4192ZM36.1599 29.948C35.1895 28.4353 34.6862 26.6287 34.6862 24.488H32.6862C32.6862 26.9553 33.2709 29.1487 34.4765 31.028L36.1599 29.948ZM34.6862 24.488V23.624H32.6862V24.488H34.6862ZM33.6862 24.624H39.8302V22.624H33.6862V24.624ZM38.8302 23.624V24.296H40.8302V23.624H38.8302ZM38.8302 24.296C38.8302 26.3501 39.5598 28.0749 41.0451 29.3698L42.3593 27.8622C41.3486 26.9811 40.8302 25.8259 40.8302 24.296H38.8302ZM41.0563 29.3794C42.5268 30.6237 44.4233 31.2 46.6462 31.2V29.2C44.7731 29.2 43.3736 28.7203 42.3481 27.8526L41.0563 29.3794ZM46.6462 31.2C48.8752 31.2 50.7458 30.6682 52.1092 29.4606L50.7832 27.9634C49.9066 28.7398 48.5772 29.2 46.6462 29.2V31.2ZM52.0987 29.4698C53.4686 28.2902 54.1742 26.7667 54.1742 24.968H52.1742C52.1742 26.1773 51.7278 27.1498 50.7937 27.9542L52.0987 29.4698ZM54.1742 24.968V24.488H52.1742V24.968H54.1742ZM54.1742 24.488C54.1742 23.2949 53.8733 22.2251 53.1871 21.3673L51.6253 22.6167C51.9631 23.0389 52.1742 23.6331 52.1742 24.488H54.1742ZM53.1871 21.3673C52.5415 20.5603 51.6842 19.9933 50.6584 19.6513L50.026 21.5487C50.7282 21.7827 51.2469 22.1437 51.6253 22.6167L53.1871 21.3673ZM50.6895 19.6623C49.6963 19.2944 48.5998 19.12 47.4142 19.12V21.12C48.4046 21.12 49.2601 21.2656 49.9949 21.5378L50.6895 19.6623ZM47.4142 19.12H40.6942V21.12H47.4142V19.12ZM41.6942 20.12V13.4H39.6942V20.12H41.6942ZM41.1632 14.2832L52.0112 8.52321L51.0732 6.75678L40.2252 12.5168L41.1632 14.2832ZM52.5422 7.64V6.872H50.5422V7.64H52.5422ZM51.5422 5.872H34.5502V7.872H51.5422V5.872ZM35.5502 6.872V1.4H33.5502V6.872H35.5502ZM34.5502 2.4H58.3582V0.399998H34.5502V2.4ZM57.3582 1.4V9.56H59.3582V1.4H57.3582ZM57.8894 8.67672L47.7614 14.0527L48.699 15.8193L58.827 10.4433L57.8894 8.67672ZM47.2302 14.936V15.704H49.2302V14.936H47.2302ZM48.2302 16.704H50.0062V14.704H48.2302V16.704ZM50.0062 16.704C51.3711 16.704 52.6924 16.979 53.9778 17.5341L54.7706 15.6979C53.24 15.037 51.6493 14.704 50.0062 14.704V16.704ZM53.9852 17.5372C55.2551 18.0734 56.2944 18.9009 57.1166 20.035L58.7358 18.861C57.702 17.4351 56.3733 16.3746 54.7632 15.6947L53.9852 17.5372ZM57.1237 20.0447C57.89 21.0752 58.3182 22.4792 58.3182 24.344H60.3182C60.3182 22.1768 59.8184 20.3168 58.7287 18.8513L57.1237 20.0447ZM58.3182 24.344V24.92H60.3182V24.344H58.3182ZM58.3182 24.92C58.3182 26.927 57.8337 28.6375 56.8946 30.0887L58.5738 31.1753C59.7467 29.3625 60.3182 27.265 60.3182 24.92H58.3182ZM56.8996 30.0812C55.9559 31.511 54.6181 32.6435 52.8473 33.4698L53.6931 35.2822C55.7623 34.3165 57.4005 32.953 58.5688 31.1828L56.8996 30.0812ZM52.8541 33.4667C51.1219 34.2594 49.0612 34.672 46.6462 34.672V36.672C49.2872 36.672 51.6425 36.2206 53.6863 35.2853L52.8541 33.4667Z" fill="url(#paint0_linear_515_5314)"/>
<defs>
<linearGradient id="paint0_linear_515_5314" x1="29.7573" y1="-12" x2="29.7573" y2="49" gradientUnits="userSpaceOnUse">
<stop stop-color="#FAFAFA"/>
<stop offset="1" stop-color="#FAFAFA" stop-opacity="0"/>
</linearGradient>
</defs>
</svg>
