<svg width="62" height="36" viewBox="0 0 62 36" fill="none" xmlns="http://www.w3.org/2000/svg">
<path d="M4.01406 31.7561L3.33699 32.4921L3.34237 32.497L4.01406 31.7561ZM4.01406 3.48414L4.6964 4.21522L4.70154 4.21035L4.01406 3.48414ZM23.1181 3.48414L22.4257 4.2058L22.4357 4.2152L23.1181 3.48414ZM23.1181 31.7561L23.7947 32.4925L23.7951 32.4921L23.1181 31.7561ZM18.8461 27.5801L18.0945 26.9203L18.0855 26.9309L18.8461 27.5801ZM18.6541 7.46814L17.9381 8.16624L17.9469 8.17531L17.956 8.18414L18.6541 7.46814ZM8.38206 7.51614L7.65744 6.82687L7.64863 6.83638L8.38206 7.51614ZM8.28606 27.6761L7.54277 28.3451L7.55156 28.3549L7.5606 28.3644L8.28606 27.6761ZM13.5661 34.0201C9.78787 34.0201 6.86263 32.989 4.68575 31.0153L3.34237 32.497C5.9655 34.8753 9.40825 36.0201 13.5661 36.0201V34.0201ZM4.69112 31.0202C2.56361 29.0629 1.41406 26.0462 1.41406 21.7721H-0.585939C-0.585939 26.3941 0.664508 30.0334 3.337 32.4921L4.69112 31.0202ZM1.41406 21.7721V13.3241H-0.585939V21.7721H1.41406ZM1.41406 13.3241C1.41406 9.18944 2.55762 6.21138 4.69638 4.2152L3.33174 2.75309C0.670506 5.23691 -0.585939 8.81885 -0.585939 13.3241H1.41406ZM4.70154 4.21035C6.87972 2.14834 9.79934 1.07614 13.5661 1.07614V-0.923858C9.39678 -0.923858 5.9484 0.275949 3.32658 2.75794L4.70154 4.21035ZM13.5661 1.07614C17.3678 1.07614 20.283 2.14988 22.4257 4.20573L23.8104 2.76256C21.2171 0.274406 17.7643 -0.923858 13.5661 -0.923858V1.07614ZM22.4357 4.2152C24.5745 6.21138 25.7181 9.18944 25.7181 13.3241H27.7181C27.7181 8.81885 26.4616 5.23691 23.8004 2.75309L22.4357 4.2152ZM25.7181 13.3241V21.7721H27.7181V13.3241H25.7181ZM25.7181 21.7721C25.7181 26.0462 24.5685 29.0629 22.441 31.0202L23.7951 32.4921C26.4676 30.0334 27.7181 26.3941 27.7181 21.7721H25.7181ZM22.4414 31.0198C20.3001 32.9875 17.3793 34.0201 13.5661 34.0201V36.0201C17.7529 36.0201 21.2 34.8768 23.7947 32.4925L22.4414 31.0198ZM13.5661 30.5481C16.1392 30.5481 18.2308 29.8411 19.6066 28.2294L18.0855 26.9309C17.2214 27.9432 15.7929 28.5481 13.5661 28.5481V30.5481ZM19.5975 28.2399C20.963 26.6848 21.5741 24.5438 21.5741 21.9641H19.5741C19.5741 24.2485 19.0331 25.8515 18.0946 26.9203L19.5975 28.2399ZM21.5741 21.9641V13.0361H19.5741V21.9641H21.5741ZM21.5741 13.0361C21.5741 10.4071 20.889 8.25058 19.3522 6.75214L17.956 8.18414C18.9791 9.18171 19.5741 10.7372 19.5741 13.0361H21.5741ZM19.3701 6.77004C17.897 5.25924 15.9219 4.54814 13.5661 4.54814V6.54814C15.4982 6.54814 16.9151 7.11705 17.9381 8.16624L19.3701 6.77004ZM13.5661 4.54814C11.1487 4.54814 9.13454 5.27415 7.6575 6.82693L9.10662 8.20536C10.1256 7.13413 11.5675 6.54814 13.5661 6.54814V4.54814ZM7.64863 6.83638C6.21186 8.38658 5.55806 10.4996 5.55806 13.0361H7.55806C7.55806 10.8367 8.12027 9.2697 9.11549 8.19591L7.64863 6.83638ZM5.55806 13.0361V21.9641H7.55806V13.0361H5.55806ZM5.55806 21.9641C5.55806 24.6257 6.16273 26.8117 7.54277 28.3451L9.02936 27.0072C8.10539 25.9805 7.55806 24.3586 7.55806 21.9641H5.55806ZM7.5606 28.3644C8.9935 29.8748 11.0573 30.5481 13.5661 30.5481V28.5481C11.4028 28.5481 9.94662 27.9735 9.01153 26.9879L7.5606 28.3644ZM49.2991 34.3481H48.2991V35.3481H49.2991V34.3481ZM49.2991 27.5321H50.2991V26.5321H49.2991V27.5321ZM32.7871 27.5321H31.7871V28.5321H32.7871V27.5321ZM32.7871 20.4281L31.9259 19.9198L31.7871 20.155V20.4281H32.7871ZM44.4031 0.748142V-0.251858H43.8321L43.5419 0.239838L44.4031 0.748142ZM55.4431 0.748142H56.4431V-0.251858H55.4431V0.748142ZM55.4431 22.0601H54.4431V23.0601H55.4431V22.0601ZM61.0111 22.0601H62.0111V21.0601H61.0111V22.0601ZM61.0111 27.5321V28.5321H62.0111V27.5321H61.0111ZM55.4431 27.5321V26.5321H54.4431V27.5321H55.4431ZM55.4431 34.3481V35.3481H56.4431V34.3481H55.4431ZM38.6431 22.0601H37.6431V23.0601H38.6431V22.0601ZM49.2991 22.0601V23.0601H50.2991V22.0601H49.2991ZM49.2991 4.68414H50.2991V3.68414H49.2991V4.68414ZM48.4351 4.68414V3.68414H47.8638L47.5736 4.17625L48.4351 4.68414ZM38.6431 21.2921L37.7816 20.7843L37.6431 21.0193V21.2921H38.6431ZM50.2991 34.3481V27.5321H48.2991V34.3481H50.2991ZM49.2991 26.5321H32.7871V28.5321H49.2991V26.5321ZM33.7871 27.5321V20.4281H31.7871V27.5321H33.7871ZM33.6482 20.9364L45.2642 1.25645L43.5419 0.239838L31.9259 19.9198L33.6482 20.9364ZM44.4031 1.74814H55.4431V-0.251858H44.4031V1.74814ZM54.4431 0.748142V22.0601H56.4431V0.748142H54.4431ZM55.4431 23.0601H61.0111V21.0601H55.4431V23.0601ZM60.0111 22.0601V27.5321H62.0111V22.0601H60.0111ZM61.0111 26.5321H55.4431V28.5321H61.0111V26.5321ZM54.4431 27.5321V34.3481H56.4431V27.5321H54.4431ZM55.4431 33.3481H49.2991V35.3481H55.4431V33.3481ZM38.6431 23.0601H49.2991V21.0601H38.6431V23.0601ZM50.2991 22.0601V4.68414H48.2991V22.0601H50.2991ZM49.2991 3.68414H48.4351V5.68414H49.2991V3.68414ZM47.5736 4.17625L37.7816 20.7843L39.5045 21.8L49.2965 5.19203L47.5736 4.17625ZM37.6431 21.2921V22.0601H39.6431V21.2921H37.6431Z" fill="url(#paint0_linear_515_5323)"/>
<defs>
<linearGradient id="paint0_linear_515_5323" x1="29.5547" y1="-12.6519" x2="29.5547" y2="48.3481" gradientUnits="userSpaceOnUse">
<stop stop-color="#FAFAFA"/>
<stop offset="1" stop-color="#FAFAFA" stop-opacity="0"/>
</linearGradient>
</defs>
</svg>
