<svg width="71" height="68" viewBox="0 0 71 68" fill="none" xmlns="http://www.w3.org/2000/svg">
<path d="M16.0815 6.05176H54.9895C60.8825 6.05176 65.675 10.6078 65.675 16.2858V52.1217C65.675 57.7658 60.918 62.3557 54.9895 62.3557H16.0815C10.1885 62.3557 5.396 57.7998 5.396 52.1217V16.2858C5.396 10.6418 10.1885 6.05176 16.0815 6.05176Z" fill="#470137"/>
<path d="M37.0973 20.8418L29.5713 32.7418L37.5943 45.3558C37.6298 45.4578 37.6653 45.5598 37.6298 45.6278C37.5943 45.7298 37.4878 45.6618 37.3458 45.6618H31.5948C31.2043 45.6618 30.9203 45.6278 30.7428 45.3898C30.2103 44.3698 29.6778 43.3838 29.1453 42.3978C28.6128 41.4118 28.0448 40.3918 27.4413 39.3718C26.8378 38.3518 26.2343 37.2978 25.6308 36.2438H25.5953C25.0628 37.2638 24.4948 38.3178 23.9268 39.3378C23.3588 40.3578 22.7553 41.4118 22.2228 42.4318C21.6548 43.4518 21.0513 44.4718 20.4833 45.4578C20.3768 45.6958 20.1993 45.7298 19.9153 45.7298H14.3773C14.2708 45.7298 14.1998 45.7638 14.1998 45.6618C14.1643 45.5598 14.1998 45.4578 14.2353 45.3898L22.0453 33.1158L14.4483 20.8078C14.3773 20.7058 14.3418 20.6038 14.4128 20.5698C14.4483 20.5018 14.5548 20.4678 14.6613 20.4678H20.3768C20.5188 20.4678 20.6253 20.5018 20.7318 20.5018C20.8383 20.5358 20.9093 20.6378 20.9803 20.7058C21.4418 21.7258 22.0098 22.7798 22.5778 23.7998C23.1813 24.8198 23.7493 25.8398 24.3883 26.8598C24.9918 27.8798 25.5598 28.8658 26.0568 29.9198H26.0923C26.6248 28.8658 27.1573 27.8118 27.7253 26.8258C28.2933 25.8398 28.8613 24.8198 29.4293 23.7998C29.9973 22.7798 30.5653 21.7598 31.0978 20.7738C31.1333 20.6718 31.1688 20.5698 31.2398 20.5358C31.3463 20.5018 31.4528 20.4678 31.5593 20.5018H36.8488C36.9908 20.4678 37.0973 20.5358 37.1328 20.6718C37.1683 20.7058 37.1328 20.8078 37.0973 20.8418Z" fill="#FF61F6"/>
<path d="M48.6701 46.2059C46.8241 46.2399 44.9426 45.8659 43.2741 45.1179C41.6766 44.4039 40.3986 43.2819 39.4756 41.8539C38.5526 40.3919 38.0911 38.5559 38.0911 36.3799C38.0556 34.6119 38.5526 32.8439 39.4756 31.3139C40.4341 29.7499 41.8186 28.4579 43.4516 27.5739C45.1911 26.6219 47.3211 26.1799 49.8061 26.1799C49.9481 26.1799 50.0901 26.1799 50.3386 26.2139C50.5516 26.2479 50.8001 26.2479 51.1196 26.2479V18.6659C51.1196 18.4959 51.1906 18.3939 51.3681 18.3939H56.4801C56.6221 18.3599 56.6931 18.4619 56.7286 18.5639C56.7286 18.5979 56.7286 18.5979 56.7286 18.5979V41.4799C56.7286 41.9219 56.7641 42.3979 56.7641 42.9079C56.7996 43.4179 56.8351 43.8939 56.8706 44.3019C56.8706 44.4719 56.7996 44.6079 56.6221 44.6759C55.3086 45.2199 53.9241 45.5939 52.5396 45.8319C51.2616 46.1039 49.9836 46.2059 48.6701 46.2059ZM51.1551 41.4119V30.8379C50.9421 30.8039 50.6936 30.7359 50.4806 30.7019C50.1966 30.6679 49.9126 30.6679 49.6641 30.6679C48.6701 30.6679 47.7116 30.8719 46.8241 31.2799C45.9721 31.6879 45.2266 32.2999 44.6941 33.0479C44.1261 33.8299 43.8776 34.8499 43.8776 36.1079C43.8421 36.9579 44.0196 37.7739 44.3036 38.5899C44.5521 39.2359 44.9426 39.8139 45.4396 40.2899C45.9011 40.7319 46.5046 41.0719 47.1436 41.2419C47.8181 41.4459 48.5281 41.5479 49.2381 41.5479C49.6286 41.5479 49.9836 41.5139 50.3031 41.5139C50.5516 41.5479 50.8356 41.5139 51.1551 41.4119Z" fill="#FF61F6"/>
</svg>
