<svg width="69" height="68" viewBox="0 0 69 68" fill="none" xmlns="http://www.w3.org/2000/svg">
<path d="M55.5234 3.1875H13.4766C7.22453 3.1875 2.15625 8.18232 2.15625 14.3438V53.6562C2.15625 59.8177 7.22453 64.8125 13.4766 64.8125H55.5234C61.7755 64.8125 66.8438 59.8177 66.8438 53.6562V14.3438C66.8438 8.18232 61.7755 3.1875 55.5234 3.1875Z" fill="#001E36"/>
<path d="M15.6326 48.5775V19.6562C15.6273 19.6159 15.6315 19.575 15.6448 19.5365C15.6581 19.498 15.6802 19.4631 15.7093 19.4344C15.7385 19.4056 15.7739 19.3839 15.813 19.3708C15.852 19.3576 15.8936 19.3535 15.9345 19.3587C18.1204 19.303 20.6998 19.125 24.0635 19.125C28.031 19.125 30.942 19.9405 32.7963 21.6962C33.6972 22.5269 34.4105 23.5353 34.8897 24.6556C35.369 25.7759 35.6035 26.9832 35.5779 28.1987C35.5779 31.4022 34.4279 33.7822 32.1279 35.3387C29.8279 36.8953 26.9349 37.6745 23.449 37.6762L21.0232 37.7187V48.535C21.03 48.5812 21.0257 48.6283 21.0108 48.6726C20.9959 48.7169 20.9706 48.7572 20.9371 48.7902C20.9037 48.8232 20.8628 48.848 20.8179 48.8628C20.7729 48.8775 20.7251 48.8817 20.6782 48.875H15.9776C15.7485 48.875 15.6326 48.7767 15.6326 48.5775ZM21.0232 23.2741V33.7344C21.0232 33.7344 22.2523 33.6866 23.7185 33.6866C25.6466 33.6866 27.2063 33.2686 28.3976 32.4328C29.5889 31.597 30.1855 30.2281 30.1873 28.3262C30.1873 26.6546 29.6626 25.3654 28.6132 24.4587C27.5638 23.5521 26.0473 23.1023 24.0635 23.1094C23.5757 23.1094 23.0932 23.1094 22.6188 23.1306C22.1445 23.1519 21.7563 23.1519 21.4545 23.1519C21.1526 23.1519 20.9909 23.1413 21.0232 23.2741ZM53.367 41.9687C53.367 45.2227 51.2107 46.75 51.2107 46.75V46.7341C51.0813 46.8589 50.9412 46.9758 50.8037 47.09C49.3195 48.28 47.3133 48.875 44.7851 48.875C42.2569 48.875 40.1905 48.4164 38.5859 47.4991C38.4972 47.4686 38.4218 47.4089 38.3727 47.33C38.3236 47.2511 38.3037 47.1578 38.3164 47.0661V43.0631C38.3123 43.0179 38.3201 42.9725 38.339 42.9311C38.3579 42.8897 38.3872 42.8538 38.4242 42.8267C38.4534 42.8059 38.4895 42.7966 38.5253 42.8005C38.5612 42.8044 38.5943 42.8214 38.6182 42.848C40.3287 44.1725 42.4373 44.8995 44.6126 44.9145C45.6171 44.9145 46.3861 44.7374 46.9198 44.3833C47.1658 44.2387 47.3696 44.0337 47.5113 43.7884C47.653 43.5431 47.7278 43.2657 47.7284 42.9834C47.7342 42.6985 47.6796 42.4156 47.5682 42.1526C47.4569 41.8896 47.2911 41.6524 47.0815 41.4561C46.6503 41.0382 45.8021 40.5857 44.5371 40.0987C42.2353 39.2133 40.6325 38.2589 39.7287 37.2353C38.7721 36.2097 38.2511 34.8616 38.2732 33.4687C38.2738 32.6022 38.4626 31.7459 38.8271 30.9574C39.1916 30.1688 39.7233 29.4664 40.3864 28.8973C41.7358 27.6914 43.6621 27.0884 46.1651 27.0884C48.501 27.0884 50.2979 27.4045 51.5557 28.0367C51.6986 28.1217 51.7714 28.3023 51.7714 28.5945V32.1672C51.7714 32.5125 51.642 32.5975 51.3832 32.4328C49.8838 31.462 48.1316 30.939 46.3376 30.9267C45.3296 30.9267 44.591 31.1153 44.1167 31.4872C43.9008 31.6382 43.7239 31.837 43.6004 32.0677C43.4768 32.2984 43.4099 32.5545 43.4051 32.8153C43.4043 33.0705 43.4576 33.3231 43.5616 33.5568C43.6655 33.7905 43.8179 34.0003 44.0089 34.1727C44.4114 34.5605 45.2595 35.012 46.5532 35.5273C48.8101 36.3968 50.4273 37.3106 51.4048 38.2686L51.429 38.2925C52.4344 39.2036 53.367 40.4573 53.367 41.9687Z" fill="#31A8FF"/>
</svg>
