<svg width="7" height="12" viewBox="0 0 7 12" fill="none" xmlns="http://www.w3.org/2000/svg">
<path d="M3.50005 -1.52699e-07C3.36744 -1.58496e-07 3.24027 0.0526784 3.1465 0.146447C3.05273 0.240215 3.00005 0.367392 3.00005 0.5L3.00005 10.293L0.854052 8.147C0.759751 8.05592 0.63345 8.00552 0.502351 8.00666C0.371253 8.0078 0.245846 8.06039 0.153143 8.15309C0.0604383 8.24579 0.00785457 8.3712 0.0067154 8.5023C0.00557623 8.6334 0.0559731 8.7597 0.147052 8.854L3.14705 11.854C3.19305 11.9003 3.24774 11.937 3.30798 11.962C3.36822 11.9871 3.43281 12 3.49805 12L3.50005 12C3.56505 12 3.63005 11.987 3.69105 11.961C3.75167 11.9361 3.80673 11.8994 3.85305 11.853L6.85305 8.853C6.94413 8.7587 6.99453 8.6324 6.99339 8.5013C6.99225 8.3702 6.93967 8.24479 6.84696 8.15209C6.75426 8.05939 6.62885 8.0068 6.49775 8.00566C6.36665 8.00452 6.24035 8.05492 6.14605 8.146L4.00005 10.293L4.00005 0.5C4.00005 0.367392 3.94737 0.240215 3.85361 0.146447C3.75984 0.0526784 3.63266 -1.46903e-07 3.50005 -1.52699e-07Z" fill="#FAFAFA" fill-opacity="0.72"/>
</svg>
