<svg width="128" height="63" viewBox="0 0 128 63" fill="none" xmlns="http://www.w3.org/2000/svg">
<path fill-rule="evenodd" clip-rule="evenodd" d="M8.42676 45.3263C8.42676 47.3402 10.0854 48.973 12.1313 48.973H115.851C117.897 48.973 119.555 47.3402 119.555 45.3263V17.6735C119.555 15.6596 117.897 14.0269 115.851 14.0269H12.1409C10.095 14.0269 8.43636 15.6596 8.43636 17.6735L8.42676 45.3263Z" fill="#CF0A2C"/>
<path d="M26.1598 37.2538L26.2387 34.823V23.4463H27.9454V29.3578H27.9848C28.5971 28.3078 29.6915 27.6274 31.2446 27.6274C33.6158 27.6274 35.2947 29.572 35.2744 32.4301C35.2744 35.7943 33.1198 37.4669 30.9864 37.4669C29.604 37.4669 28.4979 36.9419 27.7864 35.6977H27.7267L27.6478 37.2538H26.147H26.1598ZM27.9571 33.4811C27.9571 33.6953 27.9966 33.9085 28.036 34.1038C28.372 35.2903 29.38 36.1072 30.644 36.1072C32.4616 36.1072 33.5486 34.6372 33.5486 32.4899C33.5486 30.6031 32.5608 28.9892 30.7038 28.9892C29.5304 28.9892 28.4126 29.7872 28.0563 31.0892C28.0168 31.2835 27.9571 31.5166 27.9571 31.7896V33.4811ZM43.2104 37.2538L43.0718 36.0673H43.012C42.4787 36.8065 41.4515 37.468 40.0894 37.468C38.1534 37.468 37.1667 36.1261 37.1667 34.7653C37.1667 32.4899 39.2211 31.2457 42.9267 31.2646V31.0798C42.9267 30.3028 42.7091 28.9021 40.7539 28.9021C39.8654 28.9021 38.9363 29.1751 38.2654 29.6024L37.8707 28.4789C38.66 27.9728 39.8067 27.6431 41.012 27.6431C43.9347 27.6431 44.6472 29.6066 44.6472 31.4935V35.0131C44.6472 35.83 44.6867 36.6238 44.8051 37.2685L43.2104 37.2538ZM42.9544 32.4511C41.0579 32.4122 38.9043 32.743 38.9043 34.5721C38.9043 35.6809 39.6552 36.2059 40.5438 36.2059C41.7886 36.2059 42.5704 35.4289 42.8552 34.6309C42.9169 34.4554 42.9504 34.2716 42.9544 34.0859V32.4511ZM47.7278 23.4473H49.4664V37.2548H47.7278V23.4473ZM52.3443 35.5034C52.8584 35.8342 53.7662 36.1838 54.6355 36.1838C55.8995 36.1838 56.4915 35.5612 56.4915 34.7831C56.4915 33.9662 55.9976 33.5189 54.7134 33.0527C53.0067 32.45 52.1822 31.5166 52.1822 30.3889C52.1822 28.8716 53.427 27.6274 55.4814 27.6274C56.4499 27.6274 57.299 27.9004 57.8323 28.2112L57.3982 29.4554C56.8104 29.0988 56.1334 28.9101 55.443 28.9105C54.4158 28.9105 53.843 29.4943 53.843 30.1936C53.843 30.9706 54.4158 31.3213 55.6606 31.7896C57.3203 32.4122 58.1694 33.2281 58.1694 34.6288C58.1694 36.2815 56.8659 37.4491 54.5939 37.4491C53.5464 37.4491 52.5672 37.1971 51.9059 36.8107L52.3443 35.5034ZM66.211 37.2538L66.0723 36.0673H66.0126C65.4792 36.8065 64.452 37.468 63.0899 37.468C61.1539 37.468 60.1672 36.1261 60.1672 34.7653C60.1672 32.4899 62.2216 31.2457 65.9272 31.2646V31.0798C65.9272 30.3028 65.7096 28.9021 63.7544 28.9021C62.8659 28.9021 61.9368 29.1751 61.2659 29.6024L60.8712 28.4789C61.6606 27.9728 62.8072 27.6431 64.0126 27.6431C66.9352 27.6431 67.6478 29.6066 67.6478 31.4935V35.0131C67.6478 35.83 67.6872 36.6238 67.8056 37.2685L66.211 37.2538ZM65.955 32.4511C64.0584 32.4122 61.9048 32.743 61.9048 34.5721C61.9048 35.6809 62.6558 36.2059 63.5443 36.2059C64.788 36.2059 65.5795 35.4289 65.8558 34.6309C65.9174 34.4554 65.9509 34.2716 65.955 34.0859V32.4511ZM70.7144 30.3899L70.6355 27.8426H72.1566L72.2355 29.3599H72.2974C72.8307 28.4653 73.7203 27.6295 75.3 27.6295C76.6035 27.6295 77.5912 28.4065 78.0062 29.5163H78.0456C78.3422 28.9913 78.7176 28.5713 79.1123 28.291C79.6851 27.8636 80.3176 27.6295 81.2243 27.6295C82.4883 27.6295 84.3656 28.4464 84.3656 31.7245V37.2685H82.6664V31.9387C82.6664 30.1306 81.9944 29.0407 80.5918 29.0407C79.604 29.0407 78.8339 29.7599 78.5374 30.5968C78.4584 30.8299 78.3987 31.1428 78.3987 31.4525V37.2674H76.6995V31.6289C76.6995 30.1316 76.0275 29.0459 74.7048 29.0459C73.6168 29.0459 72.8275 29.9017 72.5502 30.7574C72.453 31.0255 72.406 31.3087 72.4115 31.5932V37.2716H70.7123V30.4046L70.7144 30.3899ZM89.4088 25.1977C89.428 25.7815 88.9822 26.2477 88.3027 26.2477C87.6904 26.2477 87.2552 25.7804 87.2552 25.1977C87.251 25.056 87.2761 24.915 87.3293 24.7833C87.3824 24.6516 87.4623 24.5319 87.5641 24.4317C87.6659 24.3315 87.7874 24.2529 87.9212 24.2006C88.055 24.1483 88.1983 24.1235 88.3422 24.1277C88.9822 24.1277 89.4088 24.595 89.4088 25.1987V25.1977ZM87.4675 37.2538V27.8416H89.2062V37.2538H87.4675ZM98.963 35.7838H98.9235C98.4094 36.7288 97.3427 37.4564 95.8056 37.4564C93.5742 37.4564 91.7555 35.5507 91.7555 32.6915C91.7555 29.1719 94.067 27.6158 96.0819 27.6158C97.5752 27.6158 98.5512 28.3351 99.0259 29.2496H99.0654L99.1272 27.8321H100.767L100.708 30.4183V41.0936H98.9694V35.8048L98.963 35.7838ZM98.963 31.6426C98.963 31.4095 98.9438 31.1365 98.884 30.9233C98.628 29.8733 97.7107 28.9787 96.3955 28.9787C94.5982 28.9787 93.5112 30.476 93.5112 32.596C93.5112 34.4629 94.42 36.0967 96.3358 36.0967C97.4622 36.0967 98.4296 35.4163 98.8243 34.2298C98.9103 33.9655 98.957 33.6903 98.963 33.4129V31.6426Z" fill="#FAFAFA"/>
</svg>
