<svg width="22" height="22" viewBox="0 0 22 22" fill="none" xmlns="http://www.w3.org/2000/svg">
<g clip-path="url(#clip0_515_5039)">
<path d="M10.4958 11.715C10.8497 12.3333 11.0243 13.038 10.9999 13.75C11.0137 14.5184 10.8171 15.276 10.4316 15.9408C10.198 16.3567 9.88681 16.7239 9.51492 17.0225C9.09364 17.3635 8.59714 17.5992 8.06659 17.71C7.46403 17.838 6.84923 17.8995 6.23325 17.8933H0.458252V4.125H6.67325C7.30589 4.07557 7.94091 4.18365 8.52157 4.43959C9.10223 4.69553 9.61043 5.09135 10.0008 5.59167C10.4046 6.21575 10.6092 6.94782 10.5874 7.69083C10.6231 8.414 10.4131 9.12797 9.99158 9.71667C9.72183 10.0412 9.3879 10.3065 9.01075 10.4958C9.63041 10.7208 10.1544 11.151 10.4958 11.715V11.715Z" stroke="#FAFAFA" stroke-linecap="round" stroke-linejoin="round"/>
<path d="M3.20825 9.62499H5.95825C6.4303 9.64525 6.89904 9.53756 7.31492 9.31332C7.48079 9.19359 7.61219 9.03226 7.69587 8.84559C7.77955 8.65891 7.81257 8.45348 7.79159 8.24999C7.81711 8.01023 7.76381 7.76868 7.63975 7.56192C7.5157 7.35517 7.32765 7.19447 7.10409 7.10416C6.61481 6.95 6.10457 6.87269 5.59159 6.87499H3.20825V9.62499ZM7.79159 13.4108C7.8142 13.142 7.75211 12.8728 7.61402 12.641C7.47594 12.4092 7.26878 12.2264 7.02159 12.1183C6.63605 11.9699 6.22441 11.9013 5.81159 11.9167H3.20825V15.125H5.76575C6.18572 15.1459 6.60512 15.0739 6.99409 14.9142C7.2625 14.7725 7.48209 14.5534 7.62432 14.2853C7.76655 14.0172 7.82483 13.7125 7.79159 13.4108Z" stroke="#FAFAFA" stroke-linecap="round" stroke-linejoin="round"/>
<path d="M21.5234 13.2917V12.8333C21.5807 11.5579 21.1308 10.3115 20.2719 9.36682C19.4131 8.4221 18.2152 7.85578 16.94 7.79166C15.6649 7.85578 14.467 8.4221 13.6081 9.36682C12.7493 10.3115 12.2994 11.5579 12.3567 12.8333C12.2994 14.1088 12.7493 15.3551 13.6081 16.2998C14.467 17.2445 15.6649 17.8109 16.94 17.875C17.811 17.8518 18.6574 17.5807 19.3798 17.0937C20.1023 16.6066 20.671 15.9237 21.0192 15.125H18.5534C18.3792 15.3933 18.1438 15.6164 17.8665 15.7758C17.5891 15.9352 17.2779 16.0263 16.9584 16.0417C15.8034 16.0417 14.8592 14.8408 14.7034 13.2917H21.5234ZM16.94 9.62499C17.4315 9.67889 17.8941 9.88431 18.2636 10.2128C18.6331 10.5413 18.8914 10.9766 19.0025 11.4583H14.8775C14.9897 10.9738 15.2507 10.5366 15.6238 10.2078C15.997 9.87908 16.4636 9.67528 16.9584 9.62499H16.94Z" stroke="#FAFAFA" stroke-linecap="round" stroke-linejoin="round"/>
<path d="M14.2083 4.125H19.7083V5.95833H14.2083V4.125Z" stroke="#FAFAFA" stroke-linecap="round" stroke-linejoin="round"/>
</g>
<defs>
<clipPath id="clip0_515_5039">
<rect width="22" height="22" fill="white"/>
</clipPath>
</defs>
</svg>
