<svg width="66" height="66" viewBox="0 0 66 66" fill="none" xmlns="http://www.w3.org/2000/svg">
<path d="M60.5222 33C60.5222 42.02 60.5222 51.0301 60.5222 60.0303C60.5222 60.4164 60.4595 60.5352 60.0371 60.5352C41.9971 60.522 23.9571 60.522 5.91708 60.5352C5.51778 60.5352 5.45508 60.4362 5.45508 60.0633C5.45508 42.0233 5.45508 23.9833 5.45508 5.94334C5.45508 5.58034 5.49798 5.46484 5.91048 5.46484C23.9681 5.48244 42.0246 5.48244 60.08 5.46484C60.4562 5.46484 60.5156 5.55064 60.5156 5.91034C60.5134 14.9501 60.5156 23.98 60.5222 33ZM42.0224 20.6481C41.8739 20.5491 41.7221 20.46 41.5802 20.3544C38.2802 17.9344 34.9802 15.5144 31.6802 13.0944C31.4431 12.9088 31.1497 12.8099 30.8486 12.8139C29.2712 12.8139 27.6938 12.8139 26.1197 12.8139H25.4102L30.4658 23.0703C30.2155 22.971 29.9902 22.8178 29.8058 22.6215C26.5432 19.4843 23.2806 16.3438 20.018 13.2C19.891 13.0673 19.7368 12.9637 19.5658 12.8964C19.3949 12.8292 19.2114 12.7999 19.028 12.8106C17.4704 12.8304 15.9095 12.8106 14.3519 12.8106H13.7414C13.8239 13.0317 13.8767 13.1802 13.9295 13.3287C15.5135 17.5417 17.0964 21.7569 18.6782 25.9743C18.8087 26.2871 18.8454 26.6311 18.7838 26.9643C17.1228 35.5685 15.4629 44.1738 13.8041 52.7802C13.7315 53.1498 13.8305 53.1993 14.1572 53.196C15.7874 53.196 17.4209 53.1729 19.0478 53.196C19.2158 53.2234 19.3879 53.1847 19.5281 53.0882C19.6683 52.9916 19.7658 52.8447 19.8002 52.6779C23.2322 43.7525 26.6708 34.8326 30.116 25.9182C30.1527 25.6959 30.2702 25.4949 30.446 25.3539C30.4196 25.5981 30.4097 25.7763 30.3767 25.9479C28.7509 34.8711 27.1207 43.7921 25.4861 52.7109C25.4168 53.0871 25.4861 53.2059 25.8887 53.1993C27.5024 53.1762 29.1128 53.1696 30.7265 53.1993C30.8969 53.2273 31.0715 53.1873 31.2128 53.0879C31.3541 52.9886 31.4508 52.8379 31.4822 52.668C34.9538 42.8318 38.4342 32.9956 41.9234 23.1594C41.963 23.0439 41.9663 22.8921 42.1808 22.803C42.0521 23.5917 41.93 24.3309 41.8079 25.0701C40.8971 30.5217 39.9841 35.9733 39.0689 41.4249C38.4463 45.1649 37.816 48.9049 37.178 52.6449C37.1021 53.0937 37.178 53.2092 37.6598 53.1993C39.29 53.1663 40.9202 53.1762 42.5504 53.1993C42.6138 53.2101 42.6786 53.2081 42.7412 53.1935C42.8038 53.1788 42.8628 53.1518 42.9148 53.1139C42.9667 53.0761 43.0106 53.0283 43.0438 52.9732C43.077 52.9182 43.0989 52.8571 43.1081 52.7934C46.7183 41.6636 50.3373 30.5338 53.9651 19.404C54.0674 19.074 54.0179 18.9519 53.7242 18.7869C50.2482 16.8641 46.7656 14.9303 43.2764 12.9855C43.1467 12.8898 42.9943 12.8295 42.8342 12.8106H37.112L42.1115 20.5854C42.08 20.6036 42.0502 20.6246 42.0224 20.6481Z" fill="#FECF2F"/>
<path d="M42.1113 20.5856L37.1118 12.8108H42.834C42.9941 12.8296 43.1465 12.8899 43.2762 12.9857C46.7654 14.9239 50.2513 16.8566 53.7339 18.7838C54.0276 18.9488 54.0639 19.0808 53.9748 19.4009C50.3448 30.5285 46.7258 41.6583 43.1178 52.7903C43.1085 52.8529 43.087 52.9131 43.0544 52.9674C43.0219 53.0217 42.9789 53.0691 42.928 53.1068C42.8772 53.1445 42.8194 53.1718 42.7579 53.1871C42.6965 53.2024 42.6326 53.2055 42.57 53.1962C40.9398 53.1962 39.3096 53.1698 37.6794 53.1962C37.2108 53.1962 37.1217 53.0906 37.1976 52.6418C37.8422 48.9018 38.4725 45.1618 39.0885 41.4218C40.0015 35.9702 40.9145 30.5186 41.8275 25.067C41.9496 24.3278 42.0717 23.5886 42.2004 22.7999C41.9859 22.889 41.9826 23.0408 41.943 23.1563C38.4582 32.9903 34.9778 42.8265 31.5018 52.6648C31.4704 52.8347 31.3737 52.9854 31.2324 53.0848C31.0911 53.1841 30.9165 53.2241 30.7461 53.1962C29.1324 53.1632 27.522 53.1698 25.9083 53.1962C25.5057 53.1962 25.4364 53.084 25.5057 52.7078C27.1425 43.789 28.7727 34.868 30.3963 25.9448C30.4293 25.7732 30.4392 25.595 30.4656 25.3508C30.2898 25.4917 30.1723 25.6927 30.1356 25.9151C26.6838 34.8339 23.2386 43.7549 19.8 52.6781C19.7672 52.8487 19.6684 52.9995 19.525 53.0977C19.3817 53.1959 19.2054 53.2337 19.0344 53.2028C17.4075 53.173 15.774 53.183 14.1438 53.2028C13.8138 53.2028 13.7181 53.1566 13.7907 52.787C15.4583 44.185 17.1182 35.5797 18.7704 26.9711C18.8321 26.6378 18.7954 26.2938 18.6648 25.9811C17.0874 21.7637 15.5089 17.5463 13.9293 13.3289C13.8765 13.1804 13.8237 13.0319 13.7412 12.8108H14.3517C15.9093 12.8108 17.4702 12.8108 19.0278 12.8108C19.2112 12.8 19.3947 12.8293 19.5657 12.8965C19.7366 12.9638 19.8909 13.0674 20.0178 13.2002C23.2716 16.3484 26.5364 19.4889 29.8122 22.6217C29.9966 22.8179 30.2219 22.9711 30.4722 23.0705L25.41 12.8108H26.103C27.6771 12.8108 29.2545 12.8108 30.8319 12.8108C31.133 12.8067 31.4264 12.9056 31.6635 13.0913C34.9635 15.5113 38.269 17.9313 41.58 20.3513C41.7219 20.4569 41.8737 20.546 42.0222 20.645L42.108 20.711L42.1113 20.5856Z" fill="#060138"/>
<path d="M42.1112 20.5854V20.7141L42.0254 20.6481C42.0521 20.6248 42.0808 20.6038 42.1112 20.5854Z" fill="#FECF2F"/>
</svg>
