<svg width="70" height="68" viewBox="0 0 70 68" fill="none" xmlns="http://www.w3.org/2000/svg">
<path d="M15.8202 6.05176H54.1802C59.9902 6.05176 64.7152 10.6078 64.7152 16.2858V52.1218C64.7152 57.7658 60.0252 62.3558 54.1802 62.3558H15.8202C10.0102 62.3558 5.28516 57.7998 5.28516 52.1218V16.2858C5.32016 10.6078 10.0102 6.05176 15.8202 6.05176Z" fill="#330000"/>
<path d="M34.0903 39.8136H24.8853L22.9953 45.4576C22.9603 45.6616 22.7503 45.8316 22.5403 45.7976H17.8853C17.6053 45.7976 17.5353 45.6616 17.6053 45.3556L25.5853 23.0516C25.6553 22.8136 25.7253 22.5416 25.8303 22.2696C25.9353 21.7596 25.9703 21.2496 25.9703 20.7056C25.9353 20.5696 26.0403 20.4676 26.1803 20.4336C26.2153 20.4336 26.2153 20.4336 26.2503 20.4336H32.5853C32.7953 20.4336 32.8653 20.5016 32.9003 20.6376L41.9303 45.4236C42.0003 45.6956 41.9303 45.7976 41.6853 45.7976H36.5053C36.3303 45.8316 36.1553 45.6956 36.1203 45.5256L34.0903 39.8136ZM26.3203 34.9516H32.6203C32.4803 34.4416 32.2703 33.8296 32.0603 33.2176C31.8503 32.5716 31.6053 31.8576 31.3953 31.1436C31.1503 30.3956 30.9403 29.6816 30.6603 28.9336C30.3803 28.1856 30.2053 27.5056 29.9953 26.7916C29.7853 26.1116 29.6103 25.4996 29.4353 24.9216H29.4003C29.1903 25.9416 28.9103 26.9956 28.5603 28.0156C28.1753 29.1716 27.8253 30.3616 27.4053 31.5856C27.0553 32.8096 26.7053 33.9316 26.3203 34.9516Z" fill="#FF9A00"/>
<path d="M47.3553 24.5818C46.5503 24.6158 45.7453 24.3098 45.1503 23.7318C44.5903 23.1198 44.2753 22.3378 44.3103 21.5218C44.2753 20.7058 44.5903 19.9238 45.1853 19.3798C45.7803 18.8358 46.5853 18.5298 47.3903 18.5298C48.3703 18.5298 49.1053 18.8018 49.6303 19.3798C50.1903 19.9578 50.4703 20.7398 50.4353 21.5218C50.4703 22.3378 50.1553 23.1198 49.5603 23.7318C49.0353 24.3098 48.1953 24.6158 47.3553 24.5818ZM44.5553 45.4578V26.9278C44.5553 26.6898 44.6603 26.5878 44.8703 26.5878H49.7703C49.9803 26.5878 50.0853 26.7238 50.0853 26.9278V45.4578C50.0853 45.7298 49.9803 45.8318 49.7703 45.8318H44.9053C44.6953 45.8318 44.5553 45.6958 44.5553 45.4578Z" fill="#FF9A00"/>
</svg>
