<svg width="53" height="53" viewBox="0 0 53 53" fill="none" xmlns="http://www.w3.org/2000/svg">
<g clip-path="url(#clip0_515_5388)">
<path d="M26.5 51.165C40.2208 51.165 51.3438 40.0421 51.3438 26.3213C51.3438 12.6005 40.2208 1.47754 26.5 1.47754C12.7792 1.47754 1.65625 12.6005 1.65625 26.3213C1.65625 40.0421 12.7792 51.165 26.5 51.165Z" fill="#EC407A"/>
<path d="M26.5 0C11.8886 0 0 11.8886 0 26.5C0 41.1114 11.8886 53 26.5 53C41.1114 53 53 41.1114 53 26.5C53 11.8886 41.1114 0 26.5 0ZM49.6776 26.6988C44.1777 25.2246 38.411 25.0455 32.8302 26.1754C32.0819 24.309 31.2732 22.4674 30.4054 20.6534C35.4129 18.3091 39.9967 15.1503 43.9701 11.3056C47.6551 15.5097 49.687 20.9095 49.6875 26.5C49.6875 26.5662 49.6776 26.6292 49.6776 26.6988ZM41.6282 8.96694C37.9215 12.5621 33.6431 15.5162 28.9678 17.7086C26.4812 12.9564 23.5885 8.42793 20.3222 4.17375C22.3329 3.60814 24.4112 3.3184 26.5 3.3125C32.0595 3.31163 37.4322 5.31975 41.6282 8.96694ZM17.0494 5.34637C20.3971 9.60744 23.3518 14.1631 25.8772 18.9574C18.8531 21.655 11.2807 22.613 3.80606 21.7499C4.56525 18.1657 6.16057 14.8117 8.462 11.9611C10.7634 9.11048 13.7058 6.84401 17.0494 5.34637ZM3.3125 26.5C3.3125 26.0031 3.35556 25.5162 3.38869 25.0293C5.34969 25.2611 7.31069 25.4135 9.26506 25.4135C15.4992 25.4135 21.624 24.1945 27.3646 21.9586C28.1596 23.6148 28.9082 25.2942 29.6005 26.9969C21.2942 29.4829 14.1198 34.7975 9.32137 42.0191C5.4578 37.7735 3.31539 32.2404 3.3125 26.5ZM11.7428 44.3709C16.1487 37.4532 22.9192 32.3732 30.793 30.0775C32.8964 35.8658 34.3971 41.8555 35.2715 47.9517C31.3944 49.5487 27.1554 50.0591 23.01 49.4283C18.8645 48.7974 14.9693 47.049 11.7428 44.3709ZM38.3786 46.375C37.477 40.5622 36.0262 34.8479 34.0459 29.309C39.1474 28.3604 44.3995 28.6075 49.3894 30.0311C48.8662 33.3966 47.6085 36.6056 45.7055 39.4302C43.8026 42.2549 41.3011 44.6259 38.3786 46.375Z" fill="#C2185B"/>
</g>
<defs>
<clipPath id="clip0_515_5388">
<rect width="53" height="53" fill="white"/>
</clipPath>
</defs>
</svg>
