<svg width="960" height="202" viewBox="0 0 960 202" fill="none" xmlns="http://www.w3.org/2000/svg">
<g clip-path="url(#clip0_515_5180)">
<path d="M466.825 105.498V101.973C466.825 101.945 466.797 101.945 466.769 101.945C465.503 101.945 461.622 102.001 460.469 102.001C455.886 101.916 453.973 102.086 449.418 101.634C441.431 100.845 434.175 97.771 427.426 93.5691C420.902 89.5082 414.546 85.1654 408.191 80.8507C400.12 75.3516 391.964 70.0217 382.74 66.6094C375.569 63.9586 368.229 62.4358 360.693 62.5486C353.156 62.4358 345.816 63.9586 338.645 66.6094C329.421 70.0217 321.266 75.3516 313.195 80.8507C306.839 85.1936 300.484 89.5364 293.959 93.5691C287.21 97.771 279.954 100.845 271.968 101.634C267.412 102.086 262.8 101.888 258.216 101.945C257.035 101.973 255.882 101.945 254.617 101.945C254.588 101.945 254.588 101.945 254.56 101.973H254.532V105.498H257.26C260.719 105.526 264.178 105.611 267.637 105.498H271.659C275.174 105.752 278.633 106.57 281.867 107.951C284.538 109.051 287.322 110.095 289.741 111.617C296.406 115.819 302.902 120.247 309.483 124.561C316.063 128.876 322.475 133.473 329.28 137.421C337.014 141.876 345.169 144.697 353.775 145.599V145.655H354.14H354.197C358.471 146.022 362.774 146.022 367.076 145.655H367.133H367.498V145.599C376.104 144.697 384.287 141.876 391.992 137.421C398.798 133.501 405.21 128.904 411.79 124.561C418.371 120.219 424.867 115.791 431.532 111.617C433.979 110.095 436.735 109.051 439.406 107.951C442.668 106.598 446.099 105.78 449.614 105.498H466.825ZM295.562 95.9379C302.79 91.0875 310.045 86.2652 317.272 81.3583C325.287 75.9156 333.527 70.9241 342.807 67.9631C346.604 66.7504 350.484 65.9326 354.45 65.5096V65.566C356.446 65.3404 358.443 65.2276 360.468 65.1994H360.861C362.858 65.2276 364.883 65.3404 366.88 65.566V65.5096C370.817 65.9326 374.726 66.7504 378.522 67.9631C387.83 70.9241 396.042 75.9156 404.057 81.3583C411.256 86.2652 418.54 91.0875 425.767 95.9379C426.02 96.1071 426.076 96.4455 425.908 96.6711C425.795 96.8403 425.598 96.925 425.401 96.8968C424.839 96.8122 424.276 96.6712 423.714 96.4737C415.559 93.7101 407.431 90.8901 399.248 88.1828C386.677 84.0373 373.826 81.8095 360.665 81.9505C347.503 81.8377 334.652 84.0655 322.081 88.1828C313.898 90.8901 305.77 93.7101 297.615 96.4737C297.053 96.6712 296.49 96.8122 295.928 96.8968C295.647 96.8968 295.393 96.6429 295.393 96.3609C295.393 96.1917 295.478 96.0507 295.618 95.9379H295.562ZM427.454 110.32C427.229 110.63 426.92 110.912 426.582 111.11C422.083 114.155 417.555 117.173 413.084 120.247C406.897 124.477 400.851 128.932 394.495 132.909C386.059 138.182 377.116 141.764 367.498 142.892C365.164 143.174 362.802 143.315 360.44 143.315C356.418 143.343 352.397 142.92 348.46 142.018C340.839 140.382 333.639 137.195 326.778 132.909C320.422 128.932 314.376 124.477 308.189 120.247C303.689 117.173 299.19 114.155 294.69 111.11L294.55 110.997C294.325 110.828 294.269 110.489 294.437 110.236C294.578 110.066 294.803 109.982 295 110.038C295.393 110.151 295.815 110.264 296.209 110.405C303.408 113.027 310.636 115.678 317.835 118.329C327.171 121.741 336.733 124.392 346.604 125.689C349.022 126 351.469 126.225 353.887 126.338L355.321 126.394H355.49C357.206 126.451 358.921 126.479 360.636 126.479C362.352 126.479 364.067 126.451 365.783 126.394H365.952C366.401 126.394 366.88 126.394 367.386 126.394V126.338C369.832 126.225 372.251 126.028 374.697 125.689C384.568 124.392 394.13 121.741 403.466 118.329C410.665 115.706 417.893 113.056 425.092 110.405C425.767 110.151 426.442 109.982 427.145 109.813C427.314 109.784 427.482 109.869 427.51 110.038C427.539 110.123 427.51 110.207 427.482 110.264L427.454 110.32ZM428.101 106.288C426.47 106.852 423.883 107.867 422.42 108.403C412.55 111.928 402.791 115.706 392.836 118.95C384.596 121.629 376.047 123.264 367.386 123.772V123.744C365.22 123.885 362.971 123.969 360.693 123.969C358.415 123.969 356.137 123.885 353.972 123.744V123.772C345.31 123.264 336.761 121.657 328.521 118.95C318.566 115.706 308.583 112.435 298.937 108.403C297.446 107.782 296.293 107.275 294.606 106.429C294.072 106.175 294.156 105.413 294.747 105.385H428.045C428.298 105.385 428.495 105.611 428.495 105.864C428.495 106.062 428.382 106.231 428.185 106.288H428.101ZM427.932 101.832C427.51 101.86 427.032 101.86 426.526 101.888H394.27C384.793 101.832 375.007 101.804 367.189 101.86H354.197C334.399 101.832 301.552 101.832 293.397 101.832C292.891 101.832 292.778 100.901 293.256 100.732C302.03 97.771 310.832 94.8663 319.578 91.9053C329.899 88.4084 340.417 85.7576 351.3 84.9962C353.156 84.8551 355.04 84.7988 356.896 84.7706H360.693H364.489C366.373 84.7988 368.229 84.8551 370.085 84.9962C380.969 85.7576 391.486 88.4084 401.807 91.9053C410.581 94.8945 419.355 97.7992 428.129 100.732C428.945 101.183 428.495 101.804 427.96 101.832H427.932Z" fill="#FAFAFA"/>
<path d="M622.283 101.945V101.973C619.162 101.804 618.149 101.409 616.181 100.422V100.45C612.778 98.589 610.528 95.6843 609.038 92.1029C607.885 89.3392 607.266 86.4628 606.732 83.5581C606.085 80.0049 605.663 76.3952 604.707 72.8701C603.498 68.3863 601.501 64.3536 598.239 61.0541C596.101 58.9109 593.627 57.3881 590.618 56.8241C586.343 56.0063 582.547 57.1907 579.06 59.6159C574.869 62.577 571.945 66.5814 569.667 71.1217C567.726 75.0134 566.264 79.1024 564.661 83.1351C561.202 91.7927 554.931 97.2917 546.185 100.14L546.101 100.168C542.332 101.353 538.423 101.945 534.458 101.945H524.278V101.973H516.601V102.001H492.303V105.526H533.755C534.992 105.554 536.145 105.526 536.961 105.498H555.887H556.843L566.067 105.583C570.004 105.583 573.941 106.175 577.71 107.359L577.822 107.388C586.568 110.208 592.839 115.735 596.298 124.392C597.901 128.425 599.364 132.514 601.304 136.406C603.582 140.946 606.507 144.951 610.697 147.912C614.156 150.365 617.98 151.521 622.255 150.703C625.264 150.139 627.767 148.617 629.876 146.473C633.166 143.146 635.135 139.113 636.344 134.657C637.3 131.161 637.722 127.551 638.369 123.969C638.903 121.065 639.522 118.16 640.675 115.425C642.193 111.843 644.443 108.939 647.818 107.077C647.818 107.077 648.437 106.683 648.802 106.457C648.971 106.344 649.168 106.259 649.336 106.175C650.461 105.752 650.967 105.724 653.723 105.583H653.836H654.23H654.37L667.222 105.639V105.611H697.088V105.583H705.721V102.058L622.283 101.945ZM643.881 105.583C641.434 107.444 639.634 109.982 638.172 113.056C636.71 116.13 635.95 119.514 635.332 122.87C634.6 126.846 634.094 130.85 632.885 134.714C631.985 137.675 630.72 140.438 628.695 142.836C626.895 144.951 624.786 146.558 622.058 147.291C618.852 148.137 615.899 147.376 613.143 145.712C610.416 144.048 608.363 141.764 606.591 139.141C604.201 135.616 602.598 131.696 601.079 127.72C600.179 125.379 599.251 123.067 598.239 120.783C596.242 116.045 592.867 111.984 588.565 109.136C581.281 104.314 577.4 102.847 568.879 102.058C568.064 101.973 566.742 101.973 565.28 102.001H550.909C552.99 100.93 554.987 99.717 556.928 98.4198C561.286 95.5433 564.464 91.6235 566.573 86.8012C567.586 84.5169 568.514 82.1763 569.386 79.8639C570.904 75.9158 572.507 71.9959 574.898 68.4427C576.669 65.8482 578.722 63.5358 581.45 61.872C584.206 60.1799 587.159 59.4467 590.365 60.2927C593.064 60.9977 595.202 62.6334 597.001 64.7484C599.026 67.1172 600.292 69.8809 601.192 72.8701C602.373 76.7336 602.907 80.7381 603.638 84.7143C604.257 88.0984 605.016 91.4261 606.479 94.5281C608.728 99.2658 611.709 102.678 616.687 104.398C618.515 105.019 618.683 105.301 622.367 105.554V105.47" fill="#FAFAFA"/>
<path d="M216.567 102.058C210.268 102.058 203.969 102.114 197.641 102.029C197.332 102.029 197.079 101.804 197.051 101.494C196.966 100.873 196.91 100.45 196.854 100.027C196.291 95.5151 195.926 90.9466 195.11 86.4628C193.62 78.341 191.117 70.5577 186.505 63.6204C185.521 62.1821 184.986 60.4619 184.986 58.7135C184.902 55.0192 184.565 51.325 183.355 47.7999C181.837 43.316 177.562 40.2986 172.866 40.6088C169.716 40.8344 167.101 42.47 164.823 44.9798C164.232 45.6285 163.698 46.3335 163.051 47.1231C162.854 47.3769 162.461 47.4333 162.208 47.2077C162.123 47.1513 162.067 47.0667 162.039 46.9821C161.701 46.2771 161.42 45.6849 161.167 45.0644C158.524 39.1423 155.121 33.7279 150.621 29.0466C145.953 24.2525 140.554 20.8402 133.917 19.4866C127.336 18.133 120.587 17.9638 113.978 18.9508C100.255 20.9812 88.3593 26.9315 77.8979 35.9557C67.4365 44.9798 59.6186 55.978 53.263 68.1324C48.7354 76.7618 45.2764 85.7577 44.3484 95.5997C44.1796 97.2635 44.1234 98.9556 44.039 100.901C44.0109 101.212 43.7578 101.465 43.4203 101.465C42.5204 101.465 41.7049 101.465 40.8894 101.465L16.4795 101.606V105.413L41.255 105.272C42.183 105.272 43.111 105.272 43.9828 105.272C44.264 105.272 44.489 105.442 44.5734 105.724C44.714 106.175 44.7983 106.457 44.8546 106.739C46.9075 116.891 52.6444 124.505 60.9122 130.399C67.0991 134.798 73.9889 137.759 81.16 140.241C98.5394 146.22 116.059 147.122 133.72 141.707C138.388 140.269 142.916 138.352 147.753 136.519C148.062 136.406 148.428 136.547 148.54 136.885V136.913C148.737 137.506 148.906 138.098 149.103 138.69C150.059 141.623 150.903 144.584 152.027 147.432C153.405 150.901 155.261 154.144 158.017 156.767C162.179 160.743 166.988 161.786 172.416 159.784C175.425 158.684 178.012 156.851 180.318 154.652C185.886 149.35 189.683 142.892 192.523 135.814C195.701 127.833 196.938 119.486 197.051 110.941C197.079 109.474 197.135 108.008 197.191 106.344C197.191 106.006 197.473 105.752 197.81 105.752H229.194V102.029C224.948 102.058 220.758 102.058 216.567 102.058ZM184.958 68.9503C190.555 79.187 192.523 90.2416 193.114 101.888H177.703C181.19 91.0594 183.44 80.1176 184.958 68.9503ZM172.585 44.4722C175.706 43.88 178.293 45.3465 179.503 48.2793C180.543 50.8455 180.965 53.5528 180.937 56.9368C176.465 53.1298 171.628 50.9865 165.835 50.1687C167.551 47.1795 169.435 45.0644 172.585 44.4722ZM180.515 62.0411C180.993 62.5769 181.19 63.5922 181.134 64.3536C180.346 76.8182 177.928 89.1136 173.934 100.93C173.738 101.296 173.513 101.663 173.288 102.029L163.079 100.986C167.635 85.3065 168.676 69.9091 164.345 54.004C171.263 54.4552 176.409 57.3035 180.515 62.0411ZM161.673 61.0823C164.626 74.2801 163.192 87.1396 159.311 100.196L154.671 99.2376C157.764 86.4345 158.327 73.5187 161.673 61.0823ZM155.768 69.3451C154.615 75.944 153.827 82.5993 152.787 89.2264C152.337 92.1592 151.662 95.0357 151.043 98.307C148.765 97.5737 146.741 97.0097 144.8 96.2483C144.238 96.0227 143.731 95.2049 143.591 94.5845C142.494 89.875 141.454 85.1373 140.469 80.4279C140.329 79.7792 140.329 79.1306 140.469 78.5102C141.566 73.1239 141.2 67.7658 140.019 62.4359C139.991 62.0693 139.991 61.7027 140.019 61.3643C145.897 57.9803 152.056 55.1602 159.142 54.2578C157.933 59.5595 156.668 64.41 155.768 69.3451ZM134.761 82.6275C133.27 85.1373 131.302 87.337 128.967 89.0854L121.656 84.4887C122.668 78.2846 127.871 70.0783 132.876 66.8634C133.776 70.1629 134.536 73.4059 135.576 76.5362C136.392 78.8204 135.914 80.7099 134.761 82.6275ZM137.713 85.4757C138.388 88.5496 138.923 91.1158 139.598 94.2743L132.848 91.1722L137.713 85.4757ZM125.537 91.4824L120.334 94.0487C120.475 91.9054 120.587 90.3826 120.7 88.4086L125.537 91.4824ZM118.197 81.7533C117.381 81.2175 116.734 80.8791 116.228 80.3997C112.375 76.7618 108.551 73.0957 104.67 69.4861C103.461 68.358 103.433 67.2582 104.051 65.7636C107.426 57.4727 115.384 52.0582 124.018 52.171C126.521 52.1992 128.264 52.8478 128.996 55.555C129.614 57.8675 130.627 60.0953 131.555 62.5487C125.199 67.794 120.784 74.0263 118.197 81.7533ZM110.548 52.2556C105.964 54.9628 102.955 58.9955 100.564 64.3254C96.2897 57.8675 92.8307 51.8044 92.9713 44.3312C93.0556 39.9038 95.0523 36.6325 98.9894 34.7149C104.445 32.064 109.901 31.9512 115.131 35.3353C119.856 38.4091 122.809 43.0058 125.621 48.2793C119.997 48.3357 115.075 49.5483 110.548 52.2556ZM102.252 72.8419C104.754 75.2108 107.06 77.5232 109.507 79.6946C111.954 81.8661 114.456 83.8683 117.016 86.0115C116.819 89.2546 116.622 92.272 116.425 95.6843L104.783 98.6454C101.858 94.1051 100.452 80.0894 102.252 72.8419ZM117.016 99.5196C119.293 109.728 123.652 118.555 132.623 124.562C127.955 125.408 123.793 124.223 119.94 121.798C115.328 118.922 112.01 114.832 109.31 110.208C107.932 107.811 106.835 105.272 105.429 102.481L117.016 99.5196ZM131.048 118.329C125.255 112.915 122.134 106.118 120.812 98.1942L129.389 93.7385C132.736 95.2613 136.223 96.7841 139.626 98.448C140.16 98.7018 140.638 99.5196 140.779 100.14C141.875 105.329 142.86 110.546 143.956 115.735C144.266 117.229 143.591 118.273 142.719 119.26C139.485 123.095 139.569 123.405 134.648 120.896C133.354 120.219 132.117 119.345 131.048 118.329ZM48.1448 95.3177C48.7635 89.2546 50.479 83.4453 52.8693 77.8616C58.6343 64.4664 66.3116 52.312 76.773 42.1034C87.1782 31.9794 99.3268 25.1831 113.753 22.8143C120.193 21.7426 126.774 21.8837 133.158 23.2091C138.22 24.2525 142.55 26.6777 146.291 30.1746C151.971 35.5045 155.88 41.9906 158.692 49.2099C158.777 49.4637 158.749 49.7457 158.805 50.3097C151.577 51.3814 144.941 54.145 138.529 57.6983C137.545 56.3164 136.673 54.991 135.689 53.7784C134.986 52.9324 134.198 51.9736 133.27 51.4942C130.908 50.3379 129.811 48.2793 128.714 46.1079C126.746 42.188 124.299 38.5501 121.178 35.4199C117.578 31.8102 113.388 29.385 108.213 29.0748C103.039 28.7646 98.2301 30.0054 94.1524 33.333C91.0309 35.8711 89.5123 39.3115 89.1748 43.2878C88.8655 47.3769 89.7091 51.2686 91.1715 55.0474C92.8307 59.3339 95.1367 63.2538 97.8364 66.9762C98.5113 67.8786 99.0738 68.7247 98.7644 70.0219C96.6271 79.328 97.5552 88.5496 99.9455 97.6583C100.058 98.0813 100.142 98.5326 100.311 99.2658C83.0161 101.888 65.7211 101.24 48.4261 101.465C47.5262 99.3504 47.948 97.2917 48.1448 95.3177ZM144.659 133.417C131.189 139.903 116.987 142.582 102.167 141.059C89.9341 139.846 78.0666 136.067 67.3522 130.032C61.1934 126.564 55.9065 122.08 52.2507 115.904C50.3102 112.689 49.0447 109.136 48.5104 105.413C49.6072 105.357 50.5633 105.272 51.5476 105.244C62.234 105.075 72.9203 105.047 83.5785 104.68C88.753 104.511 93.9274 103.75 99.1019 103.27C99.9174 103.186 100.733 103.157 101.633 103.101C102.561 105.131 103.405 107.077 104.333 108.995C106.61 113.62 109.479 117.85 113.247 121.375C119.518 127.269 126.83 129.948 135.464 128.284C136.195 128.143 136.898 127.917 137.629 127.748L145.925 125.774C146.459 128.143 146.881 129.948 147.331 131.978C146.403 132.486 145.559 132.994 144.659 133.417ZM146.769 110.461C146.122 107.247 145.503 104.032 144.772 100.394L150.003 102.029C149.356 105.131 148.512 107.867 146.769 110.461ZM148.512 119.316C148.512 118.64 148.315 117.878 148.54 117.286C150.34 112.633 152.224 108.008 154.193 103.101L157.989 103.919C155.965 109.813 153.799 115.312 149.215 119.486L148.512 119.316ZM149.496 124.139C152.702 121.967 155.318 119.006 157.089 115.537C158.889 112.097 160.38 108.487 162.095 104.737L171.572 105.695C171.15 112.746 158.636 127.071 150.734 129.581C150.34 127.889 149.946 126.169 149.496 124.139ZM183.833 144.302C182.512 146.332 181.021 148.25 179.418 150.055C178.097 151.493 176.662 152.818 175.059 153.975C168.394 158.91 162.264 157.697 157.821 150.647C154.671 145.599 153.18 139.931 151.774 133.952C162.939 127.325 171.882 118.668 176.1 105.977H192.832C192.973 106.316 193.198 106.654 193.226 106.965C193.451 120.247 191.286 132.965 183.833 144.302Z" fill="#FAFAFA"/>
<path d="M893.126 102.593L885.983 96.5302C885.674 96.2482 885.224 96.1636 884.802 96.2764C884.408 96.3892 884.099 96.7276 884.014 97.1506C883.93 97.5736 884.099 97.9684 884.408 98.2504L888.711 101.888H730.834V105.413H888.739L884.408 109.079C883.958 109.474 883.902 110.179 884.296 110.659L884.324 110.687C884.746 111.138 885.477 111.194 885.983 110.8L893.126 104.737C893.717 104.257 893.801 103.383 893.323 102.791C893.267 102.706 893.182 102.621 893.126 102.593ZM890.651 103.778V103.552C890.736 103.58 890.736 103.693 890.651 103.778C890.679 103.749 890.679 103.749 890.651 103.778Z" fill="#FAFAFA"/>
<path d="M241.821 97.4609C245.195 97.4609 247.923 100.196 247.923 103.58V103.834C247.923 107.218 245.195 109.954 241.821 109.954C238.446 109.954 235.718 107.218 235.718 103.834V103.58C235.746 100.196 238.474 97.4609 241.821 97.4609Z" fill="#FAFAFA"/>
<path d="M479.592 97.4609C482.967 97.4609 485.695 100.196 485.695 103.58V103.834C485.695 107.218 482.967 109.954 479.592 109.954C476.218 109.954 473.49 107.218 473.49 103.834V103.58C473.49 100.196 476.218 97.4609 479.592 97.4609Z" fill="#FAFAFA"/>
<path d="M718.46 97.4609C721.835 97.4609 724.563 100.196 724.563 103.58V103.834C724.563 107.218 721.835 109.954 718.46 109.954C715.086 109.954 712.358 107.218 712.358 103.834V103.58C712.358 100.196 715.086 97.4609 718.46 97.4609Z" fill="#FAFAFA"/>
<path d="M906.175 97.4609C909.549 97.4609 912.277 100.196 912.277 103.58V103.834C912.277 107.218 909.549 109.954 906.175 109.954C902.8 109.954 900.072 107.218 900.072 103.834V103.58C900.072 100.196 902.828 97.4609 906.175 97.4609Z" fill="#FAFAFA"/>
<path d="M201.494 157.556V142.412H206.219C207.709 142.384 209.171 142.751 210.437 143.54C211.618 144.302 212.209 145.543 212.181 147.263C212.152 148.983 211.534 150.28 210.268 151.07C209.003 151.888 207.512 152.311 205.994 152.283H204.334V157.556H201.494ZM206.134 144.809H204.363V149.886H206.191C206.922 149.914 207.653 149.716 208.272 149.293C208.806 148.899 209.115 148.278 209.171 147.432C209.171 146.445 208.918 145.768 208.384 145.373C207.822 144.979 207.062 144.809 206.134 144.809Z" fill="#FAFAFA"/>
<path d="M220.392 146.727L220.954 149.039C220.364 149.068 219.801 149.209 219.267 149.462C218.564 149.773 217.917 150.196 217.355 150.703V157.528H214.458V146.727H215.977L216.933 148.306C217.439 147.883 217.973 147.517 218.564 147.235C219.126 146.924 219.773 146.755 220.392 146.727Z" fill="#FAFAFA"/>
<path d="M227.423 157.81C225.707 157.782 224.385 157.274 223.429 156.259C222.473 155.244 221.995 153.862 221.995 152.113C221.995 150.393 222.501 149.011 223.486 147.996C224.47 146.981 225.848 146.445 227.591 146.445C229.391 146.445 230.769 146.981 231.753 148.052C232.738 149.124 233.244 150.506 233.244 152.226C233.244 153.946 232.71 155.3 231.641 156.315C230.572 157.302 229.166 157.81 227.423 157.81ZM230.263 152.226C230.263 151.211 230.038 150.393 229.588 149.801C229.138 149.209 228.407 148.87 227.676 148.927C226.945 148.899 226.213 149.181 225.707 149.716C225.229 150.252 224.976 151.042 224.976 152.113C224.976 153.185 225.173 154.003 225.595 154.539C225.988 155.103 226.635 155.356 227.479 155.356C228.238 155.385 228.941 155.131 229.504 154.595C230.01 154.087 230.263 153.298 230.263 152.226Z" fill="#FAFAFA"/>
<path d="M238.587 141.82V147.094C239.008 146.84 239.487 146.671 239.965 146.53C240.386 146.417 240.836 146.332 241.258 146.332C242.833 146.332 244.07 146.896 244.914 147.968C245.758 149.04 246.18 150.421 246.18 152.057C246.18 153.693 245.758 155.075 244.886 156.146C244.014 157.218 242.805 157.782 241.286 157.782C240.724 157.782 240.133 157.669 239.599 157.472C239.008 157.274 238.446 156.992 237.94 156.597L237.237 157.5H235.774V142.018L238.587 141.82ZM240.499 155.357C241.483 155.357 242.186 154.99 242.58 154.285C242.974 153.608 243.17 152.847 243.17 152.085C243.17 151.296 243.002 150.506 242.636 149.801C242.271 149.124 241.568 148.786 240.471 148.786C240.133 148.786 239.824 148.842 239.515 148.955C239.177 149.068 238.868 149.209 238.558 149.406V154.708C238.868 154.877 239.177 155.046 239.515 155.159C239.852 155.272 240.161 155.328 240.499 155.357Z" fill="#FAFAFA"/>
<path d="M251.495 141.82V157.556H248.626V142.074L251.495 141.82Z" fill="#FAFAFA"/>
<path d="M259.96 157.81C258.075 157.81 256.613 157.302 255.544 156.259C254.476 155.215 253.941 153.862 253.941 152.142C253.941 150.421 254.419 149.04 255.404 147.996C256.388 146.953 257.71 146.445 259.369 146.445C261.056 146.445 262.294 147.009 263.081 148.137C263.897 149.293 264.29 150.703 264.262 152.113V153.016H257.007C257.119 153.693 257.457 154.285 257.991 154.708C258.582 155.159 259.313 155.385 260.044 155.328C260.494 155.328 260.944 155.272 261.366 155.131C261.844 154.962 262.294 154.792 262.744 154.595L263.587 156.682C263.053 157.077 262.406 157.387 261.759 157.528C261.169 157.697 260.578 157.81 259.96 157.81ZM261.534 151.042C261.45 150.421 261.169 149.857 260.747 149.434C260.353 149.096 259.819 148.899 259.313 148.927C258.778 148.899 258.244 149.096 257.822 149.463C257.4 149.886 257.119 150.45 257.035 151.07H261.534V151.042Z" fill="#FAFAFA"/>
<path d="M275.764 147.996C276.27 147.432 276.889 147.009 277.592 146.755C278.239 146.473 278.942 146.332 279.645 146.304C281.107 146.304 282.148 146.727 282.766 147.601C283.413 148.532 283.722 149.632 283.694 150.76V157.528H280.77V150.901C280.798 150.337 280.629 149.773 280.292 149.321C279.926 148.927 279.392 148.729 278.857 148.786C278.407 148.786 277.957 148.898 277.536 149.124C277.086 149.321 276.692 149.575 276.298 149.885L276.354 150.337C276.383 150.478 276.383 150.647 276.383 150.788V157.556H273.458V150.929C273.486 150.365 273.317 149.801 272.98 149.35C272.614 148.955 272.108 148.757 271.574 148.814C271.18 148.814 270.814 148.898 270.449 149.039C270.055 149.209 269.718 149.406 269.38 149.632V157.556H266.512V146.755H268.03L268.733 147.742C269.24 147.291 269.858 146.924 270.505 146.699C271.096 146.473 271.714 146.36 272.361 146.332C273.092 146.304 273.823 146.473 274.47 146.783C275.005 147.065 275.455 147.488 275.764 147.996Z" fill="#FAFAFA"/>
<path d="M214.008 176.14H209.734V182.57H206.865V167.398H215.414L215.864 169.682H209.734V173.884H213.586L214.008 176.14Z" fill="#FAFAFA"/>
<path d="M218.929 166.947C219.379 166.947 219.773 167.116 220.111 167.426C220.757 168.075 220.757 169.09 220.111 169.739C219.801 170.049 219.379 170.218 218.929 170.218C218.508 170.218 218.086 170.049 217.805 169.739C217.158 169.118 217.158 168.075 217.776 167.426C218.086 167.116 218.508 166.947 218.929 166.947ZM220.392 171.741V182.542H217.495V171.741H220.392Z" fill="#FAFAFA"/>
<path d="M225.566 172.897C226.1 172.389 226.719 171.995 227.394 171.741C228.013 171.487 228.688 171.346 229.363 171.318C230.825 171.318 231.866 171.741 232.484 172.615C233.131 173.546 233.44 174.646 233.412 175.774V182.542H230.516V175.915C230.544 175.351 230.375 174.787 230.038 174.335C229.672 173.941 229.138 173.743 228.603 173.8C228.153 173.8 227.703 173.912 227.31 174.138C226.888 174.335 226.466 174.589 226.072 174.899V182.598H223.176V171.741H224.694L225.566 172.897Z" fill="#FAFAFA"/>
<path d="M246.349 166.806V182.542H244.83L244.043 181.498C243.537 181.921 242.946 182.26 242.327 182.457C241.765 182.683 241.146 182.796 240.527 182.796C238.953 182.796 237.743 182.26 236.9 181.16C236.056 180.06 235.634 178.678 235.634 177.071C235.634 175.435 236.084 174.082 236.984 172.982C237.884 171.882 239.093 171.346 240.668 171.346C241.118 171.346 241.596 171.431 242.018 171.572C242.524 171.713 243.002 171.91 243.452 172.164V167.116L246.349 166.806ZM241.287 173.8C240.274 173.8 239.571 174.166 239.178 174.871C238.784 175.548 238.587 176.309 238.587 177.071C238.559 177.861 238.756 178.65 239.121 179.355C239.487 180.032 240.19 180.37 241.287 180.37C241.652 180.37 242.018 180.286 242.355 180.145C242.721 180.004 243.087 179.806 243.424 179.609V174.561C243.087 174.335 242.749 174.138 242.355 173.997C242.018 173.884 241.652 173.8 241.287 173.8Z" fill="#FAFAFA"/>
<path d="M250.679 166.947C251.129 166.947 251.523 167.116 251.86 167.426C252.507 168.075 252.507 169.09 251.86 169.739C251.551 170.049 251.129 170.218 250.679 170.218C250.257 170.218 249.836 170.049 249.554 169.739C248.936 169.09 248.936 168.075 249.554 167.426C249.836 167.116 250.257 166.947 250.679 166.947ZM252.113 171.741V182.542H249.217V171.741H252.113Z" fill="#FAFAFA"/>
<path d="M257.316 172.897C257.85 172.389 258.469 171.995 259.144 171.741C259.763 171.487 260.438 171.346 261.113 171.318C262.575 171.318 263.616 171.741 264.234 172.615C264.881 173.546 265.19 174.646 265.162 175.774V182.542H262.266V175.915C262.294 175.351 262.125 174.787 261.788 174.335C261.422 173.941 260.888 173.743 260.353 173.8C259.903 173.8 259.453 173.912 259.06 174.138C258.61 174.335 258.216 174.589 257.822 174.899V182.598H254.926V171.741H256.444L257.316 172.897Z" fill="#FAFAFA"/>
<path d="M278.098 171.741V182.542C278.127 183.783 277.649 184.967 276.777 185.841C275.905 186.715 274.499 187.167 272.587 187.167C271.912 187.138 271.237 187.026 270.59 186.856C269.831 186.687 269.071 186.377 268.396 185.954L269.268 183.895C269.831 184.177 270.393 184.403 270.984 184.6C271.49 184.741 271.996 184.826 272.53 184.854C273.402 184.854 274.049 184.629 274.499 184.234C274.977 183.811 275.23 183.19 275.202 182.542V181.978C274.752 182.26 274.246 182.457 273.74 182.626C273.261 182.767 272.783 182.852 272.305 182.852C270.731 182.852 269.521 182.288 268.678 181.216C267.834 180.145 267.412 178.763 267.412 177.127C267.412 175.492 267.862 174.138 268.762 173.038C269.662 171.938 270.871 171.403 272.446 171.403C273.065 171.431 273.683 171.544 274.246 171.741C274.864 171.938 275.455 172.277 275.961 172.7L276.636 171.797L278.098 171.741ZM273.037 173.8C272.024 173.8 271.321 174.166 270.927 174.871C270.534 175.548 270.337 176.309 270.337 177.071C270.309 177.861 270.506 178.65 270.871 179.355C271.237 180.032 271.94 180.37 273.037 180.37C273.402 180.37 273.768 180.286 274.105 180.145C274.471 180.004 274.836 179.806 275.174 179.609V174.561C274.836 174.335 274.499 174.138 274.105 173.997C273.768 173.884 273.402 173.8 273.037 173.8Z" fill="#FAFAFA"/>
<path d="M439.659 157.556V142.412H444.384C445.874 142.384 447.336 142.751 448.602 143.54C449.783 144.302 450.346 145.543 450.346 147.263C450.346 149.011 449.699 150.28 448.433 151.07C447.168 151.888 445.677 152.311 444.159 152.283H442.5V157.556H439.659ZM444.299 144.781H442.528V149.857H444.356C445.087 149.886 445.818 149.688 446.437 149.265C446.971 148.87 447.28 148.25 447.336 147.404C447.336 146.417 447.083 145.74 446.549 145.345C446.015 144.95 445.255 144.781 444.299 144.781Z" fill="#FAFAFA"/>
<path d="M458.585 146.727L459.176 149.039C458.585 149.068 458.023 149.209 457.489 149.462C456.786 149.773 456.139 150.196 455.576 150.703V157.528H452.68V146.727H454.17L455.126 148.306C455.632 147.883 456.167 147.517 456.757 147.235C457.32 146.924 457.938 146.755 458.585 146.727Z" fill="#FAFAFA"/>
<path d="M465.588 157.81C463.872 157.782 462.551 157.274 461.594 156.259C460.638 155.244 460.16 153.862 460.16 152.113C460.16 150.393 460.666 149.011 461.651 147.996C462.663 146.981 464.013 146.445 465.756 146.445C467.556 146.445 468.934 146.981 469.919 148.052C470.903 149.124 471.409 150.506 471.381 152.226C471.381 153.946 470.847 155.3 469.778 156.315C468.766 157.302 467.359 157.81 465.588 157.81ZM468.456 152.226C468.456 151.211 468.231 150.393 467.781 149.801C467.331 149.209 466.6 148.87 465.869 148.927C465.138 148.899 464.407 149.181 463.9 149.716C463.422 150.224 463.197 151.042 463.197 152.113C463.197 153.185 463.394 154.003 463.816 154.539C464.238 155.103 464.857 155.356 465.7 155.356C466.459 155.385 467.163 155.131 467.725 154.595C468.175 154.087 468.456 153.298 468.456 152.226Z" fill="#FAFAFA"/>
<path d="M476.752 141.82V147.094C477.174 146.84 477.652 146.671 478.13 146.53C478.552 146.417 479.002 146.332 479.424 146.332C480.999 146.332 482.236 146.896 483.08 147.968C483.923 149.068 484.345 150.421 484.345 152.057C484.345 153.693 483.923 155.075 483.051 156.146C482.18 157.218 480.97 157.782 479.452 157.782C478.889 157.782 478.299 157.669 477.765 157.472C477.174 157.274 476.612 156.992 476.105 156.597L475.402 157.5H473.94V142.018L476.752 141.82ZM478.664 155.357C479.649 155.357 480.352 154.99 480.745 154.285C481.139 153.608 481.336 152.847 481.336 152.085C481.336 151.296 481.167 150.506 480.802 149.801C480.436 149.124 479.733 148.786 478.636 148.786C478.299 148.786 477.989 148.842 477.68 148.955C477.343 149.068 477.033 149.209 476.724 149.406V154.708C477.033 154.877 477.343 155.046 477.68 155.159C478.018 155.272 478.327 155.328 478.664 155.357Z" fill="#FAFAFA"/>
<path d="M489.66 141.82V157.556H486.792V142.074L489.66 141.82Z" fill="#FAFAFA"/>
<path d="M498.153 157.81C496.269 157.81 494.806 157.302 493.738 156.259C492.669 155.244 492.135 153.862 492.135 152.142C492.135 150.421 492.613 149.04 493.597 147.996C494.553 146.953 495.875 146.445 497.562 146.445C499.25 146.445 500.487 147.009 501.274 148.137C502.09 149.293 502.484 150.703 502.456 152.113V153.016H495.2C495.313 153.693 495.65 154.285 496.184 154.708C496.775 155.159 497.506 155.385 498.237 155.328C498.687 155.328 499.137 155.272 499.559 155.131C500.037 154.99 500.487 154.792 500.937 154.595L501.781 156.682C501.246 157.077 500.6 157.387 499.953 157.528C499.334 157.725 498.743 157.81 498.153 157.81ZM499.728 151.042C499.643 150.421 499.362 149.857 498.94 149.434C498.547 149.096 498.012 148.899 497.506 148.927C496.972 148.899 496.437 149.096 496.016 149.463C495.594 149.886 495.313 150.45 495.228 151.07H499.728V151.042Z" fill="#FAFAFA"/>
<path d="M513.957 147.996C514.463 147.432 515.082 147.009 515.785 146.755C516.432 146.473 517.135 146.332 517.838 146.304C519.3 146.304 520.341 146.727 520.96 147.601C521.606 148.532 521.916 149.632 521.888 150.76V157.528H518.991V150.901C519.019 150.337 518.851 149.773 518.513 149.321C518.147 148.927 517.613 148.729 517.079 148.786C516.629 148.786 516.179 148.898 515.757 149.124C515.307 149.321 514.913 149.575 514.52 149.885C514.52 150.026 514.548 150.167 514.576 150.337C514.604 150.506 514.604 150.619 514.604 150.788V157.556H511.679V150.929C511.708 150.365 511.539 149.801 511.201 149.35C510.836 148.955 510.33 148.757 509.795 148.814C509.402 148.814 509.036 148.898 508.67 149.039C508.305 149.209 507.939 149.406 507.602 149.632V157.556H504.705V146.755H506.224L506.927 147.742C507.433 147.291 508.052 146.924 508.698 146.699C509.289 146.473 509.908 146.36 510.554 146.332C511.286 146.304 512.017 146.473 512.664 146.783C513.17 147.065 513.648 147.488 513.957 147.996Z" fill="#FAFAFA"/>
<path d="M448.405 176.14H444.13V182.57H441.262V167.398H449.811L450.261 169.682H444.13V173.884H447.983L448.405 176.14Z" fill="#FAFAFA"/>
<path d="M457.797 171.741L458.36 174.053C457.769 174.082 457.207 174.223 456.673 174.476C455.97 174.787 455.351 175.21 454.76 175.717V182.542H451.864V171.741H453.382L454.338 173.32C454.845 172.897 455.379 172.531 455.97 172.249C456.532 171.938 457.179 171.769 457.797 171.741Z" fill="#FAFAFA"/>
<path d="M463.422 182.824C462.1 182.824 461.144 182.513 460.497 181.865C459.851 181.188 459.513 180.257 459.541 179.327C459.541 178.199 459.907 177.353 460.666 176.761C461.425 176.168 462.41 175.858 463.619 175.858H465.728C465.728 175.379 465.559 174.927 465.25 174.589C464.912 174.279 464.463 174.11 463.984 174.138C463.422 174.138 462.888 174.222 462.353 174.363C461.847 174.476 461.341 174.645 460.863 174.871L460.076 172.474C460.666 172.136 461.313 171.882 461.988 171.769C462.635 171.6 463.281 171.515 463.956 171.487C465.166 171.459 466.347 171.854 467.275 172.615C468.175 173.292 468.681 174.363 468.653 175.491V182.598H467.162L466.459 181.696C466.037 182.034 465.559 182.316 465.053 182.513C464.547 182.683 463.984 182.824 463.422 182.824ZM462.016 179.327C462.016 179.637 462.157 179.947 462.381 180.173C462.663 180.427 463 180.568 463.394 180.539C463.816 180.539 464.209 180.455 464.603 180.286C465.025 180.088 465.419 179.806 465.784 179.496V177.86H463.619C463.169 177.832 462.747 178.001 462.438 178.34C462.157 178.565 462.016 178.932 462.016 179.327Z" fill="#FAFAFA"/>
<path d="M480.604 173.01C481.111 172.446 481.729 172.023 482.432 171.769C483.079 171.487 483.782 171.346 484.485 171.318C485.948 171.318 486.988 171.741 487.607 172.615C488.254 173.546 488.563 174.646 488.535 175.774V182.542H485.638V175.915C485.666 175.351 485.498 174.787 485.16 174.335C484.795 173.941 484.26 173.743 483.726 173.8C483.276 173.8 482.826 173.912 482.404 174.138C481.954 174.335 481.561 174.589 481.167 174.899C481.167 175.04 481.195 175.21 481.223 175.351C481.251 175.492 481.251 175.633 481.251 175.802V182.57H478.355V175.943C478.383 175.379 478.214 174.815 477.877 174.364C477.511 173.969 477.005 173.771 476.471 173.828C476.077 173.828 475.711 173.912 475.346 174.053C474.952 174.223 474.614 174.42 474.277 174.646V182.57H471.324V171.741H472.843L473.546 172.728C474.052 172.277 474.671 171.91 475.318 171.685C475.908 171.459 476.527 171.346 477.174 171.318C477.905 171.29 478.636 171.459 479.283 171.769C479.817 172.051 480.295 172.474 480.604 173.01Z" fill="#FAFAFA"/>
<path d="M492.613 166.947C493.063 166.947 493.456 167.116 493.794 167.426C494.441 168.075 494.441 169.09 493.794 169.739C493.485 170.049 493.063 170.218 492.613 170.218C492.191 170.218 491.769 170.049 491.488 169.739C490.869 169.09 490.869 168.075 491.488 167.426C491.797 167.116 492.191 166.947 492.613 166.947ZM494.075 171.741V182.542H491.179V171.741H494.075Z" fill="#FAFAFA"/>
<path d="M499.25 172.897C499.784 172.389 500.403 171.995 501.078 171.741C501.696 171.487 502.371 171.346 503.046 171.318C504.509 171.318 505.549 171.741 506.168 172.615C506.815 173.546 507.124 174.646 507.096 175.774V182.542H504.199V175.915C504.227 175.351 504.059 174.787 503.721 174.335C503.356 173.941 502.821 173.743 502.287 173.8C501.837 173.8 501.387 173.912 500.993 174.138C500.543 174.335 500.15 174.589 499.756 174.899V182.598H496.859V171.741H498.378L499.25 172.897Z" fill="#FAFAFA"/>
<path d="M520.031 171.741V182.542C520.06 183.783 519.582 184.967 518.71 185.841C517.838 186.715 516.432 187.167 514.52 187.167C513.845 187.138 513.17 187.026 512.523 186.856C511.764 186.687 511.004 186.377 510.357 185.954L511.229 183.895C511.792 184.177 512.354 184.403 512.945 184.6C513.451 184.741 513.957 184.826 514.463 184.854C515.335 184.854 515.982 184.629 516.432 184.234C516.91 183.811 517.163 183.19 517.107 182.542V181.978C516.657 182.26 516.151 182.457 515.644 182.626C515.166 182.767 514.688 182.852 514.21 182.852C512.635 182.852 511.426 182.288 510.582 181.216C509.739 180.117 509.317 178.763 509.317 177.127C509.317 175.492 509.767 174.138 510.667 173.038C511.567 171.938 512.804 171.403 514.351 171.403C514.969 171.431 515.56 171.544 516.151 171.741C516.769 171.938 517.36 172.277 517.866 172.7L518.541 171.797L520.031 171.741ZM514.969 173.8C513.957 173.8 513.254 174.166 512.86 174.871C512.467 175.548 512.27 176.309 512.27 177.071C512.27 177.861 512.438 178.65 512.804 179.355C513.17 180.032 513.873 180.37 514.969 180.37C515.335 180.37 515.701 180.286 516.038 180.145C516.404 180.004 516.769 179.806 517.107 179.609V174.561C516.769 174.335 516.432 174.138 516.038 173.997C515.729 173.884 515.363 173.8 514.969 173.8Z" fill="#FAFAFA"/>
<path d="M677.965 154.2C678.527 154.482 679.118 154.736 679.708 154.905C680.355 155.131 681.03 155.244 681.733 155.272C682.633 155.272 683.308 155.131 683.758 154.849C684.18 154.595 684.461 154.116 684.433 153.636C684.433 153.129 684.123 152.677 683.533 152.283C682.886 151.86 682.239 151.493 681.536 151.126C680.468 150.562 679.427 149.914 678.471 149.181C677.487 148.447 676.952 147.291 677.037 146.079C677.037 144.95 677.543 143.907 678.415 143.202C679.315 142.412 680.58 142.018 682.239 142.046C682.999 142.046 683.786 142.159 684.517 142.412C685.192 142.61 685.867 142.892 686.514 143.202L685.558 145.515C685.108 145.289 684.602 145.091 684.067 144.894C683.505 144.697 682.886 144.584 682.296 144.584C681.733 144.556 681.171 144.697 680.693 144.95C680.271 145.176 680.018 145.627 680.046 146.107C680.046 146.699 680.383 147.235 680.889 147.517C681.452 147.883 682.127 148.278 682.886 148.701C683.983 149.265 684.995 149.914 685.98 150.647C686.936 151.352 687.498 152.508 687.442 153.693C687.442 154.877 686.908 155.977 685.98 156.682C685.023 157.471 683.617 157.866 681.789 157.866C680.946 157.838 680.13 157.697 679.343 157.443C678.33 157.161 677.684 156.879 677.346 156.569L677.965 154.2Z" fill="#FAFAFA"/>
<path d="M694.725 157.81C693.01 157.782 691.688 157.274 690.732 156.259C689.776 155.244 689.298 153.862 689.298 152.113C689.298 150.393 689.804 149.011 690.788 147.996C691.773 146.981 693.151 146.445 694.894 146.445C696.694 146.445 698.072 146.981 699.056 148.052C700.041 149.124 700.547 150.506 700.519 152.226C700.519 153.946 699.984 155.3 698.916 156.315C697.875 157.302 696.469 157.81 694.725 157.81ZM697.566 152.226C697.566 151.211 697.341 150.393 696.891 149.801C696.441 149.209 695.71 148.87 694.979 148.927C694.247 148.899 693.516 149.181 693.01 149.716C692.532 150.224 692.307 151.042 692.307 152.113C692.307 153.185 692.504 154.003 692.926 154.539C693.319 155.103 693.966 155.356 694.81 155.356C695.569 155.385 696.272 155.131 696.835 154.595C697.313 154.087 697.566 153.298 697.566 152.226Z" fill="#FAFAFA"/>
<path d="M705.89 141.82V157.556H703.021V142.074L705.89 141.82Z" fill="#FAFAFA"/>
<path d="M716.435 156.484C715.395 157.415 714.073 157.923 712.695 158.007C711.233 158.007 710.192 157.584 709.574 156.71C708.955 155.779 708.618 154.68 708.646 153.552V146.755H711.57V153.411C711.542 153.975 711.711 154.539 712.048 154.99C712.414 155.385 712.948 155.582 713.483 155.526C713.905 155.526 714.326 155.413 714.72 155.244C715.142 155.046 715.536 154.821 715.901 154.567V146.727H718.798V157.528H717.279L716.435 156.484Z" fill="#FAFAFA"/>
<path d="M728.219 157.331C727.909 157.556 727.572 157.725 727.206 157.81C726.841 157.923 726.447 157.979 726.053 158.007C724.732 158.007 723.663 157.669 722.904 156.992C722.144 156.315 721.751 155.357 721.751 154.116V149.011H720.316V146.784H721.751V144.217L724.619 143.71V146.784H726.588L727.487 149.011H724.647V153.608C724.619 154.116 724.76 154.595 725.041 154.99C725.322 155.357 725.772 155.554 726.222 155.526C726.419 155.526 726.588 155.498 726.784 155.469C726.981 155.413 727.206 155.357 727.375 155.244L728.219 157.331Z" fill="#FAFAFA"/>
<path d="M731.284 141.933C731.734 141.933 732.128 142.102 732.437 142.413C733.084 143.061 733.084 144.076 732.437 144.725C732.128 145.035 731.706 145.204 731.284 145.204C730.862 145.204 730.44 145.035 730.159 144.725C729.512 144.105 729.512 143.061 730.131 142.413C730.44 142.131 730.834 141.933 731.284 141.933ZM732.718 146.727V157.528H729.822V146.727H732.718Z" fill="#FAFAFA"/>
<path d="M740.508 157.81C738.792 157.782 737.471 157.274 736.515 156.259C735.558 155.244 735.08 153.862 735.08 152.113C735.08 150.393 735.587 149.011 736.571 147.996C737.555 146.981 738.933 146.445 740.677 146.445C742.476 146.445 743.854 146.981 744.839 148.052C745.823 149.124 746.329 150.506 746.329 152.226C746.329 153.946 745.795 155.3 744.726 156.315C743.658 157.302 742.251 157.81 740.508 157.81ZM743.348 152.226C743.348 151.211 743.123 150.393 742.673 149.801C742.223 149.209 741.492 148.87 740.761 148.927C740.03 148.899 739.299 149.181 738.792 149.716C738.314 150.224 738.089 151.042 738.089 152.113C738.089 153.185 738.286 154.003 738.708 154.539C739.13 155.103 739.749 155.356 740.592 155.356C741.352 155.385 742.055 155.131 742.617 154.595C743.095 154.087 743.348 153.298 743.348 152.226Z" fill="#FAFAFA"/>
<path d="M751.026 147.883C751.56 147.376 752.179 146.981 752.854 146.727C753.472 146.473 754.147 146.332 754.822 146.304C756.284 146.304 757.325 146.727 757.944 147.601C758.59 148.532 758.9 149.632 758.872 150.76V157.528H755.975V150.901C756.003 150.337 755.834 149.773 755.497 149.321C755.131 148.927 754.597 148.729 754.063 148.786C753.613 148.786 753.163 148.898 752.769 149.124C752.319 149.321 751.925 149.575 751.532 149.885V157.584H748.635V146.783H750.154L751.026 147.883Z" fill="#FAFAFA"/>
<path d="M679.286 179.214C679.849 179.496 680.439 179.722 681.03 179.919C681.677 180.145 682.352 180.258 683.055 180.286C683.955 180.286 684.63 180.145 685.079 179.863C685.529 179.609 685.782 179.13 685.754 178.65C685.754 178.142 685.445 177.691 684.854 177.296C684.208 176.873 683.561 176.507 682.858 176.14C681.789 175.576 680.749 174.928 679.793 174.194C678.808 173.461 678.274 172.305 678.358 171.092C678.358 169.964 678.865 168.921 679.736 168.216C680.636 167.426 681.902 167.031 683.561 167.031C684.32 167.031 685.108 167.144 685.839 167.398C686.514 167.624 687.189 167.878 687.835 168.188L686.879 170.5C686.429 170.275 685.923 170.077 685.389 169.88C684.826 169.682 684.208 169.57 683.617 169.57C683.055 169.541 682.492 169.682 682.014 169.936C681.592 170.162 681.339 170.613 681.367 171.092C681.367 171.685 681.705 172.22 682.211 172.502C682.773 172.869 683.448 173.264 684.208 173.687C685.304 174.251 686.317 174.899 687.301 175.633C688.257 176.338 688.82 177.494 688.763 178.678C688.763 179.863 688.229 180.963 687.301 181.668C686.345 182.457 684.939 182.852 683.111 182.852C682.267 182.824 681.452 182.683 680.664 182.429C679.652 182.147 679.005 181.865 678.668 181.555L679.286 179.214Z" fill="#FAFAFA"/>
<path d="M694.079 172.446C694.557 172.079 695.119 171.769 695.71 171.6C696.244 171.431 696.806 171.318 697.369 171.318C698.831 171.318 699.872 171.741 700.49 172.615C701.137 173.546 701.446 174.646 701.418 175.774V182.542H698.55V175.886C698.578 175.322 698.409 174.758 698.072 174.307C697.706 173.912 697.172 173.715 696.638 173.771C696.188 173.771 695.738 173.884 695.344 174.11C694.922 174.307 694.5 174.561 694.107 174.871V182.57H691.238V167.088L694.107 166.834L694.079 172.446Z" fill="#FAFAFA"/>
<path d="M707.661 182.824C706.34 182.824 705.384 182.513 704.737 181.865C704.09 181.188 703.753 180.257 703.781 179.327C703.781 178.199 704.146 177.353 704.906 176.761C705.665 176.168 706.649 175.858 707.858 175.858H709.968C709.996 175.379 709.799 174.927 709.489 174.589C709.152 174.279 708.702 174.11 708.224 174.138C707.661 174.138 707.127 174.222 706.565 174.363C706.059 174.476 705.552 174.645 705.074 174.871L704.287 172.474C704.877 172.136 705.524 171.882 706.199 171.769C706.846 171.6 707.493 171.515 708.168 171.487C709.377 171.459 710.558 171.854 711.486 172.615C712.358 173.292 712.892 174.363 712.864 175.491V182.598H711.374L710.671 181.696C710.249 182.034 709.771 182.316 709.264 182.513C708.758 182.683 708.196 182.824 707.661 182.824ZM706.227 179.327C706.227 179.637 706.368 179.947 706.593 180.173C706.874 180.427 707.212 180.568 707.605 180.539C708.027 180.539 708.449 180.455 708.814 180.286C709.236 180.088 709.63 179.806 709.968 179.496V177.86H707.774C707.324 177.832 706.902 178.001 706.621 178.34C706.368 178.565 706.227 178.932 706.227 179.327Z" fill="#FAFAFA"/>
<path d="M715.704 171.741H717.167L717.785 172.531C718.292 172.136 718.882 171.854 719.501 171.628C720.063 171.431 720.654 171.318 721.244 171.29C722.819 171.29 724.057 171.826 724.9 172.925C725.744 174.025 726.166 175.379 726.166 177.014C726.166 178.65 725.744 180.032 724.872 181.104C724 182.203 722.791 182.739 721.272 182.739C720.823 182.739 720.401 182.655 719.979 182.542C719.501 182.401 719.051 182.232 718.601 181.978V187.138L715.732 187.364L715.704 171.741ZM720.485 180.342C721.469 180.342 722.172 179.976 722.566 179.271C722.96 178.594 723.157 177.832 723.157 177.071C723.157 176.281 722.988 175.492 722.622 174.787C722.257 174.11 721.554 173.771 720.457 173.771C720.119 173.771 719.81 173.828 719.501 173.941C719.163 174.053 718.854 174.194 718.545 174.392V179.694C718.854 179.863 719.163 180.032 719.501 180.145C719.838 180.286 720.148 180.342 720.485 180.342Z" fill="#FAFAFA"/>
<path d="M729.906 166.947C730.356 166.947 730.75 167.116 731.059 167.426C731.706 168.075 731.706 169.09 731.059 169.739C730.75 170.049 730.328 170.218 729.906 170.218C729.484 170.218 729.062 170.049 728.781 169.739C728.134 169.118 728.134 168.075 728.753 167.426C729.062 167.116 729.484 166.947 729.906 166.947ZM731.34 171.741V182.542H728.444V171.741H731.34Z" fill="#FAFAFA"/>
<path d="M736.543 172.897C737.077 172.389 737.696 171.995 738.371 171.741C738.989 171.487 739.664 171.346 740.339 171.318C741.801 171.318 742.842 171.741 743.461 172.615C744.107 173.546 744.417 174.646 744.389 175.774V182.542H741.492V175.915C741.52 175.351 741.351 174.787 741.014 174.335C740.648 173.941 740.114 173.743 739.58 173.8C739.13 173.8 738.68 173.912 738.286 174.138C737.836 174.335 737.443 174.589 737.049 174.899V182.598H734.152V171.741H735.671L736.543 172.897Z" fill="#FAFAFA"/>
<path d="M757.325 171.741V182.542C757.353 183.783 756.875 184.967 756.003 185.841C755.131 186.715 753.725 187.167 751.813 187.167C751.138 187.138 750.463 187.026 749.816 186.856C749.057 186.687 748.298 186.377 747.623 185.954L748.495 183.895C749.057 184.177 749.619 184.403 750.21 184.6C750.716 184.741 751.222 184.826 751.729 184.854C752.6 184.854 753.247 184.629 753.697 184.234C754.175 183.811 754.428 183.19 754.372 182.542V181.978C753.922 182.26 753.416 182.457 752.91 182.626C752.432 182.767 751.954 182.852 751.476 182.852C749.901 182.852 748.691 182.288 747.848 181.216C747.004 180.145 746.582 178.763 746.582 177.127C746.526 175.633 747.004 174.194 747.932 173.038C748.832 171.938 750.041 171.403 751.616 171.403C752.235 171.431 752.825 171.544 753.416 171.741C754.035 171.938 754.625 172.277 755.131 172.7L755.806 171.797L757.325 171.741ZM752.263 173.8C751.251 173.8 750.548 174.166 750.154 174.871C749.76 175.548 749.563 176.309 749.563 177.071C749.563 177.861 749.732 178.65 750.098 179.355C750.463 180.032 751.166 180.37 752.263 180.37C752.629 180.37 752.994 180.286 753.332 180.145C753.697 180.004 754.063 179.806 754.4 179.609V174.561C754.063 174.335 753.725 174.138 753.332 173.997C752.994 173.884 752.629 173.8 752.263 173.8Z" fill="#FAFAFA"/>
<path d="M865.876 152.508C866.438 152.79 867.029 153.044 867.619 153.213C868.266 153.439 868.941 153.552 869.644 153.58C870.544 153.58 871.219 153.439 871.669 153.157C872.091 152.903 872.372 152.424 872.344 151.944C872.344 151.437 872.035 150.985 871.444 150.591C870.797 150.168 870.15 149.801 869.447 149.434C868.379 148.87 867.338 148.222 866.382 147.488C865.426 146.755 864.863 145.599 864.948 144.386C864.948 143.258 865.454 142.215 866.326 141.51C867.226 140.72 868.491 140.354 870.15 140.354C870.91 140.354 871.697 140.467 872.428 140.72C873.103 140.918 873.778 141.2 874.425 141.51L873.469 143.822C873.019 143.597 872.513 143.399 871.978 143.202C871.416 143.005 870.797 142.892 870.207 142.892C869.644 142.864 869.082 143.005 868.604 143.258C868.182 143.484 867.929 143.935 867.957 144.415C867.957 145.007 868.294 145.543 868.801 145.825C869.363 146.191 870.038 146.586 870.797 147.009C871.894 147.573 872.906 148.222 873.891 148.955C874.847 149.66 875.409 150.816 875.353 152.001C875.353 153.157 874.819 154.285 873.891 154.99C872.935 155.779 871.528 156.174 869.7 156.174C868.857 156.146 868.041 156.005 867.254 155.751C866.241 155.469 865.595 155.187 865.229 154.877L865.876 152.508Z" fill="#FAFAFA"/>
<path d="M882.637 156.118C880.921 156.09 879.599 155.582 878.643 154.567C877.687 153.551 877.209 152.17 877.209 150.421C877.209 148.701 877.715 147.319 878.699 146.304C879.712 145.289 881.062 144.753 882.805 144.753C884.605 144.753 885.983 145.289 886.967 146.36C887.952 147.432 888.458 148.814 888.43 150.534C888.43 152.254 887.895 153.608 886.827 154.623C885.814 155.61 884.408 156.118 882.637 156.118ZM885.505 150.534C885.505 149.519 885.28 148.701 884.83 148.109C884.38 147.517 883.649 147.178 882.918 147.235C882.187 147.206 881.455 147.488 880.949 148.024C880.471 148.532 880.246 149.35 880.246 150.421C880.246 151.493 880.443 152.311 880.865 152.846C881.287 153.382 881.905 153.664 882.749 153.664C883.508 153.693 884.211 153.439 884.774 152.903C885.224 152.395 885.505 151.606 885.505 150.534Z" fill="#FAFAFA"/>
<path d="M893.801 140.128V155.864H890.932V140.382L893.801 140.128Z" fill="#FAFAFA"/>
<path d="M904.375 154.793C903.334 155.723 902.012 156.231 900.634 156.315C899.172 156.315 898.132 155.892 897.513 155.018C896.894 154.088 896.557 152.988 896.585 151.86V145.063H899.51V151.719C899.481 152.283 899.65 152.847 899.988 153.298C900.353 153.693 900.887 153.89 901.422 153.834C901.844 153.834 902.265 153.721 902.659 153.552C903.081 153.354 903.475 153.157 903.84 152.875V145.035H906.737V155.836H905.218L904.375 154.793Z" fill="#FAFAFA"/>
<path d="M916.158 155.638C915.849 155.864 915.511 156.033 915.146 156.118C914.78 156.231 914.386 156.287 913.993 156.315C912.671 156.315 911.602 155.977 910.843 155.3C910.084 154.623 909.69 153.664 909.69 152.424V147.319H908.256V145.091H909.69V142.525L912.558 142.018V145.091H914.527L915.427 147.319H912.558V151.916C912.53 152.424 912.671 152.903 912.952 153.298C913.233 153.664 913.655 153.862 914.133 153.834C914.33 153.834 914.527 153.805 914.724 153.777C914.921 153.721 915.146 153.664 915.314 153.552L916.158 155.638Z" fill="#FAFAFA"/>
<path d="M919.195 140.241C919.645 140.241 920.039 140.41 920.348 140.72C920.995 141.369 920.995 142.384 920.348 143.033C920.039 143.343 919.617 143.512 919.195 143.512C918.773 143.512 918.38 143.343 918.07 143.033C917.452 142.384 917.452 141.369 918.07 140.72C918.351 140.41 918.773 140.241 919.195 140.241ZM920.629 145.035V155.836H917.733V145.035H920.629Z" fill="#FAFAFA"/>
<path d="M928.419 156.118C926.703 156.09 925.382 155.582 924.426 154.567C923.469 153.551 922.991 152.17 922.991 150.421C922.991 148.701 923.498 147.319 924.482 146.304C925.494 145.289 926.844 144.753 928.588 144.753C930.387 144.753 931.765 145.289 932.75 146.36C933.734 147.432 934.24 148.814 934.212 150.534C934.212 152.254 933.678 153.608 932.609 154.623C931.569 155.61 930.162 156.118 928.419 156.118ZM931.259 150.534C931.259 149.519 931.034 148.701 930.584 148.109C930.134 147.517 929.403 147.178 928.672 147.235C927.941 147.206 927.21 147.488 926.704 148.024C926.225 148.532 926 149.35 926 150.421C926 151.493 926.197 152.311 926.619 152.846C927.013 153.41 927.66 153.664 928.503 153.664C929.263 153.693 929.966 153.439 930.528 152.903C931.006 152.395 931.259 151.606 931.259 150.534Z" fill="#FAFAFA"/>
<path d="M938.937 146.191C939.471 145.684 940.09 145.289 940.765 145.035C941.383 144.781 942.058 144.64 942.733 144.612C944.196 144.612 945.236 145.035 945.855 145.909C946.502 146.84 946.811 147.94 946.783 149.068V155.836H943.886V149.209C943.914 148.645 943.746 148.081 943.408 147.63C943.043 147.235 942.508 147.037 941.974 147.094C941.524 147.094 941.074 147.207 940.68 147.432C940.23 147.63 939.837 147.883 939.443 148.194V155.892H936.546V145.091H938.065L938.937 146.191Z" fill="#FAFAFA"/>
<path d="M866.41 180.85V165.678H871.135C872.625 165.65 874.088 166.016 875.353 166.806C876.534 167.567 877.125 168.808 877.097 170.528C877.097 172.277 876.45 173.546 875.184 174.335C873.919 175.153 872.428 175.576 870.91 175.548H869.251V180.821L866.41 180.85ZM871.05 168.103H869.279V173.179H871.107C871.838 173.207 872.597 173.01 873.188 172.587C873.722 172.192 874.003 171.572 874.088 170.726C874.088 169.739 873.834 169.062 873.272 168.667C872.738 168.3 872.006 168.103 871.05 168.103Z" fill="#FAFAFA"/>
<path d="M880.865 165.255C881.315 165.255 881.737 165.424 882.018 165.734C882.665 166.383 882.665 167.398 882.018 168.047C881.708 168.357 881.287 168.526 880.865 168.526C880.443 168.526 880.049 168.357 879.74 168.047C879.121 167.398 879.121 166.383 879.74 165.734C880.021 165.424 880.443 165.255 880.865 165.255ZM882.299 170.049V180.85H879.402V170.049H882.299Z" fill="#FAFAFA"/>
<path d="M891.776 180.624C891.467 180.85 891.129 181.019 890.764 181.103C890.398 181.216 890.004 181.273 889.611 181.301C888.289 181.301 887.22 180.962 886.461 180.286C885.702 179.609 885.308 178.65 885.308 177.409V172.305H883.874V170.077H885.308V167.511L888.176 167.003V170.077H890.145L891.045 172.305H888.205V176.902C888.176 177.409 888.317 177.889 888.598 178.283C888.88 178.65 889.329 178.847 889.779 178.819C889.976 178.819 890.145 178.791 890.342 178.763C890.539 178.706 890.764 178.65 890.932 178.537L891.776 180.624Z" fill="#FAFAFA"/>
<path d="M898.497 172.248C897.738 172.22 897.035 172.559 896.585 173.179C896.107 173.856 895.854 174.674 895.91 175.491C895.882 176.309 896.107 177.127 896.585 177.776C897.035 178.368 897.766 178.706 898.497 178.678C898.947 178.678 899.425 178.622 899.875 178.481C900.353 178.34 900.803 178.142 901.253 177.945L902.069 180.032C901.534 180.427 900.888 180.737 900.241 180.878C899.65 181.047 899.06 181.132 898.469 181.16C896.726 181.16 895.348 180.652 894.392 179.609C893.435 178.565 892.929 177.212 892.929 175.491C892.929 173.771 893.407 172.389 894.392 171.346C895.376 170.303 896.754 169.795 898.497 169.795C899.088 169.823 899.678 169.908 900.241 170.077C900.916 170.246 901.534 170.528 902.097 170.923L901.281 173.01C900.831 172.784 900.353 172.615 899.903 172.474C899.425 172.277 898.975 172.22 898.497 172.248Z" fill="#FAFAFA"/>
<path d="M907.215 170.754C907.693 170.387 908.256 170.077 908.846 169.908C909.381 169.739 909.943 169.626 910.505 169.626C911.968 169.626 913.008 170.049 913.627 170.923C914.274 171.854 914.583 172.954 914.555 174.082V180.85H911.658V174.194C911.687 173.63 911.518 173.066 911.18 172.615C910.815 172.22 910.28 172.023 909.746 172.079C909.296 172.079 908.846 172.192 908.452 172.418C908.031 172.615 907.609 172.869 907.215 173.179V180.878H904.347V165.396L907.215 165.142V170.754Z" fill="#FAFAFA"/>
<path d="M918.633 165.255C919.083 165.255 919.504 165.424 919.786 165.734C920.432 166.383 920.432 167.398 919.786 168.047C919.476 168.357 919.054 168.526 918.633 168.526C918.211 168.526 917.817 168.357 917.508 168.047C916.889 167.398 916.889 166.383 917.508 165.734C917.789 165.424 918.211 165.255 918.633 165.255ZM920.067 170.049V180.85H917.17V170.049H920.067Z" fill="#FAFAFA"/>
<path d="M925.241 171.205C925.775 170.698 926.394 170.303 927.069 170.049C927.688 169.795 928.363 169.654 929.038 169.626C930.5 169.626 931.54 170.049 932.159 170.923C932.806 171.854 933.115 172.954 933.087 174.082V180.85H930.191V174.223C930.219 173.659 930.05 173.095 929.713 172.643C929.347 172.249 928.813 172.051 928.278 172.108C927.828 172.108 927.378 172.22 926.985 172.446C926.563 172.643 926.141 172.897 925.747 173.207V180.906H922.851V170.049H924.369L925.241 171.205Z" fill="#FAFAFA"/>
<path d="M946.051 170.049V180.85C946.08 182.09 945.601 183.275 944.73 184.149C943.858 185.023 942.452 185.474 940.539 185.474C939.865 185.446 939.19 185.333 938.543 185.164C937.783 184.995 937.024 184.685 936.349 184.262L937.221 182.203C937.784 182.485 938.346 182.711 938.937 182.908C939.443 183.049 939.949 183.134 940.483 183.162C941.355 183.162 942.002 182.936 942.452 182.542C942.93 182.119 943.183 181.498 943.127 180.85V180.286C942.677 180.568 942.171 180.765 941.664 180.906C941.186 181.047 940.708 181.132 940.23 181.132C938.655 181.132 937.446 180.568 936.602 179.496C935.759 178.396 935.337 177.042 935.337 175.407C935.337 173.771 935.787 172.418 936.687 171.318C937.587 170.218 938.796 169.654 940.371 169.682C940.989 169.71 941.608 169.823 942.171 170.021C942.789 170.218 943.38 170.556 943.886 170.979L944.561 170.077L946.051 170.049ZM940.989 172.107C939.977 172.107 939.274 172.474 938.88 173.179C938.487 173.856 938.29 174.617 938.29 175.379C938.262 176.168 938.458 176.958 938.824 177.663C939.19 178.34 939.893 178.678 940.989 178.65C941.355 178.65 941.721 178.565 942.058 178.424C942.424 178.283 942.789 178.086 943.127 177.888V172.869C942.789 172.643 942.452 172.446 942.058 172.305C941.721 172.164 941.355 172.107 940.989 172.107Z" fill="#FAFAFA"/>
</g>
<defs>
<clipPath id="clip0_515_5180">
<rect width="960" height="202" fill="white"/>
</clipPath>
</defs>
</svg>
