<svg width="65" height="64" viewBox="0 0 65 64" fill="none" xmlns="http://www.w3.org/2000/svg">
<path d="M21.6668 63.9998C27.6468 63.9998 32.5002 59.2212 32.5002 53.3332V42.6665H21.6668C15.6868 42.6665 10.8335 47.4452 10.8335 53.3332C10.8335 59.2212 15.6868 63.9998 21.6668 63.9998Z" fill="#0ACF83"/>
<path d="M10.8335 32.0002C10.8335 26.1122 15.6868 21.3335 21.6668 21.3335H32.5002V42.6668H21.6668C15.6868 42.6668 10.8335 37.8882 10.8335 32.0002Z" fill="#A259FF"/>
<path d="M10.8335 10.6667C10.8335 4.77867 15.6868 0 21.6668 0H32.5002V21.3333H21.6668C15.6868 21.3333 10.8335 16.5547 10.8335 10.6667Z" fill="#F24E1E"/>
<path d="M32.5 0H43.3333C49.3133 0 54.1667 4.77867 54.1667 10.6667C54.1667 16.5547 49.3133 21.3333 43.3333 21.3333H32.5V0Z" fill="#FF7262"/>
<path d="M54.1667 32.0002C54.1667 37.8882 49.3133 42.6668 43.3333 42.6668C37.3533 42.6668 32.5 37.8882 32.5 32.0002C32.5 26.1122 37.3533 21.3335 43.3333 21.3335C49.3133 21.3335 54.1667 26.1122 54.1667 32.0002Z" fill="#1ABCFE"/>
</svg>
