<svg width="72" height="61" viewBox="0 0 72 61" fill="none" xmlns="http://www.w3.org/2000/svg">
<g clip-path="url(#clip0_515_5369)">
<path d="M12.5326 43.0656C12.262 41.5921 11.9101 40.1459 11.7206 38.6723C10.9627 32.9147 12.1808 27.5937 15.5642 22.8457C18.2169 19.1073 21.8439 16.515 26.0123 14.714C31.0199 12.5583 36.4063 11.3849 41.8469 11.2758C46.692 11.1394 50.9146 12.9403 54.5958 15.9965C58.3853 19.1619 61.3086 23.064 63.5552 27.4572C64.6379 29.5856 65.6394 31.7686 66.668 33.9516C66.7762 34.1972 66.8574 34.4701 66.9116 34.743C65.477 35.6162 64.0965 36.5166 62.6349 37.308C57.2214 40.3096 51.3747 42.3561 45.2845 43.4204C41.9552 43.9934 38.5988 44.3208 35.2424 44.5391C32.0484 44.7574 28.8544 44.8666 25.6605 44.7847C21.3026 44.6756 16.9717 43.9934 12.5326 43.0656ZM19.4078 28.4396C19.3266 33.2422 23.1973 37.117 27.9071 37.1715C32.4544 37.2261 36.7041 33.706 36.7041 28.5487C36.7041 23.2004 32.6168 19.8167 28.0424 19.8167C23.3056 19.8167 19.4349 23.6643 19.4078 28.4396ZM52.674 30.95C55.2454 31.141 58.1146 28.9853 58.1417 25.438C58.1687 22.4909 55.8138 20.0896 52.8905 20.0623H52.7823C49.8048 20.0078 47.3687 22.4091 47.3146 25.3834V25.4652C47.3146 28.576 49.6153 30.95 52.674 30.95Z" fill="#1E61C6"/>
<path d="M67.0738 35.9712C67.4527 40.5555 66.3159 44.594 64.0422 48.3051C60.9565 53.326 56.355 56.4913 50.9414 58.4833C45.4196 60.5026 39.5459 61.2939 33.6993 60.8573C30.2076 60.6117 26.6888 60.0933 23.5489 58.4287C18.1354 55.5363 14.779 50.9247 13.0196 45.0579C12.9384 44.7032 12.9113 44.3211 12.8843 43.9664C31.967 48.4142 50.0753 46.4496 67.0738 35.9712Z" fill="#1E60C6"/>
<path d="M66.1806 19.2983C67.5882 18.7798 67.5882 18.7525 67.4528 17.4155C67.3716 16.6514 67.3445 15.8874 67.7235 15.1506C67.8859 14.8504 67.8588 14.4684 67.8859 14.1137C67.94 13.0222 68.8333 12.1763 69.916 12.1763C70.9987 12.1763 71.919 13.0495 71.9731 14.141C71.9731 15.2325 71.107 16.1329 70.0243 16.1875C69.6724 16.2148 69.3205 16.1875 68.8333 16.1875C68.7791 16.7333 68.6709 17.2244 68.725 17.6883C68.8874 19.0254 68.6709 20.1442 67.1551 20.7172L70.2408 26.2293L65.6122 29.1217C63.6633 24.5648 60.6859 20.7991 57.113 17.3609L59.8739 13.9772C62.4453 15.2052 64.3671 17.1699 66.1806 19.2983ZM10.4754 36.1892L5.98214 34.6611C5.7656 31.9324 6.33402 29.3946 7.33553 26.9115L5.7656 24.401C5.19718 24.401 4.62876 24.5102 4.14154 24.3737C3.05884 24.1282 2.0032 23.8007 1.00169 23.3914C0.216731 23.0639 -0.135149 21.9724 0.0813923 21.1811C0.379137 20.2261 1.27237 19.6257 2.24681 19.7076C3.16711 19.7895 3.925 20.4989 4.06034 21.4267C4.11447 21.8633 4.06034 22.3272 4.06034 22.8729H6.44229C7.4438 23.2822 7.38966 24.5102 8.14756 25.3015C9.63628 23.3368 11.0979 21.3721 13.3175 19.9805L15.3746 21.5904C13.8047 23.7734 12.1265 25.82 11.5581 28.3577C10.9897 30.9227 10.8273 33.4877 10.4754 36.1892Z" fill="#2163C7"/>
<path d="M28.8812 13.1588L27.9609 10.8667C30.5053 8.82014 33.4015 7.97423 36.4602 7.56492C36.5143 6.7463 36.1083 6.39156 35.4857 6.06411C33.3745 4.97262 33.0226 2.4076 34.7008 0.85222C35.7023 -0.0755522 36.8933 -0.211989 38.0842 0.251897C39.1669 0.63392 39.9248 1.64355 40.006 2.81691C40.1955 4.07213 39.6 5.30007 38.5173 5.92768C38.2196 6.0914 37.8948 6.22784 37.597 6.36428L37.9218 7.4012C40.6557 7.34662 43.3354 7.37391 45.988 8.43812L45.6091 10.703C40.006 10.7303 34.3218 10.4301 28.8812 13.1588Z" fill="#2162C6"/>
</g>
<defs>
<clipPath id="clip0_515_5369">
<rect width="72" height="61" fill="white"/>
</clipPath>
</defs>
</svg>
