<svg width="399" height="399" viewBox="0 0 399 399" fill="none" xmlns="http://www.w3.org/2000/svg">
<g opacity="0.5">
<mask id="path-1-inside-1_778_434" fill="white">
<path d="M344.687 330.221C346.384 331.75 349.003 331.615 350.496 329.886C383.231 291.978 400.544 243.093 398.892 192.933C397.195 141.394 375.607 92.5149 338.656 56.5459C301.705 20.5769 252.262 0.312807 200.696 0.00358685C149.131 -0.305633 99.448 19.364 62.0685 54.8873C24.6891 90.4105 2.51657 139.028 0.201202 190.542C-2.11417 242.057 15.6075 292.467 49.6494 331.201C83.6914 369.934 131.409 393.981 182.795 398.299C232.805 402.502 282.509 387.699 322.033 356.935C323.835 355.533 324.103 352.924 322.664 351.152C321.224 349.379 318.622 349.113 316.818 350.514C278.954 379.931 231.367 394.082 183.487 390.058C134.232 385.919 88.4922 362.869 55.8614 325.741C23.2306 288.613 6.24356 240.293 8.46295 190.914C10.6823 141.535 31.9357 94.9327 67.7656 60.8821C103.596 26.8314 151.219 7.97713 200.647 8.27353C250.075 8.56994 297.468 27.994 332.887 62.4719C368.306 96.9498 388.999 143.803 390.626 193.205C392.208 241.228 375.654 288.033 344.348 324.352C342.857 326.081 342.99 328.693 344.687 330.221Z"/>
</mask>
<path d="M344.687 330.221C346.384 331.75 349.003 331.615 350.496 329.886C383.231 291.978 400.544 243.093 398.892 192.933C397.195 141.394 375.607 92.5149 338.656 56.5459C301.705 20.5769 252.262 0.312807 200.696 0.00358685C149.131 -0.305633 99.448 19.364 62.0685 54.8873C24.6891 90.4105 2.51657 139.028 0.201202 190.542C-2.11417 242.057 15.6075 292.467 49.6494 331.201C83.6914 369.934 131.409 393.981 182.795 398.299C232.805 402.502 282.509 387.699 322.033 356.935C323.835 355.533 324.103 352.924 322.664 351.152C321.224 349.379 318.622 349.113 316.818 350.514C278.954 379.931 231.367 394.082 183.487 390.058C134.232 385.919 88.4922 362.869 55.8614 325.741C23.2306 288.613 6.24356 240.293 8.46295 190.914C10.6823 141.535 31.9357 94.9327 67.7656 60.8821C103.596 26.8314 151.219 7.97713 200.647 8.27353C250.075 8.56994 297.468 27.994 332.887 62.4719C368.306 96.9498 388.999 143.803 390.626 193.205C392.208 241.228 375.654 288.033 344.348 324.352C342.857 326.081 342.99 328.693 344.687 330.221Z" stroke="url(#paint0_linear_778_434)" stroke-opacity="0.5" stroke-width="2" mask="url(#path-1-inside-1_778_434)"/>
</g>
<circle r="4.22669" transform="matrix(-1 0 0 1 332.027 339.544)" fill="#FAFAFA"/>
<defs>
<linearGradient id="paint0_linear_778_434" x1="199.5" y1="0" x2="199.5" y2="399" gradientUnits="userSpaceOnUse">
<stop stop-color="#3DDEED"/>
<stop offset="1" stop-color="#CB00DD"/>
</linearGradient>
</defs>
</svg>
