<svg width="390" height="440" viewBox="0 0 390 440" fill="none" xmlns="http://www.w3.org/2000/svg">
<g opacity="0.2">
<path d="M711.582 184.243C734.706 285.634 721.399 391.678 673.877 484.667C626.356 577.656 547.502 651.962 450.479 695.18C395.225 719.776 335.53 733.539 274.809 735.682C215.051 737.815 155.428 728.776 99.1669 709.053C11.9225 678.477 -63.8969 623.136 -118.493 550.179C-139.497 522.17 -153.425 498.999 -161.035 479.336C-168.351 460.403 -169.843 444.658 -165.594 431.168C-160.596 415.31 -147.547 402.241 -124.524 390.041C-103.52 378.909 -76.0912 369.323 -44.3357 358.226C16.0405 337.127 91.1807 310.869 163.967 259.113C230.618 211.72 287.819 148.004 338.276 91.7851C373.473 52.5733 406.72 15.5382 438.565 -10.9028C455.572 -25.0293 471.028 -35.2123 485.814 -42.037C502.233 -49.6138 517.603 -52.9814 532.808 -52.3351C566.982 -50.885 599.783 -28.5991 633.086 15.7709C651.67 40.5259 667.649 67.0424 680.771 94.9179C693.48 121.975 703.404 150.189 710.4 179.15C710.799 180.845 711.193 182.543 711.582 184.243ZM-164.514 463.224C-163.271 468.531 -161.644 473.746 -159.647 478.831C-152.086 498.371 -138.23 521.432 -117.293 549.332C33.5852 750.392 324.372 794.477 530.92 647.612C630.978 576.46 696.571 471.644 715.641 352.468C724.715 295.774 722.734 239.047 710.303 184.67C696.596 124.743 670.192 67.6798 631.874 16.6169C598.862 -27.3771 566.439 -49.4633 532.732 -50.8945C504.347 -52.1004 474.724 -39.0429 439.511 -9.80298C407.749 16.5676 374.538 53.5654 339.377 92.7369C288.87 149.008 231.622 212.787 164.826 260.273C91.866 312.152 16.6178 338.45 -43.8484 359.579C-75.5456 370.658 -102.921 380.223 -123.831 391.306C-146.492 403.315 -159.321 416.116 -164.193 431.591C-167.112 440.898 -167.233 451.332 -164.514 463.224Z" fill="url(#paint0_linear_890_2580)"/>
<path d="M695.179 180.523C701.561 208.546 705.185 237.1 705.988 265.794C708.43 353.199 685.362 439.488 639.459 514.646C623.997 539.904 606.022 563.619 585.791 585.454C565.098 607.748 542.123 627.929 517.224 645.684C492.504 663.314 465.951 678.367 438.002 690.601C410.943 702.405 382.706 711.469 353.743 717.648C325.23 723.713 296.169 727.002 266.989 727.465C237.923 727.913 208.879 725.636 180.26 720.668C151.525 715.67 123.339 708.041 96.0767 697.886C40.3835 677.122 -10.7428 646.232 -54.5748 606.866C-77.2217 586.52 -97.7901 564.092 -115.992 539.884C-136.175 513.046 -149.519 490.875 -156.793 472.112C-163.756 454.058 -165.128 439.091 -160.96 426.357C-156.047 411.35 -143.336 399.134 -120.953 387.915C-100.538 377.68 -73.94 369.041 -43.1431 359.036C18.0325 339.166 94.1646 314.436 167.052 262.506C233.341 215.269 289.408 151.003 338.875 94.295C372.214 56.0753 403.716 19.9752 433.897 -5.82895C450.024 -19.6123 464.697 -29.565 478.752 -36.2793C494.357 -43.7221 508.994 -47.0897 523.509 -46.5845C556.249 -45.4329 587.863 -23.9953 620.153 18.9529C638.353 43.1592 653.902 69.1517 666.543 96.5065C678.868 123.238 688.392 151.11 694.984 179.7C695.051 179.968 695.123 180.245 695.179 180.523ZM-160.053 456.848C-158.872 461.871 -157.328 466.807 -155.432 471.618C-148.211 490.262 -134.927 512.323 -114.821 539.067C-42.8754 634.746 62.016 698.763 180.533 719.318C300.316 740.092 419.597 713.547 516.395 644.587C614.155 574.935 678.893 470.995 698.674 351.911C718.543 232.444 690.24 114.489 619.017 19.759C586.993 -22.8202 555.737 -44.0722 523.468 -45.2073C496.373 -46.1591 468.214 -33.3181 434.839 -4.78553C404.724 20.9528 373.274 57.0221 339.955 95.1949C290.439 151.962 234.314 216.303 167.892 263.627C94.8238 315.686 18.5755 340.452 -42.6917 360.355C-73.4353 370.34 -99.9853 378.963 -120.301 389.148C-142.329 400.194 -154.826 412.149 -159.608 426.785C-162.491 435.577 -162.648 445.504 -160.053 456.848Z" fill="url(#paint1_linear_890_2580)"/>
<path d="M678.827 176.847C679.083 177.975 679.333 179.098 679.584 180.229C685.731 208.328 689.093 236.937 689.615 265.662C690.138 294.427 687.932 323.178 683.029 351.549C678.12 379.988 670.561 407.933 660.443 435.036C650.299 462.209 637.58 488.404 622.451 513.28C607.24 538.28 589.557 561.77 569.653 583.421C549.478 605.346 527.025 625.179 502.658 642.609C454.763 676.808 401.234 699.909 343.558 711.275C315.789 716.722 287.522 719.393 259.196 719.243C230.872 719.084 202.63 716.248 174.869 710.782C146.874 705.251 119.47 697.198 93.0104 686.719C66.1979 676.1 40.4367 663.119 16.0476 647.941C-8.7632 632.489 -32.0719 614.864 -53.5877 595.281C-75.5912 575.234 -95.6356 553.244 -113.462 529.595C-132.822 503.882 -145.601 482.708 -152.535 464.831C-159.198 447.64 -160.454 433.45 -156.373 421.453C-151.545 407.266 -139.155 395.874 -117.38 385.602C-97.5297 376.237 -71.7117 368.51 -41.8131 359.561C20.1497 341.013 97.2645 317.931 170.139 265.899C236.019 218.864 290.878 154.034 339.285 96.8284C370.796 59.5838 400.563 24.4051 429.137 -0.771557C460.982 -28.8341 488.015 -41.5787 514.209 -40.8526C545.522 -39.9971 575.954 -19.3938 607.245 22.1302C625.051 45.7916 640.165 71.263 652.33 98.0975C663.79 123.439 672.664 149.816 678.827 176.847ZM-155.625 450.399C-154.511 455.147 -153.054 459.811 -151.265 464.359C-144.379 482.123 -131.656 503.199 -112.373 528.792C-41.5428 622.797 60.5624 686.953 175.137 709.471C292.23 732.478 408.266 708.355 501.849 641.538C595.919 574.377 661.471 468.596 681.698 351.323C691.837 292.514 690.081 233.268 677.307 177.416C664.455 121.201 640.441 68.4177 606.15 22.9104C575.13 -18.2657 545.036 -38.6905 514.169 -39.5365C488.348 -40.2416 461.621 -27.6145 430.048 0.203739C401.546 25.3169 371.81 60.4603 340.324 97.6675C291.87 154.928 236.953 219.831 170.939 266.962C97.8802 319.134 20.6446 342.245 -41.4169 360.82C-71.2578 369.75 -97.0277 377.469 -116.786 386.786C-138.208 396.892 -150.379 408.041 -155.082 421.867C-157.909 430.174 -158.088 439.596 -155.625 450.406V450.399Z" fill="url(#paint2_linear_890_2580)"/>
<path d="M662.531 173.221C663.099 175.727 663.652 178.244 664.179 180.769C669.972 208.679 673.008 237.063 673.238 265.535C673.473 294.172 671.052 322.771 665.996 350.982C660.929 379.296 653.283 407.115 643.159 434.111C633.035 461.108 620.404 487.152 605.424 511.92C590.458 536.655 573.072 559.921 553.501 581.393C533.837 602.944 511.917 622.428 488.087 639.535C441.59 672.801 389.534 694.791 333.367 704.902C306.337 709.725 278.862 711.773 251.393 711.011C223.81 710.234 196.372 706.835 169.469 700.866C142.217 694.811 115.593 686.33 89.9346 675.537C63.8566 664.564 38.8247 651.369 15.1306 636.111C-33.6332 604.693 -76.3152 565.138 -110.951 519.275C-129.493 494.722 -141.716 474.518 -148.317 457.508C-154.664 441.163 -155.808 427.737 -151.81 416.457C-147.071 403.061 -134.987 392.46 -113.79 383.106C-94.4756 374.582 -69.3935 367.734 -40.3522 359.805C22.3855 342.663 100.483 321.348 173.223 269.29C238.65 222.483 292.211 157.087 339.474 99.3922C369.195 63.1044 397.277 28.8303 424.27 4.26941C454.333 -23.0928 479.954 -35.6165 504.874 -35.1395C534.779 -34.5684 564.024 -14.7946 594.317 25.3099C611.734 48.4255 626.423 73.3753 638.102 99.6881C648.61 123.393 656.788 148.014 662.531 173.221ZM-151.231 443.892C-150.179 448.373 -148.802 452.777 -147.11 457.069C-140.55 473.971 -128.384 494.076 -109.913 518.537C38.0447 714.459 305.961 768.286 487.319 638.513C634.254 533.372 698.644 339.26 660.422 172.128C648.4 119.565 626.234 69.6799 593.289 26.0549C563.256 -13.7136 534.334 -33.3181 504.864 -33.8728C480.287 -34.3428 454.963 -21.9272 425.15 5.19772C398.229 29.6881 370.182 63.9265 340.487 100.175C293.172 157.945 239.546 223.398 173.988 270.306C141.579 293.497 105.241 312.657 62.8995 328.88C26.2844 342.912 -8.935 352.534 -40.0093 361.013C-69 368.928 -94.0365 375.764 -113.263 384.26C-134.116 393.463 -145.98 403.827 -150.596 416.875C-153.365 424.682 -153.585 433.612 -151.231 443.892Z" fill="url(#paint3_linear_890_2580)"/>
<path d="M646.286 169.632C647.177 173.501 648.006 177.39 648.779 181.3C654.158 208.477 656.875 236.763 656.86 265.397C656.814 293.909 654.168 322.361 648.958 350.418C643.732 378.605 636.004 406.298 625.87 433.187C615.767 460.005 603.233 485.894 588.411 510.544C573.456 535.345 556.28 558.486 537.359 579.36C517.884 600.827 496.409 620.041 473.526 636.45C428.426 668.795 377.844 689.679 323.181 698.519C297.329 702.7 270.55 704.14 243.597 702.789C217.281 701.479 190.538 697.502 164.078 690.969C138.04 684.546 112.064 675.597 86.8689 664.37C61.5278 653.044 37.2237 639.639 14.2201 624.302C-33.0006 592.809 -74.4579 553.827 -108.425 508.985C-126.161 485.552 -137.836 466.307 -144.116 450.152C-150.152 434.625 -151.19 421.937 -147.295 411.357C-142.641 398.718 -130.854 388.887 -110.202 380.42C-91.395 372.707 -67.0085 366.709 -38.7707 359.765C24.7541 344.139 103.812 324.692 176.325 272.684C241.228 226.136 293.418 160.175 339.479 101.98C367.449 66.6364 393.864 33.251 419.3 9.29633C447.629 -17.3797 471.863 -29.6919 495.559 -29.4451C524.047 -29.149 552.15 -10.1978 581.43 28.4897C598.253 50.7097 612.543 75.1982 623.92 101.277C633.496 123.354 640.979 146.233 646.286 169.632ZM-146.873 437.309C-145.879 441.536 -144.579 445.689 -142.981 449.736C-136.74 465.79 -125.115 484.941 -107.452 508.282C-39.7436 597.732 59.3291 663.897 164.367 689.818C276.001 717.354 385.531 698.065 472.779 635.489C617.512 531.682 682.015 334.203 644.085 168.285C632.544 117.822 611.54 70.3073 580.422 29.1994C551.387 -9.16373 523.617 -27.9551 495.529 -28.2466C472.175 -28.4816 448.212 -16.2869 420.14 10.1588C394.77 34.0523 368.376 67.4027 340.436 102.718C294.324 160.974 242.081 227.003 177.04 273.653C144.739 296.82 108.247 315.602 65.478 331.077C28.5179 344.449 -7.07866 353.206 -38.4861 360.924C-66.6753 367.856 -91.0209 373.849 -109.744 381.522C-130.055 389.849 -141.612 399.458 -146.153 411.759C-148.86 419.11 -149.106 427.538 -146.873 437.3V437.309Z" fill="url(#paint4_linear_890_2580)"/>
<path d="M630.113 166.117C631.3 171.312 632.385 176.552 633.373 181.836C638.384 208.714 640.779 236.784 640.482 265.265C640.149 293.644 637.283 321.942 631.915 349.838C626.53 377.897 618.725 405.464 608.581 432.244C598.499 458.894 586.052 484.636 571.373 509.179C556.597 533.815 539.718 556.742 521.196 577.332C502.126 598.54 481.172 617.395 458.94 633.381C415.226 664.809 366.118 684.581 312.976 692.15C287.942 695.718 261.97 696.531 235.78 694.577C210.333 692.664 184.379 688.129 158.667 681.078C133.476 674.167 108.283 664.794 83.783 653.203C59.1815 641.528 35.6037 627.914 13.2859 612.492C-32.3922 580.935 -72.6345 542.521 -105.939 498.685C-122.878 476.359 -134.012 458.063 -139.98 442.752C-145.714 428.033 -146.656 416.067 -142.861 406.168C-138.298 394.257 -126.794 385.167 -106.661 377.558C-88.3316 370.632 -64.5992 365.452 -37.1172 359.462C27.1875 345.434 107.219 327.97 179.386 276.09C243.725 229.83 294.459 163.303 339.213 104.607C365.479 70.1758 390.271 37.6644 414.187 14.3068C440.811 -11.6971 463.679 -23.7955 486.178 -23.765C513.288 -23.7344 540.214 -5.59863 568.507 31.6717C584.874 53.248 598.729 77.2028 609.687 102.88C618.229 122.882 625.077 144.096 630.113 166.117ZM-142.549 430.632C-141.614 434.616 -140.387 438.53 -138.877 442.343C-132.95 457.562 -121.873 475.771 -104.99 498.005C-38.2688 585.938 57.9455 652.261 158.981 679.972C267.827 709.82 374.108 692.948 458.249 632.454C600.766 529.988 665.474 329.115 627.835 164.547C616.78 116.205 596.897 71.0124 567.56 32.3391C539.513 -4.62099 512.889 -22.604 486.178 -22.6369C464.017 -22.6627 441.405 -10.6701 415.011 15.1058C391.156 38.4048 366.39 70.8834 340.17 105.27C295.359 164.022 244.565 230.629 180.092 276.987C147.952 300.096 111.335 318.457 68.1504 333.122C30.8618 345.784 -5.11096 353.633 -36.8491 360.557C-64.2854 366.543 -87.9789 371.711 -106.226 378.608C-126.023 386.091 -137.315 394.97 -141.755 406.556C-144.394 413.442 -144.666 421.392 -142.549 430.632Z" fill="url(#paint5_linear_890_2580)"/>
<path d="M614.002 162.673C615.486 169.163 616.806 175.728 617.973 182.37C622.62 208.952 624.683 236.796 624.105 265.131C623.485 293.38 620.399 321.526 614.877 349.265C609.339 377.198 601.452 404.64 591.293 431.314C581.236 457.789 568.876 483.381 554.356 507.814C539.759 532.28 523.171 554.988 505.048 575.294C486.367 596.232 465.951 614.739 444.374 630.286C402.037 660.807 354.403 679.469 302.783 685.752C278.566 688.702 253.399 688.897 227.979 686.325C203.375 683.839 178.245 678.731 153.266 671.152C128.925 663.767 104.515 653.961 80.7098 642.011C56.854 629.987 34.004 616.155 12.371 600.652C-31.7539 569.045 -70.7806 531.199 -103.418 488.368C-119.57 467.137 -130.173 449.769 -135.832 435.274C-141.272 421.345 -142.11 410.083 -138.435 400.845C-133.961 389.635 -122.73 381.257 -103.09 374.477C-85.2242 368.308 -62.0952 363.925 -35.3258 358.849C29.7657 346.506 110.77 331.146 182.484 279.45C246.204 233.517 295.388 166.41 338.778 107.214C363.34 73.7222 386.54 42.0685 408.972 19.289C433.933 -6.05223 455.48 -17.9414 476.792 -18.1247C502.53 -18.3385 528.294 -1.01359 555.574 34.8466C571.511 55.7788 584.921 79.198 595.459 104.452C603.289 123.324 609.492 142.799 614.002 162.673ZM-138.264 423.888C-137.381 427.638 -136.223 431.321 -134.799 434.91C-129.176 449.311 -118.624 466.594 -102.53 487.745C-36.7378 574.227 56.615 640.711 153.592 670.14C259.616 702.321 362.649 687.86 443.714 629.429C528.632 568.208 590.622 466.023 613.792 349.061C637.35 230.115 615.808 115.82 554.693 35.4859C527.639 -0.0759048 502.162 -17.2575 476.802 -17.039C455.813 -16.858 434.511 -5.0769 409.771 20.041C387.394 42.7571 364.22 74.3779 339.679 107.857C296.238 167.125 247.001 234.293 183.141 280.334C151.209 303.365 114.498 321.249 70.9102 335.047C33.3053 346.95 -3.04413 353.848 -35.1154 359.923C-61.8445 364.992 -84.9274 369.368 -102.716 375.511C-122.03 382.176 -133.051 390.356 -137.399 401.252C-139.98 407.681 -140.263 415.15 -138.264 423.888Z" fill="url(#paint6_linear_890_2580)"/>
<path d="M597.956 159.315C599.727 167.056 601.263 174.92 602.568 182.905C606.852 209.189 608.586 236.808 607.727 264.997C606.882 292.583 603.555 320.744 597.828 348.694C592.132 376.498 584.163 403.814 573.999 430.383C563.793 457.029 551.448 482.622 537.318 506.448C522.9 530.751 506.604 553.229 488.885 573.266C470.599 593.945 450.72 612.088 429.787 627.212C388.822 656.826 342.657 674.376 292.576 679.384C246.291 684.018 197.6 677.919 147.854 661.271C54.8021 630.122 -35.8739 563.354 -100.922 478.086C-116.296 457.931 -126.378 441.478 -131.74 427.794C-136.89 414.633 -137.658 404.058 -134.085 395.465C-129.705 384.925 -118.735 377.233 -99.5604 371.259C-82.1145 365.824 -59.57 362.207 -33.4643 358.019C32.4142 347.444 114.406 334.297 185.557 282.865C248.607 237.29 296.146 169.609 338.092 109.897C361.006 77.2755 382.65 46.4655 403.624 24.2712C426.962 -0.419037 447.214 -12.0967 467.364 -12.4798C491.746 -12.9498 516.374 3.57849 542.651 38.031C558.133 58.3216 571.112 81.2046 581.236 106.043C588.247 123.343 593.836 141.156 597.956 159.315ZM-133.983 417.089C-130.458 432.499 -119.297 452.279 -100.07 477.487C-35.1446 562.597 55.3477 629.235 148.204 660.314C221.188 684.756 329.174 698.688 429.178 626.4C510.581 567.56 573.246 463.673 596.815 348.501C621.197 229.351 601.16 116.402 541.827 38.6373C515.755 4.46918 491.419 -11.9181 467.4 -11.4622C447.552 -11.0838 427.535 0.488106 404.407 24.9644C383.479 47.0954 361.855 77.877 338.962 110.473C296.974 170.248 249.381 238.004 186.19 283.676C154.515 306.573 117.738 323.959 73.7589 336.83C35.8546 347.925 -0.883316 353.817 -33.2857 359.016C-59.3602 363.196 -81.8612 366.809 -99.2293 372.221C-118.085 378.096 -128.848 385.602 -133.102 395.839C-135.564 401.768 -135.876 408.795 -133.983 417.089Z" fill="url(#paint7_linear_890_2580)"/>
<path d="M581.988 156.065C584.03 165.005 585.755 174.132 587.162 183.446C591.083 209.434 592.49 236.829 591.349 264.868C590.233 292.266 586.686 320.279 580.801 348.13C569.096 403.564 548.173 457.84 520.305 505.088C506.062 529.226 490.068 551.48 472.743 571.243C454.861 591.643 435.504 609.442 415.226 624.142C375.633 652.854 330.933 669.298 282.392 673.026C237.834 676.439 190.756 669.159 142.465 651.384C119.823 643.053 96.9774 632.389 74.5603 619.697C52.7789 607.359 31.236 593.013 10.5288 577.058C-10.0283 561.182 -29.4979 544.02 -47.7546 525.673C-65.9037 507.465 -82.823 488.128 -98.4064 467.79C-113.008 448.698 -122.576 433.142 -127.646 420.24C-132.52 407.841 -133.211 397.935 -129.756 389.952C-125.475 380.058 -114.756 373.031 -96.026 367.829C-78.988 363.102 -56.9819 360.228 -31.5017 356.9C31.6608 348.651 118.167 337.354 188.653 286.256C250.975 241.076 296.781 172.805 337.194 112.584C358.498 80.824 378.607 50.8392 398.163 29.2112C419.92 5.16022 438.908 -6.30594 457.931 -6.87704C480.973 -7.56794 504.465 8.16364 529.748 41.2037C544.78 60.8556 557.324 83.2049 567.023 107.627C573.246 123.387 578.247 139.578 581.988 156.065ZM-129.778 410.191C-126.468 424.659 -115.881 443.328 -97.6096 467.219C-33.4716 551.051 54.1597 617.849 142.815 650.477C213.749 676.583 318.493 693.062 414.643 623.365C493.773 566.005 555.528 463.036 579.838 347.935C594.21 279.869 594.358 214.329 581.164 156.622C571.214 113.145 553.695 74.1004 528.965 41.7819C503.892 9.00736 480.666 -6.595 457.972 -5.91348C439.24 -5.35179 420.472 6.01097 398.915 29.8481C379.4 51.4197 359.296 81.3786 338.02 113.096C317.573 143.57 296.431 175.08 272.054 205.436C244.191 240.14 217.102 266.828 189.244 287.025C157.873 309.769 121.057 326.603 76.6945 338.492C38.4816 348.732 1.36905 353.577 -31.3665 357.852C-56.813 361.173 -78.7879 364.049 -95.7553 368.749C-114.177 373.861 -124.693 380.717 -128.848 390.323C-131.229 395.828 -131.559 402.398 -129.778 410.191Z" fill="url(#paint8_linear_890_2580)"/>
<path d="M566.086 152.907C568.394 163.003 570.283 173.358 571.752 183.973C575.309 209.664 576.389 236.834 574.961 264.725C573.574 291.932 569.802 319.797 563.757 347.549C551.73 402.749 530.817 456.749 503.277 503.713C489.218 527.686 473.511 549.721 456.585 569.205C439.102 589.336 420.283 606.786 400.655 621.058C362.413 648.883 319.193 664.206 272.204 666.632C229.365 668.845 183.899 660.379 137.071 641.473C115.28 632.673 93.2155 621.581 71.4919 608.511C50.5309 595.899 29.7127 581.333 9.61618 565.228C-10.224 549.302 -29.0548 532.221 -46.772 514.077C-64.2773 496.175 -80.6781 477.282 -95.8884 457.494C-109.741 439.443 -118.805 424.769 -123.595 412.638C-128.196 400.977 -128.817 391.722 -125.49 384.333C-121.308 375.055 -110.833 368.66 -92.5228 364.216C-75.8641 360.172 -54.3769 358.019 -29.4735 355.521C34.4613 349.117 122.02 340.344 191.738 289.648C253.278 244.899 297.247 176.041 336.052 115.268C355.775 84.3868 374.41 55.1988 392.589 34.1276C412.795 10.7065 430.555 -0.548202 448.478 -1.29553C470.204 -2.20032 492.56 12.7417 516.84 44.3834C531.432 63.3959 543.536 85.2095 552.815 109.213C558.286 123.457 562.723 138.057 566.086 152.907ZM-125.606 403.211C-122.506 416.762 -112.479 434.367 -95.1448 456.956C-31.6973 539.63 53.071 606.582 137.421 640.641C206.284 668.446 307.756 687.496 400.097 620.335C476.945 564.456 537.783 462.411 562.846 347.364C588.892 227.814 571.849 117.578 516.088 44.9216C492.002 13.536 469.897 -1.28848 448.509 -0.397795C430.862 0.337788 413.312 11.4914 393.28 34.7057C375.157 55.7275 356.543 84.8781 336.841 115.742C317.239 146.43 296.977 178.156 273.345 208.708C246.305 243.653 219.797 270.362 192.293 290.364C161.269 312.925 124.452 329.162 79.7003 340.008C41.1951 349.343 3.70125 353.098 -29.3773 356.414C-54.2444 358.905 -75.7095 361.055 -92.2961 365.083C-110.309 369.455 -120.587 375.685 -124.647 384.688C-126.943 389.785 -127.281 395.912 -125.611 403.211H-125.606Z" fill="url(#paint9_linear_890_2580)"/>
<path d="M550.266 149.877C552.825 161.053 554.857 172.594 556.352 184.501C559.55 209.899 560.303 236.843 558.593 264.588C556.93 291.6 552.933 319.32 546.725 346.976C534.385 401.938 513.473 455.664 486.26 502.347C472.38 526.151 456.969 547.962 440.443 567.171C423.359 587.039 405.067 604.13 386.089 617.978C349.188 644.901 307.443 659.123 262.013 660.254C220.886 661.271 177.03 651.623 131.675 631.582C90.3307 613.304 48.9568 587.009 8.69873 553.423C-28.4062 522.474 -63.7033 485.743 -93.3773 447.2C-118.846 414.123 -127.711 392.326 -121.274 378.603C-117.199 369.908 -106.958 364.136 -89.0459 360.416C-72.7592 357.036 -51.7307 355.579 -27.3805 353.895C37.3419 349.413 125.98 343.274 194.824 293.045C255.526 248.753 297.57 179.277 334.669 117.979C352.858 87.9262 370.034 59.539 386.872 39.0157C405.574 16.2197 422.136 5.17421 438.99 4.25766C459.4 3.15547 480.64 17.3219 503.933 47.5631C518.074 65.9387 529.743 87.2072 538.602 110.8C543.362 123.563 547.262 136.617 550.266 149.877ZM-121.482 396.147C-118.585 408.809 -109.106 425.368 -92.6869 446.691C-29.8018 528.364 52.1075 595.475 132.033 630.809C227.776 673.135 315.451 668.471 385.572 617.31C460.132 562.911 520.06 461.785 545.88 346.797C572.77 227.069 557.232 118.184 503.237 48.0659C480.139 18.0645 459.139 4.01326 439.036 5.09429C422.448 5.99203 406.086 16.9388 387.543 39.5398C370.745 60.0163 353.585 88.3821 335.41 118.407C317.578 147.872 297.365 181.272 274.519 212.007C248.363 247.197 222.462 273.923 195.331 293.713C164.703 316.057 127.885 331.66 82.7764 341.406C43.9811 349.789 6.09621 352.412 -27.3273 354.726C-51.6462 356.409 -72.6482 357.864 -88.8744 361.234C-106.499 364.891 -116.549 370.519 -120.502 378.947C-122.694 383.64 -123.042 389.329 -121.482 396.147Z" fill="url(#paint10_linear_890_2580)"/>
<path d="M534.528 146.977C537.379 159.544 539.523 172.254 540.951 185.049C546.54 234.591 542.64 290.39 529.686 346.417C517.024 401.141 496.127 454.592 469.232 500.992C455.536 524.632 440.417 546.218 424.295 565.153C407.605 584.746 389.851 601.489 371.518 614.909C335.958 640.95 295.685 654.06 251.822 653.886C212.397 653.726 170.159 642.893 126.279 621.691C86.8201 602.616 46.953 575.677 7.78141 541.619C-27.5859 510.853 -61.6972 474.645 -90.8666 436.903C-114.932 405.757 -123.274 385.372 -117.112 372.745C-113.148 364.62 -103.134 359.434 -85.5985 356.421C-69.6645 353.681 -49.0679 352.895 -25.227 352C40.2969 349.523 130.036 346.125 197.909 296.434C257.713 252.654 297.73 182.551 333.039 120.707C349.73 91.4726 365.494 63.8588 381.022 43.8711C398.265 21.6743 413.655 10.8426 429.465 9.79452C448.591 8.509 468.72 21.907 491.009 50.7519C504.721 68.493 515.95 89.2328 524.384 112.398C528.484 123.714 531.872 135.261 534.528 146.977ZM-117.394 388.996C-114.696 400.798 -105.753 416.334 -90.2268 436.428C-27.7425 517.292 51.3013 584.557 126.639 620.973C219.348 665.785 303.848 663.473 371.042 614.281C442.224 562.163 502.714 459.464 528.909 346.233C556.643 226.333 542.599 118.799 490.37 51.2079C468.26 22.5908 448.361 9.29393 429.521 10.5512C413.957 11.6018 398.751 22.3441 381.657 44.341C366.165 64.2863 350.416 91.8743 333.739 121.084C316.795 150.761 297.592 184.398 275.579 215.323C250.352 250.763 225.103 277.497 198.389 297.057C168.21 319.148 131.419 334.081 85.9413 342.67C46.8639 350.052 8.58033 351.502 -25.1958 352.776C-49.0075 353.676 -69.5724 354.454 -85.4583 357.185C-102.716 360.15 -112.545 365.201 -116.39 373.076C-118.493 377.388 -118.846 382.652 -117.394 388.996Z" fill="url(#paint11_linear_890_2580)"/>
<path d="M518.877 144.216C521.968 157.857 524.2 171.671 525.556 185.578C530.434 234.516 525.976 289.937 512.659 345.84C499.679 400.325 478.782 453.503 452.22 499.627C438.703 523.097 423.876 544.459 408.153 563.12C391.867 582.449 374.64 598.843 356.967 611.834C339.423 624.725 320.514 634.258 300.76 640.163C282.054 645.758 262.168 648.225 241.651 647.503C203.921 646.177 163.298 634.163 120.91 611.784C83.3511 591.952 44.9902 564.371 6.8878 529.799C-26.6513 499.368 -59.5799 463.687 -88.3362 426.609C-111.031 397.357 -118.855 378.345 -112.984 366.78C-109.133 359.194 -99.3385 354.576 -82.1628 352.245C-66.5496 350.129 -46.3712 350.007 -23.0129 349.869C43.3365 349.472 134.206 348.928 201.006 299.835C259.852 256.593 297.742 185.855 331.168 123.453C346.399 95.0165 360.785 68.1641 375.039 48.7028C390.854 27.0913 405.113 16.4688 419.909 15.2726C437.771 13.8249 456.805 26.4685 478.091 53.9202C491.373 71.0263 502.151 91.2305 510.161 113.97C513.641 123.887 516.554 133.984 518.877 144.216ZM-113.348 381.755C-110.84 392.725 -102.419 407.273 -87.7568 426.172C-25.4685 506.488 50.7168 573.908 121.253 611.146C210.876 658.465 292.228 658.5 356.517 611.256C425.427 560.609 484.985 458.845 511.942 345.676C540.526 225.607 527.977 119.427 477.508 54.3527C456.38 27.1124 437.556 14.5652 419.966 15.9988C405.405 17.1739 391.32 27.7023 375.628 49.1188C361.405 68.5403 347.028 95.3758 331.813 123.786C315.801 153.675 297.655 187.552 276.525 218.669C252.283 254.36 227.725 281.098 201.441 300.411C171.745 322.241 135.012 336.438 89.1764 343.817C49.8237 350.162 11.1225 350.383 -23.0129 350.585C-46.3517 350.726 -66.5087 350.846 -82.0737 352.957C-98.9858 355.253 -108.6 359.746 -112.334 367.098C-114.341 371.029 -114.693 375.88 -113.348 381.755Z" fill="url(#paint12_linear_890_2580)"/>
<path d="M503.298 141.605C506.507 155.642 508.794 170.511 510.141 186.097C514.307 234.436 509.281 289.474 495.61 345.258C482.319 399.503 461.422 452.409 435.187 498.249C407.964 545.824 375.868 584.029 342.381 608.74C325.48 621.197 307.281 630.231 288.264 635.568C270.296 640.606 251.18 642.47 231.443 641.114C195.398 638.638 156.388 625.428 115.5 601.868C79.8621 581.328 43.006 553.104 5.95585 517.969C-25.6082 488.036 -57.354 452.872 -85.8447 416.287C-107.177 388.895 -114.519 371.217 -108.944 360.658C-105.214 353.587 -95.637 349.516 -78.8048 347.848C-63.4982 346.332 -43.7036 346.851 -20.7824 347.453C46.4146 349.22 138.445 351.638 204.082 303.207C261.907 260.539 299.118 186.041 329.017 126.179C342.831 98.5276 355.872 72.4081 368.898 53.4642C383.341 32.4495 396.504 22.0527 410.313 20.7296C426.936 19.1385 444.885 31.0348 465.184 57.0998C478.009 73.5717 488.358 93.2396 495.953 115.556C498.845 124.114 501.297 132.808 503.298 141.605ZM-109.343 374.425C-107.018 384.594 -99.104 398.182 -85.3062 415.902C-48.6405 462.984 26.2459 549.681 115.845 601.305C203.59 651.863 279.669 654.185 341.972 608.221C408.609 559.049 467.231 458.23 494.955 345.105C513.365 269.963 515.535 199.206 502.407 141.781C494.838 108.689 482.196 80.0346 464.641 57.497C444.501 31.6317 426.747 19.8177 410.38 21.3853C396.786 22.6872 383.781 32.9995 369.461 53.8354C356.461 72.742 343.43 98.84 329.623 126.472C314.586 156.577 297.544 190.698 277.332 222.009C254.13 257.966 230.304 284.688 204.488 303.738C138.662 352.308 46.4944 349.885 -20.8039 348.118C-43.701 347.516 -63.4762 346.997 -78.7469 348.508C-95.3305 350.153 -104.739 354.111 -108.355 360.963C-110.236 364.555 -110.584 369.004 -109.343 374.425Z" fill="url(#paint13_linear_890_2580)"/>
<path d="M487.811 139.144C491.204 153.983 493.522 169.872 494.735 186.616C498.19 234.354 492.601 289.011 478.573 344.67C464.964 398.676 444.072 451.306 418.164 496.873C391.279 544.16 360.033 581.777 327.81 605.655C311.569 617.689 294.065 626.21 275.787 630.969C258.558 635.459 240.212 636.719 221.258 634.731C186.885 631.109 149.49 616.723 110.114 591.972C76.4147 570.784 41.0648 541.913 5.04345 506.164C-24.7267 476.619 -54.4611 442.919 -83.3336 406.001C-103.339 380.423 -110.205 364.037 -104.942 354.437C-101.335 347.857 -91.9672 344.318 -75.463 343.291C-60.4513 342.351 -41.0139 343.5 -18.5078 344.823C49.5751 348.818 142.795 354.315 207.168 306.613C263.903 264.56 298.669 189.366 326.612 128.945C339.044 102.055 350.785 76.6552 362.613 58.2066C375.725 37.7609 387.819 27.5732 400.681 26.1396C416.091 24.424 432.966 35.587 452.266 60.268C464.657 76.11 474.57 95.2418 481.736 117.14C484.039 124.183 486.065 131.518 487.811 139.144ZM-105.381 366.933C-104.844 369.191 -104.122 371.404 -103.223 373.551C-99.7364 382.07 -93.0707 392.563 -82.8484 405.634C-37.7015 463.36 32.4819 542.456 110.444 591.469C194.99 644.617 267.998 649.232 327.435 605.182C391.791 557.494 449.471 457.619 477.974 344.536C497.31 267.815 500.048 196.289 487.012 139.332C479.903 108.259 468.116 81.5316 451.78 60.6413C432.618 36.1416 415.928 25.0562 400.753 26.7459C388.09 28.156 376.14 38.2614 363.135 58.5335C351.327 76.9372 339.597 102.318 327.185 129.192C313.165 159.508 297.274 193.886 278.037 225.393C255.932 261.599 232.875 288.322 207.54 307.09C142.986 354.926 49.6258 349.434 -18.5416 345.422C-41.0283 344.099 -60.4487 342.955 -75.4221 343.888C-91.6919 344.901 -100.9 348.353 -104.393 354.719C-106.18 357.965 -106.509 361.998 -105.379 366.938L-105.381 366.933Z" fill="url(#paint14_linear_890_2580)"/>
<path d="M472.41 136.86C475.967 152.418 478.286 169.261 479.33 187.153C482.078 234.291 475.921 288.564 461.534 344.104C447.608 397.867 426.721 450.225 401.136 495.514C374.584 542.516 344.198 579.534 313.239 602.581C297.648 614.191 280.849 622.199 263.312 626.39C246.818 630.326 229.241 630.989 211.072 628.353C194.102 625.891 176.178 620.49 157.795 612.303C140.77 604.718 122.916 594.548 104.727 582.076C72.9984 560.315 39.1552 530.805 4.13086 494.356C-23.3219 465.788 -51.1129 433.519 -80.8304 395.703C-99.5287 371.899 -105.939 356.764 -100.989 348.068C-97.5152 341.958 -88.3555 338.927 -72.163 338.52C-57.4358 338.151 -38.329 339.902 -16.2068 341.93C52.7693 348.257 147.24 356.917 210.253 310.002C265.862 268.612 298.056 192.701 323.935 131.706C335.028 105.554 345.508 80.8549 356.174 62.9141C368.007 43.0298 379.067 33.0677 391.008 31.5307C405.231 29.7094 421.04 40.1532 439.353 63.4567C451.304 78.6668 460.777 97.261 467.517 118.727C469.35 124.553 470.977 130.598 472.41 136.86ZM-101.453 359.415C-100.949 361.529 -100.27 363.599 -99.4202 365.605C-96.1584 373.478 -89.9318 383.215 -80.3836 395.367C-13.5704 480.408 48.8171 543.074 105.046 581.637C186.359 637.402 256.294 644.309 312.904 602.157C374.026 556.652 432.172 455.309 460.997 343.977C475.374 288.489 481.52 234.272 478.777 187.187C475.742 135.107 462.333 93.5875 438.913 63.7836C420.733 40.6491 405.087 30.2734 391.079 32.0571C379.323 33.5612 368.386 43.4505 356.655 63.1772C346.015 81.0966 335.533 105.773 324.446 131.911C311.486 162.462 296.798 197.079 278.575 228.789C257.624 265.263 235.384 291.967 210.581 310.432C147.402 357.469 52.8102 348.804 -16.26 342.47C-38.3628 340.445 -57.4501 338.694 -72.1486 339.063C-88.1236 339.463 -97.136 342.41 -100.507 348.332C-102.168 351.251 -102.486 354.912 -101.453 359.424V359.415Z" fill="url(#paint15_linear_890_2580)"/>
<path d="M457.097 134.743C460.803 150.935 463.09 168.676 463.925 187.686C465.967 234.218 459.247 288.115 444.496 343.533C430.253 397.054 409.376 449.137 384.114 494.156C357.909 540.861 328.363 577.292 298.669 599.511C283.725 610.688 267.633 618.192 250.837 621.805C235.077 625.194 218.271 625.253 200.888 621.975C184.713 618.92 167.595 612.906 150.007 604.081C133.815 595.953 116.769 585.22 99.343 572.179C34.3652 523.555 -26.924 450.477 -78.3145 385.405C-95.7481 363.328 -101.716 349.396 -97.0931 341.566C-93.7541 335.909 -84.797 333.364 -68.9085 333.559C-54.4444 333.738 -35.6519 336.081 -13.894 338.795C56.0212 347.519 151.774 359.476 213.338 313.398C267.723 272.705 297.249 196.057 320.977 134.468C330.774 109.039 340.027 85.0191 349.577 67.5626C360.151 48.2281 370.228 38.4729 381.283 36.8654C394.35 34.9665 409.121 44.703 426.43 66.6363C437.94 81.2071 446.979 99.2745 453.289 120.31C454.697 124.968 455.966 129.779 457.097 134.743ZM-97.5732 351.829C-97.0972 353.807 -96.4508 355.742 -95.6421 357.615C-92.6025 364.865 -86.8033 373.863 -77.9112 385.123C-26.5571 450.159 34.7101 523.206 99.6424 571.801C177.687 630.207 244.548 639.4 298.367 599.127C357.229 555.083 414.402 454.712 444.021 343.411C458.75 288.038 465.47 234.194 463.433 187.705C461.171 136.112 448.596 95.477 426.046 66.9258C408.849 45.1401 394.227 35.4694 381.355 37.3401C370.464 38.9241 360.504 48.5994 350.012 67.7879C340.477 85.2164 331.231 109.223 321.438 134.637C309.584 165.423 296.146 200.289 279.005 232.204C259.27 268.948 237.889 295.631 213.64 313.778C199.155 324.624 181.69 332.931 161.765 338.469C144.201 343.349 124.869 346.17 102.668 347.089C62.1634 348.767 19.9568 343.502 -13.9569 339.272C-35.7 336.558 -54.4781 334.217 -68.9131 334.039C-84.6061 333.846 -93.4255 336.313 -96.6658 341.794C-98.2129 344.414 -98.5103 347.719 -97.5732 351.829Z" fill="url(#paint16_linear_890_2580)"/>
<path d="M441.881 132.799C445.704 149.537 447.936 168.116 448.519 188.207C449.855 234.145 442.572 287.654 427.458 342.952C412.903 396.227 392.026 448.038 367.101 492.784C341.24 539.197 312.539 575.035 284.108 596.422C270.151 606.921 255.137 613.842 239.519 616.982C224.857 619.932 209.23 619.643 193.073 616.12C178.059 612.846 162.151 606.692 145.792 597.812C130.772 589.67 114.91 578.981 98.6504 566.05C70.9776 544.045 41.5498 515.243 8.68418 477.999C-19.6908 445.845 -45.8789 412.814 -68.9905 383.673L-75.7939 375.097C-91.989 354.701 -97.5226 341.93 -93.2373 334.91C-90.0431 329.684 -81.2892 327.611 -65.6878 328.389C-51.4821 329.094 -32.984 332.02 -11.5644 335.404C59.3237 346.602 156.412 361.939 216.436 316.782C269.536 276.83 296.267 199.425 317.744 137.234C326.286 112.501 334.352 89.1411 342.821 72.1595C352.192 53.3586 361.312 43.8289 371.513 42.1579C383.438 40.205 397.2 49.2459 413.522 69.8165C424.602 83.7664 433.201 101.287 439.081 121.892C440.095 125.436 441.026 129.072 441.881 132.799ZM-93.7373 344.12C-93.2946 345.97 -92.6886 347.778 -91.9265 349.526C-89.0993 356.179 -83.7177 364.463 -75.4633 374.855L-68.6573 383.431C-21.7478 442.59 36.6318 516.21 98.9134 565.736C172.609 624.342 233.1 634.278 283.848 596.108C340.436 553.533 396.648 454.126 427.054 342.856C442.157 287.598 449.435 234.128 448.099 188.231C446.615 137.132 434.874 97.3785 413.194 70.0771C396.97 49.6312 383.356 40.6445 371.584 42.5809C361.533 44.226 352.515 53.6875 343.21 72.3518C334.76 89.3105 326.691 112.659 318.155 137.377C296.667 199.629 269.905 277.102 216.701 317.132C202.573 327.759 185.333 335.698 165.456 340.713C147.945 345.133 128.556 347.387 106.183 347.603C65.3815 348.001 22.6775 341.258 -11.6345 335.834C-33.0418 332.452 -51.5282 329.531 -65.7144 328.823C-81.1372 328.055 -89.7683 330.062 -92.8729 335.143C-94.2947 337.451 -94.592 340.416 -93.7373 344.12Z" fill="url(#paint17_linear_890_2580)"/>
<path d="M426.752 131.055C430.683 148.242 432.822 167.604 433.114 188.741C433.748 234.079 425.897 287.21 410.42 342.384C403.02 368.75 394.155 394.706 383.863 420.137C373.616 445.436 362.249 469.421 350.063 491.425C324.546 537.547 296.694 572.792 269.524 593.352C258.486 601.709 246.742 607.569 234.623 610.778C223.128 613.817 210.963 614.555 198.474 612.97C178.266 610.409 156.342 601.644 133.305 586.914C112.95 573.899 91.8035 556.478 68.655 533.651C26.3374 491.928 -13.2446 441.342 -48.1676 396.716C-56.9988 385.435 -65.3403 374.77 -73.2927 364.813C-88.2809 346.045 -93.4159 334.391 -89.4688 328.13C-86.4195 323.313 -77.8657 321.693 -62.5519 323.035C-48.5924 324.257 -30.3717 327.735 -9.27349 331.78C25.432 338.419 68.6259 346.684 109.71 347.617C157.754 348.71 193.665 339.737 219.5 320.187C271.248 281.025 295.067 202.832 314.188 140.002C329.304 90.3585 341.245 51.1491 361.65 47.408C372.516 45.4151 385.25 53.7886 400.599 73.0031C411.239 86.3257 419.397 103.319 424.853 123.486C425.529 125.955 426.164 128.478 426.752 131.055ZM-89.9468 336.318C-89.5313 338.043 -88.9596 339.728 -88.2374 341.354C-85.6129 347.432 -80.6299 355.03 -73.001 364.581C-65.046 374.54 -56.7046 385.2 -47.8728 396.485C-12.9575 441.109 26.6174 491.683 68.9207 533.392C118.095 581.876 160.487 607.788 198.524 612.607C224.07 615.846 247.882 609.273 269.299 593.063C323.606 551.963 378.857 453.527 410.067 342.28C425.534 287.138 433.375 234.044 432.745 188.739C432.039 138.136 421.133 99.2676 400.317 73.2074C385.06 54.115 372.439 45.7864 361.732 47.7511C352.479 49.4502 344.367 58.6954 336.207 76.8475C328.789 93.3453 322.204 115.011 314.553 140.101C295.407 202.978 271.578 281.232 219.739 320.466C205.999 330.864 188.983 338.405 169.164 342.88C151.711 346.821 132.267 348.487 109.713 347.972C68.5998 347.032 25.3885 338.772 -9.33389 332.128C-30.4203 328.092 -48.6334 324.607 -62.5709 323.388C-77.7326 322.06 -86.1753 323.623 -89.1285 328.323C-90.4366 330.361 -90.7074 333.004 -89.9468 336.318Z" fill="url(#paint18_linear_890_2580)"/>
<path d="M650.836 228.585C639.546 236.7 624.094 241.832 603.422 244.464C577.617 247.75 545.921 247.014 509.219 246.161C439.45 244.542 352.607 242.528 257.894 267.288C171.154 289.962 87.4456 332.814 13.5997 370.629C-37.9114 397 -86.5663 421.909 -129.534 436.597C-152.489 444.444 -172.266 448.883 -190.031 450.169C-209.743 451.598 -226.704 449.151 -241.878 442.696C-275.979 428.184 -300.303 393.056 -316.237 335.31C-325.136 303.091 -330.675 270.082 -332.771 236.782C-336.757 172.542 -327.711 108.166 -306.148 47.3281C-284.947 -12.5471 -252.152 -67.9115 -209.538 -115.769C-188.116 -139.814 -164.354 -161.784 -138.582 -181.372C-112.358 -201.279 -84.1741 -218.61 -54.4418 -233.112C7.03326 -263.006 74.0685 -280.531 142.658 -284.638C175.852 -286.589 209.162 -285.336 242.102 -280.899C274.488 -276.517 306.361 -269.092 337.276 -258.728C398.787 -238.09 455.664 -206.167 504.828 -164.687C529.533 -143.834 552.109 -120.7 572.233 -95.61C592.68 -70.0831 610.48 -42.6479 625.369 -13.7064C640.697 16.1346 652.888 47.4034 661.773 79.6255C671.825 116.071 676.621 144.902 676.426 167.755C676.242 189.752 671.416 206.313 661.666 218.383C658.544 222.243 654.905 225.675 650.836 228.585ZM-126.54 -188.155C-288.797 -71.5521 -370.062 134.132 -314.683 334.894C-298.886 392.152 -274.847 426.943 -241.233 441.253C-212.906 453.306 -177.583 451.358 -130.067 435.112C-87.2111 420.461 -38.6065 395.581 12.8586 369.236C86.7843 331.399 170.572 288.498 257.477 265.78C352.418 240.958 439.384 242.984 509.266 244.598C545.901 245.449 577.535 246.182 603.223 242.913C631.06 239.371 649.229 231.271 660.407 217.424C669.926 205.636 674.656 189.387 674.83 167.748C675.019 145.032 670.239 116.339 660.228 80.0322C625.261 -46.7113 541.688 -152.612 424.889 -218.161C308.09 -283.71 172.059 -301.068 41.8565 -267.031C-20.6779 -250.681 -77.3415 -223.51 -126.54 -188.155Z" fill="url(#paint19_linear_890_2580)"/>
<path d="M645.365 230.507C634.427 238.366 619.319 243.129 598.939 245.261C574.096 247.857 543.623 246.481 508.334 244.883C438.242 241.712 351.015 237.766 256.12 262.668C169.821 285.314 87.0324 329.162 13.9906 367.847C-35.2364 393.919 -81.7359 418.548 -122.771 433.218C-144.693 441.055 -163.595 445.567 -180.56 447.01C-199.391 448.613 -215.613 446.448 -230.14 440.395C-262.906 426.736 -286.361 392.922 -301.844 336.99C-310.565 305.477 -315.879 273.162 -317.698 240.572C-319.448 208.745 -317.902 176.828 -313.085 145.302C-308.296 114.106 -300.423 83.4335 -289.577 53.7108C-278.761 24.0783 -265.111 -4.50058 -248.807 -31.6496C-232.482 -58.83 -213.588 -84.4686 -192.37 -108.233C-171.04 -132.11 -147.429 -153.961 -121.854 -173.493C-95.9897 -193.231 -68.1941 -210.446 -38.8676 -224.887C-8.88657 -239.622 22.5613 -251.34 54.9878 -259.857C87.1793 -268.318 120.195 -273.467 153.491 -275.219C185.706 -276.878 218.011 -275.308 249.896 -270.533C281.275 -265.808 312.095 -258.058 341.9 -247.396C371.585 -236.762 400.148 -223.372 427.192 -207.409C454.349 -191.372 479.888 -172.875 503.467 -152.165C551.633 -109.842 591.088 -58.9844 619.723 -2.30618C634.52 26.9831 646.363 57.5991 655.089 89.1126C664.767 124.057 669.384 151.649 669.205 173.465C669.031 194.452 664.399 210.162 655.038 221.499C652.228 224.897 648.978 227.925 645.365 230.507ZM-108.633 -181.175C-270.277 -65.0139 -354.417 141.419 -300.361 336.609C-285.007 392.053 -261.839 425.551 -229.534 439.015C-202.419 450.319 -168.665 448.028 -123.305 431.812C-82.3731 417.178 -35.9247 392.577 13.2547 366.531C86.3737 327.806 169.246 283.911 255.722 261.22C350.846 236.258 438.211 240.211 508.411 243.385C543.633 244.979 574.055 246.356 598.78 243.771C625.578 240.967 643.077 233.593 653.825 220.566C662.955 209.504 667.48 194.097 667.649 173.461C667.828 151.783 663.227 124.322 653.584 89.5098C581.711 -170.028 313.36 -326.106 55.3885 -258.411C-5.1207 -242.532 -60.3404 -215.881 -108.633 -181.175Z" fill="url(#paint20_linear_890_2580)"/>
<path d="M639.822 232.629C629.238 240.234 614.472 244.615 594.379 246.244C570.462 248.175 541.141 246.168 507.198 243.846C436.84 239.031 349.275 233.036 254.355 258.048C168.551 280.654 86.7625 325.529 14.602 365.121C-32.3828 390.899 -76.762 415.249 -115.905 429.901C-159.529 446.233 -192.093 448.846 -218.389 438.127C-249.828 425.31 -272.421 392.789 -287.46 338.701C-296.004 307.891 -301.09 276.271 -302.63 244.394C-304.118 213.04 -302.307 181.62 -297.225 150.625C-292.153 119.761 -284.044 89.4436 -273.007 60.0917C-261.954 30.6964 -248.141 2.35562 -231.742 -24.5709C-215.308 -51.5637 -196.381 -77.0423 -175.195 -100.691C-153.959 -124.401 -130.501 -146.134 -105.125 -165.61C-79.6204 -185.179 -52.2138 -202.277 -23.2952 -216.661C6.01129 -231.217 36.7857 -242.783 68.5371 -251.175C130.922 -267.612 194.563 -270.639 257.665 -260.174C288.046 -255.106 317.816 -247.031 346.511 -236.073C375.193 -225.1 402.708 -211.445 428.682 -195.299C454.871 -179.009 479.438 -160.379 502.075 -139.651C525.014 -118.641 545.936 -95.6359 564.582 -70.9222C583.544 -45.7716 600.101 -18.9874 614.053 9.09665C628.317 37.8376 639.812 67.8054 648.379 98.6143C657.684 132.075 662.127 158.448 661.963 179.24C661.804 199.229 657.377 214.11 648.39 224.73C645.882 227.698 643 230.351 639.822 232.629ZM-91.7139 -173.525C-146.846 -133.905 -194.492 -82.9616 -230.475 -23.8401C-298.643 88.147 -318.894 220.162 -286.044 338.328C-271.131 391.959 -248.819 424.17 -217.829 436.797C-191.904 447.372 -159.688 444.747 -116.441 428.558C-77.3997 413.942 -33.0661 389.618 13.8701 363.864C86.1084 324.232 167.981 279.309 253.964 256.657C349.122 231.586 436.825 237.586 507.295 242.408C541.182 244.728 570.442 246.73 594.251 244.807C620.066 242.723 636.905 236.053 647.248 223.812C656 213.457 660.325 198.87 660.484 179.221C660.647 158.561 656.22 132.315 646.962 98.9811C575.376 -158.442 316.078 -314.896 68.9235 -249.798C11.4753 -234.654 -43.0417 -208.502 -91.7139 -173.525Z" fill="url(#paint21_linear_890_2580)"/>
<path d="M634.208 234.949C623.977 242.302 609.544 246.311 589.742 247.404C566.706 248.687 538.49 246.07 505.821 243.038C435.238 236.488 347.392 228.336 252.59 253.416C167.344 275.977 86.639 321.905 15.4346 362.435C-29.3479 387.934 -71.6558 412.01 -108.93 426.642C-150.468 442.945 -181.506 445.88 -206.615 435.885C-236.733 423.899 -258.466 392.664 -273.058 340.403C-281.424 310.297 -286.283 279.37 -287.544 248.206C-288.8 217.828 -286.718 186.793 -281.356 155.966C-276.124 125.885 -267.735 95.78 -256.419 66.4744C-245.127 37.3172 -231.147 9.21448 -214.652 -17.4901C-198.108 -44.2986 -179.148 -69.6227 -157.998 -93.1634C-136.861 -116.698 -113.565 -138.309 -88.399 -157.728C-63.2509 -177.127 -36.2322 -194.108 -7.72052 -208.436C21.2026 -222.92 51.4171 -234.376 82.0906 -242.489C142.689 -258.519 204.367 -260.982 265.449 -249.81C294.827 -244.396 323.541 -235.995 351.118 -224.746C378.397 -213.651 404.99 -199.668 430.181 -183.191C455.403 -166.648 479.013 -147.885 500.713 -127.139C522.762 -106.051 542.855 -83.1087 560.763 -58.5793C597.608 -8.08682 625.005 48.3422 641.69 108.109C650.626 140.105 654.895 165.275 654.746 185.058C654.603 204.075 650.36 218.143 641.767 228.066C639.535 230.641 636.997 232.952 634.208 234.949ZM252.221 252.105C294.456 240.932 339.054 235.348 388.561 235.033C431.374 234.763 470.998 238.441 505.954 241.684C538.566 244.709 566.731 247.324 589.66 246.048C614.529 244.664 630.743 238.671 640.687 227.186C649.055 217.515 653.195 203.732 653.334 185.049C653.482 165.393 649.229 140.341 640.329 108.468C607.215 -10.1414 530.331 -116.032 429.393 -182.054C323.469 -251.342 200.256 -272.336 82.4627 -241.168C25.881 -226.205 -26.5232 -200.592 -72.9865 -167.203C-233.266 -52.0202 -323.145 155.844 -271.713 340.043C-257.245 391.868 -235.779 422.802 -206.096 434.618C-181.339 444.47 -150.632 441.532 -109.456 425.373C-72.2766 410.779 -30.0117 386.726 14.7247 361.262C85.9973 320.69 166.796 274.706 252.221 252.105Z" fill="url(#paint22_linear_890_2580)"/>
<path d="M628.526 237.468C618.648 244.57 604.548 248.201 585.028 248.772C562.831 249.425 535.664 246.208 504.209 242.485C433.441 234.107 345.365 223.684 250.823 248.805C166.204 271.291 86.6655 318.326 16.4918 359.821C-26.1298 385.026 -66.3859 408.83 -101.849 423.441C-141.342 439.722 -170.883 442.961 -194.85 433.669C-223.657 422.494 -244.536 392.542 -258.681 342.104C-266.808 313.132 -271.453 282.823 -272.496 252.017C-273.503 222.256 -271.156 191.735 -265.526 161.304C-260.043 131.666 -251.409 101.912 -239.869 72.8596C-228.343 43.9418 -214.204 16.0764 -197.619 -10.4093C-180.967 -37.0262 -161.976 -62.188 -140.859 -85.6126C-119.805 -108.984 -96.6499 -130.48 -71.6708 -149.846C-46.5043 -169.314 -19.7491 -186.258 7.85358 -200.211C36.2675 -214.574 65.7966 -225.876 95.6349 -233.817C154.435 -249.441 214.176 -251.337 273.225 -239.458C301.148 -233.838 328.903 -225.082 355.724 -213.43C381.892 -202.058 407.447 -187.814 431.676 -171.091C455.516 -154.64 478.27 -135.642 499.331 -114.634C520.489 -93.4713 539.764 -70.5928 556.935 -46.246C592.183 3.73396 618.567 59.116 634.99 117.594C643.558 148.145 647.658 172.13 647.53 190.917C647.402 208.978 643.348 222.256 635.139 231.506C633.168 233.727 630.952 235.727 628.526 237.468ZM250.47 247.548C292.583 236.356 337.184 231.214 386.826 231.828C429.726 232.356 469.38 237.049 504.372 241.19C535.777 244.899 562.897 248.119 584.987 247.47C608.96 246.765 624.585 241.43 634.12 230.672C642.12 221.663 646.066 208.663 646.194 190.924C646.322 172.25 642.238 148.387 633.706 117.946C600.991 1.3248 527.086 -103.636 430.903 -170.019C328.686 -240.571 209.753 -262.778 95.987 -232.548C41.3328 -218.025 -9.69571 -192.94 -55.2387 -160.207C-214.761 -45.5739 -307.532 162.991 -257.39 341.761C-243.363 391.778 -222.745 421.446 -194.355 432.458C-170.748 441.624 -141.518 438.369 -102.37 422.24C-66.999 407.67 -26.7818 383.886 15.7968 358.708C86.0452 317.167 165.668 270.083 250.47 247.548Z" fill="url(#paint23_linear_890_2580)"/>
<path d="M622.784 240.199C613.249 247.052 599.487 250.304 580.253 250.333C558.859 250.37 532.691 246.572 502.377 242.17C431.461 231.865 343.2 219.048 249.058 244.194C165.127 266.598 86.8468 314.767 17.7694 357.267C-22.7328 382.178 -60.9872 405.726 -94.6666 420.311C-132.16 436.545 -160.251 440.099 -183.071 431.49C-210.574 421.114 -230.605 392.436 -244.304 343.815C-252.233 315.668 -256.651 286.068 -257.438 255.839C-258.194 226.697 -255.586 196.684 -249.685 166.643C-243.952 137.45 -235.077 108.048 -223.307 79.2518C-211.537 50.5696 -197.228 22.9381 -180.54 -3.3308C-163.779 -29.755 -144.756 -54.7548 -123.674 -78.0639C-102.716 -101.269 -79.7178 -122.649 -54.9418 -141.964C-30.0266 -161.331 -3.65784 -178.155 23.4285 -191.99C51.33 -206.234 80.1831 -217.371 109.184 -225.127C166.207 -240.348 224.014 -241.681 281.004 -229.089C307.848 -223.157 334.538 -214.074 360.33 -202.096C385.403 -190.453 409.909 -175.946 433.17 -158.976C455.956 -142.354 477.754 -123.224 497.95 -102.115C518.222 -80.8788 536.668 -58.0621 553.112 -33.8939C586.763 15.5565 612.144 69.8932 628.296 127.088C636.505 156.208 640.436 179.026 640.324 196.853C640.211 213.981 636.352 226.486 628.516 235.085C626.797 236.981 624.872 238.695 622.784 240.199ZM-37.5542 -153.209C-196.265 -39.1487 -291.916 170.088 -243.07 343.477C-229.487 391.694 -209.707 420.09 -182.605 430.327C-160.123 438.809 -132.344 435.262 -95.1784 419.169C-61.5835 404.622 -23.368 381.097 17.0862 356.209C86.2285 313.672 164.599 265.444 248.71 242.991C290.634 231.797 335.195 227.13 384.933 228.721C427.878 230.096 467.553 235.856 502.556 240.942C532.819 245.329 558.957 249.129 580.248 249.084C599.2 249.051 612.722 245.879 622.032 239.191C624.048 237.744 625.901 236.095 627.564 234.272C635.185 225.908 638.942 213.669 639.049 196.856C639.162 179.145 635.241 156.434 627.068 127.424C564.024 -96.367 353.195 -288.979 109.519 -223.928C56.7285 -209.846 7.07626 -185.278 -37.5542 -153.209Z" fill="url(#paint24_linear_890_2580)"/>
<path d="M616.97 243.113C607.783 249.714 594.358 252.579 575.411 252.067C554.785 251.508 529.553 247.132 500.329 242.074C429.311 229.769 340.897 214.453 247.291 239.564C164.121 261.874 87.18 311.217 19.2997 354.753C-19.1256 379.396 -55.4198 402.671 -87.3488 417.225C-122.887 433.424 -149.548 437.267 -171.25 429.323C-197.464 419.731 -216.639 392.312 -229.9 345.505C-237.626 318.182 -241.825 289.295 -242.353 259.641C-242.863 231.114 -239.992 201.615 -233.821 171.968C-227.836 143.215 -218.72 114.156 -206.723 85.6276C-194.724 57.1905 -180.259 29.7989 -163.486 3.75014C-146.617 -22.4887 -127.56 -47.3331 -106.509 -70.532C-85.3789 -93.8097 -62.3993 -115.184 -38.2109 -134.083C-13.5439 -153.35 12.4338 -170.066 39.0027 -183.76C66.3955 -197.884 94.5653 -208.875 122.733 -216.427C177.989 -231.249 233.858 -232.017 288.783 -218.711C314.553 -212.467 340.175 -203.061 364.941 -190.745C388.914 -178.832 412.37 -164.061 434.665 -146.842C456.396 -130.058 477.226 -110.789 496.573 -89.5746C515.95 -68.2777 533.576 -45.5332 549.299 -21.5511C581.358 27.3657 605.731 80.668 621.612 136.592C629.458 164.304 633.23 185.977 633.133 202.851C633.046 219.067 629.376 230.817 621.914 238.786C620.419 240.383 618.761 241.832 616.97 243.113ZM246.972 238.432C288.65 227.252 333.116 223.092 382.916 225.72C425.877 227.985 465.547 234.857 500.549 240.92C529.717 245.973 554.908 250.337 575.442 250.894C597.731 251.496 612.21 247.397 621.013 237.997C628.255 230.242 631.833 218.752 631.92 202.844C632.012 186.081 628.255 164.511 620.44 136.905C557.626 -84.9638 354.408 -277.369 123.054 -215.308C12.2091 -185.574 -91.8588 -105.501 -162.465 4.37056C-234.27 116.113 -258.427 240.338 -228.744 345.195C-215.603 391.614 -196.658 418.774 -170.83 428.226C-149.454 436.052 -123.09 432.221 -87.8657 416.163C-56.0089 401.651 -19.7485 378.385 18.6385 353.772C86.5934 310.19 163.617 260.793 246.972 238.432Z" fill="url(#paint25_linear_890_2580)"/>
<path d="M611.105 246.239C602.266 252.584 589.169 255.07 570.513 253.994C550.619 252.856 526.283 247.926 498.103 242.215C426.977 227.809 338.461 209.878 245.533 234.93C163.18 257.145 87.6872 307.703 21.0527 352.31C-15.3403 376.679 -49.7126 399.693 -79.9419 414.219C-113.57 430.374 -138.831 434.501 -159.439 427.199C-184.374 418.367 -202.718 392.201 -215.521 347.206C-223.063 320.704 -227.025 292.526 -227.295 263.453C-227.556 235.539 -224.422 206.555 -217.981 177.303C-211.745 148.989 -202.387 120.294 -190.164 92.0108C-178.196 64.3312 -163.481 37.0182 -146.424 10.8286C-129.447 -15.219 -110.358 -39.904 -89.3407 -62.9903C-68.2543 -86.1438 -45.4247 -107.407 -21.4845 -126.208C2.94554 -145.369 28.5368 -161.97 54.5775 -175.535C81.458 -189.541 108.947 -200.38 136.282 -207.75C189.785 -222.175 243.718 -222.379 296.562 -208.354C345.406 -195.395 392.374 -170.63 436.159 -134.751C518.063 -67.6344 583.216 34.7292 614.907 146.086C622.39 172.408 626.013 192.955 625.932 208.898C625.865 224.214 622.385 235.24 615.296 242.605C614.017 243.938 612.614 245.154 611.105 246.239ZM245.222 233.875C286.593 222.719 330.929 219.105 380.741 222.829C423.692 226.032 463.341 234.063 498.318 241.16C526.457 246.859 550.758 251.783 570.57 252.911C592.071 254.14 606.017 250.631 614.457 241.865C628.419 227.362 628.219 197.027 613.802 146.399C582.172 35.2391 517.152 -66.9199 435.417 -133.893C371.18 -186.536 267.187 -241.887 136.579 -206.671C30.2611 -178 -75.1785 -96.4677 -145.468 11.4396C-218.186 123.067 -243.312 245.348 -214.42 346.91C-201.721 391.546 -183.609 417.458 -159.053 426.158C-138.756 433.349 -113.778 429.239 -80.4486 413.232C-50.292 398.744 -15.9508 375.748 20.4058 351.406C87.1028 306.742 162.692 256.128 245.222 233.875Z" fill="url(#paint26_linear_890_2580)"/>
<path d="M605.162 249.566C596.666 255.677 583.912 257.764 565.554 256.135C546.356 254.436 522.864 248.955 495.662 242.612C428.231 226.886 335.875 205.349 243.761 230.328C162.31 252.419 88.3288 304.227 23.0562 349.949C-11.3474 374.047 -43.8409 396.805 -72.4047 411.286C-104.167 427.396 -128.061 431.791 -147.6 425.11C-171.26 417.021 -188.773 392.095 -201.13 348.91C-208.476 323.228 -212.209 295.76 -212.223 267.27C-212.223 239.966 -208.843 211.492 -202.127 182.64C-195.642 154.768 -186.04 126.423 -173.59 98.3981C-161.427 71.0149 -146.545 43.9369 -129.358 17.9118C-95.1545 -33.8892 -52.0692 -80.9969 -4.75632 -118.319C19.4132 -137.388 44.616 -153.874 70.152 -167.309C96.5208 -181.196 123.329 -191.88 149.823 -199.064C201.581 -213.094 253.565 -212.732 304.338 -197.99C350.933 -184.458 395.793 -159.105 437.654 -122.641C457.276 -105.544 476.172 -86.0053 493.814 -64.5674C510.959 -43.7361 527.045 -20.9565 541.637 3.14145C556.111 27.0901 568.962 51.9344 580.109 77.5152C591.19 102.921 600.577 128.997 608.208 155.581C615.347 180.537 618.792 199.972 618.746 215.004C618.7 229.447 615.414 239.767 608.694 246.549C607.604 247.649 606.421 248.659 605.162 249.566ZM243.473 229.318C284.473 218.202 328.62 215.161 378.432 220.021C421.342 224.218 460.956 233.447 495.912 241.609C523.074 247.954 546.53 253.416 565.646 255.11C586.41 256.948 599.84 254.004 607.926 245.839C621.156 232.481 620.921 203.894 607.179 155.873C575.836 46.3011 513.779 -54.9297 436.937 -121.873C375.449 -175.436 275.782 -232.135 150.12 -198.067C46.7068 -170.033 -57.436 -89.0838 -128.459 18.4759C-202.105 130.007 -228.215 250.342 -200.096 348.628C-187.841 391.461 -170.553 416.156 -147.245 424.125C-128.003 430.705 -104.382 426.327 -72.8996 410.358C-44.411 395.903 -11.9411 373.165 22.4313 349.091C55.4535 325.961 89.5991 302.044 126.564 280.531C168.822 255.944 207.061 239.188 243.473 229.318Z" fill="url(#paint27_linear_890_2580)"/>
<path d="M599.164 253.099C591.016 258.955 578.59 260.659 560.533 258.468C542.006 256.22 519.318 250.203 493.041 243.235C425.57 225.344 333.163 200.842 241.987 225.701C161.504 247.644 89.1408 300.768 25.2946 347.636C-7.16515 371.466 -37.8243 393.973 -64.7581 408.424C-94.6952 424.484 -117.259 429.136 -135.738 423.053C-158.145 415.686 -174.826 391.99 -186.733 350.609C-193.896 325.743 -197.399 298.984 -197.153 271.079C-196.911 244.389 -193.261 216.428 -186.277 187.975C-179.543 160.53 -169.7 132.55 -157.02 104.783C-144.657 77.7006 -129.599 50.8557 -112.296 24.9927C-77.8655 -26.4464 -34.8932 -73.2767 11.9728 -110.437C35.8936 -129.402 60.7074 -145.776 85.7291 -159.084C111.589 -172.863 137.711 -183.391 163.38 -190.39C213.402 -204.02 263.442 -203.102 312.115 -187.638C356.487 -173.537 399.227 -147.601 439.143 -110.554C457.717 -93.3114 475.645 -73.6364 492.432 -52.0764C508.631 -31.2782 523.898 -8.55507 537.819 15.4607C551.546 39.1967 563.778 63.7193 574.459 88.8945C585.018 113.742 594.056 139.176 601.529 165.064C608.32 188.67 611.611 207.02 611.586 221.161C611.565 234.754 608.464 244.389 602.112 250.615C601.196 251.515 600.214 252.346 599.164 253.099ZM57.2671 323.113C79.4257 307.189 102.34 291.387 126.572 276.717C168.083 251.561 205.746 234.558 241.719 224.759C282.279 213.697 326.219 211.267 375.986 217.328C418.83 222.542 458.397 233.036 493.307 242.293C519.548 249.249 542.205 255.258 560.666 257.498C580.703 259.93 593.647 257.531 601.391 249.937C613.899 237.677 613.628 210.797 600.551 165.334C569.439 57.215 510.356 -43.0828 438.447 -109.835C379.753 -164.329 284.418 -222.377 163.653 -189.447C119.334 -177.363 74.5461 -154.974 32.185 -124.537C-21.5182 -85.9465 -71.3369 -34.4132 -111.465 25.5191C-186.028 136.933 -213.114 255.324 -185.772 350.346C-173.961 391.39 -157.493 414.87 -135.424 422.127C-117.218 428.116 -94.9152 423.488 -65.2387 407.557C-38.3653 393.139 -7.73273 370.66 24.6958 346.847C35.4104 338.99 46.251 331.033 57.2671 323.113Z" fill="url(#paint28_linear_890_2580)"/>
<path d="M593.109 256.835C585.304 262.442 573.221 263.761 555.482 261.002C537.589 258.219 515.648 251.675 490.262 244.095C422.77 223.95 330.33 196.365 240.229 221.078C160.784 242.871 90.1325 297.349 27.7982 345.411C-2.76428 368.985 -31.6317 391.233 -56.9845 405.646C-85.1496 421.655 -106.405 426.546 -123.875 421.042C-145.038 414.372 -160.893 391.901 -172.351 352.311C-179.314 328.26 -182.59 302.213 -182.085 274.893C-181.603 248.807 -177.682 221.363 -170.427 193.31C-163.445 166.314 -153.358 138.674 -140.463 111.178C-127.885 84.3869 -112.672 57.7741 -95.2337 32.0736C-60.5743 -19.0036 -17.7182 -65.55 28.701 -102.557C52.3613 -121.424 76.7984 -137.679 101.304 -150.875C126.653 -164.52 152.091 -174.893 176.929 -181.706C225.214 -194.953 273.324 -193.456 319.891 -177.274C362.045 -162.609 402.672 -136.095 440.632 -98.4369C475.241 -64.1089 506.645 -21.6333 533.986 27.8105C559.182 73.3859 580.222 124.134 594.824 174.57C607.358 217.861 607.578 243.367 595.525 254.84C594.768 255.558 593.959 256.225 593.109 256.835ZM239.973 220.202C280.05 209.206 323.71 207.417 373.422 214.736C416.173 221.029 455.68 232.831 490.539 243.223C515.888 250.791 537.804 257.324 555.63 260.099C574.992 263.112 587.459 261.233 594.86 254.187C606.647 242.972 606.35 217.76 593.918 174.819C562.974 67.927 506.86 -31.438 439.962 -97.7931C359.828 -177.286 268.959 -205.997 177.185 -180.823C134.606 -169.142 91.26 -147.364 49.9154 -117.651C-3.49564 -79.2697 -53.5804 -27.6426 -94.4589 32.5812C-169.951 143.845 -198.017 260.292 -171.451 352.064C-160.084 391.327 -144.427 413.606 -123.587 420.172C-106.39 425.592 -85.3764 420.727 -57.4553 404.857C-32.1609 390.481 -3.31958 368.242 27.2163 344.694C57.1799 321.588 91.1444 295.401 126.709 272.919C167.426 247.183 204.476 229.938 239.973 220.202Z" fill="url(#paint29_linear_890_2580)"/>
<path d="M586.993 260.774C579.536 266.132 567.795 267.068 550.374 263.74C533.09 260.436 511.881 253.371 487.319 245.191C419.812 222.707 327.363 191.914 238.461 216.463C160.133 238.084 91.2892 293.969 30.5507 343.27C1.83737 366.576 -25.2822 388.587 -49.0898 402.962C-75.519 418.898 -95.5142 424.019 -111.974 419.065C-131.917 413.07 -146.955 391.78 -157.964 354.01C-164.724 330.772 -167.781 305.438 -167.018 278.708C-166.294 253.235 -162.105 226.301 -154.577 198.649C-140.306 146.227 -113.884 91.0775 -78.1747 39.1568C-43.2906 -11.5585 -0.550201 -57.8368 45.4371 -94.6747C68.8557 -113.443 92.8968 -129.583 116.885 -142.652C141.714 -156.175 166.477 -166.388 190.485 -173.023C237.066 -185.882 283.222 -183.833 327.672 -166.912C367.628 -151.709 406.137 -124.61 442.127 -86.3292C474.493 -51.919 504.112 -9.36113 530.157 40.1509C553.675 84.8567 573.717 134.625 588.124 184.064C600.014 224.86 600.27 248.732 588.938 259.192C588.324 259.757 587.674 260.286 586.993 260.774ZM103.764 285.177C111.393 279.694 119.135 274.327 126.97 269.152C166.842 242.805 203.235 225.304 238.225 215.642C277.766 204.727 321.107 203.615 370.725 212.247C413.363 219.664 452.813 232.798 487.601 244.389C512.132 252.56 533.315 259.615 550.543 262.908C569.254 266.483 581.261 265.105 588.334 258.577C599.41 248.358 599.077 224.754 587.29 184.297C556.428 78.3798 503.272 -20.0517 441.467 -85.7581C365.417 -166.602 278.705 -196.502 190.704 -172.207C150.625 -161.138 108.761 -139.813 68.3388 -110.766C14.7564 -72.2592 -36.3085 -20.1786 -77.4505 39.6292C-153.879 150.745 -182.921 265.249 -157.122 353.779C-146.2 391.261 -131.349 412.353 -111.733 418.257C-95.5213 423.133 -75.76 418.038 -49.553 402.227C-25.7965 387.891 1.29895 365.901 29.9877 342.614C52.5783 324.283 77.4986 304.053 103.764 285.177Z" fill="url(#paint30_linear_890_2580)"/>
<path d="M580.831 264.915C573.717 270.026 562.314 270.579 545.225 266.682C528.52 262.875 507.991 255.298 484.223 246.525C416.716 221.614 324.268 187.493 236.697 211.838C159.555 233.282 92.6195 290.618 33.5612 341.204C6.65408 364.254 -18.7637 386.025 -41.0667 400.34C-65.8252 416.229 -84.5773 421.566 -100.074 417.138C-118.787 411.792 -133.017 391.698 -143.575 355.711C-150.154 333.286 -152.971 308.662 -151.948 282.522C-150.982 257.655 -146.528 231.233 -138.727 203.986C-123.973 152.451 -97.1314 97.9022 -61.1079 46.24C-25.9971 -4.11337 16.6322 -50.1142 62.1584 -86.7946C85.3355 -105.461 108.981 -121.487 132.455 -134.429C156.77 -147.825 180.85 -157.895 204.029 -164.339C227.028 -170.731 250.06 -173.192 272.489 -171.65C293.734 -170.188 314.905 -165.11 335.439 -156.55C373.202 -140.805 409.596 -113.111 443.601 -74.224C473.736 -39.7692 501.568 2.85939 526.319 52.489C548.106 96.1726 567.161 144.954 581.42 193.561C592.669 231.905 592.966 254.193 582.346 263.688C581.865 264.124 581.358 264.533 580.831 264.915ZM236.475 211.097C275.415 200.273 318.409 199.871 367.91 209.873C410.41 218.46 449.778 232.989 484.52 245.806C508.262 254.57 528.77 262.137 545.419 265.932C563.512 270.054 575.079 269.164 581.824 263.112C592.193 253.837 591.825 231.804 580.668 193.784C549.78 88.4993 499.608 -8.99922 443.007 -73.7092C371.093 -155.928 288.537 -187.003 204.261 -163.577C113.907 -138.473 12.4846 -57.9051 -60.4416 46.6771C-137.807 157.63 -167.829 270.188 -142.802 355.495C-132.327 391.216 -118.276 411.122 -99.8475 416.386C-84.5942 420.746 -66.0474 415.446 -41.5089 399.686C-19.2515 385.402 6.14433 363.647 33.03 340.616C61.3159 316.389 93.3749 288.928 127.359 265.413C166.335 238.429 202.028 220.662 236.475 211.086V211.097Z" fill="url(#paint31_linear_890_2580)"/>
<path d="M574.608 269.26C567.852 274.122 556.781 274.296 540.03 269.834C523.888 265.535 504.004 257.456 480.983 248.098C413.486 220.67 321.049 183.091 234.93 207.218C198.02 217.551 163.013 237.4 130.548 260.737C96.265 285.37 64.8043 313.889 36.8398 339.23C11.6876 362.026 -12.0714 383.557 -32.9162 397.823C-56.0427 413.636 -73.5874 419.185 -88.1406 415.258C-105.654 410.532 -119.08 391.609 -129.184 357.411C-135.572 335.789 -138.16 311.884 -136.878 286.338C-135.671 262.076 -130.948 236.166 -122.875 209.325C-107.641 158.672 -80.3836 104.727 -44.0439 53.3207C-8.7058 3.33417 33.8027 -42.3918 78.8892 -78.9125C125.678 -116.815 173.636 -143.338 217.576 -155.655C239.739 -161.862 261.854 -164.076 283.302 -162.235C303.568 -160.496 323.725 -155.098 343.21 -146.189C378.801 -129.919 413.077 -101.636 445.095 -62.1232C473.009 -27.6802 499.04 15.0307 522.501 64.8245C542.487 107.249 560.548 155.05 574.736 203.055C585.361 239 585.693 259.742 575.785 268.334C575.406 268.659 575.017 268.969 574.608 269.26ZM130.251 259.975C167.358 233.308 201.559 215.814 234.717 206.526C321.086 182.342 413.66 219.967 481.254 247.437C504.255 256.784 524.118 264.856 540.214 269.143C556.735 273.542 567.591 273.406 574.162 268.673C574.551 268.393 574.925 268.1 575.283 267.789C584.956 259.402 584.552 238.883 574.019 203.244C555.773 141.476 514.67 24.9105 444.517 -61.6767C375.817 -146.471 299.533 -177.857 217.786 -154.976C130.345 -130.483 30.2513 -50.5093 -43.4379 53.7273C-120.591 162.88 -152.382 276.324 -128.479 357.213C-118.45 391.153 -105.19 409.914 -87.9451 414.556C-73.6212 418.422 -56.2699 412.91 -33.339 397.226C-12.5372 382.994 11.205 361.476 36.3377 338.708C63.7229 313.889 94.7634 285.758 127.88 261.688C128.672 261.113 129.462 260.542 130.251 259.975Z" fill="url(#paint32_linear_890_2580)"/>
<path d="M568.338 273.805C561.915 278.423 551.198 278.219 534.799 273.199C519.189 268.419 499.92 259.843 477.61 249.912C410.129 219.875 317.708 178.737 233.165 202.597C158.638 223.631 93.0734 286.689 40.3912 337.357C16.9438 359.918 -5.20251 381.21 -24.6281 395.405C-25.0841 395.738 -25.5432 396.069 -25.9946 396.394C-46.866 411.395 -62.8415 416.807 -76.1802 413.427C-92.513 409.291 -105.152 391.522 -114.809 359.107C-121.004 338.301 -123.365 315.101 -121.823 290.148C-120.359 266.492 -115.386 241.094 -107.037 214.658C-91.3133 164.892 -63.6333 111.549 -26.9916 60.4155C8.57784 10.7816 50.9727 -34.6671 95.618 -71.0323C141.946 -108.768 188.81 -135.028 231.127 -146.971C252.457 -152.992 273.653 -154.962 294.123 -152.819C313.418 -150.8 332.547 -145.082 350.984 -135.825C384.405 -119.038 416.577 -90.1671 446.574 -50.018C472.252 -15.6618 496.506 27.1289 518.672 77.1605C536.99 118.522 553.603 164.062 568.041 212.55C578.047 246.144 578.421 265.394 569.208 273.131C568.932 273.366 568.64 273.591 568.338 273.805ZM232.976 201.969C317.769 178.043 410.313 219.238 477.887 249.32C500.176 259.242 519.43 267.81 534.999 272.586C551.924 277.756 562.652 277.791 568.773 272.647C573.175 268.948 575.268 262.541 575.166 253.077C575.053 243.103 572.509 229.908 567.396 212.74C544.815 136.916 505.432 29.8644 446.037 -49.6349C381.621 -135.839 309.386 -168.376 231.313 -146.347C146.791 -122.493 48.0273 -43.1275 -26.4337 60.7778C-104.514 169.735 -137.308 281.194 -114.147 358.931C-104.565 391.106 -92.0882 408.727 -76.0016 412.802C-62.5856 416.2 -46.3737 410.513 -25.0191 394.887C-5.62988 380.712 16.5067 359.427 39.9254 336.892C66.3643 311.463 96.3325 282.639 128.547 257.998C165.557 229.682 199.71 211.356 232.976 201.969Z" fill="url(#paint33_linear_890_2580)"/>
<path d="M562.022 278.555C555.942 282.926 545.578 282.35 529.533 276.778C514.43 271.533 495.749 262.466 474.11 251.968C406.643 219.231 314.246 174.396 231.398 197.975C158.3 218.778 95.0459 283.539 44.2201 335.576C22.4289 357.885 1.84718 378.959 -16.2022 393.099C-18.2299 394.686 -20.2091 396.174 -22.1391 397.564C-39.2805 409.879 -52.7471 414.367 -64.1931 411.665C-79.3626 408.083 -91.2093 391.454 -100.407 360.813C-106.415 340.814 -108.544 318.326 -106.741 293.969C-105.033 270.917 -99.7969 246.027 -91.1776 220.004C-74.9876 171.106 -46.888 118.372 -9.92027 67.4874C25.8642 18.2314 68.1434 -26.9422 112.346 -63.1502C158.218 -100.722 203.974 -126.704 244.676 -138.288C265.176 -144.123 285.451 -145.843 304.936 -143.402C323.266 -141.105 341.373 -135.071 358.749 -125.463C374.983 -116.491 391.003 -104.171 406.362 -88.8461C420.59 -74.654 434.609 -57.5194 448.059 -37.9172C471.499 -3.72792 493.968 39.1403 514.844 89.4959C531.202 128.978 546.418 172.328 561.347 222.042C570.749 253.34 571.158 271.159 562.637 278.082C562.437 278.247 562.232 278.404 562.022 278.555ZM149.21 239.167C177.711 218.686 204.705 204.959 231.229 197.413C314.304 173.771 406.823 218.663 474.381 251.444C496 261.933 514.67 270.985 529.743 276.226C546.121 281.913 556.454 282.355 562.258 277.636C566.327 274.322 568.246 268.447 568.113 259.679C567.975 250.443 565.574 238.187 560.779 222.209C527.189 110.41 489.1 22.9998 447.557 -37.5835C387.476 -125.217 319.275 -158.905 244.857 -137.726C164.495 -114.855 64.6861 -34.1711 -9.41563 67.8283C-46.3613 118.663 -74.4323 171.341 -90.6059 220.183C-108.496 274.202 -111.61 321.473 -99.8332 360.648C-90.695 391.066 -78.993 407.569 -64.0509 411.094C-51.5137 414.052 -36.4292 408.189 -16.5814 392.64C1.43927 378.524 22.0062 357.467 43.7758 335.171C69.23 309.111 98.0779 279.575 129.333 254.339C136.048 248.923 142.674 243.866 149.21 239.167Z" fill="url(#paint34_linear_890_2580)"/>
<path d="M555.661 283.505C549.918 287.629 539.907 286.691 524.231 280.573C509.619 274.875 491.49 265.327 470.501 254.269C403.045 218.742 310.673 170.086 229.63 193.354C158.047 213.908 97.2138 280.44 48.3338 333.891C28.1508 355.963 9.08498 376.813 -7.63417 390.887C-26.1513 406.478 -40.3063 412.535 -52.1725 409.949C-66.2021 406.894 -77.2812 391.384 -86.0233 362.503C-91.8395 343.312 -93.749 321.536 -91.6752 297.776C-89.7247 275.326 -84.2249 250.953 -75.3307 225.334C-58.6719 177.322 -30.1449 125.185 7.14165 74.5633C43.1482 25.6813 85.3138 -19.2245 129.075 -55.28C174.481 -92.6865 219.128 -118.392 258.225 -129.614C277.894 -135.254 297.249 -136.737 315.753 -133.994C333.114 -131.423 350.196 -125.064 366.523 -115.111C381.708 -105.835 396.658 -93.1943 410.958 -77.5352C424.121 -63.1103 437.101 -45.7125 449.543 -25.833C495.912 48.3152 528.699 145.873 554.652 231.525C563.46 260.586 563.906 277.002 556.065 283.187C555.932 283.305 555.794 283.406 555.661 283.505ZM229.488 192.854C248.561 187.376 269.628 185.601 292.083 187.583C311.88 189.331 332.643 193.843 355.534 201.38C397.323 215.131 438.043 236.577 470.762 253.811C491.741 264.856 509.859 274.403 524.435 280.09C540.286 286.273 550.225 287.14 555.732 282.797C559.479 279.843 561.224 274.47 561.065 266.372C560.901 257.853 558.639 246.507 554.146 231.687C528.192 146.068 495.421 48.5502 449.077 -25.5463C393.382 -114.606 329.219 -149.449 258.377 -129.104C180.903 -106.858 82.4574 -26.7919 7.57618 74.8852C-29.6787 125.467 -58.1724 177.557 -74.8235 225.527C-93.3027 278.755 -96.8977 324.798 -85.509 362.379C-76.818 391.05 -65.8787 406.452 -52.0569 409.463C-40.3693 412.01 -26.3663 405.989 -7.98425 390.516C8.70829 376.465 27.7618 355.627 47.9331 333.566C72.3564 306.855 100.041 276.579 130.287 250.725C165.113 220.944 197.559 202.019 229.481 192.854H229.488Z" fill="url(#paint35_linear_890_2580)"/>
<path d="M549.253 288.653C543.853 292.531 534.19 291.238 518.893 284.59C504.756 278.451 487.161 268.428 466.781 256.821C399.34 218.408 306.97 165.799 227.866 188.732C157.882 209.02 99.5821 277.391 52.738 332.323C34.1114 354.179 16.5237 374.799 1.07229 388.806C-2.74015 392.306 -6.75322 395.593 -10.9485 398.65C-22.3873 406.875 -31.8419 409.961 -40.1301 408.311C-53.0419 405.742 -63.3507 391.315 -71.6461 364.207C-77.2713 345.82 -78.9449 324.755 -76.6172 301.595C-74.4226 279.739 -68.6622 255.888 -59.4953 230.679C-42.3539 183.542 -13.4138 132.009 24.1911 81.6492C60.4202 33.1287 102.47 -11.4927 145.794 -47.3976C190.734 -84.6374 234.292 -110.065 271.764 -120.928C290.156 -126.263 308.169 -127.56 325.301 -124.787C341.383 -122.187 357.121 -115.922 372.107 -106.183C386.028 -97.1328 399.693 -84.8133 412.729 -69.5638C424.69 -55.564 436.487 -38.6646 447.787 -19.335C467.011 13.5665 485.282 54.0164 503.646 104.358C519.502 147.821 532.783 191.338 544.503 229.734C545.67 233.557 546.822 237.324 547.958 241.035C556.183 267.916 556.669 282.992 549.483 288.482L549.253 288.653ZM227.73 188.304C246.352 182.898 267.044 181.43 289.239 183.921C308.795 186.114 329.379 191.223 352.177 199.537C393.751 214.698 434.378 237.849 467.021 256.429C487.386 268.026 504.971 278.05 519.082 284.174C534.211 290.754 543.725 292.056 548.971 288.287C549.043 288.232 549.12 288.179 549.191 288.122C552.626 285.502 554.202 280.602 554.023 273.157C553.828 265.324 551.699 254.859 547.503 241.165C546.377 237.46 545.225 233.692 544.048 229.863C520.259 151.922 490.646 54.9188 447.373 -19.1094C396.172 -106.71 338.773 -139.87 271.909 -120.483C242.696 -112.023 210.005 -94.6583 176.518 -70.5933C124.536 -33.2264 70.6036 20.2902 24.5826 81.9287C-12.9885 132.249 -41.9117 183.745 -59.0413 230.839C-78.1143 283.269 -82.1944 328.1 -71.1849 364.089C-62.9454 391.021 -52.7523 405.345 -40.0242 407.879C-29.1596 410.041 -16.195 403.884 0.777496 388.486C16.188 374.5 33.771 353.878 52.388 332.046C99.2612 277.053 157.612 208.625 227.73 188.297V188.304Z" fill="url(#paint36_linear_890_2580)"/>
<path d="M542.799 294.002C537.742 297.635 528.433 295.99 513.524 288.832C499.848 282.266 482.759 271.775 462.973 259.629C430.417 239.653 389.902 214.78 348.579 198.158C300.255 178.718 260.193 174.125 226.098 184.113C157.805 204.12 102.156 274.4 57.4384 330.873C33.8723 360.635 13.6048 386.227 -3.87027 398.791C-12.5955 405.061 -20.6227 408.081 -28.0132 406.755C-39.843 404.641 -49.3964 391.275 -57.226 365.915C-62.6629 348.334 -64.1067 327.982 -61.5185 305.424C-59.1018 284.174 -53.0661 260.826 -43.6335 236.03C-26.0258 189.77 3.33901 138.839 41.2628 88.7415C59.3935 64.8041 78.8447 41.8421 99.5313 19.9564C120.121 -1.81259 141.318 -21.8214 162.544 -39.5012C207.008 -76.5954 249.468 -101.741 285.325 -112.239C299.893 -116.507 314.174 -117.976 327.766 -116.606C340.656 -115.306 353.298 -111.417 365.341 -105.043C384.82 -94.7335 403.542 -77.4694 420.994 -53.7313C436.415 -32.7517 450.863 -7.00164 465.173 24.9974C491.332 83.4963 511.139 149.941 528.612 208.564C533.029 223.386 537.2 237.379 541.264 250.539C548.92 275.304 549.437 289.095 542.896 293.938C542.865 293.955 542.83 293.979 542.799 294.002ZM225.982 183.738C244.113 178.426 264.42 177.263 286.339 180.283C305.639 182.943 326.049 188.67 348.733 197.796C390.086 214.43 430.616 239.308 463.188 259.298C482.964 271.439 500.048 281.922 513.703 288.48C528.463 295.567 537.64 297.224 542.558 293.687L542.656 293.619C545.778 291.304 547.195 286.86 547.001 280.031C546.781 272.861 544.785 263.246 540.885 250.654C536.826 237.51 532.65 223.509 528.228 208.684C510.75 150.058 490.943 83.6254 464.8 25.1643C434.409 -42.8078 401.812 -85.2907 365.146 -104.689C340.523 -117.722 313.703 -120.133 285.439 -111.852C213.771 -90.8558 118.052 -12.0238 41.596 88.9836C3.69164 139.052 -25.6445 189.951 -43.2471 236.178C-62.9065 287.807 -67.4841 331.423 -56.8514 365.812C-49.0581 391.019 -39.6015 404.288 -27.9405 406.38C-17.8656 408.186 -5.91034 401.895 9.68387 386.585C23.8532 372.67 39.2754 353.194 57.1293 330.652C101.871 274.118 157.566 203.772 225.982 183.738Z" fill="url(#paint37_linear_890_2580)"/>
</g>
<defs>
<linearGradient id="paint0_linear_890_2580" x1="364.322" y1="723.987" x2="210.596" y2="14.5692" gradientUnits="userSpaceOnUse">
<stop stop-color="#3DDEED"/>
<stop offset="1" stop-color="#CB00DD"/>
</linearGradient>
<linearGradient id="paint1_linear_890_2580" x1="-565458" y1="2.96636e+06" x2="2.07098e+06" y2="2.96636e+06" gradientUnits="userSpaceOnUse">
<stop stop-color="#3DDEED"/>
<stop offset="1" stop-color="#CB00DD"/>
</linearGradient>
<linearGradient id="paint2_linear_890_2580" x1="-521755" y1="2.89796e+06" x2="2.00663e+06" y2="2.89796e+06" gradientUnits="userSpaceOnUse">
<stop stop-color="#3DDEED"/>
<stop offset="1" stop-color="#CB00DD"/>
</linearGradient>
<linearGradient id="paint3_linear_890_2580" x1="-479934" y1="2.83094e+06" x2="1.94326e+06" y2="2.83094e+06" gradientUnits="userSpaceOnUse">
<stop stop-color="#3DDEED"/>
<stop offset="1" stop-color="#CB00DD"/>
</linearGradient>
<linearGradient id="paint4_linear_890_2580" x1="-439951" y1="2.76534e+06" x2="1.88089e+06" y2="2.76534e+06" gradientUnits="userSpaceOnUse">
<stop stop-color="#3DDEED"/>
<stop offset="1" stop-color="#CB00DD"/>
</linearGradient>
<linearGradient id="paint5_linear_890_2580" x1="-401782" y1="2.7012e+06" x2="1.81964e+06" y2="2.7012e+06" gradientUnits="userSpaceOnUse">
<stop stop-color="#3DDEED"/>
<stop offset="1" stop-color="#CB00DD"/>
</linearGradient>
<linearGradient id="paint6_linear_890_2580" x1="-365360" y1="2.63842e+06" x2="1.75931e+06" y2="2.63842e+06" gradientUnits="userSpaceOnUse">
<stop stop-color="#3DDEED"/>
<stop offset="1" stop-color="#CB00DD"/>
</linearGradient>
<linearGradient id="paint7_linear_890_2580" x1="-330670" y1="2.57718e+06" x2="1.70007e+06" y2="2.57718e+06" gradientUnits="userSpaceOnUse">
<stop stop-color="#3DDEED"/>
<stop offset="1" stop-color="#CB00DD"/>
</linearGradient>
<linearGradient id="paint8_linear_890_2580" x1="-297658" y1="2.51732e+06" x2="1.64179e+06" y2="2.51732e+06" gradientUnits="userSpaceOnUse">
<stop stop-color="#3DDEED"/>
<stop offset="1" stop-color="#CB00DD"/>
</linearGradient>
<linearGradient id="paint9_linear_890_2580" x1="-266288" y1="2.45873e+06" x2="1.58452e+06" y2="2.45873e+06" gradientUnits="userSpaceOnUse">
<stop stop-color="#3DDEED"/>
<stop offset="1" stop-color="#CB00DD"/>
</linearGradient>
<linearGradient id="paint10_linear_890_2580" x1="-236528" y1="2.40159e+06" x2="1.52825e+06" y2="2.40159e+06" gradientUnits="userSpaceOnUse">
<stop stop-color="#3DDEED"/>
<stop offset="1" stop-color="#CB00DD"/>
</linearGradient>
<linearGradient id="paint11_linear_890_2580" x1="-208341" y1="2.34576e+06" x2="1.47299e+06" y2="2.34576e+06" gradientUnits="userSpaceOnUse">
<stop stop-color="#3DDEED"/>
<stop offset="1" stop-color="#CB00DD"/>
</linearGradient>
<linearGradient id="paint12_linear_890_2580" x1="-181735" y1="2.29128e+06" x2="1.41875e+06" y2="2.29128e+06" gradientUnits="userSpaceOnUse">
<stop stop-color="#3DDEED"/>
<stop offset="1" stop-color="#CB00DD"/>
</linearGradient>
<linearGradient id="paint13_linear_890_2580" x1="-156607" y1="2.23799e+06" x2="1.36554e+06" y2="2.23799e+06" gradientUnits="userSpaceOnUse">
<stop stop-color="#3DDEED"/>
<stop offset="1" stop-color="#CB00DD"/>
</linearGradient>
<linearGradient id="paint14_linear_890_2580" x1="-132936" y1="2.18601e+06" x2="1.31329e+06" y2="2.18601e+06" gradientUnits="userSpaceOnUse">
<stop stop-color="#3DDEED"/>
<stop offset="1" stop-color="#CB00DD"/>
</linearGradient>
<linearGradient id="paint15_linear_890_2580" x1="-110691" y1="2.13522e+06" x2="1.26203e+06" y2="2.13522e+06" gradientUnits="userSpaceOnUse">
<stop stop-color="#3DDEED"/>
<stop offset="1" stop-color="#CB00DD"/>
</linearGradient>
<linearGradient id="paint16_linear_890_2580" x1="-89838.8" y1="2.08566e+06" x2="1.21174e+06" y2="2.08566e+06" gradientUnits="userSpaceOnUse">
<stop stop-color="#3DDEED"/>
<stop offset="1" stop-color="#CB00DD"/>
</linearGradient>
<linearGradient id="paint17_linear_890_2580" x1="-70344.6" y1="2.03721e+06" x2="1.16238e+06" y2="2.03721e+06" gradientUnits="userSpaceOnUse">
<stop stop-color="#3DDEED"/>
<stop offset="1" stop-color="#CB00DD"/>
</linearGradient>
<linearGradient id="paint18_linear_890_2580" x1="-52176.5" y1="1.98995e+06" x2="1.11405e+06" y2="1.98995e+06" gradientUnits="userSpaceOnUse">
<stop stop-color="#3DDEED"/>
<stop offset="1" stop-color="#CB00DD"/>
</linearGradient>
<linearGradient id="paint19_linear_890_2580" x1="-448088" y1="486269" x2="2.82276e+06" y2="-1.99186e+06" gradientUnits="userSpaceOnUse">
<stop stop-color="#3DDEED"/>
<stop offset="1" stop-color="#CB00DD"/>
</linearGradient>
<linearGradient id="paint20_linear_890_2580" x1="-387655" y1="467363" x2="2.73986e+06" y2="-1.90217e+06" gradientUnits="userSpaceOnUse">
<stop stop-color="#3DDEED"/>
<stop offset="1" stop-color="#CB00DD"/>
</linearGradient>
<linearGradient id="paint21_linear_890_2580" x1="-329262" y1="449212" x2="2.65852e+06" y2="-1.81445e+06" gradientUnits="userSpaceOnUse">
<stop stop-color="#3DDEED"/>
<stop offset="1" stop-color="#CB00DD"/>
</linearGradient>
<linearGradient id="paint22_linear_890_2580" x1="-272915" y1="431817" x2="2.57883e+06" y2="-1.72879e+06" gradientUnits="userSpaceOnUse">
<stop stop-color="#3DDEED"/>
<stop offset="1" stop-color="#CB00DD"/>
</linearGradient>
<linearGradient id="paint23_linear_890_2580" x1="-218606" y1="415183" x2="2.50089e+06" y2="-1.64521e+06" gradientUnits="userSpaceOnUse">
<stop stop-color="#3DDEED"/>
<stop offset="1" stop-color="#CB00DD"/>
</linearGradient>
<linearGradient id="paint24_linear_890_2580" x1="-166331" y1="399298" x2="2.42464e+06" y2="-1.56373e+06" gradientUnits="userSpaceOnUse">
<stop stop-color="#3DDEED"/>
<stop offset="1" stop-color="#CB00DD"/>
</linearGradient>
<linearGradient id="paint25_linear_890_2580" x1="-116074" y1="384153" x2="2.35013e+06" y2="-1.48435e+06" gradientUnits="userSpaceOnUse">
<stop stop-color="#3DDEED"/>
<stop offset="1" stop-color="#CB00DD"/>
</linearGradient>
<linearGradient id="paint26_linear_890_2580" x1="-67833.6" y1="369767" x2="2.27745e+06" y2="-1.40712e+06" gradientUnits="userSpaceOnUse">
<stop stop-color="#3DDEED"/>
<stop offset="1" stop-color="#CB00DD"/>
</linearGradient>
<linearGradient id="paint27_linear_890_2580" x1="-21595.7" y1="356129" x2="2.20673e+06" y2="-1.33215e+06" gradientUnits="userSpaceOnUse">
<stop stop-color="#3DDEED"/>
<stop offset="1" stop-color="#CB00DD"/>
</linearGradient>
<linearGradient id="paint28_linear_890_2580" x1="22624.8" y1="343250" x2="2.13804e+06" y2="-1.25948e+06" gradientUnits="userSpaceOnUse">
<stop stop-color="#3DDEED"/>
<stop offset="1" stop-color="#CB00DD"/>
</linearGradient>
<linearGradient id="paint29_linear_890_2580" x1="64857.5" y1="331109" x2="2.0714e+06" y2="-1.18913e+06" gradientUnits="userSpaceOnUse">
<stop stop-color="#3DDEED"/>
<stop offset="1" stop-color="#CB00DD"/>
</linearGradient>
<linearGradient id="paint30_linear_890_2580" x1="105089" y1="319727" x2="2.00688e+06" y2="-1.12115e+06" gradientUnits="userSpaceOnUse">
<stop stop-color="#3DDEED"/>
<stop offset="1" stop-color="#CB00DD"/>
</linearGradient>
<linearGradient id="paint31_linear_890_2580" x1="143340" y1="309095" x2="1.94457e+06" y2="-1.05559e+06" gradientUnits="userSpaceOnUse">
<stop stop-color="#3DDEED"/>
<stop offset="1" stop-color="#CB00DD"/>
</linearGradient>
<linearGradient id="paint32_linear_890_2580" x1="179610" y1="299210" x2="1.88458e+06" y2="-992544" gradientUnits="userSpaceOnUse">
<stop stop-color="#3DDEED"/>
<stop offset="1" stop-color="#CB00DD"/>
</linearGradient>
<linearGradient id="paint33_linear_890_2580" x1="213903" y1="290070" x2="1.82686e+06" y2="-931976" gradientUnits="userSpaceOnUse">
<stop stop-color="#3DDEED"/>
<stop offset="1" stop-color="#CB00DD"/>
</linearGradient>
<linearGradient id="paint34_linear_890_2580" x1="246233" y1="281677" x2="1.7713e+06" y2="-873771" gradientUnits="userSpaceOnUse">
<stop stop-color="#3DDEED"/>
<stop offset="1" stop-color="#CB00DD"/>
</linearGradient>
<linearGradient id="paint35_linear_890_2580" x1="276593" y1="274029" x2="1.71789e+06" y2="-817964" gradientUnits="userSpaceOnUse">
<stop stop-color="#3DDEED"/>
<stop offset="1" stop-color="#CB00DD"/>
</linearGradient>
<linearGradient id="paint36_linear_890_2580" x1="305003" y1="267135" x2="1.66648e+06" y2="-764380" gradientUnits="userSpaceOnUse">
<stop stop-color="#3DDEED"/>
<stop offset="1" stop-color="#CB00DD"/>
</linearGradient>
<linearGradient id="paint37_linear_890_2580" x1="331462" y1="261001" x2="1.61681e+06" y2="-712829" gradientUnits="userSpaceOnUse">
<stop stop-color="#3DDEED"/>
<stop offset="1" stop-color="#CB00DD"/>
</linearGradient>
</defs>
</svg>
