<svg width="41" height="41" viewBox="0 0 41 41" fill="none" xmlns="http://www.w3.org/2000/svg">
<mask id="path-1-inside-1_515_5407" fill="white">
<path d="M40.161 20.0805C40.161 31.1707 31.1707 40.161 20.0805 40.161C8.99035 40.161 0 31.1707 0 20.0805C0 8.99035 8.99035 0 20.0805 0C31.1707 0 40.161 8.99035 40.161 20.0805ZM2.24958 20.0805C2.24958 29.9283 10.2328 37.9114 20.0805 37.9114C29.9283 37.9114 37.9114 29.9283 37.9114 20.0805C37.9114 10.2328 29.9283 2.24958 20.0805 2.24958C10.2328 2.24958 2.24958 10.2328 2.24958 20.0805Z"/>
</mask>
<path d="M40.161 20.0805C40.161 31.1707 31.1707 40.161 20.0805 40.161C8.99035 40.161 0 31.1707 0 20.0805C0 8.99035 8.99035 0 20.0805 0C31.1707 0 40.161 8.99035 40.161 20.0805ZM2.24958 20.0805C2.24958 29.9283 10.2328 37.9114 20.0805 37.9114C29.9283 37.9114 37.9114 29.9283 37.9114 20.0805C37.9114 10.2328 29.9283 2.24958 20.0805 2.24958C10.2328 2.24958 2.24958 10.2328 2.24958 20.0805Z" stroke="#FAFAFA" mask="url(#path-1-inside-1_515_5407)"/>
<path d="M15.0665 22.4015L20.4521 17.0159L25.8376 22.4015" stroke="#FAFAFA" stroke-width="2" stroke-miterlimit="10" stroke-linecap="round" stroke-linejoin="round"/>
</svg>
