<svg width="1440" height="792" viewBox="0 0 1440 792" fill="none" xmlns="http://www.w3.org/2000/svg">
<g opacity="0.2">
<path d="M1730.31 289.786C1775.49 488.881 1749.49 697.113 1656.64 879.71C1563.79 1062.31 1409.72 1208.22 1220.15 1293.08C1112.19 1341.38 995.555 1368.4 876.913 1372.61C760.155 1376.8 643.659 1359.05 533.732 1320.32C363.268 1260.28 215.127 1151.61 108.453 1008.35C67.4138 953.352 40.2003 907.852 25.3317 869.241C11.0386 832.065 8.12334 801.147 16.4256 774.657C26.1902 743.517 51.6867 717.854 96.6699 693.899C137.709 672.04 191.301 653.216 253.347 631.425C371.314 589.994 518.128 538.433 660.342 436.803C790.569 343.742 902.334 218.626 1000.92 108.233C1069.69 31.2348 1134.65 -41.4886 1196.87 -93.4092C1230.1 -121.149 1260.3 -141.144 1289.19 -154.545C1321.27 -169.423 1351.3 -176.036 1381.01 -174.767C1447.78 -171.92 1511.87 -128.158 1576.94 -41.0318C1613.25 7.57808 1644.47 59.6469 1670.11 114.384C1694.94 167.514 1714.33 222.918 1728 279.786C1728.78 283.115 1729.55 286.447 1730.31 289.786ZM18.5342 837.603C20.9643 848.024 24.1422 858.265 28.0441 868.249C42.8184 906.62 69.8904 951.904 110.798 1006.69C405.594 1401.5 973.752 1488.06 1377.32 1199.68C1572.82 1059.96 1700.98 854.138 1738.24 620.119C1755.97 508.793 1752.1 397.401 1727.81 290.626C1701.03 172.949 1649.44 60.8984 1574.57 -39.3705C1510.07 -125.759 1446.72 -169.128 1380.86 -171.938C1325.4 -174.306 1267.52 -148.666 1198.72 -91.2495C1136.66 -39.4673 1071.77 33.1829 1003.07 110.101C904.386 220.597 792.532 345.836 662.021 439.082C519.467 540.953 372.442 592.592 254.299 634.083C192.367 655.837 138.879 674.619 98.0237 696.383C53.7481 719.964 28.6809 745.1 19.1616 775.488C13.4585 793.763 13.2227 814.253 18.5342 837.603Z" fill="url(#paint0_linear_525_662)"/>
<path d="M1698.26 282.481C1710.73 337.509 1717.81 393.578 1719.38 449.923C1724.15 621.554 1679.08 790.994 1589.39 938.577C1559.18 988.176 1524.06 1034.74 1484.53 1077.62C1444.1 1121.4 1399.21 1161.02 1350.56 1195.89C1302.26 1230.51 1250.38 1260.07 1195.77 1284.09C1142.9 1307.27 1087.73 1325.07 1031.14 1337.2C975.429 1349.11 918.648 1355.57 861.634 1356.48C804.842 1357.36 748.094 1352.89 692.178 1343.13C636.033 1333.32 580.961 1318.34 527.694 1298.39C418.877 1257.62 318.983 1196.96 233.341 1119.66C189.092 1079.71 148.904 1035.67 113.34 988.137C73.9044 935.436 47.8324 891.9 33.6195 855.055C20.0151 819.605 17.3357 790.214 25.4776 765.211C35.0771 735.741 59.9132 711.754 103.646 689.723C143.535 669.626 195.504 652.662 255.677 633.017C375.206 593.999 523.958 545.438 666.37 443.466C795.89 350.709 905.438 224.514 1002.09 113.161C1067.23 38.1115 1128.78 -32.776 1187.75 -83.4459C1219.26 -110.511 1247.93 -130.055 1275.39 -143.239C1305.88 -157.854 1334.48 -164.467 1362.84 -163.475C1426.81 -161.214 1488.58 -119.118 1551.67 -34.7834C1587.23 12.7491 1617.61 63.7889 1642.31 117.504C1666.39 169.995 1685 224.726 1697.88 280.865C1698.01 281.392 1698.15 281.936 1698.26 282.481ZM27.2513 825.083C29.5585 834.947 32.5756 844.638 36.28 854.087C50.3891 890.696 76.3432 934.017 115.628 986.532C256.2 1174.41 461.144 1300.12 692.711 1340.48C926.75 1381.27 1159.81 1329.15 1348.94 1193.74C1539.95 1056.96 1666.44 852.864 1705.09 619.025C1743.91 384.435 1688.61 152.815 1549.45 -33.2005C1486.88 -116.811 1425.81 -158.542 1362.76 -160.771C1309.82 -162.64 1254.8 -137.425 1189.59 -81.397C1130.75 -30.8563 1069.3 39.9706 1004.2 114.928C907.452 226.398 797.791 352.741 668.012 445.667C525.246 547.893 376.267 596.524 256.559 635.606C196.49 655.214 144.615 672.146 104.92 692.146C61.8802 713.835 37.464 737.311 28.1192 766.051C22.4869 783.315 22.1803 802.807 27.2513 825.083Z" fill="url(#paint1_linear_525_662)"/>
<path d="M1666.31 275.263C1666.81 277.479 1667.3 279.684 1667.79 281.904C1679.8 337.08 1686.37 393.258 1687.39 449.664C1688.41 506.148 1684.1 562.604 1674.52 618.314C1664.93 674.158 1650.16 729.032 1630.39 782.253C1610.57 835.611 1585.72 887.047 1556.16 935.896C1526.44 984.986 1491.89 1031.11 1453 1073.63C1413.58 1116.68 1369.71 1155.62 1322.1 1189.85C1228.52 1257 1123.93 1302.37 1011.24 1324.69C956.983 1335.38 901.752 1340.63 846.407 1340.33C791.066 1340.02 735.886 1334.45 681.644 1323.72C626.946 1312.86 573.401 1297.04 521.703 1276.47C469.315 1255.61 418.981 1230.13 371.328 1200.32C322.851 1169.98 277.309 1135.37 235.27 1096.91C192.278 1057.55 153.114 1014.37 118.284 967.931C80.4566 917.441 55.4884 875.864 41.9407 840.76C28.9212 807.003 26.4682 779.139 34.4403 755.581C43.8747 727.721 68.0833 705.353 110.628 685.182C149.413 666.792 199.858 651.619 258.276 634.046C379.343 597.626 530.015 552.301 672.403 450.13C801.122 357.77 908.31 230.467 1002.89 118.136C1064.46 45.001 1122.62 -24.0772 1178.45 -73.515C1240.67 -128.62 1293.49 -153.646 1344.67 -152.22C1405.85 -150.54 1465.31 -110.082 1526.45 -28.5443C1561.24 17.9181 1590.77 67.9346 1614.54 120.628C1636.93 170.39 1654.27 222.184 1666.31 275.263ZM35.9026 812.42C38.0787 821.743 40.9255 830.902 44.4219 839.832C57.8753 874.715 82.735 916.101 120.411 966.356C258.804 1150.95 458.304 1276.93 682.168 1321.14C910.952 1366.32 1137.67 1318.95 1320.52 1187.75C1504.32 1055.87 1632.4 848.152 1671.92 617.871C1691.73 502.392 1688.3 386.054 1663.34 276.38C1638.23 165.995 1591.31 62.3475 1524.31 -27.0122C1463.7 -107.867 1404.9 -147.974 1344.59 -149.635C1294.14 -151.02 1241.92 -126.225 1180.23 -71.5999C1124.54 -22.2867 1066.44 46.7222 1004.92 119.783C910.249 232.222 802.947 359.667 673.965 452.216C531.218 554.663 380.31 600.045 259.05 636.52C200.745 654.055 150.394 669.211 111.788 687.508C69.9325 707.351 46.1531 729.244 36.964 756.393C31.4402 772.706 31.0911 791.206 35.9026 812.434V812.42Z" fill="url(#paint2_linear_525_662)"/>
<path d="M1634.47 268.143C1635.58 273.065 1636.66 278.006 1637.69 282.965C1649.01 337.769 1654.94 393.506 1655.39 449.415C1655.85 505.647 1651.12 561.805 1641.24 617.202C1631.34 672.799 1616.4 727.425 1596.62 780.435C1576.84 833.449 1552.16 884.589 1522.89 933.224C1493.65 981.796 1459.68 1027.48 1421.44 1069.64C1383.02 1111.96 1340.19 1150.22 1293.63 1183.81C1202.78 1249.14 1101.07 1292.32 991.328 1312.17C938.515 1321.64 884.832 1325.66 831.161 1324.17C777.268 1322.64 723.657 1315.97 671.092 1304.25C617.845 1292.36 565.827 1275.7 515.693 1254.51C464.74 1232.96 415.831 1207.05 369.536 1177.09C274.258 1115.4 190.863 1037.73 123.19 947.667C86.962 899.454 63.0788 859.781 50.182 826.38C37.7805 794.284 35.5445 767.919 43.3562 745.769C52.6161 719.465 76.2256 698.648 117.642 680.281C155.38 663.544 204.387 650.096 261.13 634.526C383.711 600.866 536.303 559.01 678.427 456.788C806.263 364.877 910.914 236.463 1003.26 123.17C1061.33 51.9139 1116.2 -15.3878 1168.94 -63.6165C1227.68 -117.346 1277.74 -141.938 1326.43 -141.001C1384.86 -139.88 1442 -101.051 1501.19 -22.3006C1535.22 23.09 1563.92 72.0824 1586.74 123.751C1607.27 170.3 1623.25 218.646 1634.47 268.143ZM44.4883 799.642C46.5435 808.442 49.2343 817.089 52.5406 825.517C65.3572 858.706 89.1272 898.185 125.218 946.219C414.307 1330.94 937.779 1436.63 1292.13 1181.81C1579.22 975.348 1705.03 594.184 1630.35 265.996C1606.86 162.783 1563.55 64.826 1499.18 -20.8378C1440.5 -98.9285 1383.99 -137.425 1326.41 -138.514C1278.39 -139.437 1228.91 -115.057 1170.66 -61.7936C1118.06 -13.7034 1063.26 53.5284 1005.24 124.707C912.792 238.147 808.013 366.672 679.923 458.783C616.599 504.321 545.6 541.945 462.87 573.8C391.329 601.355 322.515 620.248 261.8 636.898C205.156 652.44 156.238 665.865 118.671 682.547C77.9286 700.618 54.7482 720.97 45.729 746.59C40.3183 761.92 39.8891 779.457 44.4883 799.642Z" fill="url(#paint3_linear_525_662)"/>
<path d="M1602.73 261.096C1604.47 268.692 1606.09 276.329 1607.6 284.008C1618.11 337.373 1623.42 392.916 1623.39 449.143C1623.3 505.13 1618.13 561 1607.95 616.094C1597.74 671.443 1582.64 725.822 1562.84 778.621C1543.1 831.283 1518.61 882.119 1489.65 930.524C1460.43 979.223 1426.87 1024.66 1389.9 1065.65C1351.85 1107.81 1309.89 1145.54 1265.18 1177.76C1177.06 1241.27 1078.23 1282.28 971.426 1299.64C920.915 1307.85 868.592 1310.67 815.929 1308.02C764.511 1305.45 712.259 1297.64 660.559 1284.81C609.684 1272.2 558.931 1254.63 509.703 1232.58C460.19 1210.34 412.703 1184.02 367.757 1153.9C275.494 1092.06 194.492 1015.51 128.124 927.461C93.4718 881.447 70.6594 843.657 58.39 811.936C46.597 781.446 44.5686 756.531 52.1774 735.755C61.2722 710.937 84.3015 691.633 124.652 675.007C161.399 659.861 209.047 648.084 264.22 634.448C388.339 603.764 542.808 565.577 684.489 463.453C811.301 372.048 913.273 242.526 1003.27 128.251C1057.92 58.8495 1109.53 -6.70724 1159.23 -53.7454C1214.58 -106.127 1261.93 -130.304 1308.23 -129.82C1363.89 -129.238 1418.8 -92.0248 1476.01 -16.0567C1508.88 27.5753 1536.8 75.6618 1559.03 126.872C1577.74 170.221 1592.36 215.148 1602.73 261.096ZM53.003 786.716C54.9443 795.016 57.4854 803.17 60.6071 811.119C72.801 842.642 95.5143 880.247 130.025 926.081C262.319 1101.73 455.894 1231.65 661.125 1282.55C879.243 1336.62 1093.25 1298.75 1263.72 1175.87C1546.51 972.031 1672.54 584.253 1598.43 258.451C1575.88 159.359 1534.84 66.058 1474.04 -14.6631C1417.31 -89.9943 1363.05 -126.894 1308.17 -127.466C1262.54 -127.928 1215.72 -103.982 1160.87 -52.0518C1111.3 -5.13365 1059.73 60.3544 1005.14 129.7C915.042 244.095 812.966 373.752 685.885 465.354C622.774 510.846 551.473 547.727 467.908 578.115C395.693 604.373 326.142 621.568 264.776 636.723C209.698 650.336 162.13 662.104 125.548 677.171C85.8629 693.521 63.2817 712.391 54.4087 736.544C49.1207 750.979 48.6395 767.528 53.003 786.698V786.716Z" fill="url(#paint4_linear_525_662)"/>
<path d="M1571.13 254.193C1573.45 264.394 1575.57 274.683 1577.5 285.06C1587.29 337.839 1591.97 392.958 1591.39 448.884C1590.74 504.611 1585.14 560.177 1574.65 614.955C1564.13 670.053 1548.88 724.183 1529.06 776.771C1509.36 829.1 1485.04 879.649 1456.36 927.843C1427.49 976.219 1394.51 1021.24 1358.32 1061.67C1321.06 1103.31 1280.12 1140.34 1236.68 1171.73C1151.27 1233.44 1055.32 1272.27 951.487 1287.13C902.574 1294.14 851.827 1295.73 800.655 1291.9C750.935 1288.14 700.226 1279.24 649.987 1265.39C600.768 1251.82 551.544 1233.41 503.674 1210.65C455.606 1187.73 409.538 1161 365.932 1130.71C276.683 1068.74 198.055 993.313 132.983 907.236C99.8869 863.395 78.1312 827.469 66.4703 797.404C55.2669 768.502 53.4272 745.003 60.8426 725.566C69.7581 702.178 92.2356 684.329 131.572 669.386C167.385 655.786 213.755 645.615 267.451 633.853C393.094 606.307 549.464 572.015 690.47 470.14C816.179 379.303 915.306 248.668 1002.75 133.411C1054.07 65.7996 1102.51 1.95913 1149.24 -43.9068C1201.26 -94.9691 1245.94 -118.726 1289.9 -118.666C1342.87 -118.606 1395.48 -82.9938 1450.76 -9.80839C1482.74 32.5596 1509.81 79.5982 1531.22 130.018C1547.91 169.295 1561.29 210.952 1571.13 254.193ZM61.4512 773.605C63.2776 781.428 65.6754 789.114 68.626 796.601C80.2067 826.486 101.849 862.241 134.836 905.901C265.201 1078.57 453.191 1208.8 650.601 1263.22C863.271 1321.83 1070.93 1288.7 1235.33 1169.91C1513.79 968.704 1640.22 574.262 1566.68 251.11C1545.08 156.184 1506.23 67.4425 1448.91 -8.49782C1394.11 -81.074 1342.09 -116.386 1289.9 -116.451C1246.6 -116.501 1202.42 -92.9524 1150.85 -42.3378C1104.24 3.41286 1055.85 67.1891 1004.62 134.712C917.066 250.08 817.821 380.872 691.848 471.902C629.052 517.279 557.507 553.334 473.13 582.13C400.273 606.994 329.987 622.407 267.975 636.003C214.368 647.757 168.074 657.905 132.421 671.449C93.7404 686.142 71.678 703.576 63.0031 726.327C57.8472 739.849 57.3142 755.461 61.4512 773.605Z" fill="url(#paint5_linear_525_662)"/>
<path d="M1539.65 247.431C1542.55 260.174 1545.13 273.067 1547.41 286.108C1556.49 338.305 1560.52 392.981 1559.39 448.621C1558.18 504.091 1552.15 559.36 1541.36 613.829C1530.54 668.679 1515.13 722.565 1495.28 774.944C1475.63 826.931 1451.48 877.184 1423.11 925.162C1394.59 973.205 1362.18 1017.79 1326.77 1057.67C1290.27 1098.78 1250.38 1135.12 1208.22 1165.65C1125.5 1225.59 1032.43 1262.23 931.571 1274.57C884.253 1280.36 835.081 1280.74 785.413 1275.69C737.34 1270.81 688.239 1260.78 639.435 1245.9C591.876 1231.4 544.181 1212.14 497.669 1188.68C451.058 1165.07 406.412 1137.9 364.144 1107.46C277.93 1045.4 201.677 971.082 137.907 886.976C106.349 845.286 85.6317 811.183 74.5746 782.72C63.9468 755.369 62.3099 733.254 69.4895 715.114C78.2305 693.101 100.174 676.65 138.549 663.336C173.456 651.223 218.647 642.616 270.951 632.648C398.131 608.411 556.403 578.25 696.522 476.739C821.023 386.543 917.122 254.769 1001.9 138.528C1049.89 72.7635 1095.22 10.6073 1139.05 -34.1235C1187.82 -83.8844 1229.92 -107.23 1271.56 -107.59C1321.85 -108.01 1372.19 -73.9904 1425.49 -3.5739C1456.63 37.5293 1482.83 83.516 1503.42 133.106C1518.72 170.164 1530.84 208.405 1539.65 247.431ZM69.8244 760.362C71.549 767.725 73.8112 774.958 76.5936 782.005C87.5799 810.284 108.198 844.221 139.643 885.753C268.192 1055.57 450.591 1186.12 640.072 1243.91C847.227 1307.1 1048.54 1278.71 1206.93 1163.97C1372.85 1043.75 1493.97 843.099 1539.24 613.428C1585.27 379.861 1543.18 155.428 1423.77 -2.3187C1370.91 -72.1491 1321.13 -105.888 1271.58 -105.458C1230.57 -105.103 1188.95 -81.9692 1140.61 -32.6468C1096.89 11.9594 1051.61 74.0512 1003.66 139.792C918.783 256.172 822.58 388.067 697.806 478.474C635.416 523.698 563.686 558.817 478.522 585.91C405.047 609.284 334.025 622.828 271.362 634.757C219.137 644.711 174.036 653.304 139.28 665.367C101.542 678.454 80.0088 694.518 71.5132 715.912C66.4705 728.538 65.9186 743.204 69.8244 760.362Z" fill="url(#paint6_linear_525_662)"/>
<path d="M1508.3 240.837C1511.76 256.038 1514.76 271.48 1517.31 287.16C1525.68 338.772 1529.07 393.004 1527.39 448.358C1525.74 502.526 1519.24 557.825 1508.05 612.708C1496.92 667.305 1481.35 720.944 1461.49 773.116C1441.55 825.439 1417.43 875.693 1389.82 922.481C1361.65 970.201 1329.81 1014.34 1295.19 1053.69C1259.46 1094.29 1220.62 1129.92 1179.72 1159.62C1099.68 1217.77 1009.48 1252.23 911.627 1262.06C821.193 1271.16 726.057 1259.19 628.859 1226.5C447.049 1165.33 269.88 1034.22 142.785 866.786C112.746 827.211 93.0468 794.902 82.5699 768.031C72.5081 742.188 71.008 721.422 77.9895 704.55C86.5465 683.853 107.981 668.749 145.445 657.018C179.532 646.345 223.581 639.242 274.588 631.019C403.306 610.253 563.507 584.437 702.527 483.444C825.717 393.95 918.603 261.05 1000.56 143.798C1045.33 79.741 1087.62 19.2414 1128.6 -24.3403C1174.2 -72.8228 1213.77 -95.7535 1253.14 -96.5057C1300.78 -97.4287 1348.9 -64.9732 1400.24 2.67905C1430.49 42.5225 1455.85 87.4563 1475.63 136.23C1489.33 170.201 1500.25 205.179 1508.3 240.837ZM78.1876 747.01C85.0747 777.27 106.882 816.112 144.45 865.61C271.305 1032.74 448.115 1163.59 629.543 1224.62C772.144 1272.61 983.135 1299.97 1178.53 1158.02C1337.58 1042.48 1460.02 838.485 1506.07 612.329C1553.71 378.361 1514.56 156.571 1398.63 3.86967C1347.69 -63.2242 1300.14 -95.4029 1253.21 -94.5075C1214.43 -93.7646 1175.32 -71.0415 1130.13 -22.9789C1089.24 20.4781 1046.99 80.922 1002.26 144.928C920.221 262.305 827.231 395.353 703.763 485.036C641.874 529.998 570.017 564.138 484.088 589.412C410.028 611.199 338.247 622.767 274.937 632.976C223.991 641.185 180.027 648.278 146.092 658.906C109.25 670.443 88.2211 685.182 79.9094 705.284C75.0979 716.927 74.4893 730.725 78.1876 747.01Z" fill="url(#paint7_linear_525_662)"/>
<path d="M1477.1 234.455C1481.09 252.01 1484.46 269.932 1487.21 288.221C1494.87 339.251 1497.62 393.045 1495.39 448.104C1493.21 501.903 1486.28 556.911 1474.78 611.6C1451.91 720.453 1411.03 827.031 1356.58 919.809C1328.75 967.207 1297.5 1010.91 1263.65 1049.71C1228.71 1089.77 1190.89 1124.72 1151.27 1153.59C1073.91 1209.97 986.573 1242.26 891.73 1249.58C804.669 1256.28 712.684 1241.98 618.33 1207.08C574.092 1190.72 529.454 1169.78 485.654 1144.86C443.096 1120.63 401.004 1092.46 360.545 1061.13C320.379 1029.96 282.338 996.258 246.667 960.23C211.206 924.477 178.148 886.506 147.7 846.57C119.171 809.079 100.476 778.534 90.5702 753.199C81.0462 728.852 79.6971 709.4 86.4474 693.724C94.811 674.296 115.755 660.498 152.351 650.281C185.641 641 228.638 635.357 278.423 628.822C401.834 612.625 570.856 590.441 708.575 490.103C830.345 401.385 919.844 267.326 998.805 149.073C1040.43 86.7088 1079.72 27.8296 1117.93 -14.6399C1160.44 -61.8673 1197.54 -84.3826 1234.71 -85.5041C1279.73 -86.8608 1325.63 -55.9697 1375.03 8.9091C1404.4 47.4981 1428.91 91.384 1447.86 139.34C1460.02 170.287 1469.79 202.081 1477.1 234.455ZM86.4049 733.466C92.8722 761.875 113.557 798.534 149.257 845.449C274.574 1010.06 445.794 1141.23 619.014 1205.3C757.61 1256.56 962.266 1288.92 1150.13 1152.06C1304.74 1039.43 1425.4 837.234 1472.9 611.217C1500.98 477.561 1501.27 348.864 1475.49 235.549C1456.05 150.176 1421.82 73.5062 1373.5 10.0443C1324.51 -54.3129 1279.13 -84.9503 1234.79 -83.612C1198.19 -82.509 1161.52 -60.1967 1119.4 -13.3893C1081.27 28.9696 1041.99 87.7979 1000.42 150.079C960.468 209.918 919.16 271.793 871.531 331.402C817.089 399.548 764.162 451.953 709.731 491.612C648.435 536.274 576.503 569.33 489.824 592.675C415.161 612.782 342.648 622.297 278.687 630.691C228.968 637.212 186.032 642.861 152.88 652.09C116.887 662.127 96.3393 675.589 88.2211 694.453C83.5699 705.261 82.9236 718.164 86.4049 733.466Z" fill="url(#paint8_linear_525_662)"/>
<path d="M1446.03 228.253C1450.54 248.078 1454.23 268.412 1457.1 289.256C1464.05 339.703 1466.16 393.055 1463.37 447.823C1460.66 501.248 1453.29 555.965 1441.48 610.46C1417.98 718.852 1377.12 824.89 1323.31 917.109C1295.84 964.183 1265.15 1007.45 1232.08 1045.71C1197.92 1085.24 1161.15 1119.51 1122.8 1147.53C1048.08 1202.17 963.634 1232.26 871.823 1237.02C788.121 1241.37 699.287 1224.74 607.792 1187.62C565.215 1170.34 522.104 1148.56 479.659 1122.89C438.704 1098.13 398.028 1069.53 358.762 1037.9C319.997 1006.63 283.204 973.088 248.587 937.461C214.384 902.307 182.339 865.208 152.62 826.352C125.553 790.906 107.845 762.092 98.4857 738.27C89.4947 715.372 88.2824 697.199 94.7827 682.691C102.953 664.471 123.421 651.915 159.196 643.188C191.745 635.246 233.728 631.019 282.386 626.114C407.306 613.538 578.385 596.311 714.603 496.762C834.845 408.893 920.754 273.68 996.574 154.343C1035.11 93.705 1071.52 36.3904 1107.04 -4.98586C1146.52 -50.9765 1181.22 -73.0765 1216.24 -74.544C1258.69 -76.3207 1302.37 -46.9801 1349.81 15.1529C1378.32 52.4864 1401.97 95.3204 1420.1 142.455C1430.79 170.424 1439.46 199.093 1446.03 228.253ZM94.5563 719.76C100.613 746.369 120.204 780.938 154.073 825.296C278.041 987.638 443.667 1119.11 608.476 1185.99C743.024 1240.59 941.288 1277.99 1121.71 1146.11C1271.86 1036.39 1390.73 836.006 1439.7 610.096C1490.59 375.344 1457.29 158.88 1348.34 16.2096C1301.28 -45.4204 1258.09 -74.5302 1216.3 -72.7812C1181.82 -71.3368 1147.53 -49.4352 1108.39 -3.85062C1072.98 37.4285 1036.61 94.6697 998.116 155.275C959.817 215.535 920.226 277.834 874.054 337.826C821.221 406.447 769.427 458.893 715.688 498.169C655.072 542.471 583.135 574.354 495.697 595.652C420.463 613.982 347.205 621.356 282.574 627.867C233.987 632.759 192.047 636.981 159.639 644.891C124.444 653.474 104.363 665.708 96.429 683.387C91.9429 693.396 91.2825 705.428 94.5468 719.76H94.5563Z" fill="url(#paint9_linear_525_662)"/>
<path d="M1415.12 222.304C1420.12 244.249 1424.09 266.912 1427.01 290.294C1433.26 340.165 1434.73 393.073 1431.39 447.555C1428.14 500.597 1420.33 555.028 1408.2 609.334C1384.09 717.26 1343.23 822.758 1290.06 914.428C1262.94 961.17 1232.83 1004 1200.54 1041.72C1167.16 1080.73 1131.42 1114.29 1094.34 1141.48C1022.24 1194.35 940.675 1222.28 851.912 1224.5C771.554 1226.49 685.866 1207.55 597.249 1168.2C516.467 1132.31 435.628 1080.67 356.969 1014.72C284.471 953.948 215.505 881.822 157.526 806.139C107.764 741.186 90.4433 698.385 103.019 671.439C110.982 654.365 130.992 643.031 165.989 635.726C197.811 629.089 238.898 626.228 286.475 622.92C412.934 614.12 586.121 602.066 720.632 503.435C839.236 416.46 921.386 280.034 993.871 159.668C1029.41 100.655 1062.97 44.9129 1095.87 4.61264C1132.41 -40.1504 1164.77 -61.8397 1197.7 -63.6395C1237.58 -65.8038 1279.08 -37.9861 1324.59 21.3966C1352.22 57.4796 1375.02 99.2431 1392.33 145.57C1401.63 170.632 1409.25 196.266 1415.12 222.304ZM102.613 705.889C108.274 730.753 126.794 763.269 158.875 805.138C281.744 965.514 441.784 1097.3 597.947 1166.68C785.017 1249.79 956.322 1240.63 1093.33 1140.17C1239.01 1033.35 1356.1 834.778 1406.55 608.984C1459.09 373.881 1428.73 160.07 1323.23 22.384C1278.1 -36.5278 1237.07 -64.1194 1197.79 -61.9967C1165.38 -60.2338 1133.41 -38.7383 1097.18 5.64171C1064.36 45.8503 1030.83 101.55 995.319 160.508C960.478 218.368 920.985 283.952 876.347 344.304C825.241 413.405 774.634 465.884 721.623 504.746C661.78 548.622 589.843 579.26 501.707 598.397C425.906 614.858 351.884 620.008 286.579 624.553C239.063 627.858 198.028 630.715 166.324 637.332C131.888 644.512 112.251 655.564 104.528 672.113C100.245 681.329 99.5664 692.501 102.613 705.889Z" fill="url(#paint10_linear_525_662)"/>
<path d="M1384.37 216.609C1389.94 241.287 1394.13 266.244 1396.92 291.368C1407.84 388.652 1400.22 498.22 1374.91 608.236C1350.17 715.695 1309.34 820.653 1256.79 911.766C1230.03 958.185 1200.49 1000.57 1168.99 1037.76C1136.38 1076.23 1101.69 1109.11 1065.87 1135.46C996.39 1186.59 917.702 1212.34 832 1211.99C754.968 1211.68 672.441 1190.41 586.706 1148.77C509.608 1111.32 431.713 1058.42 355.177 991.542C286.074 931.13 219.425 860.031 162.432 785.918C115.411 724.759 99.1134 684.73 111.151 659.935C118.897 643.982 138.464 633.797 172.725 627.881C203.858 622.5 244.101 620.958 290.683 619.201C418.708 614.337 594.046 607.664 726.661 510.089C843.51 424.121 921.698 286.463 990.687 165.026C1023.3 107.619 1054.1 53.3954 1084.44 14.1468C1118.13 -29.4396 1148.2 -50.709 1179.09 -52.7671C1216.46 -55.2914 1255.79 -28.9827 1299.34 27.6584C1326.13 62.4953 1348.07 103.221 1364.55 148.708C1372.56 170.929 1379.18 193.604 1384.37 216.609ZM110.6 691.846C115.873 715.021 133.346 745.529 163.682 784.985C285.768 943.772 440.209 1075.86 587.409 1147.37C768.549 1235.36 933.651 1230.82 1064.94 1134.22C1204.02 1031.88 1322.21 830.219 1373.39 607.876C1427.58 372.435 1400.14 161.279 1298.09 28.5537C1254.89 -27.6398 1216.01 -53.7501 1179.2 -51.2812C1148.79 -49.2184 1119.08 -28.1243 1085.68 15.0697C1055.41 54.2349 1024.64 108.408 992.055 165.764C958.949 224.04 921.429 290.09 878.417 350.816C829.128 420.407 779.795 472.904 727.599 511.312C668.634 554.691 596.749 584.013 507.891 600.88C431.539 615.375 356.738 618.222 290.744 620.723C244.219 622.491 204.038 624.018 172.999 629.381C139.28 635.204 120.076 645.122 112.562 660.586C108.453 669.054 107.764 679.39 110.6 691.846Z" fill="url(#paint11_linear_525_662)"/>
<path d="M1353.79 211.187C1359.83 237.974 1364.19 265.099 1366.84 292.407C1376.37 388.504 1367.66 497.33 1341.64 607.105C1316.28 714.093 1275.45 818.516 1223.55 909.085C1197.14 955.172 1168.17 997.119 1137.45 1033.76C1105.63 1071.72 1071.97 1103.91 1037.44 1129.42C1003.16 1154.73 966.214 1173.45 927.618 1185.05C891.069 1196.03 852.214 1200.88 812.127 1199.46C738.407 1196.86 659.035 1173.27 576.215 1129.32C502.83 1090.38 427.878 1036.22 353.431 968.332C287.9 908.576 223.562 838.512 167.376 765.705C123.034 708.265 107.746 670.932 119.218 648.223C126.742 633.326 145.879 624.259 179.438 619.68C209.944 615.527 249.37 615.287 295.009 615.015C424.647 614.235 602.193 613.169 732.713 516.767C847.69 431.856 921.722 292.951 987.031 170.416C1016.79 114.578 1044.9 61.8495 1072.75 23.6347C1103.65 -18.8025 1131.51 -39.6612 1160.42 -42.0102C1195.32 -44.8528 1232.51 -20.0254 1274.1 33.8796C1300.05 67.4699 1321.11 107.143 1336.76 151.796C1343.56 171.268 1349.25 191.096 1353.79 211.187ZM118.506 677.628C123.407 699.169 139.86 727.735 168.508 764.847C290.211 922.559 439.067 1054.95 576.885 1128.07C751.997 1220.99 910.947 1221.05 1036.56 1128.28C1171.2 1028.83 1287.57 829.005 1340.24 606.782C1396.09 371.01 1371.57 162.511 1272.96 34.7289C1231.68 -18.761 1194.9 -43.3992 1160.53 -40.5841C1132.08 -38.2768 1104.56 -17.6027 1073.9 24.4515C1046.11 62.5882 1018.02 115.283 988.291 171.072C957.006 229.762 921.552 296.283 880.267 357.387C832.901 427.471 784.918 479.974 733.562 517.898C675.541 560.764 603.768 588.642 514.212 603.132C437.322 615.591 361.705 616.026 295.009 616.422C249.408 616.699 210.024 616.935 179.612 621.079C146.568 625.588 127.784 634.411 120.487 648.846C116.567 656.566 115.878 666.091 118.506 677.628Z" fill="url(#paint12_linear_525_662)"/>
<path d="M1323.35 206.06C1329.62 233.624 1334.09 262.822 1336.72 293.427C1344.86 388.348 1335.04 496.421 1308.33 605.961C1282.36 712.479 1241.53 816.366 1190.27 906.381C1137.08 999.8 1074.37 1074.82 1008.94 1123.34C975.917 1147.81 940.359 1165.55 903.202 1176.02C868.096 1185.92 830.746 1189.58 792.182 1186.92C721.755 1182.05 645.534 1156.11 565.644 1109.85C496.013 1069.52 424.001 1014.1 351.61 945.103C289.938 886.326 227.911 817.275 172.244 745.437C130.563 691.648 116.218 656.935 127.11 636.201C134.398 622.315 153.111 614.323 185.999 611.046C215.906 608.07 254.582 609.089 299.367 610.271C430.661 613.741 610.476 618.49 738.723 523.389C851.704 439.603 924.41 293.316 982.828 175.769C1009.82 121.472 1035.3 70.1832 1060.75 32.9842C1088.97 -8.28092 1114.69 -28.6966 1141.67 -31.2947C1174.15 -34.4189 1209.22 -11.059 1248.88 40.1232C1273.94 72.4679 1294.16 111.089 1309 154.91C1314.65 171.715 1319.44 188.786 1323.35 206.06ZM126.331 663.235C130.874 683.202 146.337 709.885 173.296 744.68C244.936 837.132 391.254 1007.37 566.318 1108.74C737.76 1208.02 886.409 1212.58 1008.14 1122.33C1138.34 1025.77 1252.88 827.797 1307.05 605.661C1343.02 458.108 1347.26 319.168 1321.61 206.407C1306.82 141.427 1282.12 85.1589 1247.82 40.9031C1208.47 -9.8869 1173.78 -33.0852 1141.8 -30.0071C1115.24 -27.4506 1089.83 -7.20106 1061.85 33.7132C1036.45 70.8388 1010.99 122.086 984.012 176.346C954.633 235.461 921.335 302.462 881.842 363.945C836.51 434.55 789.956 487.025 739.515 524.432C610.901 619.805 430.817 615.047 299.325 611.577C254.587 610.396 215.949 609.376 186.112 612.343C153.71 615.574 135.327 623.345 128.261 636.801C124.586 643.853 123.907 652.589 126.331 663.235Z" fill="url(#paint13_linear_525_662)"/>
<path d="M1293.09 201.228C1299.72 230.367 1304.25 261.567 1306.62 294.447C1313.37 388.186 1302.45 495.512 1275.04 604.807C1248.45 710.854 1207.63 814.202 1157.01 903.677C1104.48 996.532 1043.43 1070.4 980.469 1117.29C948.737 1140.92 914.537 1157.65 878.823 1166.99C845.161 1175.81 809.315 1178.29 772.281 1174.38C705.122 1167.27 632.057 1139.02 555.12 1090.42C489.277 1048.81 420.208 992.119 349.827 921.923C291.66 863.907 233.563 797.732 177.15 725.238C138.063 675.012 124.647 642.837 134.931 623.986C141.978 611.065 160.281 604.115 192.528 602.098C221.859 600.253 259.837 602.509 303.811 605.107C436.836 612.952 618.976 623.746 744.751 530.076C855.605 447.5 923.533 299.846 978.13 181.201C1002.42 128.399 1025.36 78.5229 1048.47 42.2965C1074.09 2.14859 1097.72 -17.8564 1122.85 -20.6714C1152.96 -24.0401 1185.93 -2.12004 1223.64 46.3445C1247.85 77.4524 1267.22 115.02 1281.22 158.021C1285.72 171.85 1289.68 186.253 1293.09 201.228ZM134.072 648.523C135.122 652.958 136.533 657.303 138.289 661.518C145.101 678.246 158.125 698.851 178.098 724.518C266.309 837.87 403.438 993.186 555.766 1089.43C720.958 1193.79 863.606 1202.85 979.738 1116.36C1105.48 1022.72 1218.18 826.597 1273.87 604.544C1311.65 453.891 1317 313.441 1291.53 201.598C1277.64 140.582 1254.61 88.0983 1222.69 47.0774C1185.25 -1.03099 1152.64 -22.7988 1122.99 -19.4808C1098.25 -16.712 1074.9 3.13148 1049.49 42.9384C1026.42 79.0767 1003.5 128.916 979.248 181.685C951.855 241.216 920.806 308.721 883.22 370.59C840.029 441.685 794.98 494.16 745.478 531.012C619.349 624.946 436.935 614.162 303.745 606.284C259.809 603.686 221.864 601.439 192.608 603.27C160.819 605.26 142.827 612.038 136.002 624.54C132.511 630.912 131.869 638.832 134.077 648.532L134.072 648.523Z" fill="url(#paint14_linear_525_662)"/>
<path d="M1263 196.743C1269.95 227.293 1274.48 260.367 1276.52 295.499C1281.89 388.062 1269.86 494.634 1241.75 603.695C1214.54 709.266 1173.73 812.078 1123.74 901.01C1071.86 993.303 1012.49 1065.99 952.001 1111.25C921.538 1134.05 888.715 1149.77 854.45 1158C822.222 1165.73 787.88 1167.03 752.379 1161.86C719.222 1157.02 684.201 1146.42 648.284 1130.34C615.019 1115.45 580.135 1095.48 544.596 1070.98C482.602 1028.25 416.477 970.309 348.044 898.735C294.405 842.637 240.105 779.273 182.041 705.017C145.507 658.274 132.983 628.554 142.653 611.48C149.441 599.482 167.338 593.529 198.976 592.73C227.751 592.006 265.083 595.443 308.307 599.427C443.077 611.85 627.661 628.855 750.78 536.731C859.431 455.456 922.335 306.395 972.898 186.623C994.574 135.27 1015.05 86.7695 1035.89 51.5402C1059.01 12.4948 1080.62 -7.06714 1103.95 -10.0853C1131.74 -13.6616 1162.63 6.84629 1198.41 52.6058C1221.76 82.473 1240.27 118.985 1253.44 161.136C1257.02 172.578 1260.2 184.447 1263 196.743ZM141.747 633.76C142.731 637.911 144.059 641.976 145.719 645.915C152.092 661.375 164.258 680.494 182.914 704.356C313.458 871.346 435.355 994.399 545.218 1070.12C704.094 1179.63 840.737 1193.19 951.346 1110.42C1070.77 1021.06 1184.38 822.061 1240.7 603.445C1268.79 494.487 1280.8 388.025 1275.44 295.568C1269.51 193.301 1243.31 111.772 1197.55 53.2477C1162.03 7.81998 1131.46 -12.5541 1104.09 -9.0515C1081.12 -6.09805 1059.75 13.3208 1036.83 52.0569C1016.04 87.2441 995.56 135.7 973.898 187.025C948.576 247.017 919.877 314.992 884.272 377.258C843.336 448.879 799.881 501.316 751.421 537.575C627.977 629.939 443.157 612.925 308.203 600.487C265.017 596.51 227.723 593.072 199.004 593.797C167.791 594.581 150.182 600.368 143.596 611.997C140.351 617.728 139.728 624.918 141.747 633.778V633.76Z" fill="url(#paint15_linear_525_662)"/>
<path d="M1233.08 192.585C1240.32 224.381 1244.79 259.218 1246.42 296.546C1250.41 387.919 1237.28 493.754 1208.46 602.574C1180.63 707.67 1139.84 809.942 1090.48 898.342C1039.28 990.055 981.55 1061.59 923.533 1105.22C894.333 1127.17 862.893 1141.91 830.076 1149C799.282 1155.65 766.446 1155.77 732.482 1149.33C700.877 1143.33 667.432 1131.52 633.067 1114.19C601.429 1098.24 568.125 1077.16 534.076 1051.55C407.118 956.072 287.367 812.573 186.957 684.794C152.894 641.444 141.233 614.087 150.266 598.711C156.79 587.604 174.291 582.606 205.335 582.988C233.596 583.34 270.314 587.94 312.826 593.27C449.431 610.4 636.52 633.88 756.808 543.399C863.068 463.494 920.759 312.984 967.12 192.045C986.262 142.113 1004.34 94.9466 1023 60.6684C1043.66 22.7025 1063.35 3.54667 1084.95 0.390181C1110.48 -3.33852 1139.34 15.7803 1173.16 58.8494C1195.65 87.4612 1213.31 122.939 1225.64 164.246C1228.39 173.393 1230.87 182.839 1233.08 192.585ZM149.328 618.863C150.258 622.748 151.521 626.548 153.101 630.225C159.04 644.461 170.371 662.132 187.745 684.241C288.084 811.949 407.792 955.387 534.661 1050.81C687.15 1165.5 817.788 1183.55 922.943 1104.47C1037.95 1017.98 1149.66 820.889 1207.53 602.334C1236.31 493.601 1249.44 387.872 1245.46 296.583C1241.04 195.275 1216.47 115.482 1172.41 59.4179C1138.81 16.6387 1110.24 -2.35104 1085.09 1.32238C1063.81 4.43268 1044.35 23.4316 1023.85 61.1107C1005.22 95.3341 987.154 142.473 968.021 192.378C944.859 252.831 918.603 321.295 885.111 383.964C846.553 456.115 804.777 508.511 757.398 544.146C729.095 565.443 694.971 581.756 656.04 592.629C621.722 602.213 583.951 607.752 540.572 609.556C461.432 612.851 378.966 602.514 312.703 594.207C270.22 588.877 233.53 584.281 205.326 583.93C174.664 583.552 157.432 588.397 151.101 599.159C148.078 604.305 147.497 610.793 149.328 618.863Z" fill="url(#paint16_linear_525_662)"/>
<path d="M1203.35 188.769C1210.82 221.636 1215.18 258.119 1216.32 297.571C1218.93 387.775 1204.7 492.848 1175.17 601.434C1146.73 706.046 1105.94 807.783 1057.24 895.648C1006.71 986.786 950.633 1057.16 895.083 1099.16C867.813 1119.77 838.477 1133.36 807.962 1139.53C779.314 1145.32 748.78 1144.75 717.212 1137.83C687.876 1131.41 656.794 1119.32 624.831 1101.89C595.485 1085.9 564.493 1064.91 532.723 1039.52C478.654 996.307 421.156 939.751 356.941 866.616C301.5 803.477 250.332 738.617 205.175 681.393L191.882 664.555C160.239 624.503 149.427 599.427 157.8 585.642C164.041 575.379 181.145 571.309 211.628 572.837C239.384 574.221 275.527 579.966 317.378 586.612C455.884 608.601 645.582 638.717 762.86 550.044C866.61 471.593 918.839 319.597 960.803 197.477C977.493 148.912 993.253 103.041 1009.8 69.695C1028.11 32.7768 1045.93 14.0639 1065.86 10.7828C1089.16 6.9479 1116.05 24.7009 1147.94 65.0941C1169.59 92.4867 1186.39 126.89 1197.88 167.352C1199.86 174.311 1201.68 181.45 1203.35 188.769ZM156.823 603.727C157.688 607.358 158.872 610.909 160.361 614.342C165.885 627.405 176.4 643.673 192.528 664.079L205.826 680.919C297.481 797.085 411.547 941.649 533.237 1038.9C677.229 1153.98 795.419 1173.49 894.574 1098.54C1005.14 1014.94 1114.97 819.739 1174.38 601.245C1203.89 492.738 1218.11 387.743 1215.5 297.617C1212.6 197.278 1189.66 119.216 1147.3 65.6059C1115.6 25.4577 1089 7.81092 1066 11.6134C1046.36 14.8438 1028.74 33.4226 1010.56 70.0726C994.05 103.373 978.285 149.221 961.605 197.759C919.622 319.999 867.332 472.128 763.379 550.732C735.774 571.6 702.089 587.188 663.252 597.036C629.038 605.716 591.154 610.142 547.44 610.567C467.72 611.347 384.282 598.107 317.241 587.456C275.414 580.815 239.294 575.079 211.576 573.69C181.442 572.181 164.578 576.122 158.512 586.099C155.734 590.631 155.153 596.454 156.823 603.727Z" fill="url(#paint17_linear_525_662)"/>
<path d="M1173.79 185.345C1181.47 219.093 1185.65 257.114 1186.22 298.619C1187.46 387.646 1172.12 491.977 1141.88 600.317C1127.42 652.091 1110.1 703.059 1089.99 752.996C1069.97 802.674 1047.76 849.771 1023.95 892.979C974.092 983.548 919.674 1052.76 866.587 1093.13C845.02 1109.54 822.075 1121.04 798.395 1127.35C775.936 1133.31 752.166 1134.76 727.764 1131.65C688.281 1126.62 645.445 1109.41 600.433 1080.49C560.662 1054.93 519.345 1020.72 474.116 975.896C391.433 893.967 314.095 794.635 245.86 707.005C228.605 684.854 212.307 663.913 196.769 644.36C167.484 607.507 157.451 584.622 165.163 572.329C171.121 562.869 187.834 559.689 217.755 562.324C245.03 564.723 280.631 571.553 321.854 579.495C389.664 592.531 474.059 608.761 554.332 610.594C648.204 612.74 718.368 595.12 768.846 556.731C869.955 479.831 916.495 326.288 953.855 202.913C983.389 105.431 1006.72 28.4382 1046.59 21.092C1067.82 17.1786 1092.7 33.6213 1122.69 71.3515C1143.48 97.5122 1159.42 130.881 1170.08 170.481C1171.4 175.329 1172.64 180.284 1173.79 185.345ZM164.229 588.406C165.041 591.793 166.158 595.103 167.569 598.296C172.697 610.229 182.433 625.149 197.339 643.904C212.882 663.461 229.18 684.393 246.436 706.553C314.656 794.178 391.98 893.487 474.635 975.387C570.715 1070.59 653.544 1121.47 727.863 1130.94C777.776 1137.3 824.302 1124.39 866.148 1092.56C972.257 1011.86 1080.21 818.563 1141.19 600.114C1171.41 491.834 1186.73 387.577 1185.5 298.614C1184.12 199.249 1162.81 122.925 1122.14 71.7527C1092.33 34.2622 1067.67 17.9078 1046.75 21.7658C1028.67 25.1022 1012.82 43.2564 996.876 78.9005C982.384 111.296 969.516 153.84 954.567 203.107C917.16 326.575 870.601 480.237 769.313 557.28C742.468 577.696 709.221 592.504 670.498 601.291C636.397 609.03 598.405 612.302 554.337 611.291C474.008 609.444 389.579 593.224 321.736 580.178C280.536 572.254 244.95 565.411 217.718 563.015C188.094 560.409 171.598 563.477 165.828 572.707C163.272 576.708 162.743 581.899 164.229 588.406Z" fill="url(#paint18_linear_525_662)"/>
<path d="M1611.62 376.857C1589.56 392.792 1559.37 402.87 1518.98 408.039C1468.56 414.491 1406.63 413.046 1334.92 411.371C1198.6 408.191 1028.92 404.236 843.864 452.857C674.385 497.381 510.83 581.525 366.545 655.781C265.899 707.564 170.834 756.476 86.8818 785.318C42.0307 800.726 3.38739 809.443 -31.3217 811.968C-69.8377 814.774 -102.976 809.97 -132.624 797.293C-199.254 768.797 -246.78 699.82 -277.913 586.427C-295.299 523.161 -306.121 458.342 -310.217 392.953C-318.006 266.809 -300.331 140.399 -258.2 20.9352C-216.775 -96.6381 -152.698 -205.354 -69.4367 -299.329C-27.5814 -346.545 18.8479 -389.686 69.2017 -428.149C120.44 -467.239 175.508 -501.271 233.601 -529.748C353.715 -588.448 484.693 -622.86 618.708 -630.926C683.564 -634.757 748.648 -632.297 813.009 -623.584C876.286 -614.979 938.562 -600.399 998.966 -580.049C1119.15 -539.523 1230.28 -476.837 1326.34 -395.385C1374.61 -354.437 1418.72 -309.011 1458.04 -259.743C1497.99 -209.618 1532.77 -155.745 1561.86 -98.9144C1591.81 -40.3176 1615.63 21.0829 1632.99 84.3556C1652.63 155.922 1662 212.535 1661.62 257.409C1661.26 300.603 1651.83 333.123 1632.78 356.825C1626.68 364.405 1619.57 371.143 1611.62 376.857ZM92.7311 -441.467C-224.298 -212.502 -383.079 191.386 -274.876 585.61C-244.011 698.044 -197.042 766.361 -131.364 794.46C-76.0172 818.128 -6.99988 814.303 85.8393 782.401C169.574 753.633 264.541 704.777 365.097 653.046C509.538 578.747 673.248 494.506 843.048 449.895C1028.55 401.154 1198.47 405.131 1335.01 408.302C1406.59 409.973 1468.4 411.412 1518.59 404.993C1572.98 398.038 1608.48 382.132 1630.32 354.942C1648.92 331.794 1658.16 299.888 1658.5 257.395C1658.87 212.789 1649.53 156.447 1629.97 85.154C1561.65 -163.724 1398.36 -371.674 1170.15 -500.388C941.94 -629.103 676.154 -663.187 421.755 -596.352C299.571 -564.247 188.858 -510.892 92.7311 -441.467Z" fill="url(#paint19_linear_525_662)"/>
<path d="M1600.93 380.632C1579.56 396.064 1550.04 405.417 1510.22 409.603C1461.68 414.702 1402.14 411.999 1333.19 408.861C1196.24 402.634 1025.81 394.887 840.397 443.785C671.781 488.253 510.023 574.354 367.309 650.318C271.126 701.514 180.272 749.876 100.094 778.682C57.2625 794.071 20.3316 802.933 -12.8161 805.765C-49.6103 808.913 -81.3051 804.663 -109.689 792.775C-173.711 765.955 -219.538 699.557 -249.79 589.726C-266.83 527.845 -277.213 464.39 -280.767 400.397C-284.185 337.9 -281.165 275.225 -271.753 213.32C-262.396 152.063 -247.014 91.8332 -225.822 33.4687C-204.688 -24.7189 -178.018 -80.8375 -146.162 -134.148C-114.265 -187.521 -77.3487 -237.865 -35.8927 -284.529C5.78357 -331.415 51.9173 -374.324 101.887 -412.676C152.422 -451.436 206.731 -485.239 264.031 -513.596C322.61 -542.531 384.055 -565.54 447.412 -582.264C510.31 -598.88 574.818 -608.99 639.874 -612.431C702.818 -615.688 765.938 -612.605 828.236 -603.228C889.548 -593.951 949.766 -578.732 1008 -557.796C1066 -536.915 1121.81 -510.62 1174.65 -479.276C1227.71 -447.785 1277.61 -411.464 1323.68 -370.797C1417.79 -287.689 1494.88 -187.824 1550.83 -76.5284C1579.74 -19.015 1602.88 41.1038 1619.93 102.985C1638.84 171.602 1647.86 225.784 1647.51 268.622C1647.17 309.832 1638.12 340.682 1619.83 362.943C1614.34 369.617 1607.99 375.562 1600.93 380.632ZM127.718 -427.762C-188.112 -199.664 -352.511 205.696 -246.893 588.979C-216.892 697.849 -171.626 763.628 -108.505 790.067C-55.5256 812.263 10.4255 807.764 99.0522 775.923C179.027 747.187 269.781 698.879 365.871 647.734C508.736 571.692 670.659 485.497 839.62 440.942C1025.48 391.924 1196.18 399.686 1333.34 405.92C1402.16 409.049 1461.6 411.754 1509.91 406.678C1562.27 401.172 1596.46 386.691 1617.46 361.112C1635.3 339.39 1644.14 309.136 1644.47 268.614C1644.82 226.047 1635.83 172.124 1616.99 103.765C1476.56 -405.874 952.237 -712.353 448.195 -579.425C329.968 -548.244 222.076 -495.912 127.718 -427.762Z" fill="url(#paint20_linear_525_662)"/>
<path d="M1590.1 384.799C1569.42 399.732 1540.57 408.334 1501.31 411.533C1454.58 415.325 1397.29 411.385 1330.97 406.825C1193.5 397.369 1022.41 385.597 836.949 434.712C669.299 479.102 509.495 567.22 368.503 644.965C276.701 695.584 189.99 743.398 113.51 772.17C28.2752 804.239 -35.3503 809.37 -86.73 788.322C-148.158 763.153 -192.301 699.295 -221.685 593.086C-238.379 532.587 -248.318 470.496 -251.327 407.901C-254.233 346.333 -250.694 284.635 -240.766 223.772C-230.856 163.167 -215.011 103.635 -193.447 45.9981C-171.851 -11.7235 -144.861 -67.3745 -112.821 -120.248C-80.7101 -173.252 -43.7285 -223.283 -2.33469 -269.72C39.1578 -316.278 84.9914 -358.955 134.572 -397.199C184.405 -435.625 237.954 -469.199 294.457 -497.444C351.718 -526.027 411.847 -548.738 473.885 -565.217C595.777 -597.492 720.123 -603.436 843.416 -582.886C902.776 -572.935 960.943 -557.079 1017.01 -535.562C1073.05 -514.014 1126.81 -487.2 1177.56 -455.497C1228.73 -423.509 1276.73 -386.927 1320.96 -346.224C1365.78 -304.968 1406.66 -259.794 1443.09 -211.265C1480.14 -161.879 1512.49 -109.284 1539.75 -54.1376C1567.62 2.29913 1590.08 61.145 1606.82 121.643C1625 187.348 1633.68 239.135 1633.36 279.961C1633.05 319.214 1624.4 348.434 1606.84 369.289C1601.94 375.117 1596.31 380.326 1590.1 384.799ZM160.776 -412.741C53.0547 -334.941 -40.0392 -234.907 -110.345 -118.813C-243.535 101.089 -283.103 360.318 -218.92 592.352C-189.782 697.665 -146.186 760.916 -85.6356 785.71C-34.9824 806.477 27.9639 801.322 112.463 769.531C188.744 740.831 275.366 693.069 367.073 642.496C508.217 564.673 668.186 476.462 836.184 431.98C1022.11 382.75 1193.47 394.532 1331.16 404.001C1397.37 408.556 1454.54 412.488 1501.06 408.713C1551.5 404.62 1584.4 391.523 1604.61 367.484C1621.71 347.151 1630.16 318.508 1630.47 279.924C1630.79 239.356 1622.14 187.818 1604.05 122.363C1464.18 -383.123 957.548 -690.341 474.64 -562.512C362.394 -532.775 255.875 -481.422 160.776 -412.741Z" fill="url(#paint21_linear_525_662)"/>
<path d="M1579.13 389.353C1559.14 403.793 1530.94 411.666 1492.25 413.812C1447.24 416.331 1392.11 411.191 1328.28 405.238C1190.37 392.376 1018.73 376.368 833.5 425.616C666.941 469.918 509.254 560.104 370.13 639.69C282.631 689.76 199.967 737.039 127.138 765.77C45.9789 797.783 -14.6654 803.546 -63.7242 783.92C-122.572 760.384 -165.036 699.05 -193.547 596.427C-209.892 537.31 -219.386 476.58 -221.85 415.386C-224.303 355.736 -220.236 294.793 -209.76 234.261C-199.537 175.192 -183.145 116.077 -161.036 58.5314C-138.972 1.27734 -111.658 -53.9062 -79.4278 -106.344C-47.1026 -158.986 -10.059 -208.714 31.266 -254.939C72.5647 -301.153 118.082 -343.589 167.253 -381.72C216.389 -419.812 269.18 -453.158 324.888 -481.292C381.4 -509.734 440.435 -532.23 500.367 -548.161C618.769 -579.638 739.28 -584.474 858.625 -562.536C916.026 -551.905 972.129 -535.408 1026.01 -513.319C1079.31 -491.533 1131.27 -464.075 1180.49 -431.722C1229.77 -399.236 1275.9 -362.392 1318.3 -321.655C1361.38 -280.246 1400.64 -235.195 1435.63 -187.029C1507.62 -87.8797 1561.15 22.9264 1593.75 140.287C1611.21 203.116 1619.55 252.54 1619.26 291.387C1618.98 328.729 1610.69 356.354 1593.9 375.838C1589.54 380.895 1584.58 385.433 1579.13 389.353ZM832.779 423.042C915.301 401.103 1002.44 390.138 1099.17 389.52C1182.82 388.989 1260.24 396.212 1328.54 402.579C1392.26 408.519 1447.29 413.655 1492.09 411.149C1540.68 408.431 1572.36 396.664 1591.79 374.112C1608.14 355.121 1616.23 328.056 1616.5 291.369C1616.79 252.771 1608.48 203.578 1591.09 140.992C1526.39 -91.9141 1376.17 -299.846 1178.95 -429.488C971.988 -565.545 731.246 -606.768 501.094 -545.567C390.541 -516.185 288.15 -465.889 197.367 -400.327C-115.798 -174.149 -291.41 234.021 -190.919 595.721C-162.649 697.485 -120.708 758.229 -62.71 781.432C-14.3399 800.777 45.6581 795.009 126.11 763.278C198.754 734.62 281.334 687.388 368.743 637.387C508 557.718 665.87 467.422 832.779 423.042Z" fill="url(#paint22_linear_525_662)"/>
<path d="M1568.03 394.301C1548.73 408.246 1521.18 415.376 1483.04 416.497C1439.67 417.78 1386.59 411.463 1325.13 404.153C1186.86 387.702 1014.77 367.235 830.047 416.562C664.714 460.716 509.306 553.076 372.196 634.558C288.919 684.052 210.264 730.794 140.973 759.484C63.8096 791.455 6.08997 797.814 -40.7376 779.567C-97.0232 757.625 -137.818 698.809 -165.456 599.768C-181.334 542.877 -190.41 483.361 -192.447 422.87C-194.415 364.429 -189.829 304.497 -178.829 244.741C-168.116 186.544 -151.247 128.117 -128.699 71.0697C-106.179 14.2856 -78.5532 -40.432 -46.1482 -92.4402C-13.6115 -144.706 23.4944 -194.115 64.7531 -240.112C105.891 -286.005 151.132 -328.216 199.938 -366.243C249.11 -404.471 301.386 -437.743 355.318 -465.142C410.835 -493.346 468.531 -515.539 526.831 -531.132C641.718 -561.811 758.445 -565.535 873.818 -542.208C928.377 -531.174 982.606 -513.98 1035.01 -491.099C1086.14 -468.769 1136.07 -440.799 1183.41 -407.96C1229.99 -375.656 1274.45 -338.351 1315.6 -297.1C1356.94 -255.544 1394.6 -210.619 1428.15 -162.811C1497.02 -64.668 1548.57 44.0822 1580.66 158.911C1597.4 218.903 1605.41 266.001 1605.16 302.892C1604.91 338.356 1596.99 364.429 1580.95 382.593C1577.1 386.954 1572.77 390.882 1568.03 394.301ZM829.359 414.093C911.641 392.118 998.786 382.021 1095.78 383.225C1179.6 384.263 1257.08 393.479 1325.45 401.61C1386.81 408.893 1439.8 415.215 1482.96 413.941C1529.8 412.556 1560.33 402.081 1578.96 380.955C1594.59 363.266 1602.3 337.737 1602.55 302.905C1602.8 266.237 1594.82 219.378 1578.15 159.604C1514.23 -69.3988 1369.83 -275.503 1181.9 -405.855C982.182 -544.395 749.803 -588 527.519 -528.64C420.732 -500.121 321.029 -450.864 232.044 -386.589C-79.6404 -161.491 -260.903 248.055 -162.932 599.094C-135.525 697.31 -95.2401 755.566 -39.7706 777.19C6.35411 795.189 63.4652 788.797 139.955 757.126C209.066 728.515 287.645 681.813 370.838 632.371C508.094 550.801 663.667 458.344 829.359 414.093Z" fill="url(#paint23_linear_525_662)"/>
<path d="M1556.81 399.663C1538.18 413.12 1511.29 419.506 1473.71 419.562C1431.91 419.635 1380.78 412.179 1321.55 403.535C1182.99 383.299 1010.54 358.13 826.599 407.508C662.61 451.501 509.66 546.089 374.692 629.542C295.556 678.459 220.812 724.698 155.007 753.337C81.7492 785.216 26.8647 792.194 -17.7224 775.289C-71.4606 754.915 -110.599 698.602 -137.365 603.127C-152.856 547.857 -161.489 489.734 -163.026 430.374C-164.503 373.151 -159.408 314.216 -147.879 255.226C-136.676 197.902 -119.336 140.166 -96.3391 83.6217C-73.3428 27.3003 -45.384 -26.958 -12.7787 -78.5406C19.9709 -130.428 57.1392 -179.519 98.3302 -225.289C139.28 -270.855 184.215 -312.839 232.624 -350.765C281.305 -388.794 332.826 -421.832 385.749 -448.999C440.265 -476.968 496.64 -498.839 553.303 -514.067C664.719 -543.956 777.667 -546.573 889.017 -521.848C941.467 -510.2 993.616 -492.364 1044.01 -468.842C1093 -445.981 1140.88 -417.494 1186.33 -384.171C1230.85 -351.531 1273.44 -313.967 1312.9 -272.517C1352.51 -230.817 1388.55 -186.013 1420.68 -138.555C1486.43 -41.4527 1536.02 65.2448 1567.58 177.555C1583.62 234.737 1591.3 279.541 1591.08 314.548C1590.86 348.181 1583.32 372.736 1568.01 389.622C1564.65 393.345 1560.89 396.71 1556.81 399.663ZM266.597 -372.846C-43.5019 -148.874 -230.393 261.991 -134.954 602.463C-108.415 697.144 -69.7672 752.904 -16.812 773.006C27.1147 789.66 81.3907 782.696 154.007 751.094C219.647 722.53 294.315 676.335 373.357 627.465C508.452 543.938 661.577 449.235 825.92 405.145C907.834 383.166 994.899 374 1092.08 377.124C1175.99 379.824 1253.51 391.135 1321.9 401.122C1381.03 409.737 1432.1 417.199 1473.7 417.111C1510.73 417.046 1537.15 410.816 1555.34 397.683C1559.28 394.843 1562.9 391.605 1566.15 388.025C1581.04 371.601 1588.38 347.567 1588.59 314.553C1588.81 279.776 1581.15 235.18 1565.18 178.215C1442 -261.23 1030.07 -639.449 553.959 -511.713C450.813 -484.062 353.799 -435.819 266.597 -372.846Z" fill="url(#paint24_linear_525_662)"/>
<path d="M1545.45 405.386C1527.5 418.348 1501.27 423.974 1464.25 422.967C1423.95 421.869 1374.65 413.276 1317.55 403.346C1178.79 379.183 1006.04 349.109 823.146 398.417C660.643 442.225 510.311 539.116 377.682 624.605C302.604 672.995 231.69 718.7 169.305 747.279C99.868 779.088 47.7761 786.633 5.37315 771.035C-45.8462 752.198 -83.3101 698.357 -109.222 606.445C-124.317 552.794 -132.52 496.07 -133.553 437.841C-134.549 381.823 -128.94 323.898 -116.883 265.683C-105.189 209.222 -87.3764 152.161 -63.9366 96.1414C-40.4911 40.3014 -12.229 -13.4858 20.5437 -64.6361C53.5034 -116.16 90.7374 -164.945 131.869 -210.499C173.154 -256.208 218.053 -298.179 265.314 -335.291C313.51 -373.123 364.267 -405.947 416.179 -432.838C469.701 -460.573 524.741 -482.155 579.777 -496.983C687.739 -526.088 796.9 -527.597 904.216 -501.469C954.567 -489.207 1004.63 -470.738 1053.02 -446.553C1099.86 -423.161 1145.69 -394.157 1189.25 -360.345C1231.71 -327.386 1272.41 -289.55 1310.21 -247.892C1348.07 -206.073 1382.51 -161.411 1413.23 -114.319C1475.87 -18.2637 1523.49 86.4026 1554.52 196.218C1569.85 250.634 1577.22 293.192 1577.03 326.326C1576.86 358.167 1569.69 381.241 1555.11 396.89C1552.19 400.024 1548.95 402.87 1545.45 405.386ZM822.524 396.193C903.957 374.241 990.838 366.072 1088.14 371.232C1172.08 375.68 1249.59 389.173 1317.98 401.08C1374.97 411.001 1424.19 419.571 1464.31 420.665C1507.86 421.846 1536.15 413.798 1553.35 395.339C1567.5 380.111 1574.49 357.549 1574.66 326.312C1574.84 293.395 1567.5 251.04 1552.23 196.831C1429.5 -238.838 1032.44 -616.653 580.404 -494.787C363.828 -436.401 160.493 -279.166 22.539 -63.4178C-117.76 156.004 -164.96 399.936 -106.962 605.837C-81.2865 696.987 -44.2706 750.32 6.19394 768.88C47.96 784.248 99.4718 776.725 168.295 745.192C230.539 716.697 301.387 671.011 376.39 622.681C509.165 537.099 659.658 440.102 822.524 396.193Z" fill="url(#paint25_linear_525_662)"/>
<path d="M1533.99 411.523C1516.72 423.983 1491.13 428.865 1454.68 426.752C1415.81 424.518 1368.26 414.836 1313.2 403.623C1174.23 375.334 1001.28 340.124 819.712 389.317C658.804 432.94 511.302 532.218 381.107 619.809C310 667.66 242.841 712.852 183.777 741.376C118.072 773.098 68.7157 781.201 28.4497 766.864C-20.2695 749.521 -56.1108 698.141 -81.126 609.787C-95.8626 557.746 -103.604 502.415 -104.132 445.326C-104.641 390.512 -98.5184 333.599 -85.9329 276.159C-73.7484 220.56 -55.4645 164.214 -31.5813 108.676C-8.1982 54.3229 20.5531 0.690186 53.8801 -50.7366C87.0504 -101.885 124.347 -150.357 165.413 -195.69C206.613 -241.155 251.219 -282.909 297.995 -319.827C345.728 -357.452 395.73 -390.05 446.61 -416.686C499.131 -444.19 552.841 -465.473 606.25 -479.945C710.787 -508.27 816.165 -508.672 919.415 -481.131C1014.85 -455.686 1106.62 -407.055 1192.17 -336.602C1352.2 -204.81 1479.5 -3.80457 1541.42 214.861C1556.04 266.546 1563.12 306.893 1562.96 338.199C1562.83 368.274 1556.03 389.926 1542.18 404.389C1539.68 407.005 1536.94 409.394 1533.99 411.523ZM819.104 387.245C899.937 365.339 986.564 358.242 1083.89 365.556C1167.81 371.845 1245.28 387.614 1313.62 401.55C1368.6 412.741 1416.08 422.409 1454.79 424.625C1496.8 427.038 1524.05 420.148 1540.54 402.935C1567.82 374.457 1567.43 314.89 1539.26 215.474C1477.46 -2.80322 1350.42 -203.406 1190.72 -334.917C1065.21 -438.288 862.021 -546.979 606.83 -477.828C399.099 -421.527 193.084 -261.427 55.7481 -49.5368C-86.3338 169.66 -135.426 409.774 -78.975 609.205C-54.1626 696.853 -18.7742 747.735 29.2045 764.82C68.8619 778.94 117.666 770.87 182.787 739.438C241.709 710.988 308.807 665.832 379.843 618.033C510.16 530.33 657.851 430.942 819.104 387.245Z" fill="url(#paint26_linear_525_662)"/>
<path d="M1522.38 418.057C1505.78 430.056 1480.86 434.154 1444.99 430.956C1407.48 427.619 1361.58 416.858 1308.43 404.402C1176.68 373.521 996.229 331.231 816.249 380.281C657.105 423.66 512.556 525.392 385.022 615.172C317.802 662.492 254.314 707.181 198.504 735.617C136.445 767.251 89.7588 775.88 51.5826 762.761C5.35404 746.877 -28.8645 697.932 -53.0071 613.132C-67.3615 562.702 -74.6543 508.766 -74.6826 452.821C-74.6826 399.207 -68.0785 343.294 -54.9553 286.638C-42.2849 231.908 -23.5246 176.249 0.801941 121.218C24.5672 67.4474 53.644 14.2761 87.2257 -36.8277C154.054 -138.546 238.237 -231.048 330.68 -304.336C377.904 -341.779 427.147 -374.152 477.041 -400.534C528.562 -427.804 580.942 -448.782 632.708 -462.889C733.835 -490.439 835.406 -489.729 934.609 -460.78C1025.65 -434.209 1113.3 -384.425 1195.09 -312.822C1233.43 -279.249 1270.35 -240.883 1304.82 -198.787C1338.32 -157.882 1369.75 -113.151 1398.26 -65.8314C1426.54 -18.805 1451.65 29.9803 1473.43 80.2117C1495.08 130.099 1513.42 181.303 1528.33 233.505C1542.28 282.508 1549.01 320.673 1548.92 350.189C1548.83 378.551 1542.41 398.814 1529.28 412.133C1527.15 414.293 1524.84 416.275 1522.38 418.057ZM815.688 378.297C895.796 356.47 982.054 350.498 1079.38 360.041C1163.22 368.283 1240.62 386.405 1308.92 402.432C1361.99 414.892 1407.82 425.617 1445.17 428.944C1485.74 432.552 1511.98 426.771 1527.78 410.738C1553.63 384.508 1553.17 328.374 1526.32 234.077C1465.08 18.9185 1343.83 -179.862 1193.69 -311.313C1073.55 -416.492 878.814 -527.828 633.288 -460.932C431.232 -405.883 227.751 -246.928 88.9805 -35.7202C-54.9128 183.287 -105.929 419.581 -50.9881 612.578C-27.0437 696.687 6.73619 745.179 52.276 760.827C89.8721 773.748 136.025 765.151 197.537 733.794C253.2 705.409 316.642 660.761 383.801 613.488C448.322 568.069 515.038 521.105 587.263 478.861C669.828 430.582 744.543 397.678 815.688 378.297Z" fill="url(#paint27_linear_525_662)"/>
<path d="M1510.66 424.994C1494.74 436.494 1470.46 439.839 1435.18 435.538C1398.98 431.122 1354.65 419.308 1303.31 405.626C1171.48 370.493 990.928 322.38 812.783 371.195C655.53 414.282 514.142 518.599 389.395 610.631C325.973 657.424 266.069 701.62 213.444 729.996C154.951 761.533 110.864 770.666 74.7586 758.723C30.9783 744.256 -1.61286 697.725 -24.878 616.469C-38.874 567.64 -45.7186 515.096 -45.2375 460.301C-44.7657 407.891 -37.6333 352.985 -23.9865 297.114C-10.8302 243.223 8.40176 188.28 33.1765 133.756C57.3333 80.5757 86.7544 27.8618 120.562 -22.9235C187.834 -123.931 271.796 -215.889 363.366 -288.858C410.104 -326.099 458.587 -358.25 507.476 -384.384C558.002 -411.44 609.042 -432.114 659.195 -445.857C756.931 -472.622 854.704 -470.818 949.803 -440.453C1036.5 -412.763 1120.01 -361.835 1198 -289.088C1234.29 -255.23 1269.32 -216.595 1302.12 -174.259C1333.77 -133.419 1363.6 -88.7992 1390.8 -41.641C1417.62 4.96802 1441.52 53.1214 1462.39 102.556C1483.02 151.347 1500.68 201.291 1515.28 252.125C1528.55 298.48 1534.98 334.512 1534.93 362.279C1534.89 388.971 1528.83 407.891 1516.42 420.116C1514.63 421.884 1512.71 423.515 1510.66 424.994ZM451.865 562.476C495.16 531.207 539.931 500.177 587.277 471.372C668.385 421.975 741.973 388.587 812.259 369.344C891.508 347.622 977.361 342.851 1074.6 354.752C1158.31 364.992 1235.62 385.597 1303.83 403.774C1355.1 417.435 1399.37 429.234 1435.44 433.632C1474.59 438.409 1499.88 433.697 1515.01 418.786C1539.45 394.712 1538.92 341.928 1513.37 252.656C1452.58 40.3493 1337.14 -156.599 1196.64 -287.676C1081.96 -394.683 895.687 -508.667 659.728 -444.005C573.135 -420.276 485.626 -376.312 402.858 -316.546C297.929 -240.768 200.59 -139.575 122.185 -21.8899C-23.5006 196.886 -76.4229 429.364 -23.0006 615.951C0.0758972 696.548 32.2519 742.654 75.3718 756.905C110.944 768.663 154.521 759.577 212.505 728.293C265.012 699.982 324.864 655.842 388.225 609.081C409.16 593.654 430.341 578.027 451.865 562.476Z" fill="url(#paint28_linear_525_662)"/>
<path d="M1498.83 432.33C1483.58 443.341 1459.97 445.93 1425.31 440.512C1390.35 435.049 1347.48 422.197 1297.88 407.315C1166.01 367.756 985.394 313.589 809.348 362.117C654.124 404.91 516.08 511.885 394.287 606.261C334.572 652.552 278.169 696.239 228.633 724.542C173.602 755.977 132.072 765.58 97.9386 754.773C56.5876 741.676 25.6098 697.55 3.22195 619.81C-10.3824 572.582 -16.7836 521.437 -15.7977 467.791C-14.8543 416.567 -7.19362 362.676 6.98156 307.59C20.6237 254.58 40.3322 200.306 65.5267 146.313C90.1033 93.705 119.826 41.4472 153.899 -9.01932C221.619 -109.316 305.354 -200.716 396.051 -273.384C442.28 -310.432 490.027 -342.352 537.907 -368.264C587.437 -395.057 637.138 -415.427 685.668 -428.805C780.012 -454.818 874.012 -451.878 964.997 -420.101C1047.36 -391.305 1126.74 -339.241 1200.91 -265.294C1268.53 -197.887 1329.89 -114.48 1383.31 -17.3904C1432.54 72.1031 1473.65 171.755 1502.18 270.792C1526.67 355.799 1527.1 405.884 1503.55 428.413C1502.07 429.823 1500.49 431.133 1498.83 432.33ZM808.848 360.396C887.154 338.804 972.46 335.292 1069.59 349.662C1153.12 362.021 1230.31 385.196 1298.42 405.602C1347.95 420.461 1390.77 433.29 1425.6 438.74C1463.43 444.656 1487.79 440.966 1502.25 427.13C1525.28 405.108 1524.7 355.602 1500.41 271.281C1439.95 61.3838 1330.31 -133.733 1199.6 -264.03C1043.03 -420.125 865.483 -476.503 686.168 -427.07C602.976 -404.134 518.283 -361.37 437.501 -303.025C333.143 -227.657 235.284 -126.28 155.413 -8.02255C7.91083 210.458 -46.9265 439.119 4.98147 619.325C27.1901 696.424 57.7811 740.172 98.4999 753.065C132.101 763.707 173.159 754.154 227.713 722.991C277.135 694.762 333.487 651.093 393.15 604.853C451.695 559.481 518.057 508.059 587.546 463.914C667.101 413.378 739.492 379.515 808.848 360.396Z" fill="url(#paint29_linear_525_662)"/>
<path d="M1486.88 440.065C1472.31 450.587 1449.37 452.424 1415.33 445.889C1381.56 439.401 1340.12 425.529 1292.13 409.465C1160.23 365.315 979.597 304.849 805.895 353.054C652.851 395.51 518.34 505.249 399.665 602.057C343.563 647.821 290.575 691.043 244.058 719.271C192.419 750.564 153.351 760.62 121.19 750.892C82.2259 739.12 52.8424 697.314 31.332 623.146C18.1239 577.516 12.1519 527.769 13.6425 475.281C15.0577 425.261 23.242 372.372 37.9503 318.074C65.8336 215.138 117.458 106.843 187.23 4.88968C255.389 -94.6967 338.898 -185.571 428.751 -257.907C474.508 -294.76 521.481 -326.454 568.351 -352.117C616.863 -378.67 665.247 -398.726 712.155 -411.754C803.169 -437.005 893.352 -432.981 980.2 -399.754C1058.27 -369.902 1133.51 -316.689 1203.83 -241.519C1267.07 -173.95 1324.94 -90.3819 1375.83 6.84167C1421.78 94.6277 1460.94 192.355 1489.09 289.435C1512.32 369.543 1512.82 416.419 1490.68 436.96C1489.48 438.069 1488.21 439.106 1486.88 440.065ZM542.714 487.984C557.62 477.218 572.748 466.679 588.055 456.516C665.96 404.781 737.067 370.415 805.433 351.443C882.691 330.008 967.374 327.825 1064.32 344.776C1147.63 359.339 1224.71 385.131 1292.68 407.891C1340.61 423.937 1382 437.79 1415.66 444.255C1452.22 451.275 1475.68 448.57 1489.5 435.75C1511.14 415.685 1510.49 369.335 1487.46 289.892C1427.16 81.9093 1323.3 -111.374 1202.54 -240.398C1053.95 -399.146 884.526 -457.859 712.584 -410.152C634.274 -388.417 552.478 -346.542 473.498 -289.504C368.805 -213.891 269.031 -111.624 188.645 5.8172C39.3135 224.008 -17.4296 448.852 32.9783 622.694C54.3189 696.294 83.3344 737.712 121.661 749.305C153.337 758.88 191.948 748.875 243.153 717.827C289.57 689.677 342.511 646.497 398.565 600.769C442.704 564.774 491.395 525.05 542.714 487.984Z" fill="url(#paint30_linear_525_662)"/>
<path d="M1474.84 448.196C1460.94 458.234 1438.66 459.318 1405.27 451.666C1372.63 444.191 1332.52 429.313 1286.08 412.086C1154.18 363.169 973.549 296.168 802.447 343.972C651.723 386.081 520.939 498.668 405.547 598C352.974 643.262 303.311 686.013 259.734 714.122C211.359 745.321 174.72 755.802 144.441 747.107C107.878 736.609 80.0747 697.153 59.4464 626.488C46.592 582.453 41.087 534.099 43.0871 482.77C44.974 433.941 53.6773 382.058 68.9186 328.555C97.7453 227.358 150.191 120.244 220.576 18.7984C289.178 -80.0772 372.47 -170.406 461.422 -242.433C506.707 -279.088 552.907 -310.556 598.773 -335.97C646.28 -362.274 693.329 -382.048 738.619 -394.702C783.555 -407.254 828.557 -412.085 872.38 -409.058C913.891 -406.188 955.256 -396.215 995.376 -379.408C1069.16 -348.49 1140.27 -294.11 1206.71 -217.749C1265.59 -150.092 1319.97 -66.3852 1368.33 31.0694C1410.9 116.848 1448.13 212.637 1475.99 308.084C1497.97 383.378 1498.55 427.143 1477.8 445.787C1476.86 446.643 1475.87 447.446 1474.84 448.196ZM802.013 342.518C878.097 321.263 962.101 320.474 1058.82 340.114C1141.86 356.976 1218.78 385.505 1286.66 410.674C1333.05 427.882 1373.12 442.741 1405.65 450.195C1441 458.289 1463.6 456.54 1476.78 444.657C1497.04 426.443 1496.32 383.179 1474.52 308.522C1414.17 101.78 1316.14 -89.6712 1205.55 -216.738C1065.04 -378.186 903.735 -439.206 739.072 -393.206C562.531 -343.911 364.366 -185.705 221.878 19.6568C70.7158 237.528 12.0574 458.552 60.9559 626.063C81.4238 696.207 108.878 735.294 144.884 745.631C174.687 754.191 210.925 743.785 258.87 712.839C302.358 684.79 351.978 642.071 404.509 596.847C459.776 549.274 522.415 495.349 588.815 449.175C664.969 396.188 734.708 361.3 802.013 342.496V342.518Z" fill="url(#paint31_linear_525_662)"/>
<path d="M1462.68 456.729C1449.48 466.277 1427.85 466.618 1395.12 457.855C1363.58 449.415 1324.73 433.549 1279.75 415.174C1147.87 361.315 967.261 287.525 798.994 334.9C726.878 355.191 658.478 394.167 595.046 439.992C528.062 488.363 466.592 544.364 411.953 594.124C362.809 638.887 316.387 681.167 275.659 709.179C230.473 740.231 196.193 751.128 167.758 743.416C133.539 734.135 107.307 696.977 87.5653 629.824C75.0836 587.368 70.0268 540.427 72.5316 490.264C74.8902 442.622 84.1171 391.744 99.8914 339.039C129.657 239.573 182.914 133.646 253.917 32.7024C322.963 -65.453 406.019 -155.242 494.112 -226.956C585.531 -301.382 679.234 -353.464 765.087 -377.651C808.391 -389.838 851.6 -394.185 893.508 -390.571C933.104 -387.157 972.488 -376.557 1010.56 -359.062C1080.1 -327.114 1147.07 -271.575 1209.63 -193.987C1264.17 -126.354 1315.03 -42.4854 1360.87 55.2917C1399.92 138.598 1435.21 232.462 1462.93 326.727C1483.69 397.309 1484.34 438.04 1464.98 454.911C1464.24 455.548 1463.48 456.157 1462.68 456.729ZM594.466 438.497C666.969 386.132 733.793 351.781 798.579 333.543C967.332 286.053 1148.21 359.934 1280.28 413.876C1325.22 432.23 1364.03 448.081 1395.48 456.499C1427.76 465.137 1448.97 464.87 1461.81 455.575C1462.57 455.026 1463.3 454.45 1464 453.84C1482.9 437.37 1482.11 397.079 1461.53 327.096C1425.88 205.807 1345.57 -23.085 1208.5 -193.111C1074.27 -359.615 925.221 -421.246 765.497 -376.317C594.65 -328.222 399.08 -171.182 255.101 33.5009C104.354 247.837 42.2378 470.601 88.9427 629.436C108.538 696.082 134.445 732.922 168.14 742.037C196.127 749.628 230.029 738.806 274.833 708.007C315.477 680.06 361.866 637.808 410.972 593.1C464.479 544.364 525.128 489.124 589.834 441.861C591.381 440.732 592.925 439.61 594.466 438.497Z" fill="url(#paint32_linear_525_662)"/>
<path d="M1450.43 465.654C1437.88 474.722 1416.94 474.32 1384.9 464.463C1354.4 455.077 1316.75 438.237 1273.16 418.735C1141.31 359.754 960.733 278.974 795.546 325.826C649.931 367.129 521.826 490.952 418.892 590.446C373.079 634.747 329.808 676.558 291.853 704.431C290.962 705.085 290.065 705.736 289.183 706.373C248.403 735.829 217.189 746.456 191.127 739.82C159.215 731.699 134.52 696.806 115.652 633.155C103.547 592.3 98.934 546.744 101.948 497.745C104.807 451.292 114.524 401.421 130.836 349.51C161.559 251.788 215.642 147.042 287.235 46.6341C356.733 -50.8289 439.567 -140.074 526.798 -211.482C617.316 -285.581 708.882 -337.146 791.565 -360.599C833.241 -372.422 874.654 -376.289 914.651 -372.08C952.35 -368.116 989.725 -356.888 1025.75 -338.711C1091.05 -305.748 1153.91 -249.055 1212.52 -170.217C1262.69 -102.754 1310.08 -18.7287 1353.39 79.515C1389.18 160.734 1421.64 250.158 1449.85 345.371C1469.4 411.338 1470.13 449.138 1452.13 464.33C1451.59 464.791 1451.02 465.233 1450.43 465.654ZM795.178 324.595C960.851 277.612 1141.67 358.504 1273.7 417.573C1317.25 437.056 1354.87 453.881 1385.29 463.259C1418.36 473.411 1439.32 473.48 1451.28 463.379C1459.88 456.115 1463.97 443.535 1463.77 424.952C1463.55 405.366 1458.58 379.455 1448.59 345.744C1404.47 196.854 1327.52 -13.3572 1211.47 -169.465C1085.61 -338.738 944.473 -402.63 791.928 -359.372C626.784 -312.532 433.812 -156.687 288.325 47.3455C135.766 261.298 71.6921 480.163 116.944 632.81C135.667 695.99 160.045 730.591 191.476 738.593C217.689 745.266 249.365 734.098 291.089 703.415C328.973 675.579 372.225 633.783 417.982 589.532C469.64 539.6 528.194 483.001 591.136 434.615C663.45 379.012 730.18 343.026 795.178 324.595Z" fill="url(#paint33_linear_525_662)"/>
<path d="M1438.09 474.98C1426.21 483.564 1405.96 482.434 1374.61 471.491C1345.1 461.192 1308.6 443.388 1266.32 422.773C1134.5 358.49 953.968 270.45 792.093 316.75C649.27 357.6 525.68 484.768 426.373 586.948C383.796 630.756 343.582 672.137 308.316 699.903C304.354 703.02 300.487 705.942 296.716 708.671C263.224 732.853 236.912 741.667 214.548 736.359C184.909 729.327 161.762 696.673 143.79 636.505C132.053 597.234 127.893 553.076 131.416 505.249C134.752 459.982 144.983 411.108 161.824 360.009C193.457 263.989 248.36 160.439 320.59 60.5208C390.508 -36.2001 473.116 -124.905 559.483 -196.004C649.11 -269.781 738.51 -320.801 818.037 -343.547C858.091 -355.006 897.706 -358.383 935.778 -353.589C971.591 -349.08 1006.97 -337.229 1040.92 -318.364C1072.64 -300.746 1103.94 -276.555 1133.95 -246.461C1161.75 -218.593 1189.14 -184.947 1215.42 -146.456C1261.22 -79.3203 1305.12 4.85736 1345.91 103.737C1377.87 181.266 1407.6 266.389 1436.77 364.01C1455.14 425.468 1455.94 460.458 1439.29 474.053C1438.9 474.376 1438.5 474.685 1438.09 474.98ZM631.51 397.637C687.196 357.42 739.939 330.464 791.763 315.647C954.081 269.222 1134.85 357.374 1266.85 421.744C1309.09 442.34 1345.57 460.116 1375.02 470.407C1407.02 481.574 1427.21 482.442 1438.55 473.176C1446.5 466.669 1450.25 455.132 1449.99 437.915C1449.72 419.778 1445.03 395.713 1435.66 364.338C1370.03 144.804 1295.61 -26.8368 1214.44 -145.8C1097.05 -317.88 963.794 -384.032 818.391 -342.444C661.375 -297.533 466.361 -139.1 321.576 61.19C249.389 161.011 194.542 264.451 162.941 360.359C127.987 466.433 121.902 559.255 144.912 636.182C162.767 695.911 185.631 728.316 214.826 735.238C239.322 741.048 268.795 729.535 307.575 699.003C342.785 671.283 382.97 629.935 425.505 586.155C475.239 534.981 531.604 476.983 592.673 427.43C605.793 416.795 618.739 406.863 631.51 397.637Z" fill="url(#paint34_linear_525_662)"/>
<path d="M1425.66 484.7C1414.44 492.799 1394.88 490.957 1364.25 478.944C1335.7 467.754 1300.28 449.005 1259.27 427.292C1127.47 357.53 946.987 261.986 788.64 307.678C648.775 348.038 529.916 478.682 434.411 583.64C394.976 626.982 357.724 667.923 325.057 695.561C288.877 726.175 261.22 738.068 238.035 732.992C210.623 726.993 188.976 696.535 171.895 639.824C160.531 602.14 156.8 559.379 160.852 512.724C164.663 468.64 175.409 420.78 192.787 370.475C225.336 276.196 281.074 173.817 353.927 74.4152C424.279 -21.5713 506.665 -109.75 592.169 -180.55C680.885 -254.003 768.12 -304.479 844.51 -326.514C882.941 -337.59 920.759 -340.502 956.912 -335.116C990.833 -330.068 1024.21 -317.58 1056.11 -298.036C1085.78 -279.822 1114.99 -255 1142.93 -224.251C1168.65 -195.926 1194.01 -161.763 1218.32 -122.727C1308.92 22.8734 1372.98 214.441 1423.69 382.63C1440.9 439.696 1441.77 471.93 1426.45 484.076C1426.19 484.307 1425.92 484.506 1425.66 484.7ZM788.362 306.694C825.628 295.938 866.79 292.453 910.664 296.344C949.345 299.777 989.913 308.637 1034.64 323.437C1116.29 350.438 1195.85 392.552 1259.78 426.392C1300.77 448.081 1336.17 466.827 1364.65 477.994C1395.62 490.135 1415.04 491.839 1425.8 483.31C1433.12 477.51 1436.53 466.96 1436.22 451.057C1435.9 434.329 1431.48 412.049 1422.7 382.948C1371.99 214.824 1307.96 23.3349 1217.41 -122.164C1108.59 -297.044 983.224 -365.463 844.808 -325.513C693.433 -281.83 501.084 -124.61 354.776 75.0473C281.985 174.371 226.312 276.657 193.778 370.853C157.672 475.373 150.648 565.786 172.9 639.58C189.881 695.88 211.255 726.125 238.261 732.037C261.097 737.039 288.457 725.216 324.373 694.832C356.988 667.24 394.216 626.321 433.628 583.003C481.348 530.551 535.44 471.1 594.537 420.333C662.582 361.854 725.977 324.692 788.348 306.694H788.362Z" fill="url(#paint35_linear_525_662)"/>
<path d="M1413.14 494.81C1402.59 502.424 1383.71 499.886 1353.82 486.831C1326.2 474.777 1291.82 455.096 1252 432.303C1120.23 356.875 939.751 253.569 785.192 298.6C648.454 338.439 534.543 472.696 443.016 580.562C406.622 623.479 372.258 663.969 342.068 691.473C334.619 698.347 326.778 704.801 318.581 710.804C296.231 726.955 277.758 733.014 261.564 729.774C236.336 724.73 216.194 696.401 199.986 643.17C188.995 607.064 185.725 565.701 190.273 520.224C194.561 477.306 205.816 430.471 223.727 380.969C257.219 288.41 313.764 187.219 387.239 88.3292C458.026 -6.94728 540.185 -94.5675 624.835 -165.072C712.641 -238.197 797.749 -288.128 870.964 -309.458C906.9 -319.934 942.095 -322.481 975.568 -317.036C1006.99 -311.932 1037.74 -299.628 1067.02 -280.505C1094.22 -262.734 1120.92 -238.543 1146.39 -208.598C1169.76 -181.108 1192.81 -147.923 1214.89 -109.967C1252.45 -45.3605 1288.15 34.0684 1324.03 132.922C1355.01 218.267 1380.96 303.718 1403.86 379.114C1406.14 386.621 1408.39 394.018 1410.61 401.306C1426.68 454.09 1427.63 483.693 1413.59 494.473L1413.14 494.81ZM784.927 297.76C821.311 287.146 861.742 284.262 905.107 289.154C943.317 293.459 983.536 303.492 1028.08 319.819C1109.31 349.588 1188.69 395.048 1252.47 431.533C1292.26 454.306 1326.62 473.988 1354.19 486.014C1383.75 498.936 1402.34 501.492 1412.59 494.09C1412.73 493.984 1412.88 493.878 1413.02 493.767C1419.73 488.621 1422.81 479 1422.46 464.381C1422.08 449 1417.92 428.45 1409.72 401.56C1407.52 394.284 1405.27 386.887 1402.97 379.367C1356.49 226.319 1298.63 35.8405 1214.08 -109.524C1114.04 -281.539 1001.89 -346.653 871.247 -308.585C814.169 -291.973 750.294 -257.875 684.866 -210.62C583.3 -137.245 477.923 -32.1576 388.004 88.8782C314.595 187.689 258.083 288.808 224.614 381.283C187.348 484.238 179.376 572.269 200.887 642.939C216.986 695.824 236.902 723.95 261.771 728.925C282.999 733.171 308.33 721.081 341.492 690.845C371.602 663.382 405.957 622.888 442.332 580.017C533.916 472.031 647.926 337.664 784.927 297.746V297.76Z" fill="url(#paint36_linear_525_662)"/>
<path d="M1400.53 505.313C1390.65 512.447 1372.46 509.217 1343.33 495.161C1316.61 482.267 1283.22 461.667 1244.56 437.818C1180.95 398.592 1101.79 349.75 1021.05 317.11C926.632 278.937 848.355 269.919 781.739 289.532C648.303 328.818 539.572 466.822 452.2 577.714C406.155 636.155 366.555 686.41 332.411 711.08C315.363 723.393 299.679 729.322 285.239 726.719C262.125 722.567 243.459 696.322 228.161 646.524C217.538 612.001 214.717 572.038 219.774 527.741C224.496 486.015 236.289 440.167 254.719 391.477C289.122 300.639 346.497 200.629 420.595 102.256C456.02 55.2515 494.025 10.1627 534.444 -32.813C574.673 -75.5594 616.09 -114.849 657.563 -149.566C744.44 -222.406 827.401 -271.783 897.461 -292.397C925.924 -300.778 953.827 -303.662 980.384 -300.972C1005.57 -298.42 1030.27 -290.782 1053.8 -278.267C1091.86 -258.022 1128.44 -224.122 1162.54 -177.509C1192.67 -136.313 1220.9 -85.7488 1248.86 -22.9142C1299.97 91.9564 1338.67 222.429 1372.81 337.544C1381.44 366.649 1389.59 394.125 1397.53 419.968C1412.49 468.598 1413.5 495.677 1400.72 505.188C1400.66 505.221 1400.59 505.267 1400.53 505.313ZM781.512 288.794C816.938 278.364 856.615 276.08 899.442 282.01C937.151 287.234 977.03 298.48 1021.35 316.399C1102.15 349.062 1181.34 397.914 1244.98 437.167C1283.62 461.007 1317 481.593 1343.68 494.469C1372.52 508.387 1390.45 511.64 1400.06 504.695L1400.25 504.561C1406.35 500.016 1409.12 491.289 1408.74 477.879C1408.31 463.799 1404.41 444.919 1396.79 420.194C1388.86 394.384 1380.7 366.889 1372.06 337.78C1337.91 222.66 1299.21 92.2098 1248.13 -22.5866C1188.75 -156.059 1125.06 -239.48 1053.42 -277.57C1005.31 -303.164 952.907 -307.899 897.682 -291.636C757.653 -250.408 570.63 -95.6105 421.246 102.731C347.186 201.048 289.867 300.995 255.474 391.767C217.062 493.149 208.118 578.793 228.893 646.321C244.12 695.819 262.597 721.874 285.381 725.982C305.066 729.53 328.425 717.176 358.894 687.111C386.579 659.787 416.712 621.545 451.596 577.28C539.015 466.268 647.836 328.135 781.512 288.794Z" fill="url(#paint37_linear_525_662)"/>
<path d="M79.5 792H313" stroke="#3DDEED" stroke-width="1.5"/>
<path d="M1073 792H1419" stroke="#3DDEED" stroke-width="1.5"/>
</g>
<defs>
<linearGradient id="paint0_linear_525_662" x1="1051.81" y1="1349.65" x2="748.575" y2="-42.7653" gradientUnits="userSpaceOnUse">
<stop stop-color="#3DDEED"/>
<stop offset="1" stop-color="#CB00DD"/>
</linearGradient>
<linearGradient id="paint1_linear_525_662" x1="-1.10449e+06" y1="5.82477e+06" x2="4.04676e+06" y2="5.82477e+06" gradientUnits="userSpaceOnUse">
<stop stop-color="#3DDEED"/>
<stop offset="1" stop-color="#CB00DD"/>
</linearGradient>
<linearGradient id="paint2_linear_525_662" x1="-1.0191e+06" y1="5.69046e+06" x2="3.92102e+06" y2="5.69046e+06" gradientUnits="userSpaceOnUse">
<stop stop-color="#3DDEED"/>
<stop offset="1" stop-color="#CB00DD"/>
</linearGradient>
<linearGradient id="paint3_linear_525_662" x1="-937388" y1="5.55886e+06" x2="3.79721e+06" y2="5.55886e+06" gradientUnits="userSpaceOnUse">
<stop stop-color="#3DDEED"/>
<stop offset="1" stop-color="#CB00DD"/>
</linearGradient>
<linearGradient id="paint4_linear_525_662" x1="-859266" y1="5.43006e+06" x2="3.67535e+06" y2="5.43006e+06" gradientUnits="userSpaceOnUse">
<stop stop-color="#3DDEED"/>
<stop offset="1" stop-color="#CB00DD"/>
</linearGradient>
<linearGradient id="paint5_linear_525_662" x1="-784689" y1="5.3041e+06" x2="3.55568e+06" y2="5.3041e+06" gradientUnits="userSpaceOnUse">
<stop stop-color="#3DDEED"/>
<stop offset="1" stop-color="#CB00DD"/>
</linearGradient>
<linearGradient id="paint6_linear_525_662" x1="-713525" y1="5.18083e+06" x2="3.43779e+06" y2="5.18083e+06" gradientUnits="userSpaceOnUse">
<stop stop-color="#3DDEED"/>
<stop offset="1" stop-color="#CB00DD"/>
</linearGradient>
<linearGradient id="paint7_linear_525_662" x1="-645746" y1="5.06057e+06" x2="3.32206e+06" y2="5.06057e+06" gradientUnits="userSpaceOnUse">
<stop stop-color="#3DDEED"/>
<stop offset="1" stop-color="#CB00DD"/>
</linearGradient>
<linearGradient id="paint8_linear_525_662" x1="-581245" y1="4.94304e+06" x2="3.20818e+06" y2="4.94304e+06" gradientUnits="userSpaceOnUse">
<stop stop-color="#3DDEED"/>
<stop offset="1" stop-color="#CB00DD"/>
</linearGradient>
<linearGradient id="paint9_linear_525_662" x1="-519952" y1="4.82799e+06" x2="3.09628e+06" y2="4.82799e+06" gradientUnits="userSpaceOnUse">
<stop stop-color="#3DDEED"/>
<stop offset="1" stop-color="#CB00DD"/>
</linearGradient>
<linearGradient id="paint10_linear_525_662" x1="-461805" y1="4.71578e+06" x2="2.98634e+06" y2="4.71578e+06" gradientUnits="userSpaceOnUse">
<stop stop-color="#3DDEED"/>
<stop offset="1" stop-color="#CB00DD"/>
</linearGradient>
<linearGradient id="paint11_linear_525_662" x1="-406731" y1="4.60614e+06" x2="2.87836e+06" y2="4.60614e+06" gradientUnits="userSpaceOnUse">
<stop stop-color="#3DDEED"/>
<stop offset="1" stop-color="#CB00DD"/>
</linearGradient>
<linearGradient id="paint12_linear_525_662" x1="-354746" y1="4.49917e+06" x2="2.77239e+06" y2="4.49917e+06" gradientUnits="userSpaceOnUse">
<stop stop-color="#3DDEED"/>
<stop offset="1" stop-color="#CB00DD"/>
</linearGradient>
<linearGradient id="paint13_linear_525_662" x1="-305649" y1="4.39453e+06" x2="2.66843e+06" y2="4.39453e+06" gradientUnits="userSpaceOnUse">
<stop stop-color="#3DDEED"/>
<stop offset="1" stop-color="#CB00DD"/>
</linearGradient>
<linearGradient id="paint14_linear_525_662" x1="-259400" y1="4.29245e+06" x2="2.56634e+06" y2="4.29245e+06" gradientUnits="userSpaceOnUse">
<stop stop-color="#3DDEED"/>
<stop offset="1" stop-color="#CB00DD"/>
</linearGradient>
<linearGradient id="paint15_linear_525_662" x1="-215936" y1="4.19272e+06" x2="2.46617e+06" y2="4.19272e+06" gradientUnits="userSpaceOnUse">
<stop stop-color="#3DDEED"/>
<stop offset="1" stop-color="#CB00DD"/>
</linearGradient>
<linearGradient id="paint16_linear_525_662" x1="-175193" y1="4.09542e+06" x2="2.36791e+06" y2="4.09542e+06" gradientUnits="userSpaceOnUse">
<stop stop-color="#3DDEED"/>
<stop offset="1" stop-color="#CB00DD"/>
</linearGradient>
<linearGradient id="paint17_linear_525_662" x1="-137104" y1="4.00026e+06" x2="2.27148e+06" y2="4.00026e+06" gradientUnits="userSpaceOnUse">
<stop stop-color="#3DDEED"/>
<stop offset="1" stop-color="#CB00DD"/>
</linearGradient>
<linearGradient id="paint18_linear_525_662" x1="-101606" y1="3.90747e+06" x2="2.17705e+06" y2="3.90747e+06" gradientUnits="userSpaceOnUse">
<stop stop-color="#3DDEED"/>
<stop offset="1" stop-color="#CB00DD"/>
</linearGradient>
<linearGradient id="paint19_linear_525_662" x1="-875164" y1="954783" x2="5.53885e+06" y2="-3.88056e+06" gradientUnits="userSpaceOnUse">
<stop stop-color="#3DDEED"/>
<stop offset="1" stop-color="#CB00DD"/>
</linearGradient>
<linearGradient id="paint20_linear_525_662" x1="-757086" y1="917658" x2="5.37585e+06" y2="-3.70579e+06" gradientUnits="userSpaceOnUse">
<stop stop-color="#3DDEED"/>
<stop offset="1" stop-color="#CB00DD"/>
</linearGradient>
<linearGradient id="paint21_linear_525_662" x1="-642994" y1="882017" x2="5.21594e+06" y2="-3.53486e+06" gradientUnits="userSpaceOnUse">
<stop stop-color="#3DDEED"/>
<stop offset="1" stop-color="#CB00DD"/>
</linearGradient>
<linearGradient id="paint22_linear_525_662" x1="-532900" y1="847860" x2="5.05928e+06" y2="-3.36793e+06" gradientUnits="userSpaceOnUse">
<stop stop-color="#3DDEED"/>
<stop offset="1" stop-color="#CB00DD"/>
</linearGradient>
<linearGradient id="paint23_linear_525_662" x1="-426788" y1="815197" x2="4.90604e+06" y2="-3.20507e+06" gradientUnits="userSpaceOnUse">
<stop stop-color="#3DDEED"/>
<stop offset="1" stop-color="#CB00DD"/>
</linearGradient>
<linearGradient id="paint24_linear_525_662" x1="-324648" y1="784004" x2="4.75616e+06" y2="-3.04628e+06" gradientUnits="userSpaceOnUse">
<stop stop-color="#3DDEED"/>
<stop offset="1" stop-color="#CB00DD"/>
</linearGradient>
<linearGradient id="paint25_linear_525_662" x1="-226453" y1="754265" x2="4.60969e+06" y2="-2.89157e+06" gradientUnits="userSpaceOnUse">
<stop stop-color="#3DDEED"/>
<stop offset="1" stop-color="#CB00DD"/>
</linearGradient>
<linearGradient id="paint26_linear_525_662" x1="-132198" y1="726016" x2="4.46683e+06" y2="-2.74106e+06" gradientUnits="userSpaceOnUse">
<stop stop-color="#3DDEED"/>
<stop offset="1" stop-color="#CB00DD"/>
</linearGradient>
<linearGradient id="paint27_linear_525_662" x1="-41855.1" y1="699236" x2="4.32782e+06" y2="-2.59495e+06" gradientUnits="userSpaceOnUse">
<stop stop-color="#3DDEED"/>
<stop offset="1" stop-color="#CB00DD"/>
</linearGradient>
<linearGradient id="paint28_linear_525_662" x1="44545.9" y1="673947" x2="4.1928e+06" y2="-2.45331e+06" gradientUnits="userSpaceOnUse">
<stop stop-color="#3DDEED"/>
<stop offset="1" stop-color="#CB00DD"/>
</linearGradient>
<linearGradient id="paint29_linear_525_662" x1="127063" y1="650106" x2="4.06183e+06" y2="-2.3162e+06" gradientUnits="userSpaceOnUse">
<stop stop-color="#3DDEED"/>
<stop offset="1" stop-color="#CB00DD"/>
</linearGradient>
<linearGradient id="paint30_linear_525_662" x1="205670" y1="627755" x2="3.93502e+06" y2="-2.18369e+06" gradientUnits="userSpaceOnUse">
<stop stop-color="#3DDEED"/>
<stop offset="1" stop-color="#CB00DD"/>
</linearGradient>
<linearGradient id="paint31_linear_525_662" x1="280407" y1="606878" x2="3.81256e+06" y2="-2.05591e+06" gradientUnits="userSpaceOnUse">
<stop stop-color="#3DDEED"/>
<stop offset="1" stop-color="#CB00DD"/>
</linearGradient>
<linearGradient id="paint32_linear_525_662" x1="351275" y1="587467" x2="3.69465e+06" y2="-1.93301e+06" gradientUnits="userSpaceOnUse">
<stop stop-color="#3DDEED"/>
<stop offset="1" stop-color="#CB00DD"/>
</linearGradient>
<linearGradient id="paint33_linear_525_662" x1="418278" y1="569520" x2="3.58124e+06" y2="-1.81495e+06" gradientUnits="userSpaceOnUse">
<stop stop-color="#3DDEED"/>
<stop offset="1" stop-color="#CB00DD"/>
</linearGradient>
<linearGradient id="paint34_linear_525_662" x1="481447" y1="553039" x2="3.47204e+06" y2="-1.70148e+06" gradientUnits="userSpaceOnUse">
<stop stop-color="#3DDEED"/>
<stop offset="1" stop-color="#CB00DD"/>
</linearGradient>
<linearGradient id="paint35_linear_525_662" x1="540765" y1="538021" x2="3.3671e+06" y2="-1.59269e+06" gradientUnits="userSpaceOnUse">
<stop stop-color="#3DDEED"/>
<stop offset="1" stop-color="#CB00DD"/>
</linearGradient>
<linearGradient id="paint36_linear_525_662" x1="596276" y1="524485" x2="3.26609e+06" y2="-1.48822e+06" gradientUnits="userSpaceOnUse">
<stop stop-color="#3DDEED"/>
<stop offset="1" stop-color="#CB00DD"/>
</linearGradient>
<linearGradient id="paint37_linear_525_662" x1="647973" y1="512439" x2="3.16849e+06" y2="-1.38771e+06" gradientUnits="userSpaceOnUse">
<stop stop-color="#3DDEED"/>
<stop offset="1" stop-color="#CB00DD"/>
</linearGradient>
</defs>
</svg>
