<svg width="202" height="202" viewBox="0 0 202 202" fill="none" xmlns="http://www.w3.org/2000/svg">
<g opacity="0.5">
<mask id="path-1-inside-1_890_2622" fill="white">
<path d="M27.4684 167.008C26.61 167.781 25.2857 167.713 24.5308 166.838C7.97518 147.667 -0.780798 122.943 0.0546747 97.575C0.913121 71.5095 11.8311 46.7889 30.5187 28.5978C49.2064 10.4066 74.212 0.158201 100.291 0.00181403C126.37 -0.154573 151.497 9.79325 170.401 27.759C189.306 45.7247 200.52 70.3126 201.691 96.3659C202.861 122.419 193.899 147.914 176.682 167.503C159.466 187.092 135.333 199.254 109.345 201.438C84.0522 203.563 58.9149 196.077 38.9256 180.518C38.0141 179.809 37.8787 178.49 38.6068 177.593C39.3349 176.697 40.6508 176.562 41.5629 177.271C60.7125 192.148 84.7793 199.305 108.995 197.27C133.905 195.177 157.038 183.519 173.541 164.742C190.044 145.965 198.635 121.527 197.512 96.5537C196.39 71.5804 185.641 48.0118 167.52 30.7908C149.399 13.5698 125.314 4.03439 100.316 4.1843C75.3181 4.3342 51.3491 14.1578 33.4362 31.5948C15.5232 49.0319 5.05782 72.7277 4.23496 97.7127C3.43508 122 11.8072 145.671 27.6399 164.039C28.394 164.914 28.3267 166.235 27.4684 167.008Z"/>
</mask>
<path d="M27.4684 167.008C26.61 167.781 25.2857 167.713 24.5308 166.838C7.97518 147.667 -0.780798 122.943 0.0546747 97.575C0.913121 71.5095 11.8311 46.7889 30.5187 28.5978C49.2064 10.4066 74.212 0.158201 100.291 0.00181403C126.37 -0.154573 151.497 9.79325 170.401 27.759C189.306 45.7247 200.52 70.3126 201.691 96.3659C202.861 122.419 193.899 147.914 176.682 167.503C159.466 187.092 135.333 199.254 109.345 201.438C84.0522 203.563 58.9149 196.077 38.9256 180.518C38.0141 179.809 37.8787 178.49 38.6068 177.593C39.3349 176.697 40.6508 176.562 41.5629 177.271C60.7125 192.148 84.7793 199.305 108.995 197.27C133.905 195.177 157.038 183.519 173.541 164.742C190.044 145.965 198.635 121.527 197.512 96.5537C196.39 71.5804 185.641 48.0118 167.52 30.7908C149.399 13.5698 125.314 4.03439 100.316 4.1843C75.3181 4.3342 51.3491 14.1578 33.4362 31.5948C15.5232 49.0319 5.05782 72.7277 4.23496 97.7127C3.43508 122 11.8072 145.671 27.6399 164.039C28.394 164.914 28.3267 166.235 27.4684 167.008Z" stroke="url(#paint0_linear_890_2622)" stroke-opacity="0.5" stroke-width="2" mask="url(#path-1-inside-1_890_2622)"/>
</g>
<circle cx="33.7746" cy="171.723" r="2.13763" fill="#FAFAFA"/>
<defs>
<linearGradient id="paint0_linear_890_2622" x1="100.896" y1="0" x2="100.896" y2="201.792" gradientUnits="userSpaceOnUse">
<stop stop-color="#3DDEED"/>
<stop offset="1" stop-color="#CB00DD"/>
</linearGradient>
</defs>
</svg>
