<svg width="492" height="492" viewBox="0 0 492 492" fill="none" xmlns="http://www.w3.org/2000/svg">
<g opacity="0.5">
<mask id="path-1-inside-1_780_367" fill="white">
<path d="M67.7385 407.343C65.6495 409.224 62.4264 409.058 60.5892 406.931C20.2968 360.272 -1.01306 300.1 1.02027 238.361C3.10952 174.924 29.6811 114.76 75.1623 70.4872C120.643 26.2145 181.501 1.27229 244.971 0.891683C308.441 0.511076 369.593 24.7216 415.602 68.4458C461.611 112.17 488.902 172.011 491.752 235.418C494.602 298.825 472.789 360.873 430.888 408.549C388.988 456.224 330.254 485.823 267.006 491.138C205.45 496.31 144.272 478.09 95.6225 440.224C93.4043 438.498 93.0745 435.287 94.8466 433.105C96.6187 430.923 99.8213 430.596 102.041 432.321C148.647 468.529 207.219 485.946 266.153 480.994C326.78 475.9 383.079 447.528 423.242 401.829C463.406 356.13 484.315 296.654 481.583 235.875C478.852 175.096 452.692 117.736 408.59 75.8245C364.488 33.9129 305.871 10.706 245.032 11.0708C184.193 11.4356 125.858 35.3439 82.2626 77.7813C38.6668 120.219 13.1967 177.889 11.1941 238.696C9.24733 297.805 29.623 355.416 68.156 400.118C69.9912 402.247 69.8274 405.463 67.7385 407.343Z"/>
</mask>
<path d="M67.7385 407.343C65.6495 409.224 62.4264 409.058 60.5892 406.931C20.2968 360.272 -1.01306 300.1 1.02027 238.361C3.10952 174.924 29.6811 114.76 75.1623 70.4872C120.643 26.2145 181.501 1.27229 244.971 0.891683C308.441 0.511076 369.593 24.7216 415.602 68.4458C461.611 112.17 488.902 172.011 491.752 235.418C494.602 298.825 472.789 360.873 430.888 408.549C388.988 456.224 330.254 485.823 267.006 491.138C205.45 496.31 144.272 478.09 95.6225 440.224C93.4043 438.498 93.0745 435.287 94.8466 433.105C96.6187 430.923 99.8213 430.596 102.041 432.321C148.647 468.529 207.219 485.946 266.153 480.994C326.78 475.9 383.079 447.528 423.242 401.829C463.406 356.13 484.315 296.654 481.583 235.875C478.852 175.096 452.692 117.736 408.59 75.8245C364.488 33.9129 305.871 10.706 245.032 11.0708C184.193 11.4356 125.858 35.3439 82.2626 77.7813C38.6668 120.219 13.1967 177.889 11.1941 238.696C9.24733 297.805 29.623 355.416 68.156 400.118C69.9912 402.247 69.8274 405.463 67.7385 407.343Z" stroke="url(#paint0_linear_780_367)" stroke-opacity="0.5" stroke-width="2" mask="url(#path-1-inside-1_780_367)"/>
</g>
<circle cx="83.0863" cy="418.819" r="5.20247" fill="#FAFAFA"/>
<defs>
<linearGradient id="paint0_linear_780_367" x1="246.444" y1="0.887268" x2="246.444" y2="492" gradientUnits="userSpaceOnUse">
<stop stop-color="#3DDEED"/>
<stop offset="1" stop-color="#CB00DD"/>
</linearGradient>
</defs>
</svg>
