<svg width="54" height="55" viewBox="0 0 54 55" fill="none" xmlns="http://www.w3.org/2000/svg">
<path fill-rule="evenodd" clip-rule="evenodd" d="M31.35 42.0901C30.975 41.4789 30.225 41.097 29.55 41.2498C28.725 41.4026 27.9 41.4789 27 41.4789C19.275 41.4789 13.05 34.9095 13.425 26.9651C13.725 19.8609 19.425 14.1317 26.325 13.7498C34.125 13.3678 40.575 19.7081 40.575 27.5762C40.575 31.0137 39.375 34.0692 37.35 36.5137C36.9 37.0484 36.825 37.8887 37.2 38.4998L41.1 45.3748C41.775 46.5206 43.425 46.5206 44.025 45.3748L53.175 29.1803C53.775 28.1109 53.775 26.8123 53.175 25.7428L41.55 5.27062C40.95 4.20117 39.825 3.51367 38.625 3.51367H15.375C14.175 3.51367 13.05 4.20117 12.45 5.27062L0.825 25.7428C0.225 26.8123 0.225 28.1109 0.825 29.1803L12.45 49.7289C13.05 50.7984 14.175 51.4859 15.375 51.4859H33.75C35.025 51.4859 35.85 50.0345 35.25 48.8887L31.35 42.0901Z" fill="#6666FF"/>
<path fill-rule="evenodd" clip-rule="evenodd" d="M26.8499 20.9307C23.0999 20.9307 20.0249 24.0626 20.0249 27.8821C20.0249 31.7015 23.0999 34.8334 26.8499 34.8334C30.5999 34.8334 33.6749 31.7015 33.6749 27.8821C33.5999 24.0626 30.5999 20.9307 26.8499 20.9307Z" fill="#6666FF"/>
</svg>
