<svg width="23" height="22" viewBox="0 0 23 22" fill="none" xmlns="http://www.w3.org/2000/svg">
<path d="M4.67188 2.0625C4.17433 2.0625 3.68796 2.20362 3.27427 2.46803C2.86058 2.73243 2.53814 3.10823 2.34774 3.54792C2.15734 3.9876 2.10752 4.47142 2.20459 4.93819C2.30165 5.40495 2.54124 5.83371 2.89306 6.17023C3.24488 6.50675 3.69312 6.73592 4.1811 6.82876C4.66909 6.92161 5.17489 6.87396 5.63456 6.69184C6.09423 6.50971 6.48712 6.2013 6.76354 5.80559C7.03996 5.40989 7.1875 4.94466 7.1875 4.46875C7.1875 3.83057 6.92246 3.21853 6.45069 2.76727C5.97892 2.31602 5.33906 2.0625 4.67188 2.0625ZM4.67188 5.5C4.45864 5.5 4.2502 5.43952 4.0729 5.3262C3.89561 5.21289 3.75742 5.05183 3.67582 4.86339C3.59422 4.67496 3.57287 4.46761 3.61447 4.26756C3.65607 4.06752 3.75875 3.88377 3.90953 3.73955C4.06031 3.59532 4.25241 3.49711 4.46154 3.45732C4.67068 3.41752 4.88746 3.43795 5.08446 3.516C5.28146 3.59405 5.44984 3.72623 5.5683 3.89582C5.68677 4.06541 5.75 4.26479 5.75 4.46875C5.75 4.74225 5.63641 5.00456 5.43423 5.19795C5.23204 5.39135 4.95781 5.5 4.67188 5.5ZM6.46875 7.5625H2.875C2.68438 7.5625 2.50156 7.63493 2.36677 7.76386C2.23198 7.8928 2.15625 8.06766 2.15625 8.25C2.15625 8.43234 2.23198 8.6072 2.36677 8.73614C2.50156 8.86507 2.68438 8.9375 2.875 8.9375H5.75V18.5625H3.59375V11C3.59375 10.8177 3.51803 10.6428 3.38323 10.5139C3.24844 10.3849 3.06563 10.3125 2.875 10.3125C2.68438 10.3125 2.50156 10.3849 2.36677 10.5139C2.23198 10.6428 2.15625 10.8177 2.15625 11V19.25C2.15625 19.4323 2.23198 19.6072 2.36677 19.7361C2.50156 19.8651 2.68438 19.9375 2.875 19.9375H6.46875C6.65938 19.9375 6.84219 19.8651 6.97698 19.7361C7.11178 19.6072 7.1875 19.4323 7.1875 19.25V8.25C7.1875 8.06766 7.11178 7.8928 6.97698 7.76386C6.84219 7.63493 6.65938 7.5625 6.46875 7.5625ZM19.6506 8.7175C19.2387 8.33405 18.7501 8.03409 18.2141 7.83563C17.6781 7.63716 17.1057 7.54426 16.5313 7.5625H15.8125C14.8144 7.51905 13.8222 7.73023 12.9375 8.17438C12.918 8.00544 12.8337 7.84942 12.701 7.73643C12.5682 7.62343 12.3964 7.56147 12.2188 7.5625H8.625C8.43438 7.5625 8.25156 7.63493 8.11677 7.76386C7.98198 7.8928 7.90625 8.06766 7.90625 8.25V19.25C7.90625 19.4323 7.98198 19.6072 8.11677 19.7361C8.25156 19.8651 8.43438 19.9375 8.625 19.9375H12.2188C12.4094 19.9375 12.5922 19.8651 12.727 19.7361C12.8618 19.6072 12.9375 19.4323 12.9375 19.25V13.0625C12.9375 12.6978 13.089 12.3481 13.3585 12.0902C13.6281 11.8324 13.9938 11.6875 14.375 11.6875C14.7563 11.6875 15.1219 11.8324 15.3915 12.0902C15.6611 12.3481 15.8125 12.6978 15.8125 13.0625V19.25C15.8125 19.4323 15.8882 19.6072 16.023 19.7361C16.1578 19.8651 16.3406 19.9375 16.5313 19.9375H20.125C20.3156 19.9375 20.4984 19.8651 20.6332 19.7361C20.768 19.6072 20.8438 19.4323 20.8438 19.25V11.6875C20.8644 11.1411 20.7694 10.5963 20.5643 10.0859C20.3593 9.57554 20.0485 9.11008 19.6506 8.7175ZM19.4063 18.5625H17.25V13.0625C17.25 12.3332 16.9471 11.6337 16.4079 11.118C15.8688 10.6022 15.1375 10.3125 14.375 10.3125C13.6125 10.3125 12.8812 10.6022 12.3421 11.118C11.8029 11.6337 11.5 12.3332 11.5 13.0625V18.5625H9.34375V8.9375H11.5V9.625C11.5007 9.76073 11.5434 9.89322 11.6227 10.0058C11.702 10.1183 11.8144 10.2059 11.9456 10.2575C12.0765 10.3101 12.2208 10.3245 12.3602 10.2988C12.4996 10.2731 12.628 10.2085 12.7291 10.1131C13.4119 9.42562 13.9509 8.9375 15.8125 8.9375H16.5313C16.9157 8.9217 17.2996 8.97989 17.6601 9.10861C18.0206 9.23734 18.3504 9.43398 18.63 9.68688C18.8922 9.95405 19.096 10.2687 19.2293 10.6122C19.3626 10.9558 19.4228 11.3214 19.4063 11.6875V18.5625Z" fill="#FAFAFA"/>
</svg>
