<svg width="20" height="20" viewBox="0 0 20 20" fill="none" xmlns="http://www.w3.org/2000/svg">
<path d="M14.4501 4.55001C14.2523 4.55001 14.059 4.60865 13.8945 4.71854C13.7301 4.82842 13.6019 4.9846 13.5262 5.16732C13.4505 5.35005 13.4307 5.55111 13.4693 5.7451C13.5079 5.93908 13.6031 6.11726 13.743 6.25711C13.8828 6.39696 14.061 6.49221 14.255 6.53079C14.449 6.56938 14.65 6.54957 14.8328 6.47388C15.0155 6.3982 15.1717 6.27002 15.2816 6.10558C15.3914 5.94113 15.4501 5.74779 15.4501 5.55001C15.4501 5.28479 15.3447 5.03043 15.1572 4.8429C14.9697 4.65536 14.7153 4.55001 14.4501 4.55001ZM18.2834 6.56667C18.2672 5.87525 18.1377 5.19117 17.9001 4.54167C17.6882 3.98595 17.3584 3.48274 16.9334 3.06667C16.5208 2.63953 16.0164 2.31182 15.4584 2.10834C14.8106 1.86347 14.1258 1.73101 13.4334 1.71667C12.5501 1.66667 12.2667 1.66667 10.0001 1.66667C7.73342 1.66667 7.45008 1.66667 6.56675 1.71667C5.87438 1.73101 5.18953 1.86347 4.54175 2.10834C3.98481 2.31388 3.48086 2.64131 3.06675 3.06667C2.6396 3.47932 2.3119 3.9837 2.10841 4.54167C1.86355 5.18946 1.73109 5.8743 1.71675 6.56667C1.66675 7.45001 1.66675 7.73334 1.66675 10C1.66675 12.2667 1.66675 12.55 1.71675 13.4333C1.73109 14.1257 1.86355 14.8106 2.10841 15.4583C2.3119 16.0163 2.6396 16.5207 3.06675 16.9333C3.48086 17.3587 3.98481 17.6861 4.54175 17.8917C5.18953 18.1365 5.87438 18.269 6.56675 18.2833C7.45008 18.3333 7.73342 18.3333 10.0001 18.3333C12.2667 18.3333 12.5501 18.3333 13.4334 18.2833C14.1258 18.269 14.8106 18.1365 15.4584 17.8917C16.0164 17.6882 16.5208 17.3605 16.9334 16.9333C17.3603 16.5188 17.6904 16.0152 17.9001 15.4583C18.1377 14.8088 18.2672 14.1248 18.2834 13.4333C18.2834 12.55 18.3334 12.2667 18.3334 10C18.3334 7.73334 18.3334 7.45001 18.2834 6.56667ZM16.7834 13.3333C16.7773 13.8623 16.6815 14.3864 16.5001 14.8833C16.367 15.246 16.1533 15.5737 15.8751 15.8417C15.6048 16.1171 15.2778 16.3304 14.9167 16.4667C14.4198 16.6481 13.8957 16.7439 13.3667 16.75C12.5334 16.7917 12.2251 16.8 10.0334 16.8C7.84175 16.8 7.53341 16.8 6.70008 16.75C6.15082 16.7603 5.60391 16.6757 5.08341 16.5C4.73823 16.3567 4.42621 16.144 4.16675 15.875C3.89016 15.6073 3.67912 15.2793 3.55008 14.9167C3.34663 14.4126 3.23378 13.8766 3.21675 13.3333C3.21675 12.5 3.16675 12.1917 3.16675 10C3.16675 7.80834 3.16675 7.50001 3.21675 6.66667C3.22048 6.12589 3.31921 5.58996 3.50841 5.08334C3.65512 4.7316 3.8803 4.41805 4.16675 4.16667C4.41993 3.88015 4.73282 3.65259 5.08341 3.50001C5.59137 3.31671 6.12675 3.2209 6.66675 3.21667C7.50008 3.21667 7.80841 3.16667 10.0001 3.16667C12.1917 3.16667 12.5001 3.16667 13.3334 3.21667C13.8624 3.22274 14.3865 3.31854 14.8834 3.50001C15.2621 3.64055 15.602 3.86904 15.8751 4.16667C16.1482 4.42265 16.3615 4.73562 16.5001 5.08334C16.6853 5.59078 16.7812 6.12649 16.7834 6.66667C16.8251 7.50001 16.8334 7.80834 16.8334 10C16.8334 12.1917 16.8251 12.5 16.7834 13.3333ZM10.0001 5.72501C9.15492 5.72665 8.32922 5.97878 7.62729 6.44952C6.92537 6.92026 6.37873 7.5885 6.05644 8.3698C5.73416 9.1511 5.65068 10.0104 5.81658 10.8391C5.98247 11.6678 6.39028 12.4288 6.98848 13.0258C7.58668 13.6229 8.34842 14.0292 9.17746 14.1935C10.0065 14.3577 10.8656 14.2726 11.6463 13.9488C12.427 13.625 13.0941 13.077 13.5635 12.3742C14.0329 11.6714 14.2834 10.8452 14.2834 10C14.2845 9.43759 14.1744 8.88051 13.9594 8.3608C13.7445 7.84109 13.4289 7.36901 13.0308 6.97171C12.6327 6.57442 12.16 6.25974 11.6399 6.04578C11.1198 5.83182 10.5625 5.72281 10.0001 5.72501ZM10.0001 12.775C9.45124 12.775 8.91472 12.6123 8.45837 12.3073C8.00203 12.0024 7.64635 11.569 7.43632 11.062C7.22628 10.5549 7.17133 9.99693 7.2784 9.45863C7.38548 8.92033 7.64977 8.42587 8.03786 8.03778C8.42595 7.64969 8.92041 7.3854 9.45871 7.27833C9.997 7.17125 10.555 7.22621 11.062 7.43624C11.5691 7.64627 12.0025 8.00195 12.3074 8.4583C12.6123 8.91464 12.7751 9.45116 12.7751 10C12.7751 10.3644 12.7033 10.7253 12.5638 11.062C12.4244 11.3986 12.22 11.7045 11.9623 11.9622C11.7046 12.2199 11.3987 12.4243 11.062 12.5638C10.7253 12.7032 10.3645 12.775 10.0001 12.775Z" fill="#FAFAFA"/>
</svg>
