<svg width="70" height="68" viewBox="0 0 70 68" fill="none" xmlns="http://www.w3.org/2000/svg">
<g clip-path="url(#clip0_515_5383)">
<path fill-rule="evenodd" clip-rule="evenodd" d="M63.4375 17C63.4375 11.1361 58.5364 6.375 52.5 6.375H17.5C11.4636 6.375 6.5625 11.1361 6.5625 17V51C6.5625 56.8639 11.4636 61.625 17.5 61.625H52.5C58.5364 61.625 63.4375 56.8639 63.4375 51V17Z" fill="#95D6A4"/>
<path fill-rule="evenodd" clip-rule="evenodd" d="M10.9386 8.50098C9.56485 10.2764 8.75 12.4843 8.75 14.8749V48.8749C8.75 54.7388 13.6511 59.4999 19.6875 59.4999H54.6875C57.1484 59.4999 59.4213 58.7083 61.2489 57.3738C59.2528 59.9546 56.0755 61.6249 52.5 61.6249H17.5C11.4636 61.6249 6.5625 56.8638 6.5625 50.9999V16.9999C6.5625 13.5266 8.28188 10.44 10.9386 8.50098Z" fill="#78C2A4"/>
<path fill-rule="evenodd" clip-rule="evenodd" d="M39.375 40.375C39.0852 40.375 38.8063 40.4866 38.6018 40.6863C38.3961 40.885 38.2812 41.1559 38.2812 41.4375C38.2812 43.0706 38.2812 46.1794 38.2812 47.8125C38.2812 48.399 37.7913 48.875 37.1875 48.875C34.2048 48.875 25.9514 48.875 22.9688 48.875C22.365 48.875 21.875 48.399 21.875 47.8125C21.875 43.1853 21.875 24.8147 21.875 20.1875C21.875 19.601 22.365 19.125 22.9688 19.125C25.7436 19.125 33.2719 19.125 39.375 19.125C44.2072 19.125 48.125 22.9309 48.125 27.625C48.125 29.0243 48.125 30.4757 48.125 31.875C48.125 36.5691 44.2072 40.375 39.375 40.375ZM38.2812 36.125C41.3011 36.125 43.75 33.7461 43.75 30.8125C43.75 30.1102 43.75 29.3898 43.75 28.6875C43.75 25.7539 41.3011 23.375 38.2812 23.375C34.3919 23.375 29.4919 23.375 27.3438 23.375C26.74 23.375 26.25 23.851 26.25 24.4375C26.25 28.0649 26.25 39.9351 26.25 43.5625C26.25 43.8441 26.3648 44.115 26.5705 44.3137C26.775 44.5134 27.0539 44.625 27.3438 44.625C28.7995 44.625 31.3567 44.625 32.8125 44.625C33.1023 44.625 33.3812 44.5134 33.5857 44.3137C33.7914 44.115 33.9062 43.8441 33.9062 43.5625C33.9062 41.9294 33.9062 38.8206 33.9062 37.1875C33.9062 36.9059 34.0211 36.635 34.2268 36.4363C34.4313 36.2366 34.7102 36.125 35 36.125C35.8269 36.125 37.03 36.125 38.2812 36.125Z" fill="#F9F6F9"/>
</g>
<defs>
<clipPath id="clip0_515_5383">
<rect width="70" height="68" fill="white"/>
</clipPath>
</defs>
</svg>
