<svg width="61" height="60" viewBox="0 0 61 60" fill="none" xmlns="http://www.w3.org/2000/svg">
<g clip-path="url(#clip0_515_5375)">
<path d="M6.94443 19.8462H0.1875C0.1875 8.86154 9.29058 0 20.3644 0V6.64615C13.0444 6.64615 6.94443 12.5538 6.94443 19.8462Z" fill="#1273EB"/>
<path d="M53.586 39.6924H60.3429C60.3429 50.677 51.2399 59.5385 40.166 59.5385V52.8924C47.5799 52.9847 53.586 47.077 53.586 39.6924Z" fill="#1273EB"/>
<path d="M39.6965 23.5384C37.2565 22.3384 33.4088 21.1384 29.9365 21.0461C26.8396 21.0461 25.2442 22.1538 25.2442 23.8153C25.2442 25.5692 27.4965 26.0307 30.218 26.3999L32.9396 26.7692C39.6026 27.7845 43.2626 30.6461 43.2626 35.723C43.2626 41.9076 38.1011 45.9691 29.2796 45.9691C25.1503 45.9691 19.7073 45.2307 15.6719 42.4615L18.9565 36.2768C21.5842 37.9384 24.775 39.2307 29.3734 39.2307C33.2211 39.2307 35.0042 38.2153 35.0042 36.3692C35.0042 34.8922 33.5026 34.0615 29.9365 33.5999L27.4026 33.2307C20.3642 32.3076 16.798 29.2615 16.798 24.0922C16.798 17.9076 21.678 14.3076 29.655 14.3076C34.535 14.3076 38.3826 15.2307 42.418 17.1692L39.6965 23.5384Z" fill="#FAFAFA"/>
</g>
<defs>
<clipPath id="clip0_515_5375">
<rect width="61" height="60" fill="white"/>
</clipPath>
</defs>
</svg>
