<svg width="24" height="22" viewBox="0 0 24 22" fill="none" xmlns="http://www.w3.org/2000/svg">
<path d="M21.5774 5.57563C21.5292 5.52085 21.4708 5.4743 21.4049 5.43813C21.5723 5.14239 21.6887 4.82467 21.7499 4.49625C21.7736 4.36467 21.755 4.22961 21.6964 4.10754C21.6378 3.98547 21.5417 3.88166 21.4199 3.80875C21.2975 3.73483 21.154 3.69543 21.0074 3.69543C20.8608 3.69543 20.7174 3.73483 20.5949 3.80875C20.0747 4.1186 19.494 4.33337 18.8849 4.44125C18.185 3.83901 17.2992 3.44973 16.3487 3.32666C15.3982 3.2036 14.4294 3.35276 13.5749 3.75375C12.683 4.18176 11.971 4.86871 11.5503 5.70714C11.1296 6.54558 11.024 7.48818 11.2499 8.3875C11.2897 8.56984 11.4069 8.73022 11.5756 8.83337C11.7444 8.93651 11.951 8.97397 12.1499 8.9375C12.3488 8.90104 12.5238 8.79363 12.6363 8.63891C12.7488 8.4842 12.7897 8.29484 12.7499 8.1125C12.5946 7.51544 12.6572 6.88816 12.9282 6.32684C13.1991 5.76553 13.6634 5.30118 14.2499 5.005C14.882 4.71087 15.6032 4.61878 16.2989 4.74334C16.9946 4.8679 17.625 5.20197 18.0899 5.6925C18.1749 5.77086 18.2793 5.82926 18.3942 5.86277C18.5091 5.89628 18.6311 5.90391 18.7499 5.885H18.9374C18.8523 5.96575 18.7901 6.06437 18.7562 6.17225C18.7223 6.28012 18.7177 6.39397 18.7429 6.50384C18.768 6.61371 18.8221 6.71626 18.9005 6.80253C18.9789 6.8888 19.0791 6.95617 19.1924 6.99875C19.0962 7.07113 19.0211 7.16434 18.974 7.26996C18.9268 7.37558 18.9091 7.49029 18.9224 7.60375C19.0468 9.06849 18.7776 10.5389 18.1382 11.8861C17.4988 13.2333 16.5088 14.4162 15.2549 15.3313C13.9689 16.3428 12.4126 17.023 10.7456 17.302C9.07851 17.5811 7.3605 17.449 5.76741 16.9194C7.03413 16.7248 8.21474 16.2052 9.17241 15.4206C9.26905 15.3195 9.33121 15.1946 9.3512 15.0614C9.3712 14.9282 9.34815 14.7926 9.28491 14.6713C9.22252 14.551 9.1234 14.45 8.99958 14.3805C8.87577 14.3109 8.73258 14.2758 8.58741 14.2794C8.15974 14.2763 7.73772 14.1895 7.34966 14.0246C6.9616 13.8598 6.61647 13.6209 6.33741 13.3238C6.59891 13.2776 6.8516 13.1965 7.08741 13.0831C7.22843 13.0196 7.34411 12.917 7.41812 12.79C7.49214 12.6629 7.52075 12.5178 7.49991 12.375C7.47975 12.2372 7.41448 12.1082 7.31272 12.0051C7.21096 11.902 7.07748 11.8296 6.92991 11.7975C6.43779 11.6896 5.97915 11.4798 5.58915 11.1843C5.19914 10.8887 4.88812 10.5153 4.67991 10.0925C4.85991 10.0925 5.03991 10.1269 5.23491 10.1338C5.39303 10.1445 5.55079 10.109 5.68554 10.0324C5.82029 9.95586 5.9251 9.8421 5.98491 9.7075C6.0385 9.57295 6.04489 9.42642 6.00321 9.28837C5.96152 9.15032 5.87384 9.02765 5.75241 8.9375C4.49991 7.8925 4.19241 6.77188 4.37241 5.98125C5.78704 7.35389 7.61414 8.31093 9.62241 8.73125C9.7209 8.74841 9.82212 8.74761 9.92027 8.72891C10.0184 8.71021 10.1116 8.67397 10.1945 8.62226C10.2774 8.57055 10.3483 8.50438 10.4033 8.42753C10.4583 8.35068 10.4962 8.26466 10.5149 8.17438C10.5336 8.0841 10.5328 7.99132 10.5124 7.90134C10.492 7.81137 10.4524 7.72595 10.396 7.64998C10.3396 7.57401 10.2674 7.50897 10.1836 7.45857C10.0997 7.40818 10.0059 7.37341 9.90741 7.35625C7.8744 6.91959 6.06785 5.85363 4.79241 4.33813C4.72497 4.25976 4.63971 4.1958 4.54257 4.15068C4.44543 4.10557 4.33874 4.08038 4.22991 4.07688C4.12023 4.07315 4.011 4.09154 3.90992 4.13074C3.80884 4.16994 3.71837 4.229 3.64491 4.30375C3.15917 4.89058 2.87725 5.59779 2.83578 6.33344C2.79432 7.06909 2.99524 7.79916 3.41241 8.42875H3.34491C3.23405 8.48401 3.14018 8.56401 3.07201 8.66135C3.00384 8.75869 2.96356 8.87023 2.95491 8.98563C2.94268 9.56422 3.06704 10.1384 3.31947 10.6688C3.5719 11.1993 3.94643 11.6734 4.41741 12.0588C4.32995 12.1518 4.2713 12.2647 4.24756 12.3856C4.22382 12.5065 4.23585 12.6311 4.28241 12.7463C4.71675 13.8078 5.56709 14.6829 6.66741 15.2006C5.49499 15.6051 4.2526 15.8123 2.99991 15.8125C2.83624 15.814 2.6776 15.8646 2.54821 15.9565C2.41882 16.0484 2.32577 16.1766 2.28328 16.3215C2.24079 16.4664 2.25118 16.6201 2.31286 16.759C2.37454 16.898 2.48414 17.0147 2.62491 17.0913C4.54521 18.1731 6.74634 18.7642 8.99991 18.8031C11.6379 18.7755 14.1832 17.9078 16.1999 16.3488C17.5924 15.3324 18.7043 14.0298 19.4457 12.5464C20.1871 11.063 20.5371 9.44042 20.4674 7.81C21.0356 7.42056 21.4597 6.88062 21.6824 6.26313C21.733 6.1503 21.75 6.02716 21.7315 5.90634C21.7131 5.78552 21.6599 5.67138 21.5774 5.57563Z" fill="#FAFAFA"/>
</svg>
