<svg width="297" height="37" viewBox="0 0 297 37" fill="none" xmlns="http://www.w3.org/2000/svg">
<path d="M5.52 28.32L5.05545 29.2055L5.06408 29.2101L5.07279 29.2144L5.52 28.32ZM1.76 24.72L0.880968 25.1968L0.885812 25.2057L0.890836 25.2145L1.76 24.72ZM0.48 0.999998V-1.90735e-06H-0.52V0.999998H0.48ZM5.76 0.999998H6.76V-1.90735e-06H5.76V0.999998ZM7.2 23.36L6.48321 24.0574L6.49289 24.0671L7.2 23.36ZM15.64 23.36L14.9328 22.6528L14.9233 22.6626L15.64 23.36ZM17.12 0.999998V-1.90735e-06H16.12V0.999998H17.12ZM22.4 0.999998H23.4V-1.90735e-06H22.4V0.999998ZM21.08 24.72L20.2072 24.2318L20.2044 24.2369L21.08 24.72ZM17.32 28.32L17.7731 29.2115L17.7786 29.2086L17.32 28.32ZM11.44 28.56C9.26532 28.56 7.4523 28.1681 5.96721 27.4256L5.07279 29.2144C6.89437 30.1252 9.02801 30.56 11.44 30.56V28.56ZM5.98455 27.4345C4.52163 26.667 3.41133 25.6002 2.62916 24.2255L0.890836 25.2145C1.86867 26.9331 3.26504 28.2663 5.05545 29.2055L5.98455 27.4345ZM2.63903 24.2432C1.87901 22.842 1.48 21.1587 1.48 19.16H-0.52C-0.52 21.428 -0.0656805 23.4514 0.880968 25.1968L2.63903 24.2432ZM1.48 19.16V0.999998H-0.52V19.16H1.48ZM0.48 2H5.76V-1.90735e-06H0.48V2ZM4.76 0.999998V19.32H6.76V0.999998H4.76ZM4.76 19.32C4.76 21.2213 5.30037 22.8416 6.48327 24.0574L7.91673 22.6626C7.17963 21.9051 6.76 20.8321 6.76 19.32H4.76ZM6.49289 24.0671C7.72111 25.2953 9.42244 25.84 11.44 25.84V23.84C9.77756 23.84 8.65222 23.398 7.90711 22.6529L6.49289 24.0671ZM11.44 25.84C13.4558 25.84 15.1516 25.296 16.3567 24.0574L14.9233 22.6626C14.2084 23.3974 13.1042 23.84 11.44 23.84V25.84ZM16.3471 24.0671C17.5616 22.8526 18.12 21.2289 18.12 19.32H16.12C16.12 20.8244 15.6918 21.894 14.9329 22.6529L16.3471 24.0671ZM18.12 19.32V0.999998H16.12V19.32H18.12ZM17.12 2H22.4V-1.90735e-06H17.12V2ZM21.4 0.999998V19.16H23.4V0.999998H21.4ZM21.4 19.16C21.4 21.1538 20.9897 22.8329 20.2072 24.2318L21.9528 25.2082C22.9303 23.4604 23.4 21.4328 23.4 19.16H21.4ZM20.2044 24.2369C19.4521 25.6006 18.3485 26.6638 16.8614 27.4314L17.7786 29.2086C19.5982 28.2695 21.0013 26.9327 21.9556 25.2031L20.2044 24.2369ZM16.867 27.4285C15.4121 28.1679 13.6154 28.56 11.44 28.56V30.56C13.8513 30.56 15.9746 30.1255 17.7731 29.2115L16.867 27.4285ZM27.515 29H26.515V30H27.515V29ZM27.515 0.999998V-1.90735e-06H26.515V0.999998H27.515ZM32.795 0.999998H33.795V-1.90735e-06H32.795V0.999998ZM32.795 29V30H33.795V29H32.795ZM28.515 29V0.999998H26.515V29H28.515ZM27.515 2H32.795V-1.90735e-06H27.515V2ZM31.795 0.999998V29H33.795V0.999998H31.795ZM32.795 28H27.515V30H32.795V28ZM34.7819 37L33.8313 36.6895L33.4032 38H34.7819V37ZM46.5419 0.999998V-1.90735e-06H45.8165L45.5913 0.68948L46.5419 0.999998ZM51.5819 0.999998L52.5324 1.31052L52.9605 -1.90735e-06H51.5819V0.999998ZM39.8219 37V38H40.5472L40.7724 37.3105L39.8219 37ZM35.7324 37.3105L47.4924 1.31052L45.5913 0.68948L33.8313 36.6895L35.7324 37.3105ZM46.5419 2H51.5819V-1.90735e-06H46.5419V2ZM50.6313 0.68948L38.8713 36.6895L40.7724 37.3105L52.5324 1.31052L50.6313 0.68948ZM39.8219 36H34.7819V38H39.8219V36ZM58.4497 28.32L57.9851 29.2055L57.9938 29.2101L58.0025 29.2144L58.4497 28.32ZM54.6897 24.72L53.8107 25.1968L53.8155 25.2057L53.8205 25.2145L54.6897 24.72ZM53.4097 0.999998V-1.90735e-06H52.4097V0.999998H53.4097ZM58.6897 0.999998H59.6897V-1.90735e-06H58.6897V0.999998ZM60.1297 23.36L59.4129 24.0574L59.4226 24.0671L60.1297 23.36ZM68.5697 23.36L67.8625 22.6528L67.853 22.6626L68.5697 23.36ZM70.0497 0.999998V-1.90735e-06H69.0497V0.999998H70.0497ZM75.3297 0.999998H76.3297V-1.90735e-06H75.3297V0.999998ZM74.0097 24.72L73.1369 24.2318L73.1341 24.2369L74.0097 24.72ZM70.2497 28.32L70.7027 29.2115L70.7083 29.2086L70.2497 28.32ZM64.3697 28.56C62.195 28.56 60.382 28.1681 58.8969 27.4256L58.0025 29.2144C59.8241 30.1252 61.9577 30.56 64.3697 30.56V28.56ZM58.9142 27.4345C57.4513 26.667 56.341 25.6002 55.5589 24.2255L53.8205 25.2145C54.7984 26.9331 56.1947 28.2663 57.9851 29.2055L58.9142 27.4345ZM55.5687 24.2432C54.8087 22.842 54.4097 21.1587 54.4097 19.16H52.4097C52.4097 21.428 52.864 23.4514 53.8107 25.1968L55.5687 24.2432ZM54.4097 19.16V0.999998H52.4097V19.16H54.4097ZM53.4097 2H58.6897V-1.90735e-06H53.4097V2ZM57.6897 0.999998V19.32H59.6897V0.999998H57.6897ZM57.6897 19.32C57.6897 21.2213 58.2301 22.8416 59.413 24.0574L60.8464 22.6626C60.1093 21.9051 59.6897 20.8321 59.6897 19.32H57.6897ZM59.4226 24.0671C60.6508 25.2953 62.3521 25.84 64.3697 25.84V23.84C62.7073 23.84 61.5819 23.398 60.8368 22.6529L59.4226 24.0671ZM64.3697 25.84C66.3855 25.84 68.0813 25.296 69.2864 24.0574L67.853 22.6626C67.1381 23.3974 66.0339 23.84 64.3697 23.84V25.84ZM69.2768 24.0671C70.4913 22.8526 71.0497 21.2289 71.0497 19.32H69.0497C69.0497 20.8244 68.6215 21.894 67.8626 22.6529L69.2768 24.0671ZM71.0497 19.32V0.999998H69.0497V19.32H71.0497ZM70.0497 2H75.3297V-1.90735e-06H70.0497V2ZM74.3297 0.999998V19.16H76.3297V0.999998H74.3297ZM74.3297 19.16C74.3297 21.1538 73.9194 22.8329 73.1369 24.2318L74.8824 25.2082C75.86 23.4604 76.3297 21.4328 76.3297 19.16H74.3297ZM73.1341 24.2369C72.3817 25.6006 71.2782 26.6638 69.791 27.4314L70.7083 29.2086C72.5279 28.2695 73.931 26.9327 74.8853 25.2031L73.1341 24.2369ZM69.7966 27.4285C68.3418 28.1679 66.5451 28.56 64.3697 28.56V30.56C66.781 30.56 68.9043 30.1255 70.7027 29.2115L69.7966 27.4285ZM78.6847 29L77.8199 28.4978L76.9476 30H78.6847V29ZM86.8847 14.88L87.7494 15.3822L88.0422 14.8782L87.7478 14.375L86.8847 14.88ZM78.7647 0.999998V-1.90735e-06H77.0211L77.9015 1.50495L78.7647 0.999998ZM84.7647 0.999998L85.6411 0.518478L85.3563 -1.90735e-06H84.7647V0.999998ZM90.3247 11.12L89.4482 11.6015L89.7331 12.12H90.3247V11.12ZM91.0447 11.12V12.12H91.6363L91.9211 11.6015L91.0447 11.12ZM96.6047 0.999998V-1.90735e-06H96.0131L95.7283 0.518478L96.6047 0.999998ZM102.605 0.999998L103.468 1.50495L104.348 -1.90735e-06H102.605V0.999998ZM94.4847 14.88L93.6215 14.375L93.3272 14.8782L93.6199 15.3822L94.4847 14.88ZM102.685 29V30H104.422L103.549 28.4978L102.685 29ZM96.6847 29L95.8064 29.4781L96.0905 30H96.6847V29ZM91.0447 18.64L91.923 18.1619L91.6389 17.64H91.0447V18.64ZM90.3247 18.64V17.64H89.7305L89.4464 18.1619L90.3247 18.64ZM84.6847 29V30H85.2789L85.563 29.4781L84.6847 29ZM79.5494 29.5022L87.7494 15.3822L86.0199 14.3778L77.8199 28.4978L79.5494 29.5022ZM87.7478 14.375L79.6278 0.495045L77.9015 1.50495L86.0215 15.385L87.7478 14.375ZM78.7647 2H84.7647V-1.90735e-06H78.7647V2ZM83.8883 1.48152L89.4482 11.6015L91.2011 10.6385L85.6411 0.518478L83.8883 1.48152ZM90.3247 12.12H91.0447V10.12H90.3247V12.12ZM91.9211 11.6015L97.4811 1.48152L95.7283 0.518478L90.1683 10.6385L91.9211 11.6015ZM96.6047 2H102.605V-1.90735e-06H96.6047V2ZM101.742 0.495045L93.6215 14.375L95.3478 15.385L103.468 1.50495L101.742 0.495045ZM93.6199 15.3822L101.82 29.5022L103.549 28.4978L95.3494 14.3778L93.6199 15.3822ZM102.685 28H96.6847V30H102.685V28ZM97.563 28.5219L91.923 18.1619L90.1664 19.1181L95.8064 29.4781L97.563 28.5219ZM91.0447 17.64H90.3247V19.64H91.0447V17.64ZM89.4464 18.1619L83.8064 28.5219L85.563 29.4781L91.203 19.1181L89.4464 18.1619ZM84.6847 28H78.6847V30H84.6847V28ZM115.543 29H114.543V30H115.543V29ZM115.543 24.36V23.36H114.543V24.36H115.543ZM119.223 24.36V25.36H120.223V24.36H119.223ZM119.223 5.64H120.223V4.64H119.223V5.64ZM115.543 5.64H114.543V6.64H115.543V5.64ZM115.543 0.999998V-1.90735e-06H114.543V0.999998H115.543ZM135.623 3.88L134.921 4.59203L134.931 4.60158L135.623 3.88ZM135.623 26.16L136.32 26.8769L136.32 26.8767L135.623 26.16ZM124.503 24.2H123.503V25.2H124.503V24.2ZM131.823 22.52L132.573 23.181L131.823 22.52ZM131.823 7.48L131.073 8.14108L131.081 8.14996L131.823 7.48ZM124.503 5.8V4.8H123.503V5.8H124.503ZM116.543 29V24.36H114.543V29H116.543ZM115.543 25.36H119.223V23.36H115.543V25.36ZM120.223 24.36V5.64H118.223V24.36H120.223ZM119.223 4.64H115.543V6.64H119.223V4.64ZM116.543 5.64V0.999998H114.543V5.64H116.543ZM115.543 2H127.063V-1.90735e-06H115.543V2ZM127.063 2C130.661 2 133.222 2.91679 134.921 4.59197L136.325 3.16803C134.13 1.0032 130.985 -1.90735e-06 127.063 -1.90735e-06V2ZM134.931 4.60158C136.643 6.24425 137.583 8.76737 137.583 12.36H139.583C139.583 8.43262 138.55 5.30241 136.315 3.15842L134.931 4.60158ZM137.583 12.36V17.64H139.583V12.36H137.583ZM137.583 17.64C137.583 21.2316 136.643 23.7722 134.926 25.4433L136.32 26.8767C138.55 24.7078 139.583 21.5684 139.583 17.64H137.583ZM134.926 25.4431C133.228 27.0946 130.664 28 127.063 28V30C130.982 30 134.125 29.0121 136.32 26.8769L134.926 25.4431ZM127.063 28H115.543V30H127.063V28ZM124.503 25.2H127.143V23.2H124.503V25.2ZM127.143 25.2C129.437 25.2 131.327 24.5962 132.573 23.181L131.073 21.859C130.346 22.6838 129.116 23.2 127.143 23.2V25.2ZM132.573 23.181C133.771 21.8219 134.303 19.9823 134.303 17.8H132.303C132.303 19.671 131.849 20.9781 131.073 21.859L132.573 23.181ZM134.303 17.8V12.2H132.303V17.8H134.303ZM134.303 12.2C134.303 9.99685 133.773 8.14861 132.566 6.81003L131.081 8.14996C131.846 8.99805 132.303 10.2965 132.303 12.2H134.303ZM132.573 6.81897C131.327 5.40382 129.437 4.8 127.143 4.8V6.8C129.116 6.8 130.346 7.31617 131.073 8.14103L132.573 6.81897ZM127.143 4.8H124.503V6.8H127.143V4.8ZM123.503 5.8V24.2H125.503V5.8H123.503ZM142.984 29H141.984V30H142.984V29ZM142.984 0.999998V-1.90735e-06H141.984V0.999998H142.984ZM160.984 0.999998H161.984V-1.90735e-06H160.984V0.999998ZM160.984 5.8V6.8H161.984V5.8H160.984ZM148.264 5.8V4.8H147.264V5.8H148.264ZM148.264 12.48H147.264V13.48H148.264V12.48ZM159.864 12.48H160.864V11.48H159.864V12.48ZM159.864 17.28V18.28H160.864V17.28H159.864ZM148.264 17.28V16.28H147.264V17.28H148.264ZM148.264 24.2H147.264V25.2H148.264V24.2ZM161.224 24.2H162.224V23.2H161.224V24.2ZM161.224 29V30H162.224V29H161.224ZM143.984 29V0.999998H141.984V29H143.984ZM142.984 2H160.984V-1.90735e-06H142.984V2ZM159.984 0.999998V5.8H161.984V0.999998H159.984ZM160.984 4.8H148.264V6.8H160.984V4.8ZM147.264 5.8V12.48H149.264V5.8H147.264ZM148.264 13.48H159.864V11.48H148.264V13.48ZM158.864 12.48V17.28H160.864V12.48H158.864ZM159.864 16.28H148.264V18.28H159.864V16.28ZM147.264 17.28V24.2H149.264V17.28H147.264ZM148.264 25.2H161.224V23.2H148.264V25.2ZM160.224 24.2V29H162.224V24.2H160.224ZM161.224 28H142.984V30H161.224V28ZM169.132 28.4L168.708 29.3058L169.132 28.4ZM165.252 25.08L166.091 24.5361L165.252 25.08ZM163.852 18.76V17.76H162.852V18.76H163.852ZM169.052 18.76H170.052V17.76H169.052V18.76ZM170.612 23.68L169.978 24.4531L169.984 24.458L169.99 24.4628L170.612 23.68ZM178.892 23.84L178.27 23.0569L178.265 23.0614L178.259 23.066L178.892 23.84ZM179.572 19.2L178.825 19.8644L178.835 19.8756L178.845 19.8866L179.572 19.2ZM177.652 18.04L177.291 18.9726L177.309 18.9795L177.327 18.9857L177.652 18.04ZM174.612 17.16L174.829 16.1838L174.825 16.1828L174.612 17.16ZM173.692 16.96L173.475 17.9362L173.48 17.9372L173.692 16.96ZM168.732 15.36L168.292 16.2579L168.303 16.2631L168.313 16.268L168.732 15.36ZM165.572 12.76L164.743 13.3195L164.748 13.3265L164.753 13.3335L165.572 12.76ZM165.692 4.24L164.863 3.68114L164.86 3.6853L165.692 4.24ZM169.132 1.44L169.532 2.35657L169.54 2.35314L169.132 1.44ZM179.692 1.48L179.283 2.39251L179.293 2.39673L179.302 2.40075L179.692 1.48ZM183.372 4.52L182.533 5.06325L182.539 5.07285L182.545 5.08231L183.372 4.52ZM184.732 10.76V11.76H185.732V10.76H184.732ZM179.532 10.76H178.532V11.76H179.532V10.76ZM178.892 7L178.035 7.5145L178.047 7.5349L178.06 7.5547L178.892 7ZM177.132 5.56L176.75 6.48402L176.764 6.48971L176.778 6.495L177.132 5.56ZM170.812 6L171.43 6.78632L171.434 6.78349L170.812 6ZM170.212 10.2L169.402 10.7855L169.412 10.7999L169.423 10.8139L170.212 10.2ZM171.852 11.4L172.258 10.4862L171.852 11.4ZM174.612 12.24L174.825 11.2628L174.822 11.2622L174.612 12.24ZM175.532 12.44L175.32 13.4172L175.324 13.418L175.532 12.44ZM180.732 14.08L180.318 14.9904L180.325 14.9931L180.732 14.08ZM184.212 16.72L185.01 16.1169L184.212 16.72ZM184.132 25.44L183.303 24.8814L183.3 24.8853L184.132 25.44ZM180.452 28.48L180.868 29.3893L180.875 29.3862L180.452 28.48ZM174.852 28.56C172.812 28.56 171.054 28.1951 169.556 27.4942L168.708 29.3058C170.517 30.1515 172.572 30.56 174.852 30.56V28.56ZM169.556 27.4942C168.061 26.7949 166.916 25.8088 166.091 24.5361L164.413 25.6239C165.455 27.2312 166.897 28.4584 168.708 29.3058L169.556 27.4942ZM166.091 24.5361C165.281 23.2855 164.852 21.7492 164.852 19.88H162.852C162.852 22.0642 163.357 23.9945 164.413 25.6239L166.091 24.5361ZM164.852 19.88V18.76H162.852V19.88H164.852ZM163.852 19.76H169.052V17.76H163.852V19.76ZM168.052 18.76V19.88H170.052V18.76H168.052ZM168.052 19.88C168.052 21.7781 168.65 23.3636 169.978 24.4531L171.247 22.9069C170.494 22.2897 170.052 21.3419 170.052 19.88H168.052ZM169.99 24.4628C171.259 25.4719 172.917 25.92 174.852 25.92V23.92C173.214 23.92 172.045 23.5415 171.234 22.8972L169.99 24.4628ZM174.852 25.92C176.768 25.92 178.388 25.5449 179.525 24.614L178.259 23.066C177.637 23.5751 176.563 23.92 174.852 23.92V25.92ZM179.514 24.6231C180.65 23.7208 181.252 22.5168 181.252 21.08H179.252C179.252 21.8832 178.947 22.5192 178.27 23.0569L179.514 24.6231ZM181.252 21.08C181.252 20.0981 180.958 19.2104 180.299 18.5134L178.845 19.8866C179.094 20.1496 179.252 20.5152 179.252 21.08H181.252ZM180.32 18.5356C179.742 17.8855 178.931 17.4221 177.977 17.0943L177.327 18.9857C178.08 19.2446 178.549 19.5545 178.825 19.8644L180.32 18.5356ZM178.013 17.1074C177.126 16.7639 176.061 16.4575 174.829 16.1838L174.395 18.1362C175.563 18.3958 176.525 18.6761 177.291 18.9726L178.013 17.1074ZM174.825 16.1828L173.905 15.9828L173.48 17.9372L174.4 18.1372L174.825 16.1828ZM173.909 15.9838C172.04 15.5684 170.458 15.055 169.151 14.452L168.313 16.268C169.78 16.945 171.504 17.4982 173.475 17.9362L173.909 15.9838ZM169.172 14.4621C167.939 13.8576 167.026 13.0937 166.391 12.1865L164.753 13.3335C165.611 14.5597 166.805 15.5291 168.292 16.2579L169.172 14.4621ZM166.401 12.2005C165.824 11.3452 165.492 10.1712 165.492 8.6H163.492C163.492 10.4421 163.881 12.0415 164.743 13.3195L166.401 12.2005ZM165.492 8.6C165.492 7.05386 165.853 5.80221 166.524 4.7947L164.86 3.6853C163.932 5.07779 163.492 6.73281 163.492 8.6H165.492ZM166.521 4.79885C167.233 3.7427 168.225 2.927 169.532 2.35654L168.732 0.52346C167.106 1.233 165.805 2.28397 164.863 3.68115L166.521 4.79885ZM169.54 2.35314C170.88 1.75501 172.482 1.44 174.372 1.44V-0.560001C172.262 -0.560001 170.371 -0.208349 168.725 0.526862L169.54 2.35314ZM174.372 1.44C176.256 1.44 177.886 1.76629 179.283 2.39251L180.101 0.56749C178.405 -0.19296 176.488 -0.560001 174.372 -0.560001V1.44ZM179.302 2.40075C180.702 2.99389 181.767 3.88067 182.533 5.06325L184.212 3.97675C183.217 2.43932 181.829 1.29944 180.082 0.559247L179.302 2.40075ZM182.545 5.08231C183.313 6.2117 183.732 7.68225 183.732 9.56H185.732C185.732 7.38441 185.244 5.49496 184.199 3.95769L182.545 5.08231ZM183.732 9.56V10.76H185.732V9.56H183.732ZM184.732 9.76H179.532V11.76H184.732V9.76ZM180.532 10.76V9.56H178.532V10.76H180.532ZM180.532 9.56C180.532 8.3697 180.295 7.30177 179.724 6.4453L178.06 7.5547C178.342 7.97823 178.532 8.61696 178.532 9.56H180.532ZM179.75 6.4855C179.226 5.61337 178.456 4.99257 177.487 4.625L176.778 6.495C177.355 6.71409 177.758 7.05329 178.035 7.5145L179.75 6.4855ZM177.515 4.63598C176.592 4.25411 175.535 4.08 174.372 4.08V6.08C175.342 6.08 176.126 6.22589 176.75 6.48402L177.515 4.63598ZM174.372 4.08C172.676 4.08 171.221 4.39932 170.191 5.2165L171.434 6.78349C171.95 6.37401 172.868 6.08 174.372 6.08V4.08ZM170.194 5.21368C169.181 6.0097 168.692 7.12662 168.692 8.44H170.692C170.692 7.67337 170.95 7.16363 171.43 6.78632L170.194 5.21368ZM168.692 8.44C168.692 9.30647 168.912 10.1073 169.402 10.7855L171.023 9.61451C170.819 9.3327 170.692 8.9602 170.692 8.44H168.692ZM169.423 10.8139C169.923 11.4567 170.619 11.9461 171.446 12.3138L172.258 10.4862C171.646 10.2139 171.248 9.90329 171.002 9.58606L169.423 10.8139ZM171.446 12.3138C172.251 12.6714 173.243 12.9692 174.403 13.2178L174.822 11.2622C173.742 11.0308 172.894 10.7686 172.258 10.4862L171.446 12.3138ZM174.4 13.2172L175.32 13.4172L175.745 11.4628L174.825 11.2628L174.4 13.2172ZM175.324 13.418C177.271 13.8334 178.932 14.3603 180.318 14.9904L181.146 13.1696C179.599 12.4664 177.794 11.8999 175.741 11.462L175.324 13.418ZM180.325 14.9931C181.694 15.6043 182.708 16.3881 183.415 17.3231L185.01 16.1169C184.063 14.8652 182.758 13.889 181.14 13.1669L180.325 14.9931ZM183.415 17.3231C184.081 18.204 184.452 19.3767 184.452 20.92H186.452C186.452 19.0499 185.997 17.4227 185.01 16.1169L183.415 17.3231ZM184.452 20.92C184.452 22.445 184.062 23.7537 183.303 24.8814L184.962 25.9986C185.962 24.513 186.452 22.8083 186.452 20.92H184.452ZM183.3 24.8853C182.563 25.9914 181.488 26.893 180.029 27.5738L180.875 29.3862C182.616 28.5737 183.995 27.4486 184.964 25.9947L183.3 24.8853ZM180.036 27.5707C178.622 28.218 176.903 28.56 174.852 28.56V30.56C177.121 30.56 179.136 30.182 180.868 29.3893L180.036 27.5707ZM189.39 29H188.39V30H189.39V29ZM189.39 0.999998V-1.90735e-06H188.39V0.999998H189.39ZM194.67 0.999998H195.67V-1.90735e-06H194.67V0.999998ZM194.67 29V30H195.67V29H194.67ZM190.39 29V0.999998H188.39V29H190.39ZM189.39 2H194.67V-1.90735e-06H189.39V2ZM193.67 0.999998V29H195.67V0.999998H193.67ZM194.67 28H189.39V30H194.67V28ZM204.377 28.28L203.882 29.1492L203.891 29.1542L203.9 29.159L204.377 28.28ZM200.657 24.48L199.777 24.9549L199.781 24.9633L199.786 24.9716L200.657 24.48ZM202.337 3.36L203.025 4.08597L203.03 4.0812L202.337 3.36ZM218.537 3.2L217.835 3.91217L217.84 3.91722L217.845 3.9222L218.537 3.2ZM221.377 10.76V11.76H222.377V10.76H221.377ZM216.177 10.76H215.177V11.76H216.177V10.76ZM215.537 7.76L214.642 8.20721L214.648 8.21898L214.655 8.23059L215.537 7.76ZM213.697 5.88L213.195 6.74479L213.205 6.75093L213.216 6.75681L213.697 5.88ZM206.177 23.16L205.429 23.8244L205.437 23.8327L206.177 23.16ZM214.857 23.4L214.102 22.7443L214.857 23.4ZM216.177 19.16H217.177V18.16H216.177V19.16ZM209.537 19.16H208.537V20.16H209.537V19.16ZM209.537 14.68V13.68H208.537V14.68H209.537ZM221.377 14.68H222.377V13.68H221.377V14.68ZM221.377 29V30H222.377V29H221.377ZM216.497 29H215.497V30H216.497V29ZM216.497 26.32H217.497V25.32H216.497V26.32ZM215.777 26.32V25.32H215.107L214.852 25.9393L215.777 26.32ZM214.857 27.76L214.092 27.1159L214.082 27.128L214.072 27.1404L214.857 27.76ZM213.017 29.04L212.63 28.1178L213.017 29.04ZM209.617 28.56C207.851 28.56 206.27 28.1692 204.854 27.401L203.9 29.159C205.63 30.0975 207.543 30.56 209.617 30.56V28.56ZM204.871 27.4108C203.493 26.6264 202.378 25.4951 201.528 23.9884L199.786 24.9716C200.802 26.7716 202.168 28.1736 203.882 29.1492L204.871 27.4108ZM201.537 24.0051C200.727 22.5038 200.297 20.636 200.297 18.36H198.297C198.297 20.884 198.774 23.0962 199.777 24.9549L201.537 24.0051ZM200.297 18.36V11.64H198.297V18.36H200.297ZM200.297 11.64C200.297 8.23078 201.251 5.76631 203.025 4.08595L201.649 2.63405C199.37 4.79369 198.297 7.84922 198.297 11.64H200.297ZM203.03 4.0812C204.829 2.35311 207.305 1.44 210.577 1.44V-0.560001C206.916 -0.560001 203.898 0.473552 201.644 2.6388L203.03 4.0812ZM210.577 1.44C213.839 1.44 216.208 2.30878 217.835 3.91217L219.239 2.48782C217.132 0.411212 214.195 -0.560001 210.577 -0.560001V1.44ZM217.845 3.9222C219.504 5.51139 220.377 7.69669 220.377 10.6H222.377C222.377 7.26331 221.356 4.51528 219.229 2.4778L217.845 3.9222ZM220.377 10.6V10.76H222.377V10.6H220.377ZM221.377 9.76H216.177V11.76H221.377V9.76ZM217.177 10.76V10.44H215.177V10.76H217.177ZM217.177 10.44C217.177 9.30401 216.93 8.24678 216.419 7.28941L214.655 8.23059C214.997 8.87322 215.177 9.60265 215.177 10.44H217.177ZM216.431 7.31279C215.935 6.32071 215.173 5.54873 214.178 5.00319L213.216 6.75681C213.875 7.11794 214.338 7.59929 214.642 8.20721L216.431 7.31279ZM214.199 5.01521C213.179 4.42322 211.953 4.16 210.577 4.16V6.16C211.707 6.16 212.561 6.37678 213.195 6.74479L214.199 5.01521ZM210.577 4.16C208.49 4.16 206.737 4.81005 205.445 6.19889L206.909 7.5611C207.75 6.65661 208.93 6.16 210.577 6.16V4.16ZM205.445 6.19889C204.164 7.57528 203.577 9.40242 203.577 11.56H205.577C205.577 9.77091 206.056 8.47805 206.909 7.5611L205.445 6.19889ZM203.577 11.56V18.44H205.577V11.56H203.577ZM203.577 18.44C203.577 20.577 204.167 22.4043 205.429 23.8244L206.924 22.4956C206.053 21.5157 205.577 20.1963 205.577 18.44H203.577ZM205.437 23.8327C206.732 25.2578 208.52 25.92 210.657 25.92V23.92C208.954 23.92 207.755 23.4089 206.917 22.4873L205.437 23.8327ZM210.657 25.92C212.738 25.92 214.471 25.3689 215.612 24.0557L214.102 22.7443C213.482 23.4577 212.416 23.92 210.657 23.92V25.92ZM215.612 24.0557C216.674 22.833 217.177 21.3086 217.177 19.56H215.177C215.177 20.9047 214.8 21.9403 214.102 22.7443L215.612 24.0557ZM217.177 19.56V19.16H215.177V19.56H217.177ZM216.177 18.16H209.537V20.16H216.177V18.16ZM210.537 19.16V14.68H208.537V19.16H210.537ZM209.537 15.68H221.377V13.68H209.537V15.68ZM220.377 14.68V29H222.377V14.68H220.377ZM221.377 28H216.497V30H221.377V28ZM217.497 29V26.32H215.497V29H217.497ZM216.497 25.32H215.777V27.32H216.497V25.32ZM214.852 25.9393C214.716 26.2702 214.474 26.6624 214.092 27.1159L215.622 28.4041C216.093 27.8443 216.464 27.2765 216.702 26.7007L214.852 25.9393ZM214.072 27.1404C213.81 27.4724 213.358 27.8125 212.63 28.1178L213.404 29.9622C214.329 29.5742 215.104 29.0609 215.642 28.3796L214.072 27.1404ZM212.63 28.1178C211.978 28.3914 210.995 28.56 209.617 28.56V30.56C211.119 30.56 212.403 30.382 213.404 29.9622L212.63 28.1178ZM226.421 29H225.421V30H226.421V29ZM226.421 0.999998V-1.90735e-06H225.421V0.999998H226.421ZM236.461 0.999998L237.436 0.777824L237.259 -1.90735e-06H236.461V0.999998ZM242.021 25.4L241.046 25.6222L241.223 26.4H242.021V25.4ZM242.741 25.4V26.4H243.741V25.4H242.741ZM242.741 0.999998V-1.90735e-06H241.741V0.999998H242.741ZM247.941 0.999998H248.941V-1.90735e-06H247.941V0.999998ZM247.941 29V30H248.941V29H247.941ZM237.901 29L236.926 29.2222L237.103 30H237.901V29ZM232.341 4.6L233.316 4.37783L233.139 3.6H232.341V4.6ZM231.621 4.6V3.6H230.621V4.6H231.621ZM231.621 29V30H232.621V29H231.621ZM227.421 29V0.999998H225.421V29H227.421ZM226.421 2H236.461V-1.90735e-06H226.421V2ZM235.486 1.22217L241.046 25.6222L242.996 25.1778L237.436 0.777824L235.486 1.22217ZM242.021 26.4H242.741V24.4H242.021V26.4ZM243.741 25.4V0.999998H241.741V25.4H243.741ZM242.741 2H247.941V-1.90735e-06H242.741V2ZM246.941 0.999998V29H248.941V0.999998H246.941ZM247.941 28H237.901V30H247.941V28ZM238.876 28.7778L233.316 4.37783L231.366 4.82217L236.926 29.2222L238.876 28.7778ZM232.341 3.6H231.621V5.6H232.341V3.6ZM230.621 4.6V29H232.621V4.6H230.621ZM231.621 28H226.421V30H231.621V28ZM253.218 29H252.218V30H253.218V29ZM253.218 0.999998V-1.90735e-06H252.218V0.999998H253.218ZM271.218 0.999998H272.218V-1.90735e-06H271.218V0.999998ZM271.218 5.8V6.8H272.218V5.8H271.218ZM258.498 5.8V4.8H257.498V5.8H258.498ZM258.498 12.48H257.498V13.48H258.498V12.48ZM270.098 12.48H271.098V11.48H270.098V12.48ZM270.098 17.28V18.28H271.098V17.28H270.098ZM258.498 17.28V16.28H257.498V17.28H258.498ZM258.498 24.2H257.498V25.2H258.498V24.2ZM271.458 24.2H272.458V23.2H271.458V24.2ZM271.458 29V30H272.458V29H271.458ZM254.218 29V0.999998H252.218V29H254.218ZM253.218 2H271.218V-1.90735e-06H253.218V2ZM270.218 0.999998V5.8H272.218V0.999998H270.218ZM271.218 4.8H258.498V6.8H271.218V4.8ZM257.498 5.8V12.48H259.498V5.8H257.498ZM258.498 13.48H270.098V11.48H258.498V13.48ZM269.098 12.48V17.28H271.098V12.48H269.098ZM270.098 16.28H258.498V18.28H270.098V16.28ZM257.498 17.28V24.2H259.498V17.28H257.498ZM258.498 25.2H271.458V23.2H258.498V25.2ZM270.458 24.2V29H272.458V24.2H270.458ZM271.458 28H253.218V30H271.458V28ZM275.367 29H274.367V30H275.367V29ZM275.367 0.999998V-1.90735e-06H274.367V0.999998H275.367ZM292.127 1.92L291.702 2.82524L292.127 1.92ZM295.167 4.52L296.008 3.97924V3.97924L295.167 4.52ZM295.047 13.04L295.839 13.6497H295.839L295.047 13.04ZM292.087 15.32L291.708 14.3945L291.087 14.6486V15.32H292.087ZM292.087 16.04H291.087V16.9912L292.037 17.0388L292.087 16.04ZM294.567 17.16L293.803 17.8059L293.809 17.8133L293.816 17.8206L294.567 17.16ZM295.447 29V30H296.447V29H295.447ZM290.167 29H289.167V30H290.167V29ZM289.647 19.04L288.866 19.6647L288.878 19.6801L288.891 19.6949L289.647 19.04ZM280.647 18.44V17.44H279.647V18.44H280.647ZM280.647 29V30H281.647V29H280.647ZM280.647 13.64H279.647V14.64H280.647V13.64ZM289.887 12.64L290.58 13.3608L290.58 13.3603L289.887 12.64ZM289.927 6.84L289.219 7.54711L289.226 7.55404L289.233 7.56083L289.927 6.84ZM280.647 5.8V4.8H279.647V5.8H280.647ZM276.367 29V0.999998H274.367V29H276.367ZM275.367 2H287.527V-1.90735e-06H275.367V2ZM287.527 2C289.171 2 290.554 2.28647 291.702 2.82524L292.551 1.01476C291.086 0.326862 289.402 -1.90735e-06 287.527 -1.90735e-06V2ZM291.702 2.82524C292.853 3.36563 293.716 4.11227 294.325 5.06076L296.008 3.97924C295.177 2.68773 294.014 1.70103 292.551 1.01476L291.702 2.82524ZM294.325 5.06075C294.928 5.99751 295.247 7.12388 295.247 8.48H297.247C297.247 6.79612 296.846 5.28248 296.008 3.97924L294.325 5.06075ZM295.247 8.48V8.96H297.247V8.48H295.247ZM295.247 8.96C295.247 10.4819 294.886 11.6089 294.254 12.4303L295.839 13.6497C296.807 12.3911 297.247 10.7981 297.247 8.96H295.247ZM294.254 12.4303C293.558 13.3354 292.712 13.9837 291.708 14.3945L292.465 16.2455C293.808 15.6963 294.935 14.8246 295.839 13.6497L294.254 12.4303ZM291.087 15.32V16.04H293.087V15.32H291.087ZM292.037 17.0388C292.88 17.0809 293.427 17.3612 293.803 17.8059L295.33 16.5141C294.533 15.5722 293.427 15.1058 292.137 15.0412L292.037 17.0388ZM293.816 17.8206C294.203 18.2608 294.447 18.8976 294.447 19.84H296.447C296.447 18.5424 296.103 17.3925 295.317 16.4994L293.816 17.8206ZM294.447 19.84V29H296.447V19.84H294.447ZM295.447 28H290.167V30H295.447V28ZM291.167 29V20.6H289.167V29H291.167ZM291.167 20.6C291.167 19.772 290.938 19.003 290.402 18.3851L288.891 19.6949C289.049 19.877 289.167 20.148 289.167 20.6H291.167ZM290.427 18.4153C289.837 17.6772 288.925 17.44 288.007 17.44V19.44C288.634 19.44 288.816 19.6028 288.866 19.6647L290.427 18.4153ZM288.007 17.44H280.647V19.44H288.007V17.44ZM279.647 18.44V29H281.647V18.44H279.647ZM280.647 28H275.367V30H280.647V28ZM280.647 14.64H286.967V12.64H280.647V14.64ZM286.967 14.64C288.397 14.64 289.649 14.2559 290.58 13.3608L289.193 11.9192C288.738 12.3575 288.043 12.64 286.967 12.64V14.64ZM290.58 13.3603C291.52 12.4549 291.967 11.2758 291.967 9.92H289.967C289.967 10.8042 289.693 11.4384 289.193 11.9197L290.58 13.3603ZM291.967 9.92V9.52H289.967V9.92H291.967ZM291.967 9.52C291.967 8.17661 291.542 7.0056 290.62 6.11917L289.233 7.56083C289.698 8.00773 289.967 8.62339 289.967 9.52H291.967ZM290.634 6.13289C289.701 5.19981 288.427 4.8 286.967 4.8V6.8C288.066 6.8 288.766 7.09352 289.219 7.54711L290.634 6.13289ZM286.967 4.8H280.647V6.8H286.967V4.8ZM279.647 5.8V13.64H281.647V5.8H279.647Z" fill="#FAFAFA" fill-opacity="0.18"/>
</svg>
