<svg width="1110" height="138" viewBox="0 0 1110 138" fill="none" xmlns="http://www.w3.org/2000/svg">
<path d="M19.2 105.45L18.7355 106.336L18.7441 106.34L18.7528 106.344L19.2 105.45ZM5.1 91.95L4.22097 92.4268L4.22581 92.4357L4.23084 92.4445L5.1 91.95ZM0.3 2.99999V1.99999H-0.7V2.99999H0.3ZM20.1 2.99999H21.1V1.99999H20.1V2.99999ZM25.5 86.85L24.7832 87.5474L24.7929 87.5571L25.5 86.85ZM57.15 86.85L56.4428 86.1428L56.4333 86.1526L57.15 86.85ZM62.7 2.99999V1.99999H61.7V2.99999H62.7ZM82.5 2.99999H83.5V1.99999H82.5V2.99999ZM77.55 91.95L76.6772 91.4618L76.6744 91.4669L77.55 91.95ZM63.45 105.45L63.9031 106.342L63.9086 106.339L63.45 105.45ZM41.4 109.1C32.9187 109.1 25.679 107.571 19.6472 104.556L18.7528 106.344C25.121 109.529 32.6813 111.1 41.4 111.1V109.1ZM19.6646 104.564C13.7283 101.45 9.17133 97.0835 5.96916 91.4555L4.23084 92.4445C7.62868 98.4165 12.4717 103.05 18.7355 106.336L19.6646 104.564ZM5.97903 91.4732C2.87235 85.7453 1.3 78.9654 1.3 71.1H-0.7C-0.7 79.2346 0.927653 86.3547 4.22097 92.4268L5.97903 91.4732ZM1.3 71.1V2.99999H-0.7V71.1H1.3ZM0.3 3.99999H20.1V1.99999H0.3V3.99999ZM19.1 2.99999V71.7H21.1V2.99999H19.1ZM19.1 71.7C19.1 78.2946 20.9604 83.6183 24.7833 87.5474L26.2167 86.1526C22.8396 82.6817 21.1 77.9054 21.1 71.7H19.1ZM24.7929 87.5571C28.7344 91.4987 34.3224 93.4 41.4 93.4V91.4C34.6776 91.4 29.6656 89.6013 26.2071 86.1429L24.7929 87.5571ZM41.4 93.4C48.4758 93.4 54.0216 91.4993 57.8667 87.5474L56.4333 86.1526C53.0784 89.6007 48.1242 91.4 41.4 91.4V93.4ZM57.8571 87.5571C61.7849 83.6293 63.7 78.3023 63.7 71.7H61.7C61.7 77.8977 59.9151 82.6707 56.4429 86.1429L57.8571 87.5571ZM63.7 71.7V2.99999H61.7V71.7H63.7ZM62.7 3.99999H82.5V1.99999H62.7V3.99999ZM81.5 2.99999V71.1H83.5V2.99999H81.5ZM81.5 71.1C81.5 78.9605 79.8797 85.7362 76.6772 91.4619L78.4228 92.4382C81.8203 86.3638 83.5 79.2395 83.5 71.1H81.5ZM76.6744 91.4669C73.5754 97.0839 69.0252 101.447 62.9914 104.561L63.9086 106.339C70.2748 103.053 75.1246 98.4161 78.4256 92.4331L76.6744 91.4669ZM62.9969 104.559C57.0687 107.571 49.882 109.1 41.4 109.1V111.1C50.118 111.1 57.6313 109.529 63.9031 106.341L62.9969 104.559ZM101.681 108H100.681V109H101.681V108ZM101.681 2.99999V1.99999H100.681V2.99999H101.681ZM121.481 2.99999H122.481V1.99999H121.481V2.99999ZM121.481 108V109H122.481V108H121.481ZM102.681 108V2.99999H100.681V108H102.681ZM101.681 3.99999H121.481V1.99999H101.681V3.99999ZM120.481 2.99999V108H122.481V2.99999H120.481ZM121.481 107H101.681V109H121.481V107ZM128.932 138L127.981 137.689L127.553 139H128.932V138ZM173.032 2.99999V1.99999H172.307L172.081 2.68948L173.032 2.99999ZM191.932 2.99999L192.883 3.31051L193.311 1.99999H191.932V2.99999ZM147.832 138V139H148.557L148.783 138.311L147.832 138ZM129.883 138.311L173.983 3.31051L172.081 2.68948L127.981 137.689L129.883 138.311ZM173.032 3.99999H191.932V1.99999H173.032V3.99999ZM190.981 2.68948L146.881 137.689L148.783 138.311L192.883 3.31051L190.981 2.68948ZM147.832 137H128.932V139H147.832V137ZM217.686 105.45L217.222 106.336L217.23 106.34L217.239 106.344L217.686 105.45ZM203.586 91.95L202.707 92.4268L202.712 92.4357L202.717 92.4445L203.586 91.95ZM198.786 2.99999V1.99999H197.786V2.99999H198.786ZM218.586 2.99999H219.586V1.99999H218.586V2.99999ZM223.986 86.85L223.27 87.5474L223.279 87.5571L223.986 86.85ZM255.636 86.85L254.929 86.1428L254.92 86.1526L255.636 86.85ZM261.186 2.99999V1.99999H260.186V2.99999H261.186ZM280.986 2.99999H281.986V1.99999H280.986V2.99999ZM276.036 91.95L275.164 91.4618L275.161 91.4669L276.036 91.95ZM261.936 105.45L262.389 106.342L262.395 106.339L261.936 105.45ZM239.886 109.1C231.405 109.1 224.165 107.571 218.134 104.556L217.239 106.344C223.607 109.529 231.168 111.1 239.886 111.1V109.1ZM218.151 104.564C212.215 101.45 207.658 97.0835 204.455 91.4555L202.717 92.4445C206.115 98.4165 210.958 103.05 217.222 106.336L218.151 104.564ZM204.465 91.4732C201.359 85.7453 199.786 78.9654 199.786 71.1H197.786C197.786 79.2346 199.414 86.3547 202.707 92.4268L204.465 91.4732ZM199.786 71.1V2.99999H197.786V71.1H199.786ZM198.786 3.99999H218.586V1.99999H198.786V3.99999ZM217.586 2.99999V71.7H219.586V2.99999H217.586ZM217.586 71.7C217.586 78.2946 219.447 83.6183 223.27 87.5474L224.703 86.1526C221.326 82.6817 219.586 77.9054 219.586 71.7H217.586ZM223.279 87.5571C227.221 91.4987 232.809 93.4 239.886 93.4V91.4C233.164 91.4 228.152 89.6013 224.693 86.1429L223.279 87.5571ZM239.886 93.4C246.962 93.4 252.508 91.4993 256.353 87.5474L254.92 86.1526C251.565 89.6007 246.611 91.4 239.886 91.4V93.4ZM256.343 87.5571C260.271 83.6293 262.186 78.3023 262.186 71.7H260.186C260.186 77.8977 258.401 82.6707 254.929 86.1429L256.343 87.5571ZM262.186 71.7V2.99999H260.186V71.7H262.186ZM261.186 3.99999H280.986V1.99999H261.186V3.99999ZM279.986 2.99999V71.1H281.986V2.99999H279.986ZM279.986 71.1C279.986 78.9605 278.366 85.7362 275.164 91.4619L276.909 92.4382C280.307 86.3638 281.986 79.2395 281.986 71.1H279.986ZM275.161 91.4669C272.062 97.0839 267.512 101.447 261.478 104.561L262.395 106.339C268.761 103.053 273.611 98.4161 276.912 92.4331L275.161 91.4669ZM261.483 104.559C255.555 107.571 248.368 109.1 239.886 109.1V111.1C248.604 111.1 256.118 109.529 262.389 106.341L261.483 104.559ZM293.568 108L292.703 107.498L291.83 109H293.568V108ZM324.318 55.05L325.182 55.5522L325.475 55.0481L325.181 54.545L324.318 55.05ZM293.868 2.99999V1.99999H292.124L293.004 3.50495L293.868 2.99999ZM316.368 2.99999L317.244 2.51847L316.959 1.99999H316.368V2.99999ZM337.218 40.95L336.341 41.4315L336.626 41.95H337.218V40.95ZM339.918 40.95V41.95H340.509L340.794 41.4315L339.918 40.95ZM360.768 2.99999V1.99999H360.176L359.891 2.51847L360.768 2.99999ZM383.268 2.99999L384.131 3.50495L385.011 1.99999H383.268V2.99999ZM352.818 55.05L351.954 54.545L351.66 55.0481L351.953 55.5522L352.818 55.05ZM383.568 108V109H385.305L384.432 107.498L383.568 108ZM361.068 108L360.189 108.478L360.473 109H361.068V108ZM339.918 69.15L340.796 68.6719L340.512 68.15H339.918V69.15ZM337.218 69.15V68.15H336.623L336.339 68.6719L337.218 69.15ZM316.068 108V109H316.662L316.946 108.478L316.068 108ZM294.432 108.502L325.182 55.5522L323.453 54.5478L292.703 107.498L294.432 108.502ZM325.181 54.545L294.731 2.49504L293.004 3.50495L323.454 55.555L325.181 54.545ZM293.868 3.99999H316.368V1.99999H293.868V3.99999ZM315.491 3.48151L336.341 41.4315L338.094 40.4685L317.244 2.51847L315.491 3.48151ZM337.218 41.95H339.918V39.95H337.218V41.95ZM340.794 41.4315L361.644 3.48151L359.891 2.51847L339.041 40.4685L340.794 41.4315ZM360.768 3.99999H383.268V1.99999H360.768V3.99999ZM382.404 2.49504L351.954 54.545L353.681 55.555L384.131 3.50495L382.404 2.49504ZM351.953 55.5522L382.703 108.502L384.432 107.498L353.682 54.5478L351.953 55.5522ZM383.568 107H361.068V109H383.568V107ZM361.946 107.522L340.796 68.6719L339.039 69.6281L360.189 108.478L361.946 107.522ZM339.918 68.15H337.218V70.15H339.918V68.15ZM336.339 68.6719L315.189 107.522L316.946 108.478L338.096 69.6281L336.339 68.6719ZM316.068 107H293.568V109H316.068V107ZM431.787 108H430.787V109H431.787V108ZM431.787 90.6V89.6H430.787V90.6H431.787ZM445.587 90.6V91.6H446.587V90.6H445.587ZM445.587 20.4H446.587V19.4H445.587V20.4ZM431.787 20.4H430.787V21.4H431.787V20.4ZM431.787 2.99999V1.99999H430.787V2.99999H431.787ZM507.087 13.8L506.384 14.512L506.394 14.5216L507.087 13.8ZM507.087 97.35L507.784 98.0669L507.784 98.0667L507.087 97.35ZM465.387 90H464.387V91H465.387V90ZM492.837 83.7L493.587 84.361L492.837 83.7ZM492.837 27.3L492.086 27.9611L492.094 27.97L492.837 27.3ZM465.387 21V20H464.387V21H465.387ZM432.787 108V90.6H430.787V108H432.787ZM431.787 91.6H445.587V89.6H431.787V91.6ZM446.587 90.6V20.4H444.587V90.6H446.587ZM445.587 19.4H431.787V21.4H445.587V19.4ZM432.787 20.4V2.99999H430.787V20.4H432.787ZM431.787 3.99999H474.987V1.99999H431.787V3.99999ZM474.987 3.99999C488.924 3.99999 499.333 7.55679 506.385 14.512L507.789 13.088C500.241 5.6432 489.249 1.99999 474.987 1.99999V3.99999ZM506.394 14.5216C513.533 21.3709 517.187 31.6674 517.187 45.6H519.187C519.187 31.3326 515.44 20.4291 507.779 13.0784L506.394 14.5216ZM517.187 45.6V65.4H519.187V45.6H517.187ZM517.187 65.4C517.187 79.3316 513.534 89.6822 506.389 96.6333L507.784 98.0667C515.44 90.6178 519.187 79.6684 519.187 65.4H517.187ZM506.39 96.6331C499.338 103.491 488.928 107 474.987 107V109C489.245 109 500.235 105.409 507.784 98.0669L506.39 96.6331ZM474.987 107H431.787V109H474.987V107ZM465.387 91H475.287V89H465.387V91ZM475.287 91C483.447 91 489.627 88.8562 493.587 84.361L492.086 83.039C488.646 86.9438 483.126 89 475.287 89V91ZM493.587 84.361C497.498 79.9219 499.387 73.7557 499.387 66H497.387C497.387 73.4443 495.576 79.0781 492.086 83.039L493.587 84.361ZM499.387 66V45H497.387V66H499.387ZM499.387 45C499.387 37.1502 497.5 30.9753 493.579 26.63L492.094 27.97C495.573 31.8247 497.387 37.4498 497.387 45H499.387ZM493.587 26.639C489.627 22.1438 483.447 20 475.287 20V22C483.126 22 488.646 24.0562 492.086 27.961L493.587 26.639ZM475.287 20H465.387V22H475.287V20ZM464.387 21V90H466.387V21H464.387ZM534.689 108H533.689V109H534.689V108ZM534.689 2.99999V1.99999H533.689V2.99999H534.689ZM602.189 2.99999H603.189V1.99999H602.189V2.99999ZM602.189 21V22H603.189V21H602.189ZM554.489 21V20H553.489V21H554.489ZM554.489 46.05H553.489V47.05H554.489V46.05ZM597.989 46.05H598.989V45.05H597.989V46.05ZM597.989 64.05V65.05H598.989V64.05H597.989ZM554.489 64.05V63.05H553.489V64.05H554.489ZM554.489 90H553.489V91H554.489V90ZM603.089 90H604.089V89H603.089V90ZM603.089 108V109H604.089V108H603.089ZM535.689 108V2.99999H533.689V108H535.689ZM534.689 3.99999H602.189V1.99999H534.689V3.99999ZM601.189 2.99999V21H603.189V2.99999H601.189ZM602.189 20H554.489V22H602.189V20ZM553.489 21V46.05H555.489V21H553.489ZM554.489 47.05H597.989V45.05H554.489V47.05ZM596.989 46.05V64.05H598.989V46.05H596.989ZM597.989 63.05H554.489V65.05H597.989V63.05ZM553.489 64.05V90H555.489V64.05H553.489ZM554.489 91H603.089V89H554.489V91ZM602.089 90V108H604.089V90H602.089ZM603.089 107H534.689V109H603.089V107ZM632.746 105.75L632.322 106.656L632.746 105.75ZM618.196 93.3L619.035 92.7561L618.196 93.3ZM612.946 69.6V68.6H611.946V69.6H612.946ZM632.446 69.6H633.446V68.6H632.446V69.6ZM638.296 88.05L637.661 88.8231L637.667 88.828L637.673 88.8328L638.296 88.05ZM669.346 88.65L668.724 87.8669L668.718 87.8714L668.712 87.876L669.346 88.65ZM671.896 71.25L671.148 71.9144L671.158 71.9256L671.169 71.9366L671.896 71.25ZM664.696 66.9L664.335 67.8326L664.353 67.8395L664.371 67.8457L664.696 66.9ZM653.296 63.6L653.513 62.6238L653.508 62.6228L653.296 63.6ZM649.846 62.85L649.629 63.8262L649.633 63.8272L649.846 62.85ZM631.246 56.85L630.806 57.7479L630.816 57.7531L630.827 57.758L631.246 56.85ZM619.396 47.1L618.567 47.6595L618.572 47.6665L618.576 47.6735L619.396 47.1ZM619.846 15.15L619.016 14.5911L619.014 14.5953L619.846 15.15ZM632.746 4.65L633.146 5.56657L633.153 5.56314L632.746 4.65ZM672.346 4.8L671.937 5.71251L671.946 5.71672L671.956 5.72075L672.346 4.8ZM686.146 16.2L685.306 16.7432L685.312 16.7528L685.319 16.7623L686.146 16.2ZM691.246 39.6V40.6H692.246V39.6H691.246ZM671.746 39.6H670.746V40.6H671.746V39.6ZM669.346 25.5L668.488 26.0145L668.5 26.0349L668.514 26.0547L669.346 25.5ZM662.746 20.1L662.363 21.024L662.377 21.0297L662.391 21.035L662.746 20.1ZM639.046 21.75L639.664 22.5363L639.667 22.5335L639.046 21.75ZM636.796 37.5L635.985 38.0855L635.995 38.0999L636.006 38.1139L636.796 37.5ZM653.296 45.15L653.508 44.1728L653.505 44.1722L653.296 45.15ZM656.746 45.9L656.533 46.8772L656.537 46.878L656.746 45.9ZM676.246 52.05L675.832 52.9604L675.838 52.9631L676.246 52.05ZM689.296 61.95L690.093 61.3469L689.296 61.95ZM688.996 94.65L688.166 94.0914L688.164 94.0953L688.996 94.65ZM675.196 106.05L675.612 106.959L675.619 106.956L675.196 106.05ZM654.196 109.1C646.216 109.1 639.215 107.672 633.169 104.844L632.322 106.656C638.677 109.628 645.976 111.1 654.196 111.1V109.1ZM633.169 104.844C627.128 102.018 622.426 97.9888 619.035 92.7561L617.357 93.8439C620.965 99.4112 625.964 103.682 632.322 106.656L633.169 104.844ZM619.035 92.7561C615.658 87.5455 613.946 81.2425 613.946 73.8H611.946C611.946 81.5575 613.734 88.2545 617.357 93.8439L619.035 92.7561ZM613.946 73.8V69.6H611.946V73.8H613.946ZM612.946 70.6H632.446V68.6H612.946V70.6ZM631.446 69.6V73.8H633.446V69.6H631.446ZM631.446 73.8C631.446 80.3181 633.474 85.3869 637.661 88.8231L638.93 87.2769C635.318 84.3131 633.446 79.8819 633.446 73.8H631.446ZM637.673 88.8328C641.803 92.1152 647.347 93.7 654.196 93.7V91.7C647.644 91.7 642.589 90.1848 638.918 87.2672L637.673 88.8328ZM654.196 93.7C661.098 93.7 666.421 92.3349 669.979 89.424L668.712 87.876C665.67 90.3651 660.894 91.7 654.196 91.7V93.7ZM669.968 89.4331C673.597 86.5508 675.446 82.8168 675.446 78.3H673.446C673.446 82.1832 671.894 85.3492 668.724 87.8669L669.968 89.4331ZM675.446 78.3C675.446 75.1914 674.528 72.5804 672.623 70.5634L671.169 71.9366C672.664 73.5196 673.446 75.6086 673.446 78.3H675.446ZM672.643 70.5856C670.892 68.6155 668.321 67.0888 665.021 65.9543L664.371 67.8457C667.47 68.9112 669.7 70.2845 671.148 71.9144L672.643 70.5856ZM665.057 65.9674C661.896 64.7439 658.044 63.6309 653.513 62.6238L653.079 64.5762C657.547 65.5691 661.296 66.6561 664.335 67.8326L665.057 65.9674ZM653.508 62.6228L650.058 61.8728L649.633 63.8272L653.083 64.5772L653.508 62.6228ZM650.063 61.8738C642.913 60.2851 636.785 58.305 631.665 55.942L630.827 57.758C636.107 60.1949 642.378 62.2149 649.629 63.8262L650.063 61.8738ZM631.686 55.9521C626.713 53.5142 622.903 50.367 620.215 46.5265L618.576 47.6735C621.488 51.833 625.579 55.1858 630.806 57.7479L631.686 55.9521ZM620.225 46.5405C617.667 42.7518 616.346 37.7646 616.346 31.5H614.346C614.346 38.0354 615.724 43.4482 618.567 47.6595L620.225 46.5405ZM616.346 31.5C616.346 25.2605 617.806 20.0122 620.678 15.7047L619.014 14.5953C615.885 19.2878 614.346 24.9395 614.346 31.5H616.346ZM620.675 15.7089C623.66 11.2794 627.805 7.897 633.146 5.56654L632.346 3.73346C626.686 6.20299 622.231 9.82063 619.016 14.5911L620.675 15.7089ZM633.153 5.56314C638.6 3.13168 645.006 1.89999 652.396 1.89999V-0.100006C644.786 -0.100006 638.092 1.16831 632.338 3.73686L633.153 5.56314ZM652.396 1.89999C659.78 1.89999 666.286 3.17962 671.937 5.71251L672.755 3.88749C666.805 1.22037 660.012 -0.100006 652.396 -0.100006V1.89999ZM671.956 5.72075C677.682 8.14722 682.121 11.8207 685.306 16.7432L686.985 15.6567C683.57 10.3793 678.809 6.45277 672.736 3.87925L671.956 5.72075ZM685.319 16.7623C688.58 21.5584 690.246 27.6489 690.246 35.1H692.246C692.246 27.3511 690.511 20.8416 686.973 15.6377L685.319 16.7623ZM690.246 35.1V39.6H692.246V35.1H690.246ZM691.246 38.6H671.746V40.6H691.246V38.6ZM672.746 39.6V35.1H670.746V39.6H672.746ZM672.746 35.1C672.746 30.9764 671.922 27.5618 670.178 24.9453L668.514 26.0547C669.969 28.2382 670.746 31.2236 670.746 35.1H672.746ZM670.203 24.9855C668.58 22.28 666.196 20.3392 663.1 19.165L662.391 21.035C665.095 22.0608 667.112 23.72 668.488 26.0145L670.203 24.9855ZM663.128 19.176C660.079 17.9141 656.492 17.3 652.396 17.3V19.3C656.299 19.3 659.613 19.8859 662.363 21.024L663.128 19.176ZM652.396 17.3C646.3 17.3 641.581 18.4626 638.424 20.9665L639.667 22.5335C642.31 20.4373 646.491 19.3 652.396 19.3V17.3ZM638.428 20.9637C635.361 23.373 633.846 26.7266 633.846 30.9H635.846C635.846 27.2734 637.13 24.527 639.664 22.5363L638.428 20.9637ZM633.846 30.9C633.846 33.6731 634.542 36.0873 635.985 38.0855L637.606 36.9145C636.45 35.3127 635.846 33.3269 635.846 30.9H633.846ZM636.006 38.1139C637.533 40.0767 639.732 41.6661 642.54 42.9138L643.352 41.0862C640.759 39.9339 638.858 38.5233 637.585 36.8861L636.006 38.1139ZM642.54 42.9138C645.324 44.1514 648.846 45.2192 653.086 46.1278L653.505 44.1722C649.345 43.2808 645.967 42.2486 643.352 41.0862L642.54 42.9138ZM653.083 46.1272L656.533 46.8772L656.958 44.9228L653.508 44.1728L653.083 46.1272ZM656.537 46.878C663.984 48.4667 670.412 50.497 675.832 52.9604L676.659 51.1396C671.079 48.603 664.507 46.5332 656.954 44.922L656.537 46.878ZM675.838 52.9631C681.314 55.4076 685.518 58.6115 688.498 62.5531L690.093 61.3469C686.874 57.0885 682.378 53.6924 676.653 51.1369L675.838 52.9631ZM688.498 62.5531C691.437 66.4406 692.946 71.4634 692.946 77.7H694.946C694.946 71.1366 693.354 65.6594 690.093 61.3469L688.498 62.5531ZM692.946 77.7C692.946 83.9183 691.346 89.3703 688.166 94.0914L689.825 95.2086C693.246 90.1297 694.946 84.2817 694.946 77.7H692.946ZM688.164 94.0953C685.08 98.7214 680.632 102.41 674.773 105.144L675.619 106.956C681.76 104.09 686.512 100.179 689.828 95.2047L688.164 94.0953ZM674.78 105.141C669.038 107.768 662.187 109.1 654.196 109.1V111.1C662.405 111.1 669.553 109.732 675.612 106.959L674.78 105.141ZM708.713 108H707.713V109H708.713V108ZM708.713 2.99999V1.99999H707.713V2.99999H708.713ZM728.513 2.99999H729.513V1.99999H728.513V2.99999ZM728.513 108V109H729.513V108H728.513ZM709.713 108V2.99999H707.713V108H709.713ZM708.713 3.99999H728.513V1.99999H708.713V3.99999ZM727.513 2.99999V108H729.513V2.99999H727.513ZM728.513 107H708.713V109H728.513V107ZM764.913 105.3L764.419 106.169L764.428 106.174L764.437 106.179L764.913 105.3ZM750.963 91.05L750.083 91.5249L750.088 91.5333L750.092 91.5416L750.963 91.05ZM757.263 11.85L757.951 12.576L757.956 12.5712L757.263 11.85ZM818.013 11.25L817.311 11.9622L817.316 11.9672L817.322 11.9722L818.013 11.25ZM828.663 39.6V40.6H829.663V39.6H828.663ZM809.163 39.6H808.163V40.6H809.163V39.6ZM806.763 28.35L805.869 28.7972L805.875 28.809L805.881 28.8206L806.763 28.35ZM799.863 21.3L799.361 22.1648L799.372 22.1709L799.382 22.1768L799.863 21.3ZM771.663 86.1L770.916 86.7644L770.923 86.7727L771.663 86.1ZM804.213 87L803.458 86.3443L804.213 87ZM809.163 71.1H810.163V70.1H809.163V71.1ZM784.263 71.1H783.263V72.1H784.263V71.1ZM784.263 54.3V53.3H783.263V54.3H784.263ZM828.663 54.3H829.663V53.3H828.663V54.3ZM828.663 108V109H829.663V108H828.663ZM810.363 108H809.363V109H810.363V108ZM810.363 97.95H811.363V96.95H810.363V97.95ZM807.663 97.95V96.95H806.994L806.739 97.5692L807.663 97.95ZM804.213 103.35L803.448 102.706L803.438 102.718L803.428 102.73L804.213 103.35ZM797.313 108.15L796.927 107.228L797.313 108.15ZM784.563 109.1C777.517 109.1 771.133 107.536 765.39 104.421L764.437 106.179C770.493 109.464 777.209 111.1 784.563 111.1V109.1ZM765.408 104.431C759.776 101.226 755.251 96.6118 751.834 90.5584L750.092 91.5416C753.675 97.8882 758.451 102.774 764.419 106.169L765.408 104.431ZM751.843 90.5751C748.54 84.4538 746.863 76.976 746.863 68.1H744.863C744.863 77.224 746.587 85.0462 750.083 91.5249L751.843 90.5751ZM746.863 68.1V42.9H744.863V68.1H746.863ZM746.863 42.9C746.863 29.5908 750.604 19.5363 757.951 12.5759L756.576 11.124C748.723 18.5637 744.863 29.2092 744.863 42.9H746.863ZM757.956 12.5712C765.328 5.48977 775.358 1.89999 788.163 1.89999V-0.100006C774.969 -0.100006 764.398 3.61021 756.571 11.1288L757.956 12.5712ZM788.163 1.89999C800.886 1.89999 810.551 5.29878 817.311 11.9622L818.715 10.5378C811.475 3.40121 801.241 -0.100006 788.163 -0.100006V1.89999ZM817.322 11.9722C824.188 18.548 827.663 27.5167 827.663 39H829.663C829.663 27.0833 826.039 17.5519 818.705 10.5278L817.322 11.9722ZM827.663 39V39.6H829.663V39H827.663ZM828.663 38.6H809.163V40.6H828.663V38.6ZM810.163 39.6V38.4H808.163V39.6H810.163ZM810.163 38.4C810.163 34.5507 809.33 31.0368 807.646 27.8794L805.881 28.8206C807.397 31.6632 808.163 34.8493 808.163 38.4H810.163ZM807.658 27.9028C806.062 24.7107 803.612 22.2154 800.344 20.4232L799.382 22.1768C802.314 23.7846 804.465 25.9893 805.869 28.7972L807.658 27.9028ZM800.365 20.4352C797.073 18.5232 792.986 17.6 788.163 17.6V19.6C792.74 19.6 796.454 20.4768 799.361 22.1648L800.365 20.4352ZM788.163 17.6C780.943 17.6 775.156 19.8267 770.931 24.3689L772.395 25.7311C776.17 21.6733 781.383 19.6 788.163 19.6V17.6ZM770.931 24.3689C766.717 28.8986 764.663 35.0158 764.663 42.6H766.663C766.663 35.3842 768.609 29.8014 772.395 25.7311L770.931 24.3689ZM764.663 42.6V68.4H766.663V42.6H764.663ZM764.663 68.4C764.663 75.8904 766.72 82.0443 770.916 86.7644L772.411 85.4356C768.606 81.1557 766.663 75.5096 766.663 68.4H764.663ZM770.923 86.7727C775.152 91.4244 781.046 93.7 788.463 93.7V91.7C781.481 91.7 776.174 89.5755 772.403 85.4273L770.923 86.7727ZM788.463 93.7C795.825 93.7 801.408 91.7556 804.968 87.6557L803.458 86.3443C800.419 89.8444 795.502 91.7 788.463 91.7V93.7ZM804.968 87.6557C808.45 83.6464 810.163 78.602 810.163 72.6H808.163C808.163 78.198 806.576 82.7536 803.458 86.3443L804.968 87.6557ZM810.163 72.6V71.1H808.163V72.6H810.163ZM809.163 70.1H784.263V72.1H809.163V70.1ZM785.263 71.1V54.3H783.263V71.1H785.263ZM784.263 55.3H828.663V53.3H784.263V55.3ZM827.663 54.3V108H829.663V54.3H827.663ZM828.663 107H810.363V109H828.663V107ZM811.363 108V97.95H809.363V108H811.363ZM810.363 96.95H807.663V98.95H810.363V96.95ZM806.739 97.5692C806.089 99.1469 805.004 100.859 803.448 102.706L804.978 103.994C806.623 102.041 807.838 100.153 808.588 98.3307L806.739 97.5692ZM803.428 102.73C802.066 104.456 799.928 105.969 796.927 107.228L797.7 109.072C800.899 107.731 803.36 106.044 804.998 103.97L803.428 102.73ZM796.927 107.228C794.001 108.455 789.901 109.1 784.563 109.1V111.1C790.025 111.1 794.426 110.445 797.7 109.072L796.927 107.228ZM847.58 108H846.58V109H847.58V108ZM847.58 2.99999V1.99999H846.58V2.99999H847.58ZM885.23 2.99999L886.205 2.77782L886.027 1.99999H885.23V2.99999ZM906.08 94.5L905.105 94.7222L905.282 95.5H906.08V94.5ZM908.78 94.5V95.5H909.78V94.5H908.78ZM908.78 2.99999V1.99999H907.78V2.99999H908.78ZM928.28 2.99999H929.28V1.99999H928.28V2.99999ZM928.28 108V109H929.28V108H928.28ZM890.63 108L889.655 108.222L889.832 109H890.63V108ZM869.78 16.5L870.755 16.2778L870.577 15.5H869.78V16.5ZM867.08 16.5V15.5H866.08V16.5H867.08ZM867.08 108V109H868.08V108H867.08ZM848.58 108V2.99999H846.58V108H848.58ZM847.58 3.99999H885.23V1.99999H847.58V3.99999ZM884.255 3.22217L905.105 94.7222L907.055 94.2778L886.205 2.77782L884.255 3.22217ZM906.08 95.5H908.78V93.5H906.08V95.5ZM909.78 94.5V2.99999H907.78V94.5H909.78ZM908.78 3.99999H928.28V1.99999H908.78V3.99999ZM927.28 2.99999V108H929.28V2.99999H927.28ZM928.28 107H890.63V109H928.28V107ZM891.605 107.778L870.755 16.2778L868.805 16.7222L889.655 108.222L891.605 107.778ZM869.78 15.5H867.08V17.5H869.78V15.5ZM866.08 16.5V108H868.08V16.5H866.08ZM867.08 107H847.58V109H867.08V107ZM948.068 108H947.068V109H948.068V108ZM948.068 2.99999V1.99999H947.068V2.99999H948.068ZM1015.57 2.99999H1016.57V1.99999H1015.57V2.99999ZM1015.57 21V22H1016.57V21H1015.57ZM967.868 21V20H966.868V21H967.868ZM967.868 46.05H966.868V47.05H967.868V46.05ZM1011.37 46.05H1012.37V45.05H1011.37V46.05ZM1011.37 64.05V65.05H1012.37V64.05H1011.37ZM967.868 64.05V63.05H966.868V64.05H967.868ZM967.868 90H966.868V91H967.868V90ZM1016.47 90H1017.47V89H1016.47V90ZM1016.47 108V109H1017.47V108H1016.47ZM949.068 108V2.99999H947.068V108H949.068ZM948.068 3.99999H1015.57V1.99999H948.068V3.99999ZM1014.57 2.99999V21H1016.57V2.99999H1014.57ZM1015.57 20H967.868V22H1015.57V20ZM966.868 21V46.05H968.868V21H966.868ZM967.868 47.05H1011.37V45.05H967.868V47.05ZM1010.37 46.05V64.05H1012.37V46.05H1010.37ZM1011.37 63.05H967.868V65.05H1011.37V63.05ZM966.868 64.05V90H968.868V64.05H966.868ZM967.868 91H1016.47V89H967.868V91ZM1015.47 90V108H1017.47V90H1015.47ZM1016.47 107H948.068V109H1016.47V107ZM1031.12 108H1030.12V109H1031.12V108ZM1031.12 2.99999V1.99999H1030.12V2.99999H1031.12ZM1093.97 6.44999L1093.55 7.35523L1093.97 6.44999ZM1105.37 16.2L1106.22 15.6592L1105.37 16.2ZM1104.92 48.15L1105.72 48.7597L1104.92 48.15ZM1093.82 56.7L1093.45 55.7745L1092.82 56.0286V56.7H1093.82ZM1093.82 59.4H1092.82V60.3512L1093.77 60.3988L1093.82 59.4ZM1103.12 63.6L1102.36 64.2459L1102.37 64.2533L1102.37 64.2606L1103.12 63.6ZM1106.42 108V109H1107.42V108H1106.42ZM1086.62 108H1085.62V109H1086.62V108ZM1084.67 70.65L1083.89 71.2747L1083.91 71.2901L1083.92 71.3049L1084.67 70.65ZM1050.92 68.4V67.4H1049.92V68.4H1050.92ZM1050.92 108V109H1051.92V108H1050.92ZM1050.92 50.4H1049.92V51.4H1050.92V50.4ZM1085.57 46.65L1086.27 47.3708L1086.27 47.3703L1085.57 46.65ZM1085.72 24.9L1085.02 25.6071L1085.02 25.614L1085.03 25.6208L1085.72 24.9ZM1050.92 21V20H1049.92V21H1050.92ZM1032.12 108V2.99999H1030.12V108H1032.12ZM1031.12 3.99999H1076.72V1.99999H1031.12V3.99999ZM1076.72 3.99999C1083.21 3.99999 1088.81 5.1298 1093.55 7.35523L1094.4 5.54476C1089.34 3.17019 1083.44 1.99999 1076.72 1.99999V3.99999ZM1093.55 7.35523C1098.29 9.58229 1101.94 12.7123 1104.53 16.7407L1106.22 15.6592C1103.41 11.2877 1099.45 7.91769 1094.4 5.54476L1093.55 7.35523ZM1104.53 16.7407C1107.12 20.7575 1108.42 25.5139 1108.42 31.05H1110.42C1110.42 25.1861 1109.03 20.0425 1106.22 15.6592L1104.53 16.7407ZM1108.42 31.05V32.85H1110.42V31.05H1108.42ZM1108.42 32.85C1108.42 38.9919 1106.96 43.8589 1104.13 47.5403L1105.72 48.7597C1108.89 44.6411 1110.42 39.3081 1110.42 32.85H1108.42ZM1104.13 47.5403C1101.24 51.3054 1097.68 54.0437 1093.45 55.7745L1094.2 57.6255C1098.77 55.7563 1102.61 52.7946 1105.72 48.7597L1104.13 47.5403ZM1092.82 56.7V59.4H1094.82V56.7H1092.82ZM1093.77 60.3988C1097.55 60.5876 1100.37 61.8945 1102.36 64.2459L1103.89 62.9541C1101.48 60.1055 1098.1 58.6124 1093.87 58.4012L1093.77 60.3988ZM1102.37 64.2606C1104.37 66.5342 1105.42 69.6275 1105.42 73.65H1107.42C1107.42 69.2724 1106.27 65.6658 1103.88 62.9394L1102.37 64.2606ZM1105.42 73.65V108H1107.42V73.65H1105.42ZM1106.42 107H1086.62V109H1106.42V107ZM1087.62 108V76.5H1085.62V108H1087.62ZM1087.62 76.5C1087.62 73.912 1086.92 71.713 1085.43 69.9951L1083.92 71.3049C1085.03 72.587 1085.62 74.288 1085.62 76.5H1087.62ZM1085.46 70.0253C1083.98 68.1872 1081.57 67.4 1078.52 67.4V69.4C1081.28 69.4 1082.96 70.1128 1083.89 71.2747L1085.46 70.0253ZM1078.52 67.4H1050.92V69.4H1078.52V67.4ZM1049.92 68.4V108H1051.92V68.4H1049.92ZM1050.92 107H1031.12V109H1050.92V107ZM1050.92 51.4H1074.62V49.4H1050.92V51.4ZM1074.62 51.4C1079.5 51.4 1083.43 50.0992 1086.27 47.3708L1084.88 45.9292C1082.52 48.2008 1079.15 49.4 1074.62 49.4V51.4ZM1086.27 47.3703C1089.19 44.5582 1090.62 40.8857 1090.62 36.45H1088.62C1088.62 40.4142 1087.36 43.5418 1084.88 45.9297L1086.27 47.3703ZM1090.62 36.45V34.95H1088.62V36.45H1090.62ZM1090.62 34.95C1090.62 30.5266 1089.25 26.8989 1086.42 24.1792L1085.03 25.6208C1087.4 27.9011 1088.62 30.9734 1088.62 34.95H1090.62ZM1086.43 24.1929C1083.59 21.3531 1079.61 20 1074.62 20V22C1079.24 22 1082.66 23.2469 1085.02 25.6071L1086.43 24.1929ZM1074.62 20H1050.92V22H1074.62V20ZM1049.92 21V50.4H1051.92V21H1049.92Z" fill="#FAFAFA" fill-opacity="0.18"/>
</svg>
