<svg width="1236" height="731" viewBox="0 0 1236 731" fill="none" xmlns="http://www.w3.org/2000/svg">
<path d="M1225.14 494.81C1214.59 502.424 1195.71 499.886 1165.82 486.831C1138.2 474.777 1103.82 455.096 1064 432.303C932.23 356.875 751.751 253.569 597.192 298.6C460.454 338.439 346.543 472.696 255.016 580.562C218.622 623.479 184.258 663.969 154.068 691.473C146.619 698.346 138.778 704.801 130.581 710.804C108.231 726.955 89.7583 733.014 73.5643 729.774C48.3363 724.73 28.1943 696.401 11.9863 643.17C0.995309 607.064 -2.27469 565.701 2.27331 520.224C6.56131 477.306 17.8163 430.471 35.7273 380.969C69.2193 288.41 125.764 187.219 199.239 88.3292C270.026 -6.94727 352.185 -94.5675 436.835 -165.072C524.641 -238.197 609.749 -288.128 682.964 -309.458C718.9 -319.934 754.095 -322.481 787.568 -317.036C818.99 -311.932 849.74 -299.628 879.02 -280.505C906.22 -262.734 932.92 -238.543 958.39 -208.598C981.76 -181.108 1004.81 -147.923 1026.89 -109.967C1064.45 -45.3604 1100.15 34.0685 1136.03 132.922C1167.01 218.267 1192.96 303.718 1215.86 379.114C1218.14 386.621 1220.39 394.018 1222.61 401.306C1238.68 454.09 1239.63 483.693 1225.59 494.473L1225.14 494.81ZM596.927 297.76C633.311 287.146 673.742 284.262 717.107 289.154C755.317 293.459 795.536 303.492 840.08 319.819C921.31 349.588 1000.69 395.048 1064.47 431.533C1104.26 454.306 1138.62 473.988 1166.19 486.014C1195.75 498.936 1214.34 501.492 1224.59 494.09C1224.73 493.984 1224.88 493.878 1225.02 493.767C1231.73 488.621 1234.81 479 1234.46 464.381C1234.08 449 1229.92 428.45 1221.72 401.56C1219.52 394.284 1217.27 386.887 1214.97 379.367C1168.49 226.319 1110.63 35.8405 1026.08 -109.524C926.04 -281.539 813.89 -346.653 683.247 -308.585C626.169 -291.973 562.294 -257.875 496.866 -210.62C395.3 -137.245 289.923 -32.1576 200.004 88.8781C126.595 187.689 70.0833 288.808 36.6143 381.283C-0.651684 484.238 -8.62369 572.269 12.8873 642.939C28.9863 695.824 48.9023 723.951 73.7713 728.925C94.9993 733.171 120.33 721.081 153.492 690.845C183.602 663.382 217.957 622.888 254.332 580.017C345.916 472.031 459.926 337.664 596.927 297.746V297.76Z" fill="url(#paint0_linear_525_699)"/>
<defs>
<linearGradient id="paint0_linear_525_699" x1="596088" y1="524485" x2="3.2659e+06" y2="-1.48822e+06" gradientUnits="userSpaceOnUse">
<stop stop-color="#3DDEED"/>
<stop offset="1" stop-color="#CB00DD"/>
</linearGradient>
</defs>
</svg>
