<svg width="1193" height="728" viewBox="0 0 1193 728" fill="none" xmlns="http://www.w3.org/2000/svg">
<path d="M1183.53 505.313C1173.65 512.447 1155.46 509.217 1126.33 495.161C1099.61 482.267 1066.22 461.667 1027.56 437.818C963.95 398.592 884.79 349.75 804.05 317.11C709.632 278.937 631.355 269.919 564.739 289.531C431.303 328.818 322.572 466.822 235.2 577.714C189.155 636.155 149.555 686.41 115.411 711.08C98.3631 723.393 82.6791 729.322 68.2391 726.719C45.1251 722.567 26.459 696.322 11.161 646.524C0.538048 612.001 -2.28295 572.038 2.77405 527.741C7.49605 486.015 19.289 440.167 37.719 391.477C72.122 300.639 129.497 200.629 203.595 102.256C239.02 55.2515 277.025 10.1627 317.444 -32.813C357.673 -75.5594 399.09 -114.849 440.563 -149.566C527.44 -222.406 610.401 -271.783 680.461 -292.397C708.924 -300.778 736.827 -303.662 763.384 -300.972C788.57 -298.42 813.27 -290.782 836.8 -278.267C874.86 -258.022 911.44 -224.122 945.54 -177.509C975.67 -136.313 1003.9 -85.7488 1031.86 -22.9142C1082.97 91.9564 1121.67 222.429 1155.81 337.544C1164.44 366.649 1172.59 394.125 1180.53 419.968C1195.49 468.598 1196.5 495.677 1183.72 505.188C1183.66 505.221 1183.59 505.267 1183.53 505.313ZM564.512 288.794C599.938 278.364 639.615 276.08 682.442 282.01C720.151 287.234 760.03 298.48 804.35 316.399C885.15 349.062 964.34 397.914 1027.98 437.167C1066.62 461.007 1100 481.593 1126.68 494.469C1155.52 508.387 1173.45 511.64 1183.06 504.695L1183.25 504.561C1189.35 500.016 1192.12 491.289 1191.74 477.879C1191.31 463.799 1187.41 444.919 1179.79 420.194C1171.86 394.384 1163.7 366.889 1155.06 337.78C1120.91 222.66 1082.21 92.2098 1031.13 -22.5866C971.75 -156.059 908.06 -239.48 836.42 -277.57C788.31 -303.164 735.907 -307.899 680.682 -291.636C540.653 -250.408 353.63 -95.6105 204.246 102.731C130.186 201.048 72.8671 300.995 38.4741 391.767C0.0620537 493.149 -8.88194 578.793 11.8931 646.321C27.1201 695.819 45.5971 721.874 68.3811 725.982C88.0661 729.53 111.425 717.176 141.894 687.111C169.579 659.787 199.712 621.545 234.596 577.28C322.015 466.268 430.836 328.135 564.512 288.794Z" fill="url(#paint0_linear_525_700)"/>
<defs>
<linearGradient id="paint0_linear_525_700" x1="647756" y1="512439" x2="3.16827e+06" y2="-1.38771e+06" gradientUnits="userSpaceOnUse">
<stop stop-color="#3DDEED"/>
<stop offset="1" stop-color="#CB00DD"/>
</linearGradient>
</defs>
</svg>
